<?xml version="1.0" encoding="utf-8" standalone="no"?>
<!DOCTYPE svg PUBLIC "-//W3C//DTD SVG 1.1//EN"
  "http://www.w3.org/Graphics/SVG/1.1/DTD/svg11.dtd">
<svg xmlns:xlink="http://www.w3.org/1999/xlink" width="739.8pt" height="291.6pt" viewBox="0 0 739.8 291.6" xmlns="http://www.w3.org/2000/svg" version="1.1">
 <metadata>
  <rdf:RDF xmlns:dc="http://purl.org/dc/elements/1.1/" xmlns:cc="http://creativecommons.org/ns#" xmlns:rdf="http://www.w3.org/1999/02/22-rdf-syntax-ns#">
   <cc:Work>
    <dc:type rdf:resource="http://purl.org/dc/dcmitype/StillImage"/>
    <dc:date>2026-04-26T19:59:55.875708</dc:date>
    <dc:format>image/svg+xml</dc:format>
    <dc:creator>
     <cc:Agent>
      <dc:title>Matplotlib v3.10.9, https://matplotlib.org/</dc:title>
     </cc:Agent>
    </dc:creator>
   </cc:Work>
  </rdf:RDF>
 </metadata>
 <defs>
  <style type="text/css">*{stroke-linejoin: round; stroke-linecap: butt}</style>
 </defs>
 <g id="figure_1">
  <g id="patch_1">
   <path d="M 0 291.6 
L 739.8 291.6 
L 739.8 0 
L 0 0 
z
" style="fill: #ffffff"/>
  </g>
  <g id="axes_1">
   <g id="patch_2">
    <path d="M 14.454 184.608 
L 116.01 184.608 
L 116.01 106.992 
L 14.454 106.992 
z
" clip-path="url(#pd51a913cb1)" style="fill: #f0f0f0; stroke: #444444; stroke-width: 1.1; stroke-linejoin: miter"/>
   </g>
   <g id="patch_3">
    <path d="M 116.01 184.608 
L 217.566 184.608 
L 217.566 106.992 
L 116.01 106.992 
z
" clip-path="url(#pd51a913cb1)" style="fill: #f0f0f0; stroke: #444444; stroke-width: 1.1; stroke-linejoin: miter"/>
   </g>
   <g id="patch_4">
    <path d="M 232.074 184.608 
L 333.63 184.608 
L 333.63 106.992 
L 232.074 106.992 
z
" clip-path="url(#pd51a913cb1)" style="fill: #f0f0f0; stroke: #444444; stroke-width: 1.1; stroke-linejoin: miter"/>
   </g>
   <g id="patch_5">
    <path d="M 340.884 184.608 
L 442.44 184.608 
L 442.44 106.992 
L 340.884 106.992 
z
" clip-path="url(#pd51a913cb1)" style="fill: #f0f0f0; stroke: #444444; stroke-width: 1.1; stroke-linejoin: miter"/>
   </g>
   <g id="patch_6">
    <path d="M 456.948 184.608 
L 558.504 184.608 
L 558.504 106.992 
L 456.948 106.992 
z
" clip-path="url(#pd51a913cb1)" style="fill: #f0f0f0; stroke: #444444; stroke-width: 1.1; stroke-linejoin: miter"/>
   </g>
   <g id="patch_7">
    <path d="M 580.266 184.608 
L 681.822 184.608 
L 681.822 106.992 
L 580.266 106.992 
z
" clip-path="url(#pd51a913cb1)" style="fill: #f0f0f0; stroke: #444444; stroke-width: 1.1; stroke-linejoin: miter"/>
   </g>
   <g id="patch_8">
    <path d="M 115.463116 145.8 
Q 115.011158 145.8 116.236251 145.8 
" clip-path="url(#pd51a913cb1)" style="fill: none; stroke: #2f2f2f; stroke-width: 1.5; stroke-linecap: round"/>
    <path d="M 121.436251 148.4 
L 116.236251 145.8 
L 121.436251 143.2 
z
" clip-path="url(#pd51a913cb1)" style="fill: #2f2f2f; stroke: #2f2f2f; stroke-width: 1.5; stroke-linecap: round"/>
   </g>
   <g id="patch_9">
    <path d="M 221.014484 145.8 
Q 224.817152 145.8 226.942769 145.8 
" clip-path="url(#pd51a913cb1)" style="fill: none; stroke: #2f2f2f; stroke-width: 1.5; stroke-linecap: round"/>
    <path d="M 221.742769 143.2 
L 226.942769 145.8 
L 221.742769 148.4 
z
" clip-path="url(#pd51a913cb1)" style="fill: #2f2f2f; stroke: #2f2f2f; stroke-width: 1.5; stroke-linecap: round"/>
   </g>
   <g id="patch_10">
    <path d="M 337.082734 145.8 
Q 337.259478 145.8 335.759171 145.8 
" clip-path="url(#pd51a913cb1)" style="fill: none; stroke: #2f2f2f; stroke-width: 1.5; stroke-linecap: round"/>
    <path d="M 330.559171 143.2 
L 335.759171 145.8 
L 330.559171 148.4 
z
" clip-path="url(#pd51a913cb1)" style="fill: #2f2f2f; stroke: #2f2f2f; stroke-width: 1.5; stroke-linecap: round"/>
   </g>
   <g id="patch_11">
    <path d="M 445.888484 145.8 
Q 449.691152 145.8 451.816769 145.8 
" clip-path="url(#pd51a913cb1)" style="fill: none; stroke: #2f2f2f; stroke-width: 1.5; stroke-linecap: round"/>
    <path d="M 446.616769 143.2 
L 451.816769 145.8 
L 446.616769 148.4 
z
" clip-path="url(#pd51a913cb1)" style="fill: #2f2f2f; stroke: #2f2f2f; stroke-width: 1.5; stroke-linecap: round"/>
   </g>
   <g id="patch_12">
    <path d="M 561.957797 145.8 
Q 569.388471 145.8 575.142094 145.8 
" clip-path="url(#pd51a913cb1)" style="fill: none; stroke: #2f2f2f; stroke-width: 1.5; stroke-linecap: round"/>
    <path d="M 569.942094 143.2 
L 575.142094 145.8 
L 569.942094 148.4 
z
" clip-path="url(#pd51a913cb1)" style="fill: #2f2f2f; stroke: #2f2f2f; stroke-width: 1.5; stroke-linecap: round"/>
   </g>
   <g id="text_1">
    <!-- internal scale -->
    <g transform="translate(31.574969 142.960469) scale(0.1 -0.1)">
     <defs>
      <path id="DejaVuSans-69" d="M 603 3500 
L 1178 3500 
L 1178 0 
L 603 0 
L 603 3500 
z
M 603 4863 
L 1178 4863 
L 1178 4134 
L 603 4134 
L 603 4863 
z
" transform="scale(0.015625)"/>
      <path id="DejaVuSans-6e" d="M 3513 2113 
L 3513 0 
L 2938 0 
L 2938 2094 
Q 2938 2591 2744 2837 
Q 2550 3084 2163 3084 
Q 1697 3084 1428 2787 
Q 1159 2491 1159 1978 
L 1159 0 
L 581 0 
L 581 3500 
L 1159 3500 
L 1159 2956 
Q 1366 3272 1645 3428 
Q 1925 3584 2291 3584 
Q 2894 3584 3203 3211 
Q 3513 2838 3513 2113 
z
" transform="scale(0.015625)"/>
      <path id="DejaVuSans-74" d="M 1172 4494 
L 1172 3500 
L 2356 3500 
L 2356 3053 
L 1172 3053 
L 1172 1153 
Q 1172 725 1289 603 
Q 1406 481 1766 481 
L 2356 481 
L 2356 0 
L 1766 0 
Q 1100 0 847 248 
Q 594 497 594 1153 
L 594 3053 
L 172 3053 
L 172 3500 
L 594 3500 
L 594 4494 
L 1172 4494 
z
" transform="scale(0.015625)"/>
      <path id="DejaVuSans-65" d="M 3597 1894 
L 3597 1613 
L 953 1613 
Q 991 1019 1311 708 
Q 1631 397 2203 397 
Q 2534 397 2845 478 
Q 3156 559 3463 722 
L 3463 178 
Q 3153 47 2828 -22 
Q 2503 -91 2169 -91 
Q 1331 -91 842 396 
Q 353 884 353 1716 
Q 353 2575 817 3079 
Q 1281 3584 2069 3584 
Q 2775 3584 3186 3129 
Q 3597 2675 3597 1894 
z
M 3022 2063 
Q 3016 2534 2758 2815 
Q 2500 3097 2075 3097 
Q 1594 3097 1305 2825 
Q 1016 2553 972 2059 
L 3022 2063 
z
" transform="scale(0.015625)"/>
      <path id="DejaVuSans-72" d="M 2631 2963 
Q 2534 3019 2420 3045 
Q 2306 3072 2169 3072 
Q 1681 3072 1420 2755 
Q 1159 2438 1159 1844 
L 1159 0 
L 581 0 
L 581 3500 
L 1159 3500 
L 1159 2956 
Q 1341 3275 1631 3429 
Q 1922 3584 2338 3584 
Q 2397 3584 2469 3576 
Q 2541 3569 2628 3553 
L 2631 2963 
z
" transform="scale(0.015625)"/>
      <path id="DejaVuSans-61" d="M 2194 1759 
Q 1497 1759 1228 1600 
Q 959 1441 959 1056 
Q 959 750 1161 570 
Q 1363 391 1709 391 
Q 2188 391 2477 730 
Q 2766 1069 2766 1631 
L 2766 1759 
L 2194 1759 
z
M 3341 1997 
L 3341 0 
L 2766 0 
L 2766 531 
Q 2569 213 2275 61 
Q 1981 -91 1556 -91 
Q 1019 -91 701 211 
Q 384 513 384 1019 
Q 384 1609 779 1909 
Q 1175 2209 1959 2209 
L 2766 2209 
L 2766 2266 
Q 2766 2663 2505 2880 
Q 2244 3097 1772 3097 
Q 1472 3097 1187 3025 
Q 903 2953 641 2809 
L 641 3341 
Q 956 3463 1253 3523 
Q 1550 3584 1831 3584 
Q 2591 3584 2966 3190 
Q 3341 2797 3341 1997 
z
" transform="scale(0.015625)"/>
      <path id="DejaVuSans-6c" d="M 603 4863 
L 1178 4863 
L 1178 0 
L 603 0 
L 603 4863 
z
" transform="scale(0.015625)"/>
      <path id="DejaVuSans-20" transform="scale(0.015625)"/>
      <path id="DejaVuSans-73" d="M 2834 3397 
L 2834 2853 
Q 2591 2978 2328 3040 
Q 2066 3103 1784 3103 
Q 1356 3103 1142 2972 
Q 928 2841 928 2578 
Q 928 2378 1081 2264 
Q 1234 2150 1697 2047 
L 1894 2003 
Q 2506 1872 2764 1633 
Q 3022 1394 3022 966 
Q 3022 478 2636 193 
Q 2250 -91 1575 -91 
Q 1294 -91 989 -36 
Q 684 19 347 128 
L 347 722 
Q 666 556 975 473 
Q 1284 391 1588 391 
Q 1994 391 2212 530 
Q 2431 669 2431 922 
Q 2431 1156 2273 1281 
Q 2116 1406 1581 1522 
L 1381 1569 
Q 847 1681 609 1914 
Q 372 2147 372 2553 
Q 372 3047 722 3315 
Q 1072 3584 1716 3584 
Q 2034 3584 2315 3537 
Q 2597 3491 2834 3397 
z
" transform="scale(0.015625)"/>
      <path id="DejaVuSans-63" d="M 3122 3366 
L 3122 2828 
Q 2878 2963 2633 3030 
Q 2388 3097 2138 3097 
Q 1578 3097 1268 2742 
Q 959 2388 959 1747 
Q 959 1106 1268 751 
Q 1578 397 2138 397 
Q 2388 397 2633 464 
Q 2878 531 3122 666 
L 3122 134 
Q 2881 22 2623 -34 
Q 2366 -91 2075 -91 
Q 1284 -91 818 406 
Q 353 903 353 1747 
Q 353 2603 823 3093 
Q 1294 3584 2113 3584 
Q 2378 3584 2631 3529 
Q 2884 3475 3122 3366 
z
" transform="scale(0.015625)"/>
     </defs>
     <use xlink:href="#DejaVuSans-69"/>
     <use xlink:href="#DejaVuSans-6e" transform="translate(27.783203 0)"/>
     <use xlink:href="#DejaVuSans-74" transform="translate(91.162109 0)"/>
     <use xlink:href="#DejaVuSans-65" transform="translate(130.371094 0)"/>
     <use xlink:href="#DejaVuSans-72" transform="translate(191.894531 0)"/>
     <use xlink:href="#DejaVuSans-6e" transform="translate(231.257812 0)"/>
     <use xlink:href="#DejaVuSans-61" transform="translate(294.636719 0)"/>
     <use xlink:href="#DejaVuSans-6c" transform="translate(355.916016 0)"/>
     <use xlink:href="#DejaVuSans-20" transform="translate(383.699219 0)"/>
     <use xlink:href="#DejaVuSans-73" transform="translate(415.486328 0)"/>
     <use xlink:href="#DejaVuSans-63" transform="translate(467.585938 0)"/>
     <use xlink:href="#DejaVuSans-61" transform="translate(522.566406 0)"/>
     <use xlink:href="#DejaVuSans-6c" transform="translate(583.845703 0)"/>
     <use xlink:href="#DejaVuSans-65" transform="translate(611.628906 0)"/>
    </g>
    <!-- ρ -->
    <g transform="translate(62.057781 154.158281) scale(0.1 -0.1)">
     <defs>
      <path id="DejaVuSans-3c1" d="M 863 2875 
Q 1053 3194 1525 3475 
Q 1709 3584 2278 3584 
Q 2916 3584 3314 3078 
Q 3713 2572 3713 1747 
Q 3713 922 3314 415 
Q 2916 -91 2278 -91 
Q 1894 -91 1617 61 
Q 1341 213 1159 525 
L 1159 -1331 
L 581 -1331 
L 581 1716 
Q 581 2438 863 2875 
z
M 3116 1747 
Q 3116 2381 2855 2742 
Q 2594 3103 2138 3103 
Q 1681 3103 1420 2742 
Q 1159 2381 1159 1747 
Q 1159 1113 1420 752 
Q 1681 391 2138 391 
Q 2594 391 2855 752 
Q 3116 1113 3116 1747 
z
" transform="scale(0.015625)"/>
     </defs>
     <use xlink:href="#DejaVuSans-3c1"/>
    </g>
   </g>
   <g id="text_2">
    <!-- eigenmode -->
    <g transform="translate(138.722375 142.821406) scale(0.1 -0.1)">
     <defs>
      <path id="DejaVuSans-67" d="M 2906 1791 
Q 2906 2416 2648 2759 
Q 2391 3103 1925 3103 
Q 1463 3103 1205 2759 
Q 947 2416 947 1791 
Q 947 1169 1205 825 
Q 1463 481 1925 481 
Q 2391 481 2648 825 
Q 2906 1169 2906 1791 
z
M 3481 434 
Q 3481 -459 3084 -895 
Q 2688 -1331 1869 -1331 
Q 1566 -1331 1297 -1286 
Q 1028 -1241 775 -1147 
L 775 -588 
Q 1028 -725 1275 -790 
Q 1522 -856 1778 -856 
Q 2344 -856 2625 -561 
Q 2906 -266 2906 331 
L 2906 616 
Q 2728 306 2450 153 
Q 2172 0 1784 0 
Q 1141 0 747 490 
Q 353 981 353 1791 
Q 353 2603 747 3093 
Q 1141 3584 1784 3584 
Q 2172 3584 2450 3431 
Q 2728 3278 2906 2969 
L 2906 3500 
L 3481 3500 
L 3481 434 
z
" transform="scale(0.015625)"/>
      <path id="DejaVuSans-6d" d="M 3328 2828 
Q 3544 3216 3844 3400 
Q 4144 3584 4550 3584 
Q 5097 3584 5394 3201 
Q 5691 2819 5691 2113 
L 5691 0 
L 5113 0 
L 5113 2094 
Q 5113 2597 4934 2840 
Q 4756 3084 4391 3084 
Q 3944 3084 3684 2787 
Q 3425 2491 3425 1978 
L 3425 0 
L 2847 0 
L 2847 2094 
Q 2847 2600 2669 2842 
Q 2491 3084 2119 3084 
Q 1678 3084 1418 2786 
Q 1159 2488 1159 1978 
L 1159 0 
L 581 0 
L 581 3500 
L 1159 3500 
L 1159 2956 
Q 1356 3278 1631 3431 
Q 1906 3584 2284 3584 
Q 2666 3584 2933 3390 
Q 3200 3197 3328 2828 
z
" transform="scale(0.015625)"/>
      <path id="DejaVuSans-6f" d="M 1959 3097 
Q 1497 3097 1228 2736 
Q 959 2375 959 1747 
Q 959 1119 1226 758 
Q 1494 397 1959 397 
Q 2419 397 2687 759 
Q 2956 1122 2956 1747 
Q 2956 2369 2687 2733 
Q 2419 3097 1959 3097 
z
M 1959 3584 
Q 2709 3584 3137 3096 
Q 3566 2609 3566 1747 
Q 3566 888 3137 398 
Q 2709 -91 1959 -91 
Q 1206 -91 779 398 
Q 353 888 353 1747 
Q 353 2609 779 3096 
Q 1206 3584 1959 3584 
z
" transform="scale(0.015625)"/>
      <path id="DejaVuSans-64" d="M 2906 2969 
L 2906 4863 
L 3481 4863 
L 3481 0 
L 2906 0 
L 2906 525 
Q 2725 213 2448 61 
Q 2172 -91 1784 -91 
Q 1150 -91 751 415 
Q 353 922 353 1747 
Q 353 2572 751 3078 
Q 1150 3584 1784 3584 
Q 2172 3584 2448 3432 
Q 2725 3281 2906 2969 
z
M 947 1747 
Q 947 1113 1208 752 
Q 1469 391 1925 391 
Q 2381 391 2643 752 
Q 2906 1113 2906 1747 
Q 2906 2381 2643 2742 
Q 2381 3103 1925 3103 
Q 1469 3103 1208 2742 
Q 947 2381 947 1747 
z
" transform="scale(0.015625)"/>
     </defs>
     <use xlink:href="#DejaVuSans-65"/>
     <use xlink:href="#DejaVuSans-69" transform="translate(61.523438 0)"/>
     <use xlink:href="#DejaVuSans-67" transform="translate(89.306641 0)"/>
     <use xlink:href="#DejaVuSans-65" transform="translate(152.783203 0)"/>
     <use xlink:href="#DejaVuSans-6e" transform="translate(214.306641 0)"/>
     <use xlink:href="#DejaVuSans-6d" transform="translate(277.685547 0)"/>
     <use xlink:href="#DejaVuSans-6f" transform="translate(375.097656 0)"/>
     <use xlink:href="#DejaVuSans-64" transform="translate(436.279297 0)"/>
     <use xlink:href="#DejaVuSans-65" transform="translate(499.755859 0)"/>
    </g>
    <!-- χ_t(ρ)=ρ^{-1/2-u t} -->
    <g transform="translate(116.074719 154.019219) scale(0.1 -0.1)">
     <defs>
      <path id="DejaVuSans-3c7" d="M 2288 -781 
L 1822 416 
L 863 -1334 
L 184 -1334 
L 1541 1141 
L 972 2613 
Q 819 3006 338 3006 
L 184 3006 
L 184 3500 
L 403 3494 
Q 1209 3472 1413 2950 
L 1875 1753 
L 2834 3503 
L 3513 3503 
L 2156 1028 
L 2725 -444 
Q 2878 -838 3359 -838 
L 3513 -838 
L 3513 -1331 
L 3294 -1325 
Q 2488 -1303 2288 -781 
z
" transform="scale(0.015625)"/>
      <path id="DejaVuSans-5f" d="M 3263 -1063 
L 3263 -1509 
L -63 -1509 
L -63 -1063 
L 3263 -1063 
z
" transform="scale(0.015625)"/>
      <path id="DejaVuSans-28" d="M 1984 4856 
Q 1566 4138 1362 3434 
Q 1159 2731 1159 2009 
Q 1159 1288 1364 580 
Q 1569 -128 1984 -844 
L 1484 -844 
Q 1016 -109 783 600 
Q 550 1309 550 2009 
Q 550 2706 781 3412 
Q 1013 4119 1484 4856 
L 1984 4856 
z
" transform="scale(0.015625)"/>
      <path id="DejaVuSans-29" d="M 513 4856 
L 1013 4856 
Q 1481 4119 1714 3412 
Q 1947 2706 1947 2009 
Q 1947 1309 1714 600 
Q 1481 -109 1013 -844 
L 513 -844 
Q 928 -128 1133 580 
Q 1338 1288 1338 2009 
Q 1338 2731 1133 3434 
Q 928 4138 513 4856 
z
" transform="scale(0.015625)"/>
      <path id="DejaVuSans-3d" d="M 678 2906 
L 4684 2906 
L 4684 2381 
L 678 2381 
L 678 2906 
z
M 678 1631 
L 4684 1631 
L 4684 1100 
L 678 1100 
L 678 1631 
z
" transform="scale(0.015625)"/>
      <path id="DejaVuSans-5e" d="M 2988 4666 
L 4684 2925 
L 4056 2925 
L 2681 4159 
L 1306 2925 
L 678 2925 
L 2375 4666 
L 2988 4666 
z
" transform="scale(0.015625)"/>
      <path id="DejaVuSans-7b" d="M 3272 -594 
L 3272 -1044 
L 3078 -1044 
Q 2300 -1044 2036 -812 
Q 1772 -581 1772 109 
L 1772 856 
Q 1772 1328 1603 1509 
Q 1434 1691 991 1691 
L 800 1691 
L 800 2138 
L 991 2138 
Q 1438 2138 1605 2317 
Q 1772 2497 1772 2963 
L 1772 3713 
Q 1772 4403 2036 4633 
Q 2300 4863 3078 4863 
L 3272 4863 
L 3272 4416 
L 3059 4416 
Q 2619 4416 2484 4278 
Q 2350 4141 2350 3700 
L 2350 2925 
Q 2350 2434 2208 2212 
Q 2066 1991 1722 1913 
Q 2069 1828 2209 1606 
Q 2350 1384 2350 897 
L 2350 122 
Q 2350 -319 2484 -456 
Q 2619 -594 3059 -594 
L 3272 -594 
z
" transform="scale(0.015625)"/>
      <path id="DejaVuSans-2d" d="M 313 2009 
L 1997 2009 
L 1997 1497 
L 313 1497 
L 313 2009 
z
" transform="scale(0.015625)"/>
      <path id="DejaVuSans-31" d="M 794 531 
L 1825 531 
L 1825 4091 
L 703 3866 
L 703 4441 
L 1819 4666 
L 2450 4666 
L 2450 531 
L 3481 531 
L 3481 0 
L 794 0 
L 794 531 
z
" transform="scale(0.015625)"/>
      <path id="DejaVuSans-2f" d="M 1625 4666 
L 2156 4666 
L 531 -594 
L 0 -594 
L 1625 4666 
z
" transform="scale(0.015625)"/>
      <path id="DejaVuSans-32" d="M 1228 531 
L 3431 531 
L 3431 0 
L 469 0 
L 469 531 
Q 828 903 1448 1529 
Q 2069 2156 2228 2338 
Q 2531 2678 2651 2914 
Q 2772 3150 2772 3378 
Q 2772 3750 2511 3984 
Q 2250 4219 1831 4219 
Q 1534 4219 1204 4116 
Q 875 4013 500 3803 
L 500 4441 
Q 881 4594 1212 4672 
Q 1544 4750 1819 4750 
Q 2544 4750 2975 4387 
Q 3406 4025 3406 3419 
Q 3406 3131 3298 2873 
Q 3191 2616 2906 2266 
Q 2828 2175 2409 1742 
Q 1991 1309 1228 531 
z
" transform="scale(0.015625)"/>
      <path id="DejaVuSans-75" d="M 544 1381 
L 544 3500 
L 1119 3500 
L 1119 1403 
Q 1119 906 1312 657 
Q 1506 409 1894 409 
Q 2359 409 2629 706 
Q 2900 1003 2900 1516 
L 2900 3500 
L 3475 3500 
L 3475 0 
L 2900 0 
L 2900 538 
Q 2691 219 2414 64 
Q 2138 -91 1772 -91 
Q 1169 -91 856 284 
Q 544 659 544 1381 
z
M 1991 3584 
L 1991 3584 
z
" transform="scale(0.015625)"/>
      <path id="DejaVuSans-7d" d="M 800 -594 
L 1019 -594 
Q 1456 -594 1589 -459 
Q 1722 -325 1722 122 
L 1722 897 
Q 1722 1384 1862 1606 
Q 2003 1828 2350 1913 
Q 2003 1991 1862 2212 
Q 1722 2434 1722 2925 
L 1722 3700 
Q 1722 4144 1589 4280 
Q 1456 4416 1019 4416 
L 800 4416 
L 800 4863 
L 997 4863 
Q 1775 4863 2036 4633 
Q 2297 4403 2297 3713 
L 2297 2963 
Q 2297 2497 2465 2317 
Q 2634 2138 3078 2138 
L 3272 2138 
L 3272 1691 
L 3078 1691 
Q 2634 1691 2465 1509 
Q 2297 1328 2297 856 
L 2297 109 
Q 2297 -581 2036 -812 
Q 1775 -1044 997 -1044 
L 800 -1044 
L 800 -594 
z
" transform="scale(0.015625)"/>
     </defs>
     <use xlink:href="#DejaVuSans-3c7"/>
     <use xlink:href="#DejaVuSans-5f" transform="translate(57.763672 0)"/>
     <use xlink:href="#DejaVuSans-74" transform="translate(107.763672 0)"/>
     <use xlink:href="#DejaVuSans-28" transform="translate(146.972656 0)"/>
     <use xlink:href="#DejaVuSans-3c1" transform="translate(185.986328 0)"/>
     <use xlink:href="#DejaVuSans-29" transform="translate(249.462891 0)"/>
     <use xlink:href="#DejaVuSans-3d" transform="translate(288.476562 0)"/>
     <use xlink:href="#DejaVuSans-3c1" transform="translate(372.265625 0)"/>
     <use xlink:href="#DejaVuSans-5e" transform="translate(435.742188 0)"/>
     <use xlink:href="#DejaVuSans-7b" transform="translate(519.53125 0)"/>
     <use xlink:href="#DejaVuSans-2d" transform="translate(583.154297 0)"/>
     <use xlink:href="#DejaVuSans-31" transform="translate(619.238281 0)"/>
     <use xlink:href="#DejaVuSans-2f" transform="translate(682.861328 0)"/>
     <use xlink:href="#DejaVuSans-32" transform="translate(716.552734 0)"/>
     <use xlink:href="#DejaVuSans-2d" transform="translate(780.175781 0)"/>
     <use xlink:href="#DejaVuSans-75" transform="translate(816.259766 0)"/>
     <use xlink:href="#DejaVuSans-20" transform="translate(879.638672 0)"/>
     <use xlink:href="#DejaVuSans-74" transform="translate(911.425781 0)"/>
     <use xlink:href="#DejaVuSans-7d" transform="translate(950.634766 0)"/>
    </g>
   </g>
   <g id="text_3">
    <!-- closure generator -->
    <g transform="translate(238.581687 142.821406) scale(0.1 -0.1)">
     <use xlink:href="#DejaVuSans-63"/>
     <use xlink:href="#DejaVuSans-6c" transform="translate(54.980469 0)"/>
     <use xlink:href="#DejaVuSans-6f" transform="translate(82.763672 0)"/>
     <use xlink:href="#DejaVuSans-73" transform="translate(143.945312 0)"/>
     <use xlink:href="#DejaVuSans-75" transform="translate(196.044922 0)"/>
     <use xlink:href="#DejaVuSans-72" transform="translate(259.423828 0)"/>
     <use xlink:href="#DejaVuSans-65" transform="translate(298.287109 0)"/>
     <use xlink:href="#DejaVuSans-20" transform="translate(359.810547 0)"/>
     <use xlink:href="#DejaVuSans-67" transform="translate(391.597656 0)"/>
     <use xlink:href="#DejaVuSans-65" transform="translate(455.074219 0)"/>
     <use xlink:href="#DejaVuSans-6e" transform="translate(516.597656 0)"/>
     <use xlink:href="#DejaVuSans-65" transform="translate(579.976562 0)"/>
     <use xlink:href="#DejaVuSans-72" transform="translate(641.5 0)"/>
     <use xlink:href="#DejaVuSans-61" transform="translate(682.613281 0)"/>
     <use xlink:href="#DejaVuSans-74" transform="translate(743.892578 0)"/>
     <use xlink:href="#DejaVuSans-6f" transform="translate(783.101562 0)"/>
     <use xlink:href="#DejaVuSans-72" transform="translate(844.283203 0)"/>
    </g>
    <!-- A_u -->
    <g transform="translate(273.762937 154.019219) scale(0.1 -0.1)">
     <defs>
      <path id="DejaVuSans-41" d="M 2188 4044 
L 1331 1722 
L 3047 1722 
L 2188 4044 
z
M 1831 4666 
L 2547 4666 
L 4325 0 
L 3669 0 
L 3244 1197 
L 1141 1197 
L 716 0 
L 50 0 
L 1831 4666 
z
" transform="scale(0.015625)"/>
     </defs>
     <use xlink:href="#DejaVuSans-41"/>
     <use xlink:href="#DejaVuSans-5f" transform="translate(68.408203 0)"/>
     <use xlink:href="#DejaVuSans-75" transform="translate(118.408203 0)"/>
    </g>
   </g>
   <g id="text_4">
    <!-- zeta selector -->
    <g transform="translate(359.376844 142.821406) scale(0.1 -0.1)">
     <defs>
      <path id="DejaVuSans-7a" d="M 353 3500 
L 3084 3500 
L 3084 2975 
L 922 459 
L 3084 459 
L 3084 0 
L 275 0 
L 275 525 
L 2438 3041 
L 353 3041 
L 353 3500 
z
" transform="scale(0.015625)"/>
     </defs>
     <use xlink:href="#DejaVuSans-7a"/>
     <use xlink:href="#DejaVuSans-65" transform="translate(52.490234 0)"/>
     <use xlink:href="#DejaVuSans-74" transform="translate(114.013672 0)"/>
     <use xlink:href="#DejaVuSans-61" transform="translate(153.222656 0)"/>
     <use xlink:href="#DejaVuSans-20" transform="translate(214.501953 0)"/>
     <use xlink:href="#DejaVuSans-73" transform="translate(246.289062 0)"/>
     <use xlink:href="#DejaVuSans-65" transform="translate(298.388672 0)"/>
     <use xlink:href="#DejaVuSans-6c" transform="translate(359.912109 0)"/>
     <use xlink:href="#DejaVuSans-65" transform="translate(387.695312 0)"/>
     <use xlink:href="#DejaVuSans-63" transform="translate(449.21875 0)"/>
     <use xlink:href="#DejaVuSans-74" transform="translate(504.199219 0)"/>
     <use xlink:href="#DejaVuSans-6f" transform="translate(543.408203 0)"/>
     <use xlink:href="#DejaVuSans-72" transform="translate(604.589844 0)"/>
    </g>
    <!-- Xi(A_u) -->
    <g transform="translate(373.857312 154.019219) scale(0.1 -0.1)">
     <defs>
      <path id="DejaVuSans-58" d="M 403 4666 
L 1081 4666 
L 2241 2931 
L 3406 4666 
L 4084 4666 
L 2584 2425 
L 4184 0 
L 3506 0 
L 2194 1984 
L 872 0 
L 191 0 
L 1856 2491 
L 403 4666 
z
" transform="scale(0.015625)"/>
     </defs>
     <use xlink:href="#DejaVuSans-58"/>
     <use xlink:href="#DejaVuSans-69" transform="translate(68.505859 0)"/>
     <use xlink:href="#DejaVuSans-28" transform="translate(96.289062 0)"/>
     <use xlink:href="#DejaVuSans-41" transform="translate(135.302734 0)"/>
     <use xlink:href="#DejaVuSans-5f" transform="translate(203.710938 0)"/>
     <use xlink:href="#DejaVuSans-75" transform="translate(253.710938 0)"/>
     <use xlink:href="#DejaVuSans-29" transform="translate(317.089844 0)"/>
    </g>
   </g>
   <g id="text_5">
    <!-- kernel mode -->
    <g transform="translate(476.5635 142.821406) scale(0.1 -0.1)">
     <defs>
      <path id="DejaVuSans-6b" d="M 581 4863 
L 1159 4863 
L 1159 1991 
L 2875 3500 
L 3609 3500 
L 1753 1863 
L 3688 0 
L 2938 0 
L 1159 1709 
L 1159 0 
L 581 0 
L 581 4863 
z
" transform="scale(0.015625)"/>
     </defs>
     <use xlink:href="#DejaVuSans-6b"/>
     <use xlink:href="#DejaVuSans-65" transform="translate(54.285156 0)"/>
     <use xlink:href="#DejaVuSans-72" transform="translate(115.808594 0)"/>
     <use xlink:href="#DejaVuSans-6e" transform="translate(155.171875 0)"/>
     <use xlink:href="#DejaVuSans-65" transform="translate(218.550781 0)"/>
     <use xlink:href="#DejaVuSans-6c" transform="translate(280.074219 0)"/>
     <use xlink:href="#DejaVuSans-20" transform="translate(307.857422 0)"/>
     <use xlink:href="#DejaVuSans-6d" transform="translate(339.644531 0)"/>
     <use xlink:href="#DejaVuSans-6f" transform="translate(437.056641 0)"/>
     <use xlink:href="#DejaVuSans-64" transform="translate(498.238281 0)"/>
     <use xlink:href="#DejaVuSans-65" transform="translate(561.714844 0)"/>
    </g>
    <!-- at t_n -->
    <g transform="translate(493.483812 154.019219) scale(0.1 -0.1)">
     <use xlink:href="#DejaVuSans-61"/>
     <use xlink:href="#DejaVuSans-74" transform="translate(61.279297 0)"/>
     <use xlink:href="#DejaVuSans-20" transform="translate(100.488281 0)"/>
     <use xlink:href="#DejaVuSans-74" transform="translate(132.275391 0)"/>
     <use xlink:href="#DejaVuSans-5f" transform="translate(171.484375 0)"/>
     <use xlink:href="#DejaVuSans-6e" transform="translate(221.484375 0)"/>
    </g>
   </g>
   <g id="text_6">
    <!-- mass-shell lift -->
    <g transform="translate(596.468219 142.821406) scale(0.1 -0.1)">
     <defs>
      <path id="DejaVuSans-68" d="M 3513 2113 
L 3513 0 
L 2938 0 
L 2938 2094 
Q 2938 2591 2744 2837 
Q 2550 3084 2163 3084 
Q 1697 3084 1428 2787 
Q 1159 2491 1159 1978 
L 1159 0 
L 581 0 
L 581 4863 
L 1159 4863 
L 1159 2956 
Q 1366 3272 1645 3428 
Q 1925 3584 2291 3584 
Q 2894 3584 3203 3211 
Q 3513 2838 3513 2113 
z
" transform="scale(0.015625)"/>
      <path id="DejaVuSans-66" d="M 2375 4863 
L 2375 4384 
L 1825 4384 
Q 1516 4384 1395 4259 
Q 1275 4134 1275 3809 
L 1275 3500 
L 2222 3500 
L 2222 3053 
L 1275 3053 
L 1275 0 
L 697 0 
L 697 3053 
L 147 3053 
L 147 3500 
L 697 3500 
L 697 3744 
Q 697 4328 969 4595 
Q 1241 4863 1831 4863 
L 2375 4863 
z
" transform="scale(0.015625)"/>
     </defs>
     <use xlink:href="#DejaVuSans-6d"/>
     <use xlink:href="#DejaVuSans-61" transform="translate(97.412109 0)"/>
     <use xlink:href="#DejaVuSans-73" transform="translate(158.691406 0)"/>
     <use xlink:href="#DejaVuSans-73" transform="translate(210.791016 0)"/>
     <use xlink:href="#DejaVuSans-2d" transform="translate(262.890625 0)"/>
     <use xlink:href="#DejaVuSans-73" transform="translate(298.974609 0)"/>
     <use xlink:href="#DejaVuSans-68" transform="translate(351.074219 0)"/>
     <use xlink:href="#DejaVuSans-65" transform="translate(414.453125 0)"/>
     <use xlink:href="#DejaVuSans-6c" transform="translate(475.976562 0)"/>
     <use xlink:href="#DejaVuSans-6c" transform="translate(503.759766 0)"/>
     <use xlink:href="#DejaVuSans-20" transform="translate(531.542969 0)"/>
     <use xlink:href="#DejaVuSans-6c" transform="translate(563.330078 0)"/>
     <use xlink:href="#DejaVuSans-69" transform="translate(591.113281 0)"/>
     <use xlink:href="#DejaVuSans-66" transform="translate(618.896484 0)"/>
     <use xlink:href="#DejaVuSans-74" transform="translate(652.351562 0)"/>
    </g>
    <!-- through L_* -->
    <g transform="translate(602.026031 154.019219) scale(0.1 -0.1)">
     <defs>
      <path id="DejaVuSans-4c" d="M 628 4666 
L 1259 4666 
L 1259 531 
L 3531 531 
L 3531 0 
L 628 0 
L 628 4666 
z
" transform="scale(0.015625)"/>
      <path id="DejaVuSans-2a" d="M 3009 3897 
L 1888 3291 
L 3009 2681 
L 2828 2375 
L 1778 3009 
L 1778 1831 
L 1422 1831 
L 1422 3009 
L 372 2375 
L 191 2681 
L 1313 3291 
L 191 3897 
L 372 4206 
L 1422 3572 
L 1422 4750 
L 1778 4750 
L 1778 3572 
L 2828 4206 
L 3009 3897 
z
" transform="scale(0.015625)"/>
     </defs>
     <use xlink:href="#DejaVuSans-74"/>
     <use xlink:href="#DejaVuSans-68" transform="translate(39.208984 0)"/>
     <use xlink:href="#DejaVuSans-72" transform="translate(102.587891 0)"/>
     <use xlink:href="#DejaVuSans-6f" transform="translate(141.451172 0)"/>
     <use xlink:href="#DejaVuSans-75" transform="translate(202.632812 0)"/>
     <use xlink:href="#DejaVuSans-67" transform="translate(266.011719 0)"/>
     <use xlink:href="#DejaVuSans-68" transform="translate(329.488281 0)"/>
     <use xlink:href="#DejaVuSans-20" transform="translate(392.867188 0)"/>
     <use xlink:href="#DejaVuSans-4c" transform="translate(424.654297 0)"/>
     <use xlink:href="#DejaVuSans-5f" transform="translate(480.367188 0)"/>
     <use xlink:href="#DejaVuSans-2a" transform="translate(530.367188 0)"/>
    </g>
   </g>
   <g id="text_7">
    <!-- Bridge supports  Xi(t_n)=0  →  A_u χ_{t_n}=t_n χ_{t_n}  →  P P̄=(ℏ t_n/L_*)² -->
    <g transform="translate(160.796875 234.504) scale(0.11 -0.11)">
     <defs>
      <path id="DejaVuSans-42" d="M 1259 2228 
L 1259 519 
L 2272 519 
Q 2781 519 3026 730 
Q 3272 941 3272 1375 
Q 3272 1813 3026 2020 
Q 2781 2228 2272 2228 
L 1259 2228 
z
M 1259 4147 
L 1259 2741 
L 2194 2741 
Q 2656 2741 2882 2914 
Q 3109 3088 3109 3444 
Q 3109 3797 2882 3972 
Q 2656 4147 2194 4147 
L 1259 4147 
z
M 628 4666 
L 2241 4666 
Q 2963 4666 3353 4366 
Q 3744 4066 3744 3513 
Q 3744 3084 3544 2831 
Q 3344 2578 2956 2516 
Q 3422 2416 3680 2098 
Q 3938 1781 3938 1306 
Q 3938 681 3513 340 
Q 3088 0 2303 0 
L 628 0 
L 628 4666 
z
" transform="scale(0.015625)"/>
      <path id="DejaVuSans-70" d="M 1159 525 
L 1159 -1331 
L 581 -1331 
L 581 3500 
L 1159 3500 
L 1159 2969 
Q 1341 3281 1617 3432 
Q 1894 3584 2278 3584 
Q 2916 3584 3314 3078 
Q 3713 2572 3713 1747 
Q 3713 922 3314 415 
Q 2916 -91 2278 -91 
Q 1894 -91 1617 61 
Q 1341 213 1159 525 
z
M 3116 1747 
Q 3116 2381 2855 2742 
Q 2594 3103 2138 3103 
Q 1681 3103 1420 2742 
Q 1159 2381 1159 1747 
Q 1159 1113 1420 752 
Q 1681 391 2138 391 
Q 2594 391 2855 752 
Q 3116 1113 3116 1747 
z
" transform="scale(0.015625)"/>
      <path id="DejaVuSans-30" d="M 2034 4250 
Q 1547 4250 1301 3770 
Q 1056 3291 1056 2328 
Q 1056 1369 1301 889 
Q 1547 409 2034 409 
Q 2525 409 2770 889 
Q 3016 1369 3016 2328 
Q 3016 3291 2770 3770 
Q 2525 4250 2034 4250 
z
M 2034 4750 
Q 2819 4750 3233 4129 
Q 3647 3509 3647 2328 
Q 3647 1150 3233 529 
Q 2819 -91 2034 -91 
Q 1250 -91 836 529 
Q 422 1150 422 2328 
Q 422 3509 836 4129 
Q 1250 4750 2034 4750 
z
" transform="scale(0.015625)"/>
      <path id="DejaVuSans-2192" d="M 5050 2147 
L 5050 1866 
L 3822 638 
L 3447 1013 
L 4175 1741 
L 366 1741 
L 366 2272 
L 4175 2272 
L 3447 3000 
L 3822 3375 
L 5050 2147 
z
" transform="scale(0.015625)"/>
      <path id="DejaVuSans-50" d="M 1259 4147 
L 1259 2394 
L 2053 2394 
Q 2494 2394 2734 2622 
Q 2975 2850 2975 3272 
Q 2975 3691 2734 3919 
Q 2494 4147 2053 4147 
L 1259 4147 
z
M 628 4666 
L 2053 4666 
Q 2838 4666 3239 4311 
Q 3641 3956 3641 3272 
Q 3641 2581 3239 2228 
Q 2838 1875 2053 1875 
L 1259 1875 
L 1259 0 
L 628 0 
L 628 4666 
z
" transform="scale(0.015625)"/>
      <path id="DejaVuSans-304" d="M -2518 4769 
L -650 4769 
L -650 4306 
L -2518 4306 
L -2518 4769 
z
" transform="scale(0.015625)"/>
      <path id="DejaVuSans-210f" d="M 1225 4863 
L 1803 4863 
L 1663 4131 
L 2903 4519 
L 2947 4216 
L 1597 3791 
L 1434 2956 
Q 1966 3584 2688 3584 
Q 3291 3584 3527 3211 
Q 3763 2838 3622 2113 
L 3213 0 
L 2638 0 
L 3044 2094 
Q 3238 3084 2463 3084 
Q 1997 3084 1670 2787 
Q 1344 2491 1244 1978 
L 859 0 
L 281 0 
L 978 3597 
L 325 3391 
L 281 3700 
L 1047 3938 
L 1225 4863 
z
" transform="scale(0.015625)"/>
      <path id="DejaVuSans-b2" d="M 838 2444 
L 2163 2444 
L 2163 2088 
L 294 2088 
L 294 2431 
Q 400 2528 597 2703 
Q 1672 3656 1672 3950 
Q 1672 4156 1509 4282 
Q 1347 4409 1081 4409 
Q 919 4409 728 4354 
Q 538 4300 313 4191 
L 313 4575 
Q 553 4663 761 4706 
Q 969 4750 1147 4750 
Q 1600 4750 1872 4544 
Q 2144 4338 2144 4000 
Q 2144 3566 1109 2678 
Q 934 2528 838 2444 
z
" transform="scale(0.015625)"/>
     </defs>
     <use xlink:href="#DejaVuSans-42"/>
     <use xlink:href="#DejaVuSans-72" transform="translate(68.603516 0)"/>
     <use xlink:href="#DejaVuSans-69" transform="translate(109.716797 0)"/>
     <use xlink:href="#DejaVuSans-64" transform="translate(137.5 0)"/>
     <use xlink:href="#DejaVuSans-67" transform="translate(200.976562 0)"/>
     <use xlink:href="#DejaVuSans-65" transform="translate(264.453125 0)"/>
     <use xlink:href="#DejaVuSans-20" transform="translate(325.976562 0)"/>
     <use xlink:href="#DejaVuSans-73" transform="translate(357.763672 0)"/>
     <use xlink:href="#DejaVuSans-75" transform="translate(409.863281 0)"/>
     <use xlink:href="#DejaVuSans-70" transform="translate(473.242188 0)"/>
     <use xlink:href="#DejaVuSans-70" transform="translate(536.71875 0)"/>
     <use xlink:href="#DejaVuSans-6f" transform="translate(600.195312 0)"/>
     <use xlink:href="#DejaVuSans-72" transform="translate(661.376953 0)"/>
     <use xlink:href="#DejaVuSans-74" transform="translate(702.490234 0)"/>
     <use xlink:href="#DejaVuSans-73" transform="translate(741.699219 0)"/>
     <use xlink:href="#DejaVuSans-20" transform="translate(793.798828 0)"/>
     <use xlink:href="#DejaVuSans-20" transform="translate(825.585938 0)"/>
     <use xlink:href="#DejaVuSans-58" transform="translate(857.373047 0)"/>
     <use xlink:href="#DejaVuSans-69" transform="translate(925.878906 0)"/>
     <use xlink:href="#DejaVuSans-28" transform="translate(953.662109 0)"/>
     <use xlink:href="#DejaVuSans-74" transform="translate(992.675781 0)"/>
     <use xlink:href="#DejaVuSans-5f" transform="translate(1031.884766 0)"/>
     <use xlink:href="#DejaVuSans-6e" transform="translate(1081.884766 0)"/>
     <use xlink:href="#DejaVuSans-29" transform="translate(1145.263672 0)"/>
     <use xlink:href="#DejaVuSans-3d" transform="translate(1184.277344 0)"/>
     <use xlink:href="#DejaVuSans-30" transform="translate(1268.066406 0)"/>
     <use xlink:href="#DejaVuSans-20" transform="translate(1331.689453 0)"/>
     <use xlink:href="#DejaVuSans-20" transform="translate(1363.476562 0)"/>
     <use xlink:href="#DejaVuSans-2192" transform="translate(1395.263672 0)"/>
     <use xlink:href="#DejaVuSans-20" transform="translate(1479.052734 0)"/>
     <use xlink:href="#DejaVuSans-20" transform="translate(1510.839844 0)"/>
     <use xlink:href="#DejaVuSans-41" transform="translate(1542.626953 0)"/>
     <use xlink:href="#DejaVuSans-5f" transform="translate(1611.035156 0)"/>
     <use xlink:href="#DejaVuSans-75" transform="translate(1661.035156 0)"/>
     <use xlink:href="#DejaVuSans-20" transform="translate(1724.414062 0)"/>
     <use xlink:href="#DejaVuSans-3c7" transform="translate(1756.201172 0)"/>
     <use xlink:href="#DejaVuSans-5f" transform="translate(1813.964844 0)"/>
     <use xlink:href="#DejaVuSans-7b" transform="translate(1863.964844 0)"/>
     <use xlink:href="#DejaVuSans-74" transform="translate(1927.587891 0)"/>
     <use xlink:href="#DejaVuSans-5f" transform="translate(1966.796875 0)"/>
     <use xlink:href="#DejaVuSans-6e" transform="translate(2016.796875 0)"/>
     <use xlink:href="#DejaVuSans-7d" transform="translate(2080.175781 0)"/>
     <use xlink:href="#DejaVuSans-3d" transform="translate(2143.798828 0)"/>
     <use xlink:href="#DejaVuSans-74" transform="translate(2227.587891 0)"/>
     <use xlink:href="#DejaVuSans-5f" transform="translate(2266.796875 0)"/>
     <use xlink:href="#DejaVuSans-6e" transform="translate(2316.796875 0)"/>
     <use xlink:href="#DejaVuSans-20" transform="translate(2380.175781 0)"/>
     <use xlink:href="#DejaVuSans-3c7" transform="translate(2411.962891 0)"/>
     <use xlink:href="#DejaVuSans-5f" transform="translate(2469.726562 0)"/>
     <use xlink:href="#DejaVuSans-7b" transform="translate(2519.726562 0)"/>
     <use xlink:href="#DejaVuSans-74" transform="translate(2583.349609 0)"/>
     <use xlink:href="#DejaVuSans-5f" transform="translate(2622.558594 0)"/>
     <use xlink:href="#DejaVuSans-6e" transform="translate(2672.558594 0)"/>
     <use xlink:href="#DejaVuSans-7d" transform="translate(2735.9375 0)"/>
     <use xlink:href="#DejaVuSans-20" transform="translate(2799.560547 0)"/>
     <use xlink:href="#DejaVuSans-20" transform="translate(2831.347656 0)"/>
     <use xlink:href="#DejaVuSans-2192" transform="translate(2863.134766 0)"/>
     <use xlink:href="#DejaVuSans-20" transform="translate(2946.923828 0)"/>
     <use xlink:href="#DejaVuSans-20" transform="translate(2978.710938 0)"/>
     <use xlink:href="#DejaVuSans-50" transform="translate(3010.498047 0)"/>
     <use xlink:href="#DejaVuSans-20" transform="translate(3070.800781 0)"/>
     <use xlink:href="#DejaVuSans-50" transform="translate(3102.587891 0)"/>
     <use xlink:href="#DejaVuSans-304" transform="translate(3162.890625 0)"/>
     <use xlink:href="#DejaVuSans-3d" transform="translate(3162.890625 0)"/>
     <use xlink:href="#DejaVuSans-28" transform="translate(3246.679688 0)"/>
     <use xlink:href="#DejaVuSans-210f" transform="translate(3285.693359 0)"/>
     <use xlink:href="#DejaVuSans-20" transform="translate(3349.072266 0)"/>
     <use xlink:href="#DejaVuSans-74" transform="translate(3380.859375 0)"/>
     <use xlink:href="#DejaVuSans-5f" transform="translate(3420.068359 0)"/>
     <use xlink:href="#DejaVuSans-6e" transform="translate(3470.068359 0)"/>
     <use xlink:href="#DejaVuSans-2f" transform="translate(3533.447266 0)"/>
     <use xlink:href="#DejaVuSans-4c" transform="translate(3567.138672 0)"/>
     <use xlink:href="#DejaVuSans-5f" transform="translate(3622.851562 0)"/>
     <use xlink:href="#DejaVuSans-2a" transform="translate(3672.851562 0)"/>
     <use xlink:href="#DejaVuSans-29" transform="translate(3722.851562 0)"/>
     <use xlink:href="#DejaVuSans-b2" transform="translate(3761.865234 0)"/>
    </g>
   </g>
  </g>
 </g>
 <defs>
  <clipPath id="pd51a913cb1">
   <rect x="7.2" y="7.2" width="725.4" height="277.2"/>
  </clipPath>
 </defs>
</svg>
