<?xml version="1.0" encoding="utf-8" standalone="no"?>
<!DOCTYPE svg PUBLIC "-//W3C//DTD SVG 1.1//EN"
  "http://www.w3.org/Graphics/SVG/1.1/DTD/svg11.dtd">
<svg xmlns:xlink="http://www.w3.org/1999/xlink" width="773.28pt" height="286.056pt" viewBox="0 0 773.28 286.056" xmlns="http://www.w3.org/2000/svg" version="1.1">
 <metadata>
  <rdf:RDF xmlns:dc="http://purl.org/dc/elements/1.1/" xmlns:cc="http://creativecommons.org/ns#" xmlns:rdf="http://www.w3.org/1999/02/22-rdf-syntax-ns#">
   <cc:Work>
    <dc:type rdf:resource="http://purl.org/dc/dcmitype/StillImage"/>
    <dc:date>2026-04-26T20:33:14.925531</dc:date>
    <dc:format>image/svg+xml</dc:format>
    <dc:creator>
     <cc:Agent>
      <dc:title>Matplotlib v3.10.9, https://matplotlib.org/</dc:title>
     </cc:Agent>
    </dc:creator>
   </cc:Work>
  </rdf:RDF>
 </metadata>
 <defs>
  <style type="text/css">*{stroke-linejoin: round; stroke-linecap: butt}</style>
 </defs>
 <g id="figure_1">
  <g id="patch_1">
   <path d="M 0 286.056 
L 773.28 286.056 
L 773.28 0 
L 0 0 
z
" style="fill: #ffffff"/>
  </g>
  <g id="axes_1">
   <g id="patch_2">
    <path d="M 41.3496 187.85124 
L 117.2376 187.85124 
Q 140.004 187.85124 140.004 179.70156 
L 140.004 106.35444 
Q 140.004 98.20476 117.2376 98.20476 
L 41.3496 98.20476 
Q 18.5832 98.20476 18.5832 106.35444 
L 18.5832 179.70156 
Q 18.5832 187.85124 41.3496 187.85124 
z
" clip-path="url(#p431308602e)" style="fill: #ffffff; stroke: #000000; stroke-width: 1.2; stroke-linejoin: miter"/>
   </g>
   <g id="patch_3">
    <path d="M 130.618974 143.028 
Q 140.002957 143.028 147.933496 143.028 
" clip-path="url(#p431308602e)" style="fill: none; stroke: #000000; stroke-width: 1.3; stroke-linecap: round"/>
    <path d="M 142.733496 140.428 
L 147.933496 143.028 
L 142.733496 145.628 
z
" clip-path="url(#p431308602e)" style="stroke: #000000; stroke-width: 1.3; stroke-linecap: round"/>
   </g>
   <g id="patch_4">
    <path d="M 162.7704 187.85124 
L 238.6584 187.85124 
Q 261.4248 187.85124 261.4248 179.70156 
L 261.4248 106.35444 
Q 261.4248 98.20476 238.6584 98.20476 
L 162.7704 98.20476 
Q 140.004 98.20476 140.004 106.35444 
L 140.004 179.70156 
Q 140.004 187.85124 162.7704 187.85124 
z
" clip-path="url(#p431308602e)" style="fill: #ffffff; stroke: #000000; stroke-width: 1.2; stroke-linejoin: miter"/>
   </g>
   <g id="patch_5">
    <path d="M 252.039774 143.028 
Q 261.423757 143.028 269.354296 143.028 
" clip-path="url(#p431308602e)" style="fill: none; stroke: #000000; stroke-width: 1.3; stroke-linecap: round"/>
    <path d="M 264.154296 140.428 
L 269.354296 143.028 
L 264.154296 145.628 
z
" clip-path="url(#p431308602e)" style="stroke: #000000; stroke-width: 1.3; stroke-linecap: round"/>
   </g>
   <g id="patch_6">
    <path d="M 284.1912 187.85124 
L 360.0792 187.85124 
Q 382.8456 187.85124 382.8456 179.70156 
L 382.8456 106.35444 
Q 382.8456 98.20476 360.0792 98.20476 
L 284.1912 98.20476 
Q 261.4248 98.20476 261.4248 106.35444 
L 261.4248 179.70156 
Q 261.4248 187.85124 284.1912 187.85124 
z
" clip-path="url(#p431308602e)" style="fill: #ffffff; stroke: #000000; stroke-width: 1.2; stroke-linejoin: miter"/>
   </g>
   <g id="patch_7">
    <path d="M 373.460574 143.028 
Q 382.844557 143.028 390.775096 143.028 
" clip-path="url(#p431308602e)" style="fill: none; stroke: #000000; stroke-width: 1.3; stroke-linecap: round"/>
    <path d="M 385.575096 140.428 
L 390.775096 143.028 
L 385.575096 145.628 
z
" clip-path="url(#p431308602e)" style="stroke: #000000; stroke-width: 1.3; stroke-linecap: round"/>
   </g>
   <g id="patch_8">
    <path d="M 405.612 187.85124 
L 481.5 187.85124 
Q 504.2664 187.85124 504.2664 179.70156 
L 504.2664 106.35444 
Q 504.2664 98.20476 481.5 98.20476 
L 405.612 98.20476 
Q 382.8456 98.20476 382.8456 106.35444 
L 382.8456 179.70156 
Q 382.8456 187.85124 405.612 187.85124 
z
" clip-path="url(#p431308602e)" style="fill: #ffffff; stroke: #000000; stroke-width: 1.2; stroke-linejoin: miter"/>
   </g>
   <g id="patch_9">
    <path d="M 494.881374 143.028 
Q 504.265357 143.028 512.195896 143.028 
" clip-path="url(#p431308602e)" style="fill: none; stroke: #000000; stroke-width: 1.3; stroke-linecap: round"/>
    <path d="M 506.995896 140.428 
L 512.195896 143.028 
L 506.995896 145.628 
z
" clip-path="url(#p431308602e)" style="stroke: #000000; stroke-width: 1.3; stroke-linecap: round"/>
   </g>
   <g id="patch_10">
    <path d="M 527.0328 187.85124 
L 602.9208 187.85124 
Q 625.6872 187.85124 625.6872 179.70156 
L 625.6872 106.35444 
Q 625.6872 98.20476 602.9208 98.20476 
L 527.0328 98.20476 
Q 504.2664 98.20476 504.2664 106.35444 
L 504.2664 179.70156 
Q 504.2664 187.85124 527.0328 187.85124 
z
" clip-path="url(#p431308602e)" style="fill: #ffffff; stroke: #000000; stroke-width: 1.2; stroke-linejoin: miter"/>
   </g>
   <g id="patch_11">
    <path d="M 616.302174 143.028 
Q 625.686157 143.028 633.616696 143.028 
" clip-path="url(#p431308602e)" style="fill: none; stroke: #000000; stroke-width: 1.3; stroke-linecap: round"/>
    <path d="M 628.416696 140.428 
L 633.616696 143.028 
L 628.416696 145.628 
z
" clip-path="url(#p431308602e)" style="stroke: #000000; stroke-width: 1.3; stroke-linecap: round"/>
   </g>
   <g id="patch_12">
    <path d="M 648.4536 187.85124 
L 724.3416 187.85124 
Q 747.108 187.85124 747.108 179.70156 
L 747.108 106.35444 
Q 747.108 98.20476 724.3416 98.20476 
L 648.4536 98.20476 
Q 625.6872 98.20476 625.6872 106.35444 
L 625.6872 179.70156 
Q 625.6872 187.85124 648.4536 187.85124 
z
" clip-path="url(#p431308602e)" style="fill: #ffffff; stroke: #000000; stroke-width: 1.2; stroke-linejoin: miter"/>
   </g>
   <g id="text_1">
    <!-- internal scale -->
    <g transform="translate(45.636569 140.178312) scale(0.1 -0.1)">
     <defs>
      <path id="DejaVuSans-69" d="M 603 3500 
L 1178 3500 
L 1178 0 
L 603 0 
L 603 3500 
z
M 603 4863 
L 1178 4863 
L 1178 4134 
L 603 4134 
L 603 4863 
z
" transform="scale(0.015625)"/>
      <path id="DejaVuSans-6e" d="M 3513 2113 
L 3513 0 
L 2938 0 
L 2938 2094 
Q 2938 2591 2744 2837 
Q 2550 3084 2163 3084 
Q 1697 3084 1428 2787 
Q 1159 2491 1159 1978 
L 1159 0 
L 581 0 
L 581 3500 
L 1159 3500 
L 1159 2956 
Q 1366 3272 1645 3428 
Q 1925 3584 2291 3584 
Q 2894 3584 3203 3211 
Q 3513 2838 3513 2113 
z
" transform="scale(0.015625)"/>
      <path id="DejaVuSans-74" d="M 1172 4494 
L 1172 3500 
L 2356 3500 
L 2356 3053 
L 1172 3053 
L 1172 1153 
Q 1172 725 1289 603 
Q 1406 481 1766 481 
L 2356 481 
L 2356 0 
L 1766 0 
Q 1100 0 847 248 
Q 594 497 594 1153 
L 594 3053 
L 172 3053 
L 172 3500 
L 594 3500 
L 594 4494 
L 1172 4494 
z
" transform="scale(0.015625)"/>
      <path id="DejaVuSans-65" d="M 3597 1894 
L 3597 1613 
L 953 1613 
Q 991 1019 1311 708 
Q 1631 397 2203 397 
Q 2534 397 2845 478 
Q 3156 559 3463 722 
L 3463 178 
Q 3153 47 2828 -22 
Q 2503 -91 2169 -91 
Q 1331 -91 842 396 
Q 353 884 353 1716 
Q 353 2575 817 3079 
Q 1281 3584 2069 3584 
Q 2775 3584 3186 3129 
Q 3597 2675 3597 1894 
z
M 3022 2063 
Q 3016 2534 2758 2815 
Q 2500 3097 2075 3097 
Q 1594 3097 1305 2825 
Q 1016 2553 972 2059 
L 3022 2063 
z
" transform="scale(0.015625)"/>
      <path id="DejaVuSans-72" d="M 2631 2963 
Q 2534 3019 2420 3045 
Q 2306 3072 2169 3072 
Q 1681 3072 1420 2755 
Q 1159 2438 1159 1844 
L 1159 0 
L 581 0 
L 581 3500 
L 1159 3500 
L 1159 2956 
Q 1341 3275 1631 3429 
Q 1922 3584 2338 3584 
Q 2397 3584 2469 3576 
Q 2541 3569 2628 3553 
L 2631 2963 
z
" transform="scale(0.015625)"/>
      <path id="DejaVuSans-61" d="M 2194 1759 
Q 1497 1759 1228 1600 
Q 959 1441 959 1056 
Q 959 750 1161 570 
Q 1363 391 1709 391 
Q 2188 391 2477 730 
Q 2766 1069 2766 1631 
L 2766 1759 
L 2194 1759 
z
M 3341 1997 
L 3341 0 
L 2766 0 
L 2766 531 
Q 2569 213 2275 61 
Q 1981 -91 1556 -91 
Q 1019 -91 701 211 
Q 384 513 384 1019 
Q 384 1609 779 1909 
Q 1175 2209 1959 2209 
L 2766 2209 
L 2766 2266 
Q 2766 2663 2505 2880 
Q 2244 3097 1772 3097 
Q 1472 3097 1187 3025 
Q 903 2953 641 2809 
L 641 3341 
Q 956 3463 1253 3523 
Q 1550 3584 1831 3584 
Q 2591 3584 2966 3190 
Q 3341 2797 3341 1997 
z
" transform="scale(0.015625)"/>
      <path id="DejaVuSans-6c" d="M 603 4863 
L 1178 4863 
L 1178 0 
L 603 0 
L 603 4863 
z
" transform="scale(0.015625)"/>
      <path id="DejaVuSans-20" transform="scale(0.015625)"/>
      <path id="DejaVuSans-73" d="M 2834 3397 
L 2834 2853 
Q 2591 2978 2328 3040 
Q 2066 3103 1784 3103 
Q 1356 3103 1142 2972 
Q 928 2841 928 2578 
Q 928 2378 1081 2264 
Q 1234 2150 1697 2047 
L 1894 2003 
Q 2506 1872 2764 1633 
Q 3022 1394 3022 966 
Q 3022 478 2636 193 
Q 2250 -91 1575 -91 
Q 1294 -91 989 -36 
Q 684 19 347 128 
L 347 722 
Q 666 556 975 473 
Q 1284 391 1588 391 
Q 1994 391 2212 530 
Q 2431 669 2431 922 
Q 2431 1156 2273 1281 
Q 2116 1406 1581 1522 
L 1381 1569 
Q 847 1681 609 1914 
Q 372 2147 372 2553 
Q 372 3047 722 3315 
Q 1072 3584 1716 3584 
Q 2034 3584 2315 3537 
Q 2597 3491 2834 3397 
z
" transform="scale(0.015625)"/>
      <path id="DejaVuSans-63" d="M 3122 3366 
L 3122 2828 
Q 2878 2963 2633 3030 
Q 2388 3097 2138 3097 
Q 1578 3097 1268 2742 
Q 959 2388 959 1747 
Q 959 1106 1268 751 
Q 1578 397 2138 397 
Q 2388 397 2633 464 
Q 2878 531 3122 666 
L 3122 134 
Q 2881 22 2623 -34 
Q 2366 -91 2075 -91 
Q 1284 -91 818 406 
Q 353 903 353 1747 
Q 353 2603 823 3093 
Q 1294 3584 2113 3584 
Q 2378 3584 2631 3529 
Q 2884 3475 3122 3366 
z
" transform="scale(0.015625)"/>
     </defs>
     <use xlink:href="#DejaVuSans-69"/>
     <use xlink:href="#DejaVuSans-6e" transform="translate(27.783203 0)"/>
     <use xlink:href="#DejaVuSans-74" transform="translate(91.162109 0)"/>
     <use xlink:href="#DejaVuSans-65" transform="translate(130.371094 0)"/>
     <use xlink:href="#DejaVuSans-72" transform="translate(191.894531 0)"/>
     <use xlink:href="#DejaVuSans-6e" transform="translate(231.257812 0)"/>
     <use xlink:href="#DejaVuSans-61" transform="translate(294.636719 0)"/>
     <use xlink:href="#DejaVuSans-6c" transform="translate(355.916016 0)"/>
     <use xlink:href="#DejaVuSans-20" transform="translate(383.699219 0)"/>
     <use xlink:href="#DejaVuSans-73" transform="translate(415.486328 0)"/>
     <use xlink:href="#DejaVuSans-63" transform="translate(467.585938 0)"/>
     <use xlink:href="#DejaVuSans-61" transform="translate(522.566406 0)"/>
     <use xlink:href="#DejaVuSans-6c" transform="translate(583.845703 0)"/>
     <use xlink:href="#DejaVuSans-65" transform="translate(611.628906 0)"/>
    </g>
    <!-- $\rho$ -->
    <g transform="translate(76.0936 151.376125) scale(0.1 -0.1)">
     <defs>
      <path id="DejaVuSans-Oblique-3c1" d="M 1203 2875 
Q 1453 3194 1981 3475 
Q 2188 3584 2756 3584 
Q 3394 3584 3694 3078 
Q 3994 2572 3834 1747 
Q 3672 922 3175 415 
Q 2678 -91 2041 -91 
Q 1656 -91 1409 63 
Q 1163 213 1044 525 
L 681 -1331 
L 103 -1331 
L 697 1716 
Q 838 2438 1203 2875 
z
M 3238 1747 
Q 3359 2381 3169 2744 
Q 2978 3103 2522 3103 
Q 2066 3103 1734 2744 
Q 1403 2381 1281 1747 
Q 1156 1113 1347 750 
Q 1538 391 1994 391 
Q 2450 391 2781 750 
Q 3113 1113 3238 1747 
z
" transform="scale(0.015625)"/>
     </defs>
     <use xlink:href="#DejaVuSans-Oblique-3c1"/>
    </g>
   </g>
   <g id="text_2">
    <!-- closure eigenmode -->
    <g transform="translate(153.069088 140.177375) scale(0.1 -0.1)">
     <defs>
      <path id="DejaVuSans-6f" d="M 1959 3097 
Q 1497 3097 1228 2736 
Q 959 2375 959 1747 
Q 959 1119 1226 758 
Q 1494 397 1959 397 
Q 2419 397 2687 759 
Q 2956 1122 2956 1747 
Q 2956 2369 2687 2733 
Q 2419 3097 1959 3097 
z
M 1959 3584 
Q 2709 3584 3137 3096 
Q 3566 2609 3566 1747 
Q 3566 888 3137 398 
Q 2709 -91 1959 -91 
Q 1206 -91 779 398 
Q 353 888 353 1747 
Q 353 2609 779 3096 
Q 1206 3584 1959 3584 
z
" transform="scale(0.015625)"/>
      <path id="DejaVuSans-75" d="M 544 1381 
L 544 3500 
L 1119 3500 
L 1119 1403 
Q 1119 906 1312 657 
Q 1506 409 1894 409 
Q 2359 409 2629 706 
Q 2900 1003 2900 1516 
L 2900 3500 
L 3475 3500 
L 3475 0 
L 2900 0 
L 2900 538 
Q 2691 219 2414 64 
Q 2138 -91 1772 -91 
Q 1169 -91 856 284 
Q 544 659 544 1381 
z
M 1991 3584 
L 1991 3584 
z
" transform="scale(0.015625)"/>
      <path id="DejaVuSans-67" d="M 2906 1791 
Q 2906 2416 2648 2759 
Q 2391 3103 1925 3103 
Q 1463 3103 1205 2759 
Q 947 2416 947 1791 
Q 947 1169 1205 825 
Q 1463 481 1925 481 
Q 2391 481 2648 825 
Q 2906 1169 2906 1791 
z
M 3481 434 
Q 3481 -459 3084 -895 
Q 2688 -1331 1869 -1331 
Q 1566 -1331 1297 -1286 
Q 1028 -1241 775 -1147 
L 775 -588 
Q 1028 -725 1275 -790 
Q 1522 -856 1778 -856 
Q 2344 -856 2625 -561 
Q 2906 -266 2906 331 
L 2906 616 
Q 2728 306 2450 153 
Q 2172 0 1784 0 
Q 1141 0 747 490 
Q 353 981 353 1791 
Q 353 2603 747 3093 
Q 1141 3584 1784 3584 
Q 2172 3584 2450 3431 
Q 2728 3278 2906 2969 
L 2906 3500 
L 3481 3500 
L 3481 434 
z
" transform="scale(0.015625)"/>
      <path id="DejaVuSans-6d" d="M 3328 2828 
Q 3544 3216 3844 3400 
Q 4144 3584 4550 3584 
Q 5097 3584 5394 3201 
Q 5691 2819 5691 2113 
L 5691 0 
L 5113 0 
L 5113 2094 
Q 5113 2597 4934 2840 
Q 4756 3084 4391 3084 
Q 3944 3084 3684 2787 
Q 3425 2491 3425 1978 
L 3425 0 
L 2847 0 
L 2847 2094 
Q 2847 2600 2669 2842 
Q 2491 3084 2119 3084 
Q 1678 3084 1418 2786 
Q 1159 2488 1159 1978 
L 1159 0 
L 581 0 
L 581 3500 
L 1159 3500 
L 1159 2956 
Q 1356 3278 1631 3431 
Q 1906 3584 2284 3584 
Q 2666 3584 2933 3390 
Q 3200 3197 3328 2828 
z
" transform="scale(0.015625)"/>
      <path id="DejaVuSans-64" d="M 2906 2969 
L 2906 4863 
L 3481 4863 
L 3481 0 
L 2906 0 
L 2906 525 
Q 2725 213 2448 61 
Q 2172 -91 1784 -91 
Q 1150 -91 751 415 
Q 353 922 353 1747 
Q 353 2572 751 3078 
Q 1150 3584 1784 3584 
Q 2172 3584 2448 3432 
Q 2725 3281 2906 2969 
z
M 947 1747 
Q 947 1113 1208 752 
Q 1469 391 1925 391 
Q 2381 391 2643 752 
Q 2906 1113 2906 1747 
Q 2906 2381 2643 2742 
Q 2381 3103 1925 3103 
Q 1469 3103 1208 2742 
Q 947 2381 947 1747 
z
" transform="scale(0.015625)"/>
     </defs>
     <use xlink:href="#DejaVuSans-63"/>
     <use xlink:href="#DejaVuSans-6c" transform="translate(54.980469 0)"/>
     <use xlink:href="#DejaVuSans-6f" transform="translate(82.763672 0)"/>
     <use xlink:href="#DejaVuSans-73" transform="translate(143.945312 0)"/>
     <use xlink:href="#DejaVuSans-75" transform="translate(196.044922 0)"/>
     <use xlink:href="#DejaVuSans-72" transform="translate(259.423828 0)"/>
     <use xlink:href="#DejaVuSans-65" transform="translate(298.287109 0)"/>
     <use xlink:href="#DejaVuSans-20" transform="translate(359.810547 0)"/>
     <use xlink:href="#DejaVuSans-65" transform="translate(391.597656 0)"/>
     <use xlink:href="#DejaVuSans-69" transform="translate(453.121094 0)"/>
     <use xlink:href="#DejaVuSans-67" transform="translate(480.904297 0)"/>
     <use xlink:href="#DejaVuSans-65" transform="translate(544.380859 0)"/>
     <use xlink:href="#DejaVuSans-6e" transform="translate(605.904297 0)"/>
     <use xlink:href="#DejaVuSans-6d" transform="translate(669.283203 0)"/>
     <use xlink:href="#DejaVuSans-6f" transform="translate(766.695312 0)"/>
     <use xlink:href="#DejaVuSans-64" transform="translate(827.876953 0)"/>
     <use xlink:href="#DejaVuSans-65" transform="translate(891.353516 0)"/>
    </g>
    <!-- $\chi_t(\rho)$ -->
    <g transform="translate(189.1644 151.377062) scale(0.1 -0.1)">
     <defs>
      <path id="DejaVuSans-Oblique-3c7" d="M 1922 -781 
L 1691 416 
L 394 -1334 
L -284 -1334 
L 1553 1141 
L 1269 2613 
Q 1194 3006 713 3006 
L 559 3006 
L 653 3500 
L 872 3494 
Q 1675 3472 1775 2950 
L 2006 1753 
L 3303 3503 
L 3981 3503 
L 2144 1028 
L 2428 -444 
Q 2503 -838 2984 -838 
L 3138 -838 
L 3044 -1331 
L 2825 -1325 
Q 2022 -1303 1922 -781 
z
" transform="scale(0.015625)"/>
      <path id="DejaVuSans-Oblique-74" d="M 2706 3500 
L 2619 3053 
L 1472 3053 
L 1100 1153 
Q 1081 1047 1072 975 
Q 1063 903 1063 863 
Q 1063 663 1183 572 
Q 1303 481 1569 481 
L 2150 481 
L 2053 0 
L 1503 0 
Q 991 0 739 200 
Q 488 400 488 806 
Q 488 878 497 964 
Q 506 1050 525 1153 
L 897 3053 
L 409 3053 
L 500 3500 
L 978 3500 
L 1172 4494 
L 1747 4494 
L 1556 3500 
L 2706 3500 
z
" transform="scale(0.015625)"/>
      <path id="DejaVuSans-28" d="M 1984 4856 
Q 1566 4138 1362 3434 
Q 1159 2731 1159 2009 
Q 1159 1288 1364 580 
Q 1569 -128 1984 -844 
L 1484 -844 
Q 1016 -109 783 600 
Q 550 1309 550 2009 
Q 550 2706 781 3412 
Q 1013 4119 1484 4856 
L 1984 4856 
z
" transform="scale(0.015625)"/>
      <path id="DejaVuSans-29" d="M 513 4856 
L 1013 4856 
Q 1481 4119 1714 3412 
Q 1947 2706 1947 2009 
Q 1947 1309 1714 600 
Q 1481 -109 1013 -844 
L 513 -844 
Q 928 -128 1133 580 
Q 1338 1288 1338 2009 
Q 1338 2731 1133 3434 
Q 928 4138 513 4856 
z
" transform="scale(0.015625)"/>
     </defs>
     <use xlink:href="#DejaVuSans-Oblique-3c7" transform="translate(0 0.125)"/>
     <use xlink:href="#DejaVuSans-Oblique-74" transform="translate(59.179688 -16.28125) scale(0.7)"/>
     <use xlink:href="#DejaVuSans-28" transform="translate(89.360352 0.125)"/>
     <use xlink:href="#DejaVuSans-Oblique-3c1" transform="translate(128.374023 0.125)"/>
     <use xlink:href="#DejaVuSans-29" transform="translate(191.850586 0.125)"/>
    </g>
   </g>
   <g id="text_3">
    <!-- quaternionic generator -->
    <g transform="translate(264.519575 140.188469) scale(0.1 -0.1)">
     <defs>
      <path id="DejaVuSans-71" d="M 947 1747 
Q 947 1113 1208 752 
Q 1469 391 1925 391 
Q 2381 391 2643 752 
Q 2906 1113 2906 1747 
Q 2906 2381 2643 2742 
Q 2381 3103 1925 3103 
Q 1469 3103 1208 2742 
Q 947 2381 947 1747 
z
M 2906 525 
Q 2725 213 2448 61 
Q 2172 -91 1784 -91 
Q 1150 -91 751 415 
Q 353 922 353 1747 
Q 353 2572 751 3078 
Q 1150 3584 1784 3584 
Q 2172 3584 2448 3432 
Q 2725 3281 2906 2969 
L 2906 3500 
L 3481 3500 
L 3481 -1331 
L 2906 -1331 
L 2906 525 
z
" transform="scale(0.015625)"/>
     </defs>
     <use xlink:href="#DejaVuSans-71"/>
     <use xlink:href="#DejaVuSans-75" transform="translate(63.476562 0)"/>
     <use xlink:href="#DejaVuSans-61" transform="translate(126.855469 0)"/>
     <use xlink:href="#DejaVuSans-74" transform="translate(188.134766 0)"/>
     <use xlink:href="#DejaVuSans-65" transform="translate(227.34375 0)"/>
     <use xlink:href="#DejaVuSans-72" transform="translate(288.867188 0)"/>
     <use xlink:href="#DejaVuSans-6e" transform="translate(328.230469 0)"/>
     <use xlink:href="#DejaVuSans-69" transform="translate(391.609375 0)"/>
     <use xlink:href="#DejaVuSans-6f" transform="translate(419.392578 0)"/>
     <use xlink:href="#DejaVuSans-6e" transform="translate(480.574219 0)"/>
     <use xlink:href="#DejaVuSans-69" transform="translate(543.953125 0)"/>
     <use xlink:href="#DejaVuSans-63" transform="translate(571.736328 0)"/>
     <use xlink:href="#DejaVuSans-20" transform="translate(626.716797 0)"/>
     <use xlink:href="#DejaVuSans-67" transform="translate(658.503906 0)"/>
     <use xlink:href="#DejaVuSans-65" transform="translate(721.980469 0)"/>
     <use xlink:href="#DejaVuSans-6e" transform="translate(783.503906 0)"/>
     <use xlink:href="#DejaVuSans-65" transform="translate(846.882812 0)"/>
     <use xlink:href="#DejaVuSans-72" transform="translate(908.40625 0)"/>
     <use xlink:href="#DejaVuSans-61" transform="translate(949.519531 0)"/>
     <use xlink:href="#DejaVuSans-74" transform="translate(1010.798828 0)"/>
     <use xlink:href="#DejaVuSans-6f" transform="translate(1050.007812 0)"/>
     <use xlink:href="#DejaVuSans-72" transform="translate(1111.189453 0)"/>
    </g>
    <!-- $\mathcal{A}_u$ -->
    <g transform="translate(315.4352 151.386281) scale(0.1 -0.1)">
     <defs>
      <path id="STIXNonUnicode-Italic-e22d" d="M 5075 416 
L 5197 320 
Q 4928 -198 4365 -198 
Q 4013 -198 3865 74 
Q 3718 346 3706 1024 
L 2182 1024 
Q 2112 922 1961 717 
Q 1811 512 1750 425 
Q 1690 339 1571 192 
Q 1453 45 1382 -16 
Q 1312 -77 1209 -153 
Q 1107 -230 1014 -259 
Q 922 -288 819 -288 
Q 595 -288 435 -131 
Q 275 26 275 243 
Q 275 416 364 521 
Q 454 627 614 627 
Q 717 627 784 572 
Q 851 518 873 457 
Q 896 397 941 342 
Q 986 288 1056 288 
Q 1376 288 1965 1178 
L 4026 4333 
L 4205 4333 
L 4378 883 
Q 4416 198 4691 198 
Q 4941 198 5075 416 
z
M 3699 1280 
L 3616 3232 
L 2330 1280 
Q 2291 1229 2291 1197 
Q 2291 1190 2294 1190 
Q 2298 1190 2298 1184 
Q 2336 1184 2502 1280 
L 3699 1280 
z
" transform="scale(0.015625)"/>
      <path id="DejaVuSans-Oblique-75" d="M 428 1388 
L 838 3500 
L 1416 3500 
L 1006 1409 
Q 975 1256 961 1147 
Q 947 1038 947 966 
Q 947 700 1109 554 
Q 1272 409 1569 409 
Q 2031 409 2368 721 
Q 2706 1034 2809 1563 
L 3194 3500 
L 3769 3500 
L 3091 0 
L 2516 0 
L 2631 550 
Q 2388 244 2052 76 
Q 1716 -91 1338 -91 
Q 878 -91 622 161 
Q 366 413 366 863 
Q 366 956 381 1097 
Q 397 1238 428 1388 
z
" transform="scale(0.015625)"/>
     </defs>
     <use xlink:href="#STIXNonUnicode-Italic-e22d" transform="translate(0 0.296875)"/>
     <use xlink:href="#DejaVuSans-Oblique-75" transform="translate(86.157013 -16.109375) scale(0.7)"/>
    </g>
   </g>
   <g id="text_4">
    <!-- zeta selector -->
    <g transform="translate(411.270844 140.188469) scale(0.1 -0.1)">
     <defs>
      <path id="DejaVuSans-7a" d="M 353 3500 
L 3084 3500 
L 3084 2975 
L 922 459 
L 3084 459 
L 3084 0 
L 275 0 
L 275 525 
L 2438 3041 
L 353 3041 
L 353 3500 
z
" transform="scale(0.015625)"/>
     </defs>
     <use xlink:href="#DejaVuSans-7a"/>
     <use xlink:href="#DejaVuSans-65" transform="translate(52.490234 0)"/>
     <use xlink:href="#DejaVuSans-74" transform="translate(114.013672 0)"/>
     <use xlink:href="#DejaVuSans-61" transform="translate(153.222656 0)"/>
     <use xlink:href="#DejaVuSans-20" transform="translate(214.501953 0)"/>
     <use xlink:href="#DejaVuSans-73" transform="translate(246.289062 0)"/>
     <use xlink:href="#DejaVuSans-65" transform="translate(298.388672 0)"/>
     <use xlink:href="#DejaVuSans-6c" transform="translate(359.912109 0)"/>
     <use xlink:href="#DejaVuSans-65" transform="translate(387.695312 0)"/>
     <use xlink:href="#DejaVuSans-63" transform="translate(449.21875 0)"/>
     <use xlink:href="#DejaVuSans-74" transform="translate(504.199219 0)"/>
     <use xlink:href="#DejaVuSans-6f" transform="translate(543.408203 0)"/>
     <use xlink:href="#DejaVuSans-72" transform="translate(604.589844 0)"/>
    </g>
    <!-- $\Xi(\mathcal{A}_u)$ -->
    <g transform="translate(429.806 151.386281) scale(0.1 -0.1)">
     <defs>
      <path id="DejaVuSans-39e" d="M 956 2753 
L 3178 2753 
L 3178 2222 
L 956 2222 
L 956 2753 
z
M 628 4666 
L 3506 4666 
L 3506 4134 
L 628 4134 
L 628 4666 
z
M 628 531 
L 3506 531 
L 3506 0 
L 628 0 
L 628 531 
z
" transform="scale(0.015625)"/>
     </defs>
     <use xlink:href="#DejaVuSans-39e" transform="translate(0 0.125)"/>
     <use xlink:href="#DejaVuSans-28" transform="translate(63.183594 0.125)"/>
     <use xlink:href="#STIXNonUnicode-Italic-e22d" transform="translate(102.197266 0.125)"/>
     <use xlink:href="#DejaVuSans-Oblique-75" transform="translate(188.354279 -16.28125) scale(0.7)"/>
     <use xlink:href="#DejaVuSans-29" transform="translate(235.453888 0.125)"/>
    </g>
   </g>
   <g id="text_5">
    <!-- kernel mode at zeros -->
    <g transform="translate(512.304144 140.188469) scale(0.1 -0.1)">
     <defs>
      <path id="DejaVuSans-6b" d="M 581 4863 
L 1159 4863 
L 1159 1991 
L 2875 3500 
L 3609 3500 
L 1753 1863 
L 3688 0 
L 2938 0 
L 1159 1709 
L 1159 0 
L 581 0 
L 581 4863 
z
" transform="scale(0.015625)"/>
     </defs>
     <use xlink:href="#DejaVuSans-6b"/>
     <use xlink:href="#DejaVuSans-65" transform="translate(54.285156 0)"/>
     <use xlink:href="#DejaVuSans-72" transform="translate(115.808594 0)"/>
     <use xlink:href="#DejaVuSans-6e" transform="translate(155.171875 0)"/>
     <use xlink:href="#DejaVuSans-65" transform="translate(218.550781 0)"/>
     <use xlink:href="#DejaVuSans-6c" transform="translate(280.074219 0)"/>
     <use xlink:href="#DejaVuSans-20" transform="translate(307.857422 0)"/>
     <use xlink:href="#DejaVuSans-6d" transform="translate(339.644531 0)"/>
     <use xlink:href="#DejaVuSans-6f" transform="translate(437.056641 0)"/>
     <use xlink:href="#DejaVuSans-64" transform="translate(498.238281 0)"/>
     <use xlink:href="#DejaVuSans-65" transform="translate(561.714844 0)"/>
     <use xlink:href="#DejaVuSans-20" transform="translate(623.238281 0)"/>
     <use xlink:href="#DejaVuSans-61" transform="translate(655.025391 0)"/>
     <use xlink:href="#DejaVuSans-74" transform="translate(716.304688 0)"/>
     <use xlink:href="#DejaVuSans-20" transform="translate(755.513672 0)"/>
     <use xlink:href="#DejaVuSans-7a" transform="translate(787.300781 0)"/>
     <use xlink:href="#DejaVuSans-65" transform="translate(839.791016 0)"/>
     <use xlink:href="#DejaVuSans-72" transform="translate(901.314453 0)"/>
     <use xlink:href="#DejaVuSans-6f" transform="translate(940.177734 0)"/>
     <use xlink:href="#DejaVuSans-73" transform="translate(1001.359375 0)"/>
    </g>
    <!-- $\Xi(t_n)=0$ -->
    <g transform="translate(544.2768 151.386281) scale(0.1 -0.1)">
     <defs>
      <path id="DejaVuSans-Oblique-6e" d="M 3566 2113 
L 3156 0 
L 2578 0 
L 2988 2091 
Q 3016 2238 3031 2350 
Q 3047 2463 3047 2528 
Q 3047 2791 2881 2937 
Q 2716 3084 2419 3084 
Q 1956 3084 1622 2776 
Q 1288 2469 1184 1941 
L 800 0 
L 225 0 
L 903 3500 
L 1478 3500 
L 1363 2950 
Q 1603 3253 1940 3418 
Q 2278 3584 2650 3584 
Q 3113 3584 3367 3334 
Q 3622 3084 3622 2631 
Q 3622 2519 3608 2391 
Q 3594 2263 3566 2113 
z
" transform="scale(0.015625)"/>
      <path id="DejaVuSans-3d" d="M 678 2906 
L 4684 2906 
L 4684 2381 
L 678 2381 
L 678 2906 
z
M 678 1631 
L 4684 1631 
L 4684 1100 
L 678 1100 
L 678 1631 
z
" transform="scale(0.015625)"/>
      <path id="DejaVuSans-30" d="M 2034 4250 
Q 1547 4250 1301 3770 
Q 1056 3291 1056 2328 
Q 1056 1369 1301 889 
Q 1547 409 2034 409 
Q 2525 409 2770 889 
Q 3016 1369 3016 2328 
Q 3016 3291 2770 3770 
Q 2525 4250 2034 4250 
z
M 2034 4750 
Q 2819 4750 3233 4129 
Q 3647 3509 3647 2328 
Q 3647 1150 3233 529 
Q 2819 -91 2034 -91 
Q 1250 -91 836 529 
Q 422 1150 422 2328 
Q 422 3509 836 4129 
Q 1250 4750 2034 4750 
z
" transform="scale(0.015625)"/>
     </defs>
     <use xlink:href="#DejaVuSans-39e" transform="translate(0 0.125)"/>
     <use xlink:href="#DejaVuSans-28" transform="translate(63.183594 0.125)"/>
     <use xlink:href="#DejaVuSans-Oblique-74" transform="translate(102.197266 0.125)"/>
     <use xlink:href="#DejaVuSans-Oblique-6e" transform="translate(141.40625 -16.28125) scale(0.7)"/>
     <use xlink:href="#DejaVuSans-29" transform="translate(188.505859 0.125)"/>
     <use xlink:href="#DejaVuSans-3d" transform="translate(247.001953 0.125)"/>
     <use xlink:href="#DejaVuSans-30" transform="translate(350.273438 0.125)"/>
    </g>
   </g>
   <g id="text_6">
    <!-- mass-shell lift -->
    <g transform="translate(651.821819 140.188469) scale(0.1 -0.1)">
     <defs>
      <path id="DejaVuSans-2d" d="M 313 2009 
L 1997 2009 
L 1997 1497 
L 313 1497 
L 313 2009 
z
" transform="scale(0.015625)"/>
      <path id="DejaVuSans-68" d="M 3513 2113 
L 3513 0 
L 2938 0 
L 2938 2094 
Q 2938 2591 2744 2837 
Q 2550 3084 2163 3084 
Q 1697 3084 1428 2787 
Q 1159 2491 1159 1978 
L 1159 0 
L 581 0 
L 581 4863 
L 1159 4863 
L 1159 2956 
Q 1366 3272 1645 3428 
Q 1925 3584 2291 3584 
Q 2894 3584 3203 3211 
Q 3513 2838 3513 2113 
z
" transform="scale(0.015625)"/>
      <path id="DejaVuSans-66" d="M 2375 4863 
L 2375 4384 
L 1825 4384 
Q 1516 4384 1395 4259 
Q 1275 4134 1275 3809 
L 1275 3500 
L 2222 3500 
L 2222 3053 
L 1275 3053 
L 1275 0 
L 697 0 
L 697 3053 
L 147 3053 
L 147 3500 
L 697 3500 
L 697 3744 
Q 697 4328 969 4595 
Q 1241 4863 1831 4863 
L 2375 4863 
z
" transform="scale(0.015625)"/>
     </defs>
     <use xlink:href="#DejaVuSans-6d"/>
     <use xlink:href="#DejaVuSans-61" transform="translate(97.412109 0)"/>
     <use xlink:href="#DejaVuSans-73" transform="translate(158.691406 0)"/>
     <use xlink:href="#DejaVuSans-73" transform="translate(210.791016 0)"/>
     <use xlink:href="#DejaVuSans-2d" transform="translate(262.890625 0)"/>
     <use xlink:href="#DejaVuSans-73" transform="translate(298.974609 0)"/>
     <use xlink:href="#DejaVuSans-68" transform="translate(351.074219 0)"/>
     <use xlink:href="#DejaVuSans-65" transform="translate(414.453125 0)"/>
     <use xlink:href="#DejaVuSans-6c" transform="translate(475.976562 0)"/>
     <use xlink:href="#DejaVuSans-6c" transform="translate(503.759766 0)"/>
     <use xlink:href="#DejaVuSans-20" transform="translate(531.542969 0)"/>
     <use xlink:href="#DejaVuSans-6c" transform="translate(563.330078 0)"/>
     <use xlink:href="#DejaVuSans-69" transform="translate(591.113281 0)"/>
     <use xlink:href="#DejaVuSans-66" transform="translate(618.896484 0)"/>
     <use xlink:href="#DejaVuSans-74" transform="translate(652.351562 0)"/>
    </g>
    <!-- $L_*$ -->
    <g transform="translate(680.3476 151.386281) scale(0.1 -0.1)">
     <defs>
      <path id="DejaVuSans-Oblique-4c" d="M 1075 4666 
L 1709 4666 
L 909 525 
L 3181 525 
L 3078 0 
L 172 0 
L 1075 4666 
z
" transform="scale(0.015625)"/>
      <path id="DejaVuSans-2a" d="M 3009 3897 
L 1888 3291 
L 3009 2681 
L 2828 2375 
L 1778 3009 
L 1778 1831 
L 1422 1831 
L 1422 3009 
L 372 2375 
L 191 2681 
L 1313 3291 
L 191 3897 
L 372 4206 
L 1422 3572 
L 1422 4750 
L 1778 4750 
L 1778 3572 
L 2828 4206 
L 3009 3897 
z
" transform="scale(0.015625)"/>
     </defs>
     <use xlink:href="#DejaVuSans-Oblique-4c" transform="translate(0 0.09375)"/>
     <use xlink:href="#DejaVuSans-2a" transform="translate(69.350586 -16.3125) scale(0.7)"/>
    </g>
   </g>
   <g id="text_7">
    <!-- Pipeline logic: $\rho \to \chi_t(\rho) \to \mathcal{A}_u \to \Xi(\mathcal{A}_u) \to$ mass-shell map. -->
    <g transform="translate(239.883 235.39104) scale(0.106 -0.106)">
     <defs>
      <path id="DejaVuSans-50" d="M 1259 4147 
L 1259 2394 
L 2053 2394 
Q 2494 2394 2734 2622 
Q 2975 2850 2975 3272 
Q 2975 3691 2734 3919 
Q 2494 4147 2053 4147 
L 1259 4147 
z
M 628 4666 
L 2053 4666 
Q 2838 4666 3239 4311 
Q 3641 3956 3641 3272 
Q 3641 2581 3239 2228 
Q 2838 1875 2053 1875 
L 1259 1875 
L 1259 0 
L 628 0 
L 628 4666 
z
" transform="scale(0.015625)"/>
      <path id="DejaVuSans-70" d="M 1159 525 
L 1159 -1331 
L 581 -1331 
L 581 3500 
L 1159 3500 
L 1159 2969 
Q 1341 3281 1617 3432 
Q 1894 3584 2278 3584 
Q 2916 3584 3314 3078 
Q 3713 2572 3713 1747 
Q 3713 922 3314 415 
Q 2916 -91 2278 -91 
Q 1894 -91 1617 61 
Q 1341 213 1159 525 
z
M 3116 1747 
Q 3116 2381 2855 2742 
Q 2594 3103 2138 3103 
Q 1681 3103 1420 2742 
Q 1159 2381 1159 1747 
Q 1159 1113 1420 752 
Q 1681 391 2138 391 
Q 2594 391 2855 752 
Q 3116 1113 3116 1747 
z
" transform="scale(0.015625)"/>
      <path id="DejaVuSans-3a" d="M 750 794 
L 1409 794 
L 1409 0 
L 750 0 
L 750 794 
z
M 750 3309 
L 1409 3309 
L 1409 2516 
L 750 2516 
L 750 3309 
z
" transform="scale(0.015625)"/>
      <path id="DejaVuSans-2192" d="M 5050 2147 
L 5050 1866 
L 3822 638 
L 3447 1013 
L 4175 1741 
L 366 1741 
L 366 2272 
L 4175 2272 
L 3447 3000 
L 3822 3375 
L 5050 2147 
z
" transform="scale(0.015625)"/>
      <path id="DejaVuSans-2e" d="M 684 794 
L 1344 794 
L 1344 0 
L 684 0 
L 684 794 
z
" transform="scale(0.015625)"/>
     </defs>
     <use xlink:href="#DejaVuSans-50" transform="translate(0 0.015625)"/>
     <use xlink:href="#DejaVuSans-69" transform="translate(60.302734 0.015625)"/>
     <use xlink:href="#DejaVuSans-70" transform="translate(88.085938 0.015625)"/>
     <use xlink:href="#DejaVuSans-65" transform="translate(151.5625 0.015625)"/>
     <use xlink:href="#DejaVuSans-6c" transform="translate(213.085938 0.015625)"/>
     <use xlink:href="#DejaVuSans-69" transform="translate(240.869141 0.015625)"/>
     <use xlink:href="#DejaVuSans-6e" transform="translate(268.652344 0.015625)"/>
     <use xlink:href="#DejaVuSans-65" transform="translate(332.03125 0.015625)"/>
     <use xlink:href="#DejaVuSans-20" transform="translate(393.554688 0.015625)"/>
     <use xlink:href="#DejaVuSans-6c" transform="translate(425.341797 0.015625)"/>
     <use xlink:href="#DejaVuSans-6f" transform="translate(453.125 0.015625)"/>
     <use xlink:href="#DejaVuSans-67" transform="translate(514.306641 0.015625)"/>
     <use xlink:href="#DejaVuSans-69" transform="translate(577.783203 0.015625)"/>
     <use xlink:href="#DejaVuSans-63" transform="translate(605.566406 0.015625)"/>
     <use xlink:href="#DejaVuSans-3a" transform="translate(660.546875 0.015625)"/>
     <use xlink:href="#DejaVuSans-20" transform="translate(694.238281 0.015625)"/>
     <use xlink:href="#DejaVuSans-Oblique-3c1" transform="translate(726.025391 0.015625)"/>
     <use xlink:href="#DejaVuSans-2192" transform="translate(808.984375 0.015625)"/>
     <use xlink:href="#DejaVuSans-Oblique-3c7" transform="translate(912.255859 0.015625)"/>
     <use xlink:href="#DejaVuSans-Oblique-74" transform="translate(971.435547 -16.390625) scale(0.7)"/>
     <use xlink:href="#DejaVuSans-28" transform="translate(1001.616211 0.015625)"/>
     <use xlink:href="#DejaVuSans-Oblique-3c1" transform="translate(1040.629883 0.015625)"/>
     <use xlink:href="#DejaVuSans-29" transform="translate(1104.106445 0.015625)"/>
     <use xlink:href="#DejaVuSans-2192" transform="translate(1162.602539 0.015625)"/>
     <use xlink:href="#STIXNonUnicode-Italic-e22d" transform="translate(1265.874023 0.015625)"/>
     <use xlink:href="#DejaVuSans-Oblique-75" transform="translate(1352.031036 -16.390625) scale(0.7)"/>
     <use xlink:href="#DejaVuSans-2192" transform="translate(1418.613068 0.015625)"/>
     <use xlink:href="#DejaVuSans-39e" transform="translate(1521.884552 0.015625)"/>
     <use xlink:href="#DejaVuSans-28" transform="translate(1585.068146 0.015625)"/>
     <use xlink:href="#STIXNonUnicode-Italic-e22d" transform="translate(1624.081818 0.015625)"/>
     <use xlink:href="#DejaVuSans-Oblique-75" transform="translate(1710.238831 -16.390625) scale(0.7)"/>
     <use xlink:href="#DejaVuSans-29" transform="translate(1757.33844 0.015625)"/>
     <use xlink:href="#DejaVuSans-2192" transform="translate(1815.834534 0.015625)"/>
     <use xlink:href="#DejaVuSans-20" transform="translate(1919.106018 0.015625)"/>
     <use xlink:href="#DejaVuSans-6d" transform="translate(1950.893127 0.015625)"/>
     <use xlink:href="#DejaVuSans-61" transform="translate(2048.305237 0.015625)"/>
     <use xlink:href="#DejaVuSans-73" transform="translate(2109.584534 0.015625)"/>
     <use xlink:href="#DejaVuSans-73" transform="translate(2161.684143 0.015625)"/>
     <use xlink:href="#DejaVuSans-2d" transform="translate(2213.783752 0.015625)"/>
     <use xlink:href="#DejaVuSans-73" transform="translate(2249.867737 0.015625)"/>
     <use xlink:href="#DejaVuSans-68" transform="translate(2301.967346 0.015625)"/>
     <use xlink:href="#DejaVuSans-65" transform="translate(2365.346252 0.015625)"/>
     <use xlink:href="#DejaVuSans-6c" transform="translate(2426.86969 0.015625)"/>
     <use xlink:href="#DejaVuSans-6c" transform="translate(2454.652893 0.015625)"/>
     <use xlink:href="#DejaVuSans-20" transform="translate(2482.436096 0.015625)"/>
     <use xlink:href="#DejaVuSans-6d" transform="translate(2514.223206 0.015625)"/>
     <use xlink:href="#DejaVuSans-61" transform="translate(2611.635315 0.015625)"/>
     <use xlink:href="#DejaVuSans-70" transform="translate(2672.914612 0.015625)"/>
     <use xlink:href="#DejaVuSans-2e" transform="translate(2736.391174 0.015625)"/>
    </g>
   </g>
  </g>
 </g>
 <defs>
  <clipPath id="p431308602e">
   <rect x="7.2" y="7.2" width="758.88" height="271.656"/>
  </clipPath>
 </defs>
</svg>
