<?xml version="1.0" encoding="utf-8" standalone="no"?>
<!DOCTYPE svg PUBLIC "-//W3C//DTD SVG 1.1//EN"
  "http://www.w3.org/Graphics/SVG/1.1/DTD/svg11.dtd">
<svg xmlns:xlink="http://www.w3.org/1999/xlink" width="719.012328pt" height="358.924062pt" viewBox="0 0 719.012328 358.924062" xmlns="http://www.w3.org/2000/svg" version="1.1">
 <metadata>
  <rdf:RDF xmlns:dc="http://purl.org/dc/elements/1.1/" xmlns:cc="http://creativecommons.org/ns#" xmlns:rdf="http://www.w3.org/1999/02/22-rdf-syntax-ns#">
   <cc:Work>
    <dc:type rdf:resource="http://purl.org/dc/dcmitype/StillImage"/>
    <dc:date>2026-05-05T19:06:15.504762</dc:date>
    <dc:format>image/svg+xml</dc:format>
    <dc:creator>
     <cc:Agent>
      <dc:title>Matplotlib v3.10.9, https://matplotlib.org/</dc:title>
     </cc:Agent>
    </dc:creator>
   </cc:Work>
  </rdf:RDF>
 </metadata>
 <defs>
  <style type="text/css">*{stroke-linejoin: round; stroke-linecap: butt}</style>
 </defs>
 <g id="figure_1">
  <g id="patch_1">
   <path d="M 0 358.924062 
L 719.012328 358.924062 
L 719.012328 0 
L 0 0 
z
" style="fill: #ffffff"/>
  </g>
  <g id="axes_1">
   <g id="patch_2">
    <path d="M 60.539609 320.4 
L 359.830518 320.4 
L 359.830518 43.2 
L 60.539609 43.2 
z
" style="fill: #ffffff"/>
   </g>
   <g id="matplotlib.axis_1">
    <g id="xtick_1">
     <g id="line2d_1">
      <path d="M 74.143742 320.4 
L 74.143742 43.2 
" clip-path="url(#pb3d321f5a8)" style="fill: none; stroke: #b0b0b0; stroke-opacity: 0.25; stroke-width: 0.8; stroke-linecap: square"/>
     </g>
     <g id="line2d_2">
      <defs>
       <path id="m95ecd87bc0" d="M 0 0 
L 0 3.5 
" style="stroke: #000000; stroke-width: 0.8"/>
      </defs>
      <g>
       <use xlink:href="#m95ecd87bc0" x="74.143742" y="320.4" style="stroke: #000000; stroke-width: 0.8"/>
      </g>
     </g>
     <g id="text_1">
      <!-- 0 -->
      <g transform="translate(70.803429 335.378359) scale(0.105 -0.105)">
       <defs>
        <path id="DejaVuSans-30" d="M 2034 4250 
Q 1547 4250 1301 3770 
Q 1056 3291 1056 2328 
Q 1056 1369 1301 889 
Q 1547 409 2034 409 
Q 2525 409 2770 889 
Q 3016 1369 3016 2328 
Q 3016 3291 2770 3770 
Q 2525 4250 2034 4250 
z
M 2034 4750 
Q 2819 4750 3233 4129 
Q 3647 3509 3647 2328 
Q 3647 1150 3233 529 
Q 2819 -91 2034 -91 
Q 1250 -91 836 529 
Q 422 1150 422 2328 
Q 422 3509 836 4129 
Q 1250 4750 2034 4750 
z
" transform="scale(0.015625)"/>
       </defs>
       <use xlink:href="#DejaVuSans-30"/>
      </g>
     </g>
    </g>
    <g id="xtick_2">
     <g id="line2d_3">
      <path d="M 110.421428 320.4 
L 110.421428 43.2 
" clip-path="url(#pb3d321f5a8)" style="fill: none; stroke: #b0b0b0; stroke-opacity: 0.25; stroke-width: 0.8; stroke-linecap: square"/>
     </g>
     <g id="line2d_4">
      <g>
       <use xlink:href="#m95ecd87bc0" x="110.421428" y="320.4" style="stroke: #000000; stroke-width: 0.8"/>
      </g>
     </g>
     <g id="text_2">
      <!-- 1 -->
      <g transform="translate(107.081115 335.378359) scale(0.105 -0.105)">
       <defs>
        <path id="DejaVuSans-31" d="M 794 531 
L 1825 531 
L 1825 4091 
L 703 3866 
L 703 4441 
L 1819 4666 
L 2450 4666 
L 2450 531 
L 3481 531 
L 3481 0 
L 794 0 
L 794 531 
z
" transform="scale(0.015625)"/>
       </defs>
       <use xlink:href="#DejaVuSans-31"/>
      </g>
     </g>
    </g>
    <g id="xtick_3">
     <g id="line2d_5">
      <path d="M 146.699114 320.4 
L 146.699114 43.2 
" clip-path="url(#pb3d321f5a8)" style="fill: none; stroke: #b0b0b0; stroke-opacity: 0.25; stroke-width: 0.8; stroke-linecap: square"/>
     </g>
     <g id="line2d_6">
      <g>
       <use xlink:href="#m95ecd87bc0" x="146.699114" y="320.4" style="stroke: #000000; stroke-width: 0.8"/>
      </g>
     </g>
     <g id="text_3">
      <!-- 2 -->
      <g transform="translate(143.358801 335.378359) scale(0.105 -0.105)">
       <defs>
        <path id="DejaVuSans-32" d="M 1228 531 
L 3431 531 
L 3431 0 
L 469 0 
L 469 531 
Q 828 903 1448 1529 
Q 2069 2156 2228 2338 
Q 2531 2678 2651 2914 
Q 2772 3150 2772 3378 
Q 2772 3750 2511 3984 
Q 2250 4219 1831 4219 
Q 1534 4219 1204 4116 
Q 875 4013 500 3803 
L 500 4441 
Q 881 4594 1212 4672 
Q 1544 4750 1819 4750 
Q 2544 4750 2975 4387 
Q 3406 4025 3406 3419 
Q 3406 3131 3298 2873 
Q 3191 2616 2906 2266 
Q 2828 2175 2409 1742 
Q 1991 1309 1228 531 
z
" transform="scale(0.015625)"/>
       </defs>
       <use xlink:href="#DejaVuSans-32"/>
      </g>
     </g>
    </g>
    <g id="xtick_4">
     <g id="line2d_7">
      <path d="M 182.976799 320.4 
L 182.976799 43.2 
" clip-path="url(#pb3d321f5a8)" style="fill: none; stroke: #b0b0b0; stroke-opacity: 0.25; stroke-width: 0.8; stroke-linecap: square"/>
     </g>
     <g id="line2d_8">
      <g>
       <use xlink:href="#m95ecd87bc0" x="182.976799" y="320.4" style="stroke: #000000; stroke-width: 0.8"/>
      </g>
     </g>
     <g id="text_4">
      <!-- 3 -->
      <g transform="translate(179.636487 335.378359) scale(0.105 -0.105)">
       <defs>
        <path id="DejaVuSans-33" d="M 2597 2516 
Q 3050 2419 3304 2112 
Q 3559 1806 3559 1356 
Q 3559 666 3084 287 
Q 2609 -91 1734 -91 
Q 1441 -91 1130 -33 
Q 819 25 488 141 
L 488 750 
Q 750 597 1062 519 
Q 1375 441 1716 441 
Q 2309 441 2620 675 
Q 2931 909 2931 1356 
Q 2931 1769 2642 2001 
Q 2353 2234 1838 2234 
L 1294 2234 
L 1294 2753 
L 1863 2753 
Q 2328 2753 2575 2939 
Q 2822 3125 2822 3475 
Q 2822 3834 2567 4026 
Q 2313 4219 1838 4219 
Q 1578 4219 1281 4162 
Q 984 4106 628 3988 
L 628 4550 
Q 988 4650 1302 4700 
Q 1616 4750 1894 4750 
Q 2613 4750 3031 4423 
Q 3450 4097 3450 3541 
Q 3450 3153 3228 2886 
Q 3006 2619 2597 2516 
z
" transform="scale(0.015625)"/>
       </defs>
       <use xlink:href="#DejaVuSans-33"/>
      </g>
     </g>
    </g>
    <g id="xtick_5">
     <g id="line2d_9">
      <path d="M 219.254485 320.4 
L 219.254485 43.2 
" clip-path="url(#pb3d321f5a8)" style="fill: none; stroke: #b0b0b0; stroke-opacity: 0.25; stroke-width: 0.8; stroke-linecap: square"/>
     </g>
     <g id="line2d_10">
      <g>
       <use xlink:href="#m95ecd87bc0" x="219.254485" y="320.4" style="stroke: #000000; stroke-width: 0.8"/>
      </g>
     </g>
     <g id="text_5">
      <!-- 4 -->
      <g transform="translate(215.914173 335.378359) scale(0.105 -0.105)">
       <defs>
        <path id="DejaVuSans-34" d="M 2419 4116 
L 825 1625 
L 2419 1625 
L 2419 4116 
z
M 2253 4666 
L 3047 4666 
L 3047 1625 
L 3713 1625 
L 3713 1100 
L 3047 1100 
L 3047 0 
L 2419 0 
L 2419 1100 
L 313 1100 
L 313 1709 
L 2253 4666 
z
" transform="scale(0.015625)"/>
       </defs>
       <use xlink:href="#DejaVuSans-34"/>
      </g>
     </g>
    </g>
    <g id="xtick_6">
     <g id="line2d_11">
      <path d="M 255.532171 320.4 
L 255.532171 43.2 
" clip-path="url(#pb3d321f5a8)" style="fill: none; stroke: #b0b0b0; stroke-opacity: 0.25; stroke-width: 0.8; stroke-linecap: square"/>
     </g>
     <g id="line2d_12">
      <g>
       <use xlink:href="#m95ecd87bc0" x="255.532171" y="320.4" style="stroke: #000000; stroke-width: 0.8"/>
      </g>
     </g>
     <g id="text_6">
      <!-- 5 -->
      <g transform="translate(252.191859 335.378359) scale(0.105 -0.105)">
       <defs>
        <path id="DejaVuSans-35" d="M 691 4666 
L 3169 4666 
L 3169 4134 
L 1269 4134 
L 1269 2991 
Q 1406 3038 1543 3061 
Q 1681 3084 1819 3084 
Q 2600 3084 3056 2656 
Q 3513 2228 3513 1497 
Q 3513 744 3044 326 
Q 2575 -91 1722 -91 
Q 1428 -91 1123 -41 
Q 819 9 494 109 
L 494 744 
Q 775 591 1075 516 
Q 1375 441 1709 441 
Q 2250 441 2565 725 
Q 2881 1009 2881 1497 
Q 2881 1984 2565 2268 
Q 2250 2553 1709 2553 
Q 1456 2553 1204 2497 
Q 953 2441 691 2322 
L 691 4666 
z
" transform="scale(0.015625)"/>
       </defs>
       <use xlink:href="#DejaVuSans-35"/>
      </g>
     </g>
    </g>
    <g id="xtick_7">
     <g id="line2d_13">
      <path d="M 291.809857 320.4 
L 291.809857 43.2 
" clip-path="url(#pb3d321f5a8)" style="fill: none; stroke: #b0b0b0; stroke-opacity: 0.25; stroke-width: 0.8; stroke-linecap: square"/>
     </g>
     <g id="line2d_14">
      <g>
       <use xlink:href="#m95ecd87bc0" x="291.809857" y="320.4" style="stroke: #000000; stroke-width: 0.8"/>
      </g>
     </g>
     <g id="text_7">
      <!-- 6 -->
      <g transform="translate(288.469545 335.378359) scale(0.105 -0.105)">
       <defs>
        <path id="DejaVuSans-36" d="M 2113 2584 
Q 1688 2584 1439 2293 
Q 1191 2003 1191 1497 
Q 1191 994 1439 701 
Q 1688 409 2113 409 
Q 2538 409 2786 701 
Q 3034 994 3034 1497 
Q 3034 2003 2786 2293 
Q 2538 2584 2113 2584 
z
M 3366 4563 
L 3366 3988 
Q 3128 4100 2886 4159 
Q 2644 4219 2406 4219 
Q 1781 4219 1451 3797 
Q 1122 3375 1075 2522 
Q 1259 2794 1537 2939 
Q 1816 3084 2150 3084 
Q 2853 3084 3261 2657 
Q 3669 2231 3669 1497 
Q 3669 778 3244 343 
Q 2819 -91 2113 -91 
Q 1303 -91 875 529 
Q 447 1150 447 2328 
Q 447 3434 972 4092 
Q 1497 4750 2381 4750 
Q 2619 4750 2861 4703 
Q 3103 4656 3366 4563 
z
" transform="scale(0.015625)"/>
       </defs>
       <use xlink:href="#DejaVuSans-36"/>
      </g>
     </g>
    </g>
    <g id="xtick_8">
     <g id="line2d_15">
      <path d="M 328.087543 320.4 
L 328.087543 43.2 
" clip-path="url(#pb3d321f5a8)" style="fill: none; stroke: #b0b0b0; stroke-opacity: 0.25; stroke-width: 0.8; stroke-linecap: square"/>
     </g>
     <g id="line2d_16">
      <g>
       <use xlink:href="#m95ecd87bc0" x="328.087543" y="320.4" style="stroke: #000000; stroke-width: 0.8"/>
      </g>
     </g>
     <g id="text_8">
      <!-- 7 -->
      <g transform="translate(324.747231 335.378359) scale(0.105 -0.105)">
       <defs>
        <path id="DejaVuSans-37" d="M 525 4666 
L 3525 4666 
L 3525 4397 
L 1831 0 
L 1172 0 
L 2766 4134 
L 525 4134 
L 525 4666 
z
" transform="scale(0.015625)"/>
       </defs>
       <use xlink:href="#DejaVuSans-37"/>
      </g>
     </g>
    </g>
    <g id="text_9">
     <!-- propagation coordinate -->
     <g transform="translate(148.772369 349.540391) scale(0.105 -0.105)">
      <defs>
       <path id="DejaVuSans-70" d="M 1159 525 
L 1159 -1331 
L 581 -1331 
L 581 3500 
L 1159 3500 
L 1159 2969 
Q 1341 3281 1617 3432 
Q 1894 3584 2278 3584 
Q 2916 3584 3314 3078 
Q 3713 2572 3713 1747 
Q 3713 922 3314 415 
Q 2916 -91 2278 -91 
Q 1894 -91 1617 61 
Q 1341 213 1159 525 
z
M 3116 1747 
Q 3116 2381 2855 2742 
Q 2594 3103 2138 3103 
Q 1681 3103 1420 2742 
Q 1159 2381 1159 1747 
Q 1159 1113 1420 752 
Q 1681 391 2138 391 
Q 2594 391 2855 752 
Q 3116 1113 3116 1747 
z
" transform="scale(0.015625)"/>
       <path id="DejaVuSans-72" d="M 2631 2963 
Q 2534 3019 2420 3045 
Q 2306 3072 2169 3072 
Q 1681 3072 1420 2755 
Q 1159 2438 1159 1844 
L 1159 0 
L 581 0 
L 581 3500 
L 1159 3500 
L 1159 2956 
Q 1341 3275 1631 3429 
Q 1922 3584 2338 3584 
Q 2397 3584 2469 3576 
Q 2541 3569 2628 3553 
L 2631 2963 
z
" transform="scale(0.015625)"/>
       <path id="DejaVuSans-6f" d="M 1959 3097 
Q 1497 3097 1228 2736 
Q 959 2375 959 1747 
Q 959 1119 1226 758 
Q 1494 397 1959 397 
Q 2419 397 2687 759 
Q 2956 1122 2956 1747 
Q 2956 2369 2687 2733 
Q 2419 3097 1959 3097 
z
M 1959 3584 
Q 2709 3584 3137 3096 
Q 3566 2609 3566 1747 
Q 3566 888 3137 398 
Q 2709 -91 1959 -91 
Q 1206 -91 779 398 
Q 353 888 353 1747 
Q 353 2609 779 3096 
Q 1206 3584 1959 3584 
z
" transform="scale(0.015625)"/>
       <path id="DejaVuSans-61" d="M 2194 1759 
Q 1497 1759 1228 1600 
Q 959 1441 959 1056 
Q 959 750 1161 570 
Q 1363 391 1709 391 
Q 2188 391 2477 730 
Q 2766 1069 2766 1631 
L 2766 1759 
L 2194 1759 
z
M 3341 1997 
L 3341 0 
L 2766 0 
L 2766 531 
Q 2569 213 2275 61 
Q 1981 -91 1556 -91 
Q 1019 -91 701 211 
Q 384 513 384 1019 
Q 384 1609 779 1909 
Q 1175 2209 1959 2209 
L 2766 2209 
L 2766 2266 
Q 2766 2663 2505 2880 
Q 2244 3097 1772 3097 
Q 1472 3097 1187 3025 
Q 903 2953 641 2809 
L 641 3341 
Q 956 3463 1253 3523 
Q 1550 3584 1831 3584 
Q 2591 3584 2966 3190 
Q 3341 2797 3341 1997 
z
" transform="scale(0.015625)"/>
       <path id="DejaVuSans-67" d="M 2906 1791 
Q 2906 2416 2648 2759 
Q 2391 3103 1925 3103 
Q 1463 3103 1205 2759 
Q 947 2416 947 1791 
Q 947 1169 1205 825 
Q 1463 481 1925 481 
Q 2391 481 2648 825 
Q 2906 1169 2906 1791 
z
M 3481 434 
Q 3481 -459 3084 -895 
Q 2688 -1331 1869 -1331 
Q 1566 -1331 1297 -1286 
Q 1028 -1241 775 -1147 
L 775 -588 
Q 1028 -725 1275 -790 
Q 1522 -856 1778 -856 
Q 2344 -856 2625 -561 
Q 2906 -266 2906 331 
L 2906 616 
Q 2728 306 2450 153 
Q 2172 0 1784 0 
Q 1141 0 747 490 
Q 353 981 353 1791 
Q 353 2603 747 3093 
Q 1141 3584 1784 3584 
Q 2172 3584 2450 3431 
Q 2728 3278 2906 2969 
L 2906 3500 
L 3481 3500 
L 3481 434 
z
" transform="scale(0.015625)"/>
       <path id="DejaVuSans-74" d="M 1172 4494 
L 1172 3500 
L 2356 3500 
L 2356 3053 
L 1172 3053 
L 1172 1153 
Q 1172 725 1289 603 
Q 1406 481 1766 481 
L 2356 481 
L 2356 0 
L 1766 0 
Q 1100 0 847 248 
Q 594 497 594 1153 
L 594 3053 
L 172 3053 
L 172 3500 
L 594 3500 
L 594 4494 
L 1172 4494 
z
" transform="scale(0.015625)"/>
       <path id="DejaVuSans-69" d="M 603 3500 
L 1178 3500 
L 1178 0 
L 603 0 
L 603 3500 
z
M 603 4863 
L 1178 4863 
L 1178 4134 
L 603 4134 
L 603 4863 
z
" transform="scale(0.015625)"/>
       <path id="DejaVuSans-6e" d="M 3513 2113 
L 3513 0 
L 2938 0 
L 2938 2094 
Q 2938 2591 2744 2837 
Q 2550 3084 2163 3084 
Q 1697 3084 1428 2787 
Q 1159 2491 1159 1978 
L 1159 0 
L 581 0 
L 581 3500 
L 1159 3500 
L 1159 2956 
Q 1366 3272 1645 3428 
Q 1925 3584 2291 3584 
Q 2894 3584 3203 3211 
Q 3513 2838 3513 2113 
z
" transform="scale(0.015625)"/>
       <path id="DejaVuSans-20" transform="scale(0.015625)"/>
       <path id="DejaVuSans-63" d="M 3122 3366 
L 3122 2828 
Q 2878 2963 2633 3030 
Q 2388 3097 2138 3097 
Q 1578 3097 1268 2742 
Q 959 2388 959 1747 
Q 959 1106 1268 751 
Q 1578 397 2138 397 
Q 2388 397 2633 464 
Q 2878 531 3122 666 
L 3122 134 
Q 2881 22 2623 -34 
Q 2366 -91 2075 -91 
Q 1284 -91 818 406 
Q 353 903 353 1747 
Q 353 2603 823 3093 
Q 1294 3584 2113 3584 
Q 2378 3584 2631 3529 
Q 2884 3475 3122 3366 
z
" transform="scale(0.015625)"/>
       <path id="DejaVuSans-64" d="M 2906 2969 
L 2906 4863 
L 3481 4863 
L 3481 0 
L 2906 0 
L 2906 525 
Q 2725 213 2448 61 
Q 2172 -91 1784 -91 
Q 1150 -91 751 415 
Q 353 922 353 1747 
Q 353 2572 751 3078 
Q 1150 3584 1784 3584 
Q 2172 3584 2448 3432 
Q 2725 3281 2906 2969 
z
M 947 1747 
Q 947 1113 1208 752 
Q 1469 391 1925 391 
Q 2381 391 2643 752 
Q 2906 1113 2906 1747 
Q 2906 2381 2643 2742 
Q 2381 3103 1925 3103 
Q 1469 3103 1208 2742 
Q 947 2381 947 1747 
z
" transform="scale(0.015625)"/>
       <path id="DejaVuSans-65" d="M 3597 1894 
L 3597 1613 
L 953 1613 
Q 991 1019 1311 708 
Q 1631 397 2203 397 
Q 2534 397 2845 478 
Q 3156 559 3463 722 
L 3463 178 
Q 3153 47 2828 -22 
Q 2503 -91 2169 -91 
Q 1331 -91 842 396 
Q 353 884 353 1716 
Q 353 2575 817 3079 
Q 1281 3584 2069 3584 
Q 2775 3584 3186 3129 
Q 3597 2675 3597 1894 
z
M 3022 2063 
Q 3016 2534 2758 2815 
Q 2500 3097 2075 3097 
Q 1594 3097 1305 2825 
Q 1016 2553 972 2059 
L 3022 2063 
z
" transform="scale(0.015625)"/>
      </defs>
      <use xlink:href="#DejaVuSans-70"/>
      <use xlink:href="#DejaVuSans-72" transform="translate(63.476562 0)"/>
      <use xlink:href="#DejaVuSans-6f" transform="translate(102.339844 0)"/>
      <use xlink:href="#DejaVuSans-70" transform="translate(163.521484 0)"/>
      <use xlink:href="#DejaVuSans-61" transform="translate(226.998047 0)"/>
      <use xlink:href="#DejaVuSans-67" transform="translate(288.277344 0)"/>
      <use xlink:href="#DejaVuSans-61" transform="translate(351.753906 0)"/>
      <use xlink:href="#DejaVuSans-74" transform="translate(413.033203 0)"/>
      <use xlink:href="#DejaVuSans-69" transform="translate(452.242188 0)"/>
      <use xlink:href="#DejaVuSans-6f" transform="translate(480.025391 0)"/>
      <use xlink:href="#DejaVuSans-6e" transform="translate(541.207031 0)"/>
      <use xlink:href="#DejaVuSans-20" transform="translate(604.585938 0)"/>
      <use xlink:href="#DejaVuSans-63" transform="translate(636.373047 0)"/>
      <use xlink:href="#DejaVuSans-6f" transform="translate(691.353516 0)"/>
      <use xlink:href="#DejaVuSans-6f" transform="translate(752.535156 0)"/>
      <use xlink:href="#DejaVuSans-72" transform="translate(813.716797 0)"/>
      <use xlink:href="#DejaVuSans-64" transform="translate(853.080078 0)"/>
      <use xlink:href="#DejaVuSans-69" transform="translate(916.556641 0)"/>
      <use xlink:href="#DejaVuSans-6e" transform="translate(944.339844 0)"/>
      <use xlink:href="#DejaVuSans-61" transform="translate(1007.71875 0)"/>
      <use xlink:href="#DejaVuSans-74" transform="translate(1068.998047 0)"/>
      <use xlink:href="#DejaVuSans-65" transform="translate(1108.207031 0)"/>
     </g>
    </g>
   </g>
   <g id="matplotlib.axis_2">
    <g id="ytick_1">
     <g id="line2d_17">
      <path d="M 60.539609 307.800233 
L 359.830518 307.800233 
" clip-path="url(#pb3d321f5a8)" style="fill: none; stroke: #b0b0b0; stroke-opacity: 0.25; stroke-width: 0.8; stroke-linecap: square"/>
     </g>
     <g id="line2d_18">
      <defs>
       <path id="m1352b7704e" d="M 0 0 
L -3.5 0 
" style="stroke: #000000; stroke-width: 0.8"/>
      </defs>
      <g>
       <use xlink:href="#m1352b7704e" x="60.539609" y="307.800233" style="stroke: #000000; stroke-width: 0.8"/>
      </g>
     </g>
     <g id="text_10">
      <!-- −1.00 -->
      <g transform="translate(21.362031 311.789412) scale(0.105 -0.105)">
       <defs>
        <path id="DejaVuSans-2212" d="M 678 2272 
L 4684 2272 
L 4684 1741 
L 678 1741 
L 678 2272 
z
" transform="scale(0.015625)"/>
        <path id="DejaVuSans-2e" d="M 684 794 
L 1344 794 
L 1344 0 
L 684 0 
L 684 794 
z
" transform="scale(0.015625)"/>
       </defs>
       <use xlink:href="#DejaVuSans-2212"/>
       <use xlink:href="#DejaVuSans-31" transform="translate(83.789062 0)"/>
       <use xlink:href="#DejaVuSans-2e" transform="translate(147.412109 0)"/>
       <use xlink:href="#DejaVuSans-30" transform="translate(179.199219 0)"/>
       <use xlink:href="#DejaVuSans-30" transform="translate(242.822266 0)"/>
      </g>
     </g>
    </g>
    <g id="ytick_2">
     <g id="line2d_19">
      <path d="M 60.539609 276.299942 
L 359.830518 276.299942 
" clip-path="url(#pb3d321f5a8)" style="fill: none; stroke: #b0b0b0; stroke-opacity: 0.25; stroke-width: 0.8; stroke-linecap: square"/>
     </g>
     <g id="line2d_20">
      <g>
       <use xlink:href="#m1352b7704e" x="60.539609" y="276.299942" style="stroke: #000000; stroke-width: 0.8"/>
      </g>
     </g>
     <g id="text_11">
      <!-- −0.75 -->
      <g transform="translate(21.362031 280.289122) scale(0.105 -0.105)">
       <use xlink:href="#DejaVuSans-2212"/>
       <use xlink:href="#DejaVuSans-30" transform="translate(83.789062 0)"/>
       <use xlink:href="#DejaVuSans-2e" transform="translate(147.412109 0)"/>
       <use xlink:href="#DejaVuSans-37" transform="translate(179.199219 0)"/>
       <use xlink:href="#DejaVuSans-35" transform="translate(242.822266 0)"/>
      </g>
     </g>
    </g>
    <g id="ytick_3">
     <g id="line2d_21">
      <path d="M 60.539609 244.799651 
L 359.830518 244.799651 
" clip-path="url(#pb3d321f5a8)" style="fill: none; stroke: #b0b0b0; stroke-opacity: 0.25; stroke-width: 0.8; stroke-linecap: square"/>
     </g>
     <g id="line2d_22">
      <g>
       <use xlink:href="#m1352b7704e" x="60.539609" y="244.799651" style="stroke: #000000; stroke-width: 0.8"/>
      </g>
     </g>
     <g id="text_12">
      <!-- −0.50 -->
      <g transform="translate(21.362031 248.788831) scale(0.105 -0.105)">
       <use xlink:href="#DejaVuSans-2212"/>
       <use xlink:href="#DejaVuSans-30" transform="translate(83.789062 0)"/>
       <use xlink:href="#DejaVuSans-2e" transform="translate(147.412109 0)"/>
       <use xlink:href="#DejaVuSans-35" transform="translate(179.199219 0)"/>
       <use xlink:href="#DejaVuSans-30" transform="translate(242.822266 0)"/>
      </g>
     </g>
    </g>
    <g id="ytick_4">
     <g id="line2d_23">
      <path d="M 60.539609 213.29936 
L 359.830518 213.29936 
" clip-path="url(#pb3d321f5a8)" style="fill: none; stroke: #b0b0b0; stroke-opacity: 0.25; stroke-width: 0.8; stroke-linecap: square"/>
     </g>
     <g id="line2d_24">
      <g>
       <use xlink:href="#m1352b7704e" x="60.539609" y="213.29936" style="stroke: #000000; stroke-width: 0.8"/>
      </g>
     </g>
     <g id="text_13">
      <!-- −0.25 -->
      <g transform="translate(21.362031 217.28854) scale(0.105 -0.105)">
       <use xlink:href="#DejaVuSans-2212"/>
       <use xlink:href="#DejaVuSans-30" transform="translate(83.789062 0)"/>
       <use xlink:href="#DejaVuSans-2e" transform="translate(147.412109 0)"/>
       <use xlink:href="#DejaVuSans-32" transform="translate(179.199219 0)"/>
       <use xlink:href="#DejaVuSans-35" transform="translate(242.822266 0)"/>
      </g>
     </g>
    </g>
    <g id="ytick_5">
     <g id="line2d_25">
      <path d="M 60.539609 181.79907 
L 359.830518 181.79907 
" clip-path="url(#pb3d321f5a8)" style="fill: none; stroke: #b0b0b0; stroke-opacity: 0.25; stroke-width: 0.8; stroke-linecap: square"/>
     </g>
     <g id="line2d_26">
      <g>
       <use xlink:href="#m1352b7704e" x="60.539609" y="181.79907" style="stroke: #000000; stroke-width: 0.8"/>
      </g>
     </g>
     <g id="text_14">
      <!-- 0.00 -->
      <g transform="translate(30.160703 185.788249) scale(0.105 -0.105)">
       <use xlink:href="#DejaVuSans-30"/>
       <use xlink:href="#DejaVuSans-2e" transform="translate(63.623047 0)"/>
       <use xlink:href="#DejaVuSans-30" transform="translate(95.410156 0)"/>
       <use xlink:href="#DejaVuSans-30" transform="translate(159.033203 0)"/>
      </g>
     </g>
    </g>
    <g id="ytick_6">
     <g id="line2d_27">
      <path d="M 60.539609 150.298779 
L 359.830518 150.298779 
" clip-path="url(#pb3d321f5a8)" style="fill: none; stroke: #b0b0b0; stroke-opacity: 0.25; stroke-width: 0.8; stroke-linecap: square"/>
     </g>
     <g id="line2d_28">
      <g>
       <use xlink:href="#m1352b7704e" x="60.539609" y="150.298779" style="stroke: #000000; stroke-width: 0.8"/>
      </g>
     </g>
     <g id="text_15">
      <!-- 0.25 -->
      <g transform="translate(30.160703 154.287959) scale(0.105 -0.105)">
       <use xlink:href="#DejaVuSans-30"/>
       <use xlink:href="#DejaVuSans-2e" transform="translate(63.623047 0)"/>
       <use xlink:href="#DejaVuSans-32" transform="translate(95.410156 0)"/>
       <use xlink:href="#DejaVuSans-35" transform="translate(159.033203 0)"/>
      </g>
     </g>
    </g>
    <g id="ytick_7">
     <g id="line2d_29">
      <path d="M 60.539609 118.798488 
L 359.830518 118.798488 
" clip-path="url(#pb3d321f5a8)" style="fill: none; stroke: #b0b0b0; stroke-opacity: 0.25; stroke-width: 0.8; stroke-linecap: square"/>
     </g>
     <g id="line2d_30">
      <g>
       <use xlink:href="#m1352b7704e" x="60.539609" y="118.798488" style="stroke: #000000; stroke-width: 0.8"/>
      </g>
     </g>
     <g id="text_16">
      <!-- 0.50 -->
      <g transform="translate(30.160703 122.787668) scale(0.105 -0.105)">
       <use xlink:href="#DejaVuSans-30"/>
       <use xlink:href="#DejaVuSans-2e" transform="translate(63.623047 0)"/>
       <use xlink:href="#DejaVuSans-35" transform="translate(95.410156 0)"/>
       <use xlink:href="#DejaVuSans-30" transform="translate(159.033203 0)"/>
      </g>
     </g>
    </g>
    <g id="ytick_8">
     <g id="line2d_31">
      <path d="M 60.539609 87.298198 
L 359.830518 87.298198 
" clip-path="url(#pb3d321f5a8)" style="fill: none; stroke: #b0b0b0; stroke-opacity: 0.25; stroke-width: 0.8; stroke-linecap: square"/>
     </g>
     <g id="line2d_32">
      <g>
       <use xlink:href="#m1352b7704e" x="60.539609" y="87.298198" style="stroke: #000000; stroke-width: 0.8"/>
      </g>
     </g>
     <g id="text_17">
      <!-- 0.75 -->
      <g transform="translate(30.160703 91.287377) scale(0.105 -0.105)">
       <use xlink:href="#DejaVuSans-30"/>
       <use xlink:href="#DejaVuSans-2e" transform="translate(63.623047 0)"/>
       <use xlink:href="#DejaVuSans-37" transform="translate(95.410156 0)"/>
       <use xlink:href="#DejaVuSans-35" transform="translate(159.033203 0)"/>
      </g>
     </g>
    </g>
    <g id="ytick_9">
     <g id="line2d_33">
      <path d="M 60.539609 55.797907 
L 359.830518 55.797907 
" clip-path="url(#pb3d321f5a8)" style="fill: none; stroke: #b0b0b0; stroke-opacity: 0.25; stroke-width: 0.8; stroke-linecap: square"/>
     </g>
     <g id="line2d_34">
      <g>
       <use xlink:href="#m1352b7704e" x="60.539609" y="55.797907" style="stroke: #000000; stroke-width: 0.8"/>
      </g>
     </g>
     <g id="text_18">
      <!-- 1.00 -->
      <g transform="translate(30.160703 59.787087) scale(0.105 -0.105)">
       <use xlink:href="#DejaVuSans-31"/>
       <use xlink:href="#DejaVuSans-2e" transform="translate(63.623047 0)"/>
       <use xlink:href="#DejaVuSans-30" transform="translate(95.410156 0)"/>
       <use xlink:href="#DejaVuSans-30" transform="translate(159.033203 0)"/>
      </g>
     </g>
    </g>
    <g id="text_19">
     <!-- phase amplitude -->
     <g transform="translate(15.178359 225.840937) rotate(-90) scale(0.105 -0.105)">
      <defs>
       <path id="DejaVuSans-68" d="M 3513 2113 
L 3513 0 
L 2938 0 
L 2938 2094 
Q 2938 2591 2744 2837 
Q 2550 3084 2163 3084 
Q 1697 3084 1428 2787 
Q 1159 2491 1159 1978 
L 1159 0 
L 581 0 
L 581 4863 
L 1159 4863 
L 1159 2956 
Q 1366 3272 1645 3428 
Q 1925 3584 2291 3584 
Q 2894 3584 3203 3211 
Q 3513 2838 3513 2113 
z
" transform="scale(0.015625)"/>
       <path id="DejaVuSans-73" d="M 2834 3397 
L 2834 2853 
Q 2591 2978 2328 3040 
Q 2066 3103 1784 3103 
Q 1356 3103 1142 2972 
Q 928 2841 928 2578 
Q 928 2378 1081 2264 
Q 1234 2150 1697 2047 
L 1894 2003 
Q 2506 1872 2764 1633 
Q 3022 1394 3022 966 
Q 3022 478 2636 193 
Q 2250 -91 1575 -91 
Q 1294 -91 989 -36 
Q 684 19 347 128 
L 347 722 
Q 666 556 975 473 
Q 1284 391 1588 391 
Q 1994 391 2212 530 
Q 2431 669 2431 922 
Q 2431 1156 2273 1281 
Q 2116 1406 1581 1522 
L 1381 1569 
Q 847 1681 609 1914 
Q 372 2147 372 2553 
Q 372 3047 722 3315 
Q 1072 3584 1716 3584 
Q 2034 3584 2315 3537 
Q 2597 3491 2834 3397 
z
" transform="scale(0.015625)"/>
       <path id="DejaVuSans-6d" d="M 3328 2828 
Q 3544 3216 3844 3400 
Q 4144 3584 4550 3584 
Q 5097 3584 5394 3201 
Q 5691 2819 5691 2113 
L 5691 0 
L 5113 0 
L 5113 2094 
Q 5113 2597 4934 2840 
Q 4756 3084 4391 3084 
Q 3944 3084 3684 2787 
Q 3425 2491 3425 1978 
L 3425 0 
L 2847 0 
L 2847 2094 
Q 2847 2600 2669 2842 
Q 2491 3084 2119 3084 
Q 1678 3084 1418 2786 
Q 1159 2488 1159 1978 
L 1159 0 
L 581 0 
L 581 3500 
L 1159 3500 
L 1159 2956 
Q 1356 3278 1631 3431 
Q 1906 3584 2284 3584 
Q 2666 3584 2933 3390 
Q 3200 3197 3328 2828 
z
" transform="scale(0.015625)"/>
       <path id="DejaVuSans-6c" d="M 603 4863 
L 1178 4863 
L 1178 0 
L 603 0 
L 603 4863 
z
" transform="scale(0.015625)"/>
       <path id="DejaVuSans-75" d="M 544 1381 
L 544 3500 
L 1119 3500 
L 1119 1403 
Q 1119 906 1312 657 
Q 1506 409 1894 409 
Q 2359 409 2629 706 
Q 2900 1003 2900 1516 
L 2900 3500 
L 3475 3500 
L 3475 0 
L 2900 0 
L 2900 538 
Q 2691 219 2414 64 
Q 2138 -91 1772 -91 
Q 1169 -91 856 284 
Q 544 659 544 1381 
z
M 1991 3584 
L 1991 3584 
z
" transform="scale(0.015625)"/>
      </defs>
      <use xlink:href="#DejaVuSans-70"/>
      <use xlink:href="#DejaVuSans-68" transform="translate(63.476562 0)"/>
      <use xlink:href="#DejaVuSans-61" transform="translate(126.855469 0)"/>
      <use xlink:href="#DejaVuSans-73" transform="translate(188.134766 0)"/>
      <use xlink:href="#DejaVuSans-65" transform="translate(240.234375 0)"/>
      <use xlink:href="#DejaVuSans-20" transform="translate(301.757812 0)"/>
      <use xlink:href="#DejaVuSans-61" transform="translate(333.544922 0)"/>
      <use xlink:href="#DejaVuSans-6d" transform="translate(394.824219 0)"/>
      <use xlink:href="#DejaVuSans-70" transform="translate(492.236328 0)"/>
      <use xlink:href="#DejaVuSans-6c" transform="translate(555.712891 0)"/>
      <use xlink:href="#DejaVuSans-69" transform="translate(583.496094 0)"/>
      <use xlink:href="#DejaVuSans-74" transform="translate(611.279297 0)"/>
      <use xlink:href="#DejaVuSans-75" transform="translate(650.488281 0)"/>
      <use xlink:href="#DejaVuSans-64" transform="translate(713.867188 0)"/>
      <use xlink:href="#DejaVuSans-65" transform="translate(777.34375 0)"/>
     </g>
    </g>
   </g>
   <g id="line2d_35">
    <path d="M 74.143742 181.79907 
L 78.385565 138.501296 
L 80.809463 115.808338 
L 82.627388 100.476747 
L 84.445312 86.979608 
L 85.657261 79.152926 
L 86.869211 72.356421 
L 88.08116 66.658302 
L 89.293109 62.115758 
L 90.505059 58.774378 
L 91.111033 57.565086 
L 91.717008 56.667697 
L 92.322983 56.084467 
L 92.928958 55.816858 
L 93.534932 55.865544 
L 94.140907 56.230401 
L 94.746882 56.910513 
L 95.352856 57.904174 
L 95.958831 59.208888 
L 97.170781 62.7376 
L 98.38273 67.461236 
L 99.594679 73.332388 
L 100.806629 80.292132 
L 102.018578 88.270618 
L 103.836502 101.97073 
L 105.654427 117.471593 
L 108.078325 140.331344 
L 111.714174 177.429165 
L 116.561971 226.916592 
L 118.98587 249.43736 
L 120.803794 264.596033 
L 122.621718 277.886989 
L 123.833668 285.560003 
L 125.045617 292.191654 
L 126.257567 297.715383 
L 127.469516 302.075755 
L 128.681465 305.229008 
L 129.28744 306.342592 
L 129.893415 307.143494 
L 130.49939 307.629704 
L 131.105364 307.8 
L 131.711339 307.653956 
L 132.317314 307.191937 
L 132.923288 306.415104 
L 133.529263 305.325408 
L 134.135238 303.925583 
L 135.347187 300.210377 
L 136.559137 295.306773 
L 137.771086 289.263985 
L 138.983036 282.142658 
L 140.80096 269.597537 
L 142.618884 255.071876 
L 144.436808 238.893341 
L 146.860707 215.385959 
L 151.708504 165.331519 
L 154.738378 134.87253 
L 157.162277 112.52931 
L 158.980201 97.547161 
L 160.798125 84.46555 
L 162.010075 76.948027 
L 163.222024 70.482809 
L 164.433973 65.134782 
L 165.645923 60.95762 
L 166.857872 57.993245 
L 167.463847 56.975635 
L 168.069822 56.271409 
L 168.675796 55.882335 
L 169.281771 55.809392 
L 169.887746 56.05276 
L 170.49372 56.611831 
L 171.099695 57.485199 
L 171.70567 58.670672 
L 172.311645 60.165275 
L 173.523594 64.06609 
L 174.735543 69.148496 
L 175.947493 75.361484 
L 177.159442 82.6427 
L 178.977366 95.404844 
L 180.795291 110.115852 
L 183.219189 132.183122 
L 186.249063 162.449507 
L 192.914785 230.523464 
L 195.338684 252.683822 
L 197.156608 267.485883 
L 198.974532 280.355038 
L 200.186481 287.715281 
L 201.398431 294.012529 
L 202.61038 299.183581 
L 203.822329 303.176541 
L 204.428304 304.718239 
L 205.034279 305.951333 
L 205.640254 306.872728 
L 206.246228 307.48011 
L 206.852203 307.771954 
L 207.458178 307.747528 
L 208.064152 307.406893 
L 208.670127 306.750904 
L 209.276102 305.781208 
L 209.882077 304.500239 
L 211.094026 301.018123 
L 212.305975 296.339502 
L 213.517925 290.511332 
L 214.729874 283.592104 
L 215.941824 275.651263 
L 217.759748 262.001418 
L 219.577672 246.542385 
L 222.001571 223.723683 
L 225.637419 186.652816 
L 230.485217 137.133942 
L 232.909116 114.569771 
L 234.72704 99.367677 
L 236.544964 86.025055 
L 237.756913 78.313582 
L 238.968863 71.64071 
L 240.180812 66.073408 
L 241.392761 61.66755 
L 242.604711 58.467355 
L 243.210686 57.3299 
L 243.81666 56.50494 
L 244.422635 55.994546 
L 245.02861 55.8 
L 245.634584 55.92179 
L 246.240559 56.359611 
L 246.846534 57.112363 
L 247.452509 58.178156 
L 248.058483 59.554314 
L 249.270433 63.223137 
L 250.482382 68.08201 
L 251.694332 74.082169 
L 252.906281 81.163395 
L 254.724205 93.65398 
L 256.542129 108.132923 
L 258.360053 124.273613 
L 260.783952 147.745782 
L 265.63175 197.786487 
L 269.267598 234.08398 
L 271.691497 255.862846 
L 273.509421 270.294212 
L 275.327345 282.729323 
L 276.539295 289.769791 
L 277.751244 295.726645 
L 278.963193 300.540101 
L 280.175143 304.161849 
L 280.781118 305.513995 
L 281.387092 306.555541 
L 281.993067 307.28387 
L 282.599042 307.697153 
L 283.205016 307.794355 
L 283.810991 307.575229 
L 284.416966 307.040328 
L 285.022941 306.190992 
L 285.628915 305.029356 
L 286.23489 303.558334 
L 287.446839 299.703677 
L 288.658789 294.665708 
L 289.870738 288.494987 
L 291.082688 281.253446 
L 292.900612 268.54509 
L 294.718536 253.879935 
L 297.142435 231.859699 
L 300.172308 201.626911 
L 306.83803 133.521535 
L 309.261929 111.315123 
L 311.079853 96.467863 
L 312.897777 83.545487 
L 314.109727 76.145893 
L 315.321676 69.806655 
L 316.533625 64.591393 
L 317.745575 60.55245 
L 318.35155 58.987238 
L 318.957524 57.730361 
L 319.563499 56.784973 
L 320.169474 56.153449 
L 320.775448 55.837373 
L 321.381423 55.837539 
L 321.987398 56.153948 
L 322.593373 56.785803 
L 323.199347 57.731521 
L 323.805322 58.988724 
L 325.017271 62.424193 
L 326.229221 67.05773 
L 327.44117 72.842833 
L 328.65312 79.721442 
L 329.865069 87.62452 
L 331.682993 101.223897 
L 333.500917 116.640872 
L 335.924816 139.418189 
L 339.560664 176.461555 
L 344.408462 226.011144 
L 346.226386 243.183625 
L 346.226386 243.183625 
" clip-path="url(#pb3d321f5a8)" style="fill: none; stroke: #000000; stroke-width: 1.8; stroke-linecap: square"/>
   </g>
   <g id="line2d_36">
    <path d="M 74.143742 72.678862 
L 75.355691 66.922913 
L 76.56764 62.319883 
L 77.77959 58.915968 
L 78.385565 57.674835 
L 78.991539 56.745332 
L 79.597514 56.129791 
L 80.203489 55.829758 
L 80.809463 55.845986 
L 81.415438 56.178436 
L 82.021413 56.826271 
L 82.627388 57.787866 
L 83.233362 59.060806 
L 84.445312 62.527165 
L 85.657261 67.19056 
L 86.869211 73.004187 
L 88.08116 79.9097 
L 89.293109 87.837794 
L 91.111033 101.470608 
L 92.928958 116.915455 
L 95.352856 139.72021 
L 98.988705 176.781846 
L 103.836502 226.31118 
L 106.260401 248.889942 
L 108.078325 264.106657 
L 109.896249 277.466694 
L 111.108199 285.191136 
L 112.320148 291.877915 
L 113.532098 297.459923 
L 114.744047 301.881136 
L 115.955997 305.097183 
L 116.561971 306.242701 
L 117.167946 307.075787 
L 117.773921 307.594351 
L 118.379895 307.79709 
L 118.98587 307.683496 
L 119.591845 307.253854 
L 120.19782 306.509242 
L 120.803794 305.45153 
L 121.409769 304.083373 
L 122.621718 300.430235 
L 123.833668 295.586493 
L 125.045617 289.600759 
L 126.257567 282.533107 
L 128.075491 270.060993 
L 129.893415 255.597884 
L 131.711339 239.470036 
L 134.135238 216.009844 
L 138.983036 165.973947 
L 142.618884 129.663057 
L 145.042783 107.867713 
L 146.860707 93.420463 
L 148.678631 80.96684 
L 149.89058 73.912773 
L 151.10253 67.941474 
L 152.314479 63.112872 
L 153.526429 59.475426 
L 154.132403 58.115273 
L 154.738378 57.065643 
L 155.344353 56.329172 
L 155.950327 55.907709 
L 156.556302 55.802311 
L 157.162277 56.013243 
L 157.768252 56.539977 
L 158.374226 57.381188 
L 158.980201 58.534766 
L 159.586176 59.997815 
L 160.798125 63.836861 
L 162.010075 68.859799 
L 163.222024 75.016216 
L 164.433973 82.244326 
L 166.251897 94.934464 
L 168.069822 109.584076 
L 170.49372 131.588346 
L 173.523594 161.80968 
L 180.189316 229.925446 
L 182.613215 252.147346 
L 184.431139 267.00983 
L 186.249063 279.950146 
L 187.461012 287.363012 
L 188.672962 293.716418 
L 189.884911 298.946601 
L 191.096861 303.001069 
L 192.30881 305.839131 
L 192.914785 306.792623 
L 193.520759 307.432303 
L 194.126734 307.756566 
L 194.732709 307.764597 
L 195.338684 307.456376 
L 195.944658 306.832677 
L 196.550633 305.895066 
L 197.156608 304.645897 
L 198.368557 301.226202 
L 199.580507 296.607915 
L 200.792456 290.837384 
L 202.004405 283.972524 
L 203.216355 276.082232 
L 205.034279 262.499955 
L 206.852203 247.097243 
L 209.276102 224.333987 
L 212.91195 187.300037 
L 217.759748 137.740234 
L 220.183647 115.118516 
L 222.001571 99.85868 
L 223.819495 86.44724 
L 225.031444 78.684493 
L 226.243394 71.956624 
L 227.455343 66.331154 
L 228.667293 61.864542 
L 229.879242 58.601615 
L 230.485217 57.432249 
L 231.091191 56.575121 
L 231.697166 56.032384 
L 232.303141 55.805399 
L 232.909116 55.894736 
L 233.51509 56.300172 
L 234.121065 57.020688 
L 234.72704 58.054476 
L 235.333014 59.39894 
L 236.544964 63.005622 
L 237.756913 67.804537 
L 238.968863 73.747524 
L 240.180812 80.774935 
L 241.998736 93.192266 
L 243.81666 107.608372 
L 245.634584 123.698056 
L 248.058483 147.122571 
L 252.300306 190.860013 
L 255.936154 227.673226 
L 258.360053 250.120512 
L 260.177977 265.205919 
L 261.995902 278.40985 
L 263.207851 286.018163 
L 264.4198 292.580514 
L 265.63175 298.031042 
L 266.843699 302.315043 
L 268.055649 305.389524 
L 268.661623 306.463068 
L 269.267598 307.223627 
L 269.873573 307.669293 
L 270.479548 307.798946 
L 271.085522 307.612262 
L 271.691497 307.109707 
L 272.297472 306.292545 
L 272.903446 305.162827 
L 273.509421 303.723388 
L 274.72137 299.930577 
L 275.93332 294.952175 
L 277.145269 288.838147 
L 278.357219 281.649855 
L 280.175143 269.013756 
L 281.993067 254.410286 
L 284.416966 232.453484 
L 287.446839 202.266345 
L 294.718536 128.338209 
L 297.142435 106.691131 
L 298.960359 92.386398 
L 300.778283 80.098618 
L 301.990232 73.166245 
L 303.202182 67.324131 
L 304.414131 62.63091 
L 305.626081 59.133682 
L 306.232055 57.845014 
L 306.83803 56.867547 
L 307.444005 56.203737 
L 308.04998 55.855249 
L 308.655954 55.822958 
L 309.261929 56.106946 
L 309.867904 56.7065 
L 310.473878 57.620113 
L 311.079853 58.845493 
L 311.685828 60.379564 
L 312.897777 64.357603 
L 314.109727 69.514307 
L 315.321676 75.797922 
L 316.533625 83.145385 
L 318.35155 95.997246 
L 320.169474 110.784608 
L 322.593373 132.929966 
L 325.623246 163.251651 
L 332.288968 231.270702 
L 334.712867 253.353149 
L 336.530791 268.078975 
L 338.348715 280.858517 
L 339.560664 288.152571 
L 340.772614 294.379242 
L 341.984563 299.476037 
L 343.196513 303.391804 
L 343.802487 304.894047 
L 344.408462 306.087244 
L 345.014437 306.9684 
L 345.620412 307.535304 
L 346.226386 307.786531 
L 346.226386 307.786531 
" clip-path="url(#pb3d321f5a8)" style="fill: none; stroke-dasharray: 4.44,1.92; stroke-dashoffset: 0; stroke: #000000; stroke-opacity: 0.6; stroke-width: 1.2"/>
   </g>
   <g id="patch_3">
    <path d="M 60.539609 320.4 
L 60.539609 43.2 
" style="fill: none; opacity: 0.35; stroke: #000000; stroke-width: 0.8; stroke-linejoin: miter; stroke-linecap: square"/>
   </g>
   <g id="patch_4">
    <path d="M 359.830518 320.4 
L 359.830518 43.2 
" style="fill: none; opacity: 0.35; stroke: #000000; stroke-width: 0.8; stroke-linejoin: miter; stroke-linecap: square"/>
   </g>
   <g id="patch_5">
    <path d="M 60.539609 320.4 
L 359.830518 320.4 
" style="fill: none; opacity: 0.35; stroke: #000000; stroke-width: 0.8; stroke-linejoin: miter; stroke-linecap: square"/>
   </g>
   <g id="patch_6">
    <path d="M 60.539609 43.2 
L 359.830518 43.2 
" style="fill: none; opacity: 0.35; stroke: #000000; stroke-width: 0.8; stroke-linejoin: miter; stroke-linecap: square"/>
   </g>
   <g id="text_20">
    <!-- $P\bar P=0$ -->
    <g transform="translate(85.027047 33.117698) scale(0.1 -0.1)">
     <defs>
      <path id="DejaVuSans-Oblique-50" d="M 1081 4666 
L 2541 4666 
Q 3178 4666 3512 4369 
Q 3847 4072 3847 3500 
Q 3847 2731 3353 2303 
Q 2859 1875 1966 1875 
L 1172 1875 
L 806 0 
L 172 0 
L 1081 4666 
z
M 1613 4147 
L 1275 2394 
L 2069 2394 
Q 2606 2394 2893 2669 
Q 3181 2944 3181 3456 
Q 3181 3784 2986 3965 
Q 2791 4147 2438 4147 
L 1613 4147 
z
" transform="scale(0.015625)"/>
      <path id="DejaVuSans-304" d="M -2518 4769 
L -650 4769 
L -650 4306 
L -2518 4306 
L -2518 4769 
z
" transform="scale(0.015625)"/>
      <path id="DejaVuSans-3d" d="M 678 2906 
L 4684 2906 
L 4684 2381 
L 678 2381 
L 678 2906 
z
M 678 1631 
L 4684 1631 
L 4684 1100 
L 678 1100 
L 678 1631 
z
" transform="scale(0.015625)"/>
     </defs>
     <use xlink:href="#DejaVuSans-Oblique-50" transform="translate(0 0.359375)"/>
     <use xlink:href="#DejaVuSans-304" transform="translate(121.001953 18.484375)"/>
     <use xlink:href="#DejaVuSans-Oblique-50" transform="translate(60.302734 0.359375)"/>
     <use xlink:href="#DejaVuSans-3d" transform="translate(140.087891 0.359375)"/>
     <use xlink:href="#DejaVuSans-30" transform="translate(243.359375 0.359375)"/>
    </g>
   </g>
   <g id="text_21">
    <!-- Free light: non-closing phase transport -->
    <g transform="translate(94.196626 37.2) scale(0.12 -0.12)">
     <defs>
      <path id="DejaVuSans-46" d="M 628 4666 
L 3309 4666 
L 3309 4134 
L 1259 4134 
L 1259 2759 
L 3109 2759 
L 3109 2228 
L 1259 2228 
L 1259 0 
L 628 0 
L 628 4666 
z
" transform="scale(0.015625)"/>
      <path id="DejaVuSans-3a" d="M 750 794 
L 1409 794 
L 1409 0 
L 750 0 
L 750 794 
z
M 750 3309 
L 1409 3309 
L 1409 2516 
L 750 2516 
L 750 3309 
z
" transform="scale(0.015625)"/>
      <path id="DejaVuSans-2d" d="M 313 2009 
L 1997 2009 
L 1997 1497 
L 313 1497 
L 313 2009 
z
" transform="scale(0.015625)"/>
     </defs>
     <use xlink:href="#DejaVuSans-46"/>
     <use xlink:href="#DejaVuSans-72" transform="translate(50.269531 0)"/>
     <use xlink:href="#DejaVuSans-65" transform="translate(89.132812 0)"/>
     <use xlink:href="#DejaVuSans-65" transform="translate(150.65625 0)"/>
     <use xlink:href="#DejaVuSans-20" transform="translate(212.179688 0)"/>
     <use xlink:href="#DejaVuSans-6c" transform="translate(243.966797 0)"/>
     <use xlink:href="#DejaVuSans-69" transform="translate(271.75 0)"/>
     <use xlink:href="#DejaVuSans-67" transform="translate(299.533203 0)"/>
     <use xlink:href="#DejaVuSans-68" transform="translate(363.009766 0)"/>
     <use xlink:href="#DejaVuSans-74" transform="translate(426.388672 0)"/>
     <use xlink:href="#DejaVuSans-3a" transform="translate(465.597656 0)"/>
     <use xlink:href="#DejaVuSans-20" transform="translate(499.289062 0)"/>
     <use xlink:href="#DejaVuSans-6e" transform="translate(531.076172 0)"/>
     <use xlink:href="#DejaVuSans-6f" transform="translate(594.455078 0)"/>
     <use xlink:href="#DejaVuSans-6e" transform="translate(655.636719 0)"/>
     <use xlink:href="#DejaVuSans-2d" transform="translate(719.015625 0)"/>
     <use xlink:href="#DejaVuSans-63" transform="translate(755.099609 0)"/>
     <use xlink:href="#DejaVuSans-6c" transform="translate(810.080078 0)"/>
     <use xlink:href="#DejaVuSans-6f" transform="translate(837.863281 0)"/>
     <use xlink:href="#DejaVuSans-73" transform="translate(899.044922 0)"/>
     <use xlink:href="#DejaVuSans-69" transform="translate(951.144531 0)"/>
     <use xlink:href="#DejaVuSans-6e" transform="translate(978.927734 0)"/>
     <use xlink:href="#DejaVuSans-67" transform="translate(1042.306641 0)"/>
     <use xlink:href="#DejaVuSans-20" transform="translate(1105.783203 0)"/>
     <use xlink:href="#DejaVuSans-70" transform="translate(1137.570312 0)"/>
     <use xlink:href="#DejaVuSans-68" transform="translate(1201.046875 0)"/>
     <use xlink:href="#DejaVuSans-61" transform="translate(1264.425781 0)"/>
     <use xlink:href="#DejaVuSans-73" transform="translate(1325.705078 0)"/>
     <use xlink:href="#DejaVuSans-65" transform="translate(1377.804688 0)"/>
     <use xlink:href="#DejaVuSans-20" transform="translate(1439.328125 0)"/>
     <use xlink:href="#DejaVuSans-74" transform="translate(1471.115234 0)"/>
     <use xlink:href="#DejaVuSans-72" transform="translate(1510.324219 0)"/>
     <use xlink:href="#DejaVuSans-61" transform="translate(1551.4375 0)"/>
     <use xlink:href="#DejaVuSans-6e" transform="translate(1612.716797 0)"/>
     <use xlink:href="#DejaVuSans-73" transform="translate(1676.095703 0)"/>
     <use xlink:href="#DejaVuSans-70" transform="translate(1728.195312 0)"/>
     <use xlink:href="#DejaVuSans-6f" transform="translate(1791.671875 0)"/>
     <use xlink:href="#DejaVuSans-72" transform="translate(1852.853516 0)"/>
     <use xlink:href="#DejaVuSans-74" transform="translate(1893.966797 0)"/>
    </g>
   </g>
  </g>
  <g id="axes_2">
   <g id="patch_7">
    <path d="M 430.734155 320.4 
L 707.934155 320.4 
L 707.934155 43.2 
L 430.734155 43.2 
z
" style="fill: #ffffff"/>
   </g>
   <g id="patch_8">
    <path d="M 631.65325 167.165622 
Q 627.451566 157.227705 623.728804 148.422544 
" clip-path="url(#p822bf517f7)" style="fill: none; stroke: #000000; stroke-width: 1.1; stroke-linecap: round"/>
    <path d="M 623.415911 153.331933 
L 623.728804 148.422544 
L 627.468579 151.618492 
z
" clip-path="url(#p822bf517f7)" style="stroke: #000000; stroke-width: 1.1; stroke-linecap: round"/>
   </g>
   <g id="patch_9">
    <path d="M 571.903365 117.837247 
Q 561.203659 119.227432 551.723539 120.45916 
" clip-path="url(#p822bf517f7)" style="fill: none; stroke: #000000; stroke-width: 1.1; stroke-linecap: round"/>
    <path d="M 556.370322 122.073907 
L 551.723539 120.45916 
L 555.803406 117.710582 
z
" clip-path="url(#p822bf517f7)" style="stroke: #000000; stroke-width: 1.1; stroke-linecap: round"/>
   </g>
   <g id="patch_10">
    <path d="M 508.389581 162.214455 
Q 506.866947 172.896117 505.517867 182.36025 
" clip-path="url(#p822bf517f7)" style="fill: none; stroke: #000000; stroke-width: 1.1; stroke-linecap: round"/>
    <path d="M 508.316779 178.314747 
L 505.517867 182.36025 
L 503.960812 177.693819 
z
" clip-path="url(#p822bf517f7)" style="stroke: #000000; stroke-width: 1.1; stroke-linecap: round"/>
   </g>
   <g id="patch_11">
    <path d="M 528.995922 231.505751 
Q 538.399911 236.795489 546.732003 241.482285 
" clip-path="url(#p822bf517f7)" style="fill: none; stroke: #000000; stroke-width: 1.1; stroke-linecap: round"/>
    <path d="M 543.975644 237.407671 
L 546.732003 241.482285 
L 541.818496 241.242604 
z
" clip-path="url(#p822bf517f7)" style="stroke: #000000; stroke-width: 1.1; stroke-linecap: round"/>
   </g>
   <g id="patch_12">
    <path d="M 601.044986 237.408074 
Q 609.382837 230.559966 616.770313 224.492427 
" clip-path="url(#p822bf517f7)" style="fill: none; stroke: #000000; stroke-width: 1.1; stroke-linecap: round"/>
    <path d="M 611.973824 225.584994 
L 616.770313 224.492427 
L 614.766473 228.985158 
z
" clip-path="url(#p822bf517f7)" style="stroke: #000000; stroke-width: 1.1; stroke-linecap: round"/>
   </g>
   <g id="matplotlib.axis_3">
    <g id="xtick_9">
     <g id="line2d_37">
      <path d="M 435.205123 320.4 
L 435.205123 43.2 
" clip-path="url(#p822bf517f7)" style="fill: none; stroke: #b0b0b0; stroke-opacity: 0.25; stroke-width: 0.8; stroke-linecap: square"/>
     </g>
     <g id="line2d_38">
      <g>
       <use xlink:href="#m95ecd87bc0" x="435.205123" y="320.4" style="stroke: #000000; stroke-width: 0.8"/>
      </g>
     </g>
     <g id="text_22">
      <!-- −1.5 -->
      <g transform="translate(422.456646 335.378359) scale(0.105 -0.105)">
       <use xlink:href="#DejaVuSans-2212"/>
       <use xlink:href="#DejaVuSans-31" transform="translate(83.789062 0)"/>
       <use xlink:href="#DejaVuSans-2e" transform="translate(147.412109 0)"/>
       <use xlink:href="#DejaVuSans-35" transform="translate(179.199219 0)"/>
      </g>
     </g>
    </g>
    <g id="xtick_10">
     <g id="line2d_39">
      <path d="M 479.9148 320.4 
L 479.9148 43.2 
" clip-path="url(#p822bf517f7)" style="fill: none; stroke: #b0b0b0; stroke-opacity: 0.25; stroke-width: 0.8; stroke-linecap: square"/>
     </g>
     <g id="line2d_40">
      <g>
       <use xlink:href="#m95ecd87bc0" x="479.9148" y="320.4" style="stroke: #000000; stroke-width: 0.8"/>
      </g>
     </g>
     <g id="text_23">
      <!-- −1.0 -->
      <g transform="translate(467.166323 335.378359) scale(0.105 -0.105)">
       <use xlink:href="#DejaVuSans-2212"/>
       <use xlink:href="#DejaVuSans-31" transform="translate(83.789062 0)"/>
       <use xlink:href="#DejaVuSans-2e" transform="translate(147.412109 0)"/>
       <use xlink:href="#DejaVuSans-30" transform="translate(179.199219 0)"/>
      </g>
     </g>
    </g>
    <g id="xtick_11">
     <g id="line2d_41">
      <path d="M 524.624477 320.4 
L 524.624477 43.2 
" clip-path="url(#p822bf517f7)" style="fill: none; stroke: #b0b0b0; stroke-opacity: 0.25; stroke-width: 0.8; stroke-linecap: square"/>
     </g>
     <g id="line2d_42">
      <g>
       <use xlink:href="#m95ecd87bc0" x="524.624477" y="320.4" style="stroke: #000000; stroke-width: 0.8"/>
      </g>
     </g>
     <g id="text_24">
      <!-- −0.5 -->
      <g transform="translate(511.876001 335.378359) scale(0.105 -0.105)">
       <use xlink:href="#DejaVuSans-2212"/>
       <use xlink:href="#DejaVuSans-30" transform="translate(83.789062 0)"/>
       <use xlink:href="#DejaVuSans-2e" transform="translate(147.412109 0)"/>
       <use xlink:href="#DejaVuSans-35" transform="translate(179.199219 0)"/>
      </g>
     </g>
    </g>
    <g id="xtick_12">
     <g id="line2d_43">
      <path d="M 569.334155 320.4 
L 569.334155 43.2 
" clip-path="url(#p822bf517f7)" style="fill: none; stroke: #b0b0b0; stroke-opacity: 0.25; stroke-width: 0.8; stroke-linecap: square"/>
     </g>
     <g id="line2d_44">
      <g>
       <use xlink:href="#m95ecd87bc0" x="569.334155" y="320.4" style="stroke: #000000; stroke-width: 0.8"/>
      </g>
     </g>
     <g id="text_25">
      <!-- 0.0 -->
      <g transform="translate(560.985014 335.378359) scale(0.105 -0.105)">
       <use xlink:href="#DejaVuSans-30"/>
       <use xlink:href="#DejaVuSans-2e" transform="translate(63.623047 0)"/>
       <use xlink:href="#DejaVuSans-30" transform="translate(95.410156 0)"/>
      </g>
     </g>
    </g>
    <g id="xtick_13">
     <g id="line2d_45">
      <path d="M 614.043832 320.4 
L 614.043832 43.2 
" clip-path="url(#p822bf517f7)" style="fill: none; stroke: #b0b0b0; stroke-opacity: 0.25; stroke-width: 0.8; stroke-linecap: square"/>
     </g>
     <g id="line2d_46">
      <g>
       <use xlink:href="#m95ecd87bc0" x="614.043832" y="320.4" style="stroke: #000000; stroke-width: 0.8"/>
      </g>
     </g>
     <g id="text_26">
      <!-- 0.5 -->
      <g transform="translate(605.694692 335.378359) scale(0.105 -0.105)">
       <use xlink:href="#DejaVuSans-30"/>
       <use xlink:href="#DejaVuSans-2e" transform="translate(63.623047 0)"/>
       <use xlink:href="#DejaVuSans-35" transform="translate(95.410156 0)"/>
      </g>
     </g>
    </g>
    <g id="xtick_14">
     <g id="line2d_47">
      <path d="M 658.75351 320.4 
L 658.75351 43.2 
" clip-path="url(#p822bf517f7)" style="fill: none; stroke: #b0b0b0; stroke-opacity: 0.25; stroke-width: 0.8; stroke-linecap: square"/>
     </g>
     <g id="line2d_48">
      <g>
       <use xlink:href="#m95ecd87bc0" x="658.75351" y="320.4" style="stroke: #000000; stroke-width: 0.8"/>
      </g>
     </g>
     <g id="text_27">
      <!-- 1.0 -->
      <g transform="translate(650.404369 335.378359) scale(0.105 -0.105)">
       <use xlink:href="#DejaVuSans-31"/>
       <use xlink:href="#DejaVuSans-2e" transform="translate(63.623047 0)"/>
       <use xlink:href="#DejaVuSans-30" transform="translate(95.410156 0)"/>
      </g>
     </g>
    </g>
    <g id="xtick_15">
     <g id="line2d_49">
      <path d="M 703.463187 320.4 
L 703.463187 43.2 
" clip-path="url(#p822bf517f7)" style="fill: none; stroke: #b0b0b0; stroke-opacity: 0.25; stroke-width: 0.8; stroke-linecap: square"/>
     </g>
     <g id="line2d_50">
      <g>
       <use xlink:href="#m95ecd87bc0" x="703.463187" y="320.4" style="stroke: #000000; stroke-width: 0.8"/>
      </g>
     </g>
     <g id="text_28">
      <!-- 1.5 -->
      <g transform="translate(695.114046 335.378359) scale(0.105 -0.105)">
       <use xlink:href="#DejaVuSans-31"/>
       <use xlink:href="#DejaVuSans-2e" transform="translate(63.623047 0)"/>
       <use xlink:href="#DejaVuSans-35" transform="translate(95.410156 0)"/>
      </g>
     </g>
    </g>
    <g id="text_29">
     <!-- closure axis 1 -->
     <g transform="translate(533.248608 349.540391) scale(0.105 -0.105)">
      <defs>
       <path id="DejaVuSans-78" d="M 3513 3500 
L 2247 1797 
L 3578 0 
L 2900 0 
L 1881 1375 
L 863 0 
L 184 0 
L 1544 1831 
L 300 3500 
L 978 3500 
L 1906 2253 
L 2834 3500 
L 3513 3500 
z
" transform="scale(0.015625)"/>
      </defs>
      <use xlink:href="#DejaVuSans-63"/>
      <use xlink:href="#DejaVuSans-6c" transform="translate(54.980469 0)"/>
      <use xlink:href="#DejaVuSans-6f" transform="translate(82.763672 0)"/>
      <use xlink:href="#DejaVuSans-73" transform="translate(143.945312 0)"/>
      <use xlink:href="#DejaVuSans-75" transform="translate(196.044922 0)"/>
      <use xlink:href="#DejaVuSans-72" transform="translate(259.423828 0)"/>
      <use xlink:href="#DejaVuSans-65" transform="translate(298.287109 0)"/>
      <use xlink:href="#DejaVuSans-20" transform="translate(359.810547 0)"/>
      <use xlink:href="#DejaVuSans-61" transform="translate(391.597656 0)"/>
      <use xlink:href="#DejaVuSans-78" transform="translate(452.876953 0)"/>
      <use xlink:href="#DejaVuSans-69" transform="translate(512.056641 0)"/>
      <use xlink:href="#DejaVuSans-73" transform="translate(539.839844 0)"/>
      <use xlink:href="#DejaVuSans-20" transform="translate(591.939453 0)"/>
      <use xlink:href="#DejaVuSans-31" transform="translate(623.726562 0)"/>
     </g>
    </g>
   </g>
   <g id="matplotlib.axis_4">
    <g id="ytick_10">
     <g id="line2d_51">
      <path d="M 430.734155 315.929032 
L 707.934155 315.929032 
" clip-path="url(#p822bf517f7)" style="fill: none; stroke: #b0b0b0; stroke-opacity: 0.25; stroke-width: 0.8; stroke-linecap: square"/>
     </g>
     <g id="line2d_52">
      <g>
       <use xlink:href="#m1352b7704e" x="430.734155" y="315.929032" style="stroke: #000000; stroke-width: 0.8"/>
      </g>
     </g>
     <g id="text_30">
      <!-- −1.5 -->
      <g transform="translate(398.237202 319.918212) scale(0.105 -0.105)">
       <use xlink:href="#DejaVuSans-2212"/>
       <use xlink:href="#DejaVuSans-31" transform="translate(83.789062 0)"/>
       <use xlink:href="#DejaVuSans-2e" transform="translate(147.412109 0)"/>
       <use xlink:href="#DejaVuSans-35" transform="translate(179.199219 0)"/>
      </g>
     </g>
    </g>
    <g id="ytick_11">
     <g id="line2d_53">
      <path d="M 430.734155 271.219355 
L 707.934155 271.219355 
" clip-path="url(#p822bf517f7)" style="fill: none; stroke: #b0b0b0; stroke-opacity: 0.25; stroke-width: 0.8; stroke-linecap: square"/>
     </g>
     <g id="line2d_54">
      <g>
       <use xlink:href="#m1352b7704e" x="430.734155" y="271.219355" style="stroke: #000000; stroke-width: 0.8"/>
      </g>
     </g>
     <g id="text_31">
      <!-- −1.0 -->
      <g transform="translate(398.237202 275.208535) scale(0.105 -0.105)">
       <use xlink:href="#DejaVuSans-2212"/>
       <use xlink:href="#DejaVuSans-31" transform="translate(83.789062 0)"/>
       <use xlink:href="#DejaVuSans-2e" transform="translate(147.412109 0)"/>
       <use xlink:href="#DejaVuSans-30" transform="translate(179.199219 0)"/>
      </g>
     </g>
    </g>
    <g id="ytick_12">
     <g id="line2d_55">
      <path d="M 430.734155 226.509677 
L 707.934155 226.509677 
" clip-path="url(#p822bf517f7)" style="fill: none; stroke: #b0b0b0; stroke-opacity: 0.25; stroke-width: 0.8; stroke-linecap: square"/>
     </g>
     <g id="line2d_56">
      <g>
       <use xlink:href="#m1352b7704e" x="430.734155" y="226.509677" style="stroke: #000000; stroke-width: 0.8"/>
      </g>
     </g>
     <g id="text_32">
      <!-- −0.5 -->
      <g transform="translate(398.237202 230.498857) scale(0.105 -0.105)">
       <use xlink:href="#DejaVuSans-2212"/>
       <use xlink:href="#DejaVuSans-30" transform="translate(83.789062 0)"/>
       <use xlink:href="#DejaVuSans-2e" transform="translate(147.412109 0)"/>
       <use xlink:href="#DejaVuSans-35" transform="translate(179.199219 0)"/>
      </g>
     </g>
    </g>
    <g id="ytick_13">
     <g id="line2d_57">
      <path d="M 430.734155 181.8 
L 707.934155 181.8 
" clip-path="url(#p822bf517f7)" style="fill: none; stroke: #b0b0b0; stroke-opacity: 0.25; stroke-width: 0.8; stroke-linecap: square"/>
     </g>
     <g id="line2d_58">
      <g>
       <use xlink:href="#m1352b7704e" x="430.734155" y="181.8" style="stroke: #000000; stroke-width: 0.8"/>
      </g>
     </g>
     <g id="text_33">
      <!-- 0.0 -->
      <g transform="translate(407.035874 185.78918) scale(0.105 -0.105)">
       <use xlink:href="#DejaVuSans-30"/>
       <use xlink:href="#DejaVuSans-2e" transform="translate(63.623047 0)"/>
       <use xlink:href="#DejaVuSans-30" transform="translate(95.410156 0)"/>
      </g>
     </g>
    </g>
    <g id="ytick_14">
     <g id="line2d_59">
      <path d="M 430.734155 137.090323 
L 707.934155 137.090323 
" clip-path="url(#p822bf517f7)" style="fill: none; stroke: #b0b0b0; stroke-opacity: 0.25; stroke-width: 0.8; stroke-linecap: square"/>
     </g>
     <g id="line2d_60">
      <g>
       <use xlink:href="#m1352b7704e" x="430.734155" y="137.090323" style="stroke: #000000; stroke-width: 0.8"/>
      </g>
     </g>
     <g id="text_34">
      <!-- 0.5 -->
      <g transform="translate(407.035874 141.079502) scale(0.105 -0.105)">
       <use xlink:href="#DejaVuSans-30"/>
       <use xlink:href="#DejaVuSans-2e" transform="translate(63.623047 0)"/>
       <use xlink:href="#DejaVuSans-35" transform="translate(95.410156 0)"/>
      </g>
     </g>
    </g>
    <g id="ytick_15">
     <g id="line2d_61">
      <path d="M 430.734155 92.380645 
L 707.934155 92.380645 
" clip-path="url(#p822bf517f7)" style="fill: none; stroke: #b0b0b0; stroke-opacity: 0.25; stroke-width: 0.8; stroke-linecap: square"/>
     </g>
     <g id="line2d_62">
      <g>
       <use xlink:href="#m1352b7704e" x="430.734155" y="92.380645" style="stroke: #000000; stroke-width: 0.8"/>
      </g>
     </g>
     <g id="text_35">
      <!-- 1.0 -->
      <g transform="translate(407.035874 96.369825) scale(0.105 -0.105)">
       <use xlink:href="#DejaVuSans-31"/>
       <use xlink:href="#DejaVuSans-2e" transform="translate(63.623047 0)"/>
       <use xlink:href="#DejaVuSans-30" transform="translate(95.410156 0)"/>
      </g>
     </g>
    </g>
    <g id="ytick_16">
     <g id="line2d_63">
      <path d="M 430.734155 47.670968 
L 707.934155 47.670968 
" clip-path="url(#p822bf517f7)" style="fill: none; stroke: #b0b0b0; stroke-opacity: 0.25; stroke-width: 0.8; stroke-linecap: square"/>
     </g>
     <g id="line2d_64">
      <g>
       <use xlink:href="#m1352b7704e" x="430.734155" y="47.670968" style="stroke: #000000; stroke-width: 0.8"/>
      </g>
     </g>
     <g id="text_36">
      <!-- 1.5 -->
      <g transform="translate(407.035874 51.660147) scale(0.105 -0.105)">
       <use xlink:href="#DejaVuSans-31"/>
       <use xlink:href="#DejaVuSans-2e" transform="translate(63.623047 0)"/>
       <use xlink:href="#DejaVuSans-35" transform="translate(95.410156 0)"/>
      </g>
     </g>
    </g>
    <g id="text_37">
     <!-- closure axis 2 -->
     <g transform="translate(392.05353 217.885547) rotate(-90) scale(0.105 -0.105)">
      <use xlink:href="#DejaVuSans-63"/>
      <use xlink:href="#DejaVuSans-6c" transform="translate(54.980469 0)"/>
      <use xlink:href="#DejaVuSans-6f" transform="translate(82.763672 0)"/>
      <use xlink:href="#DejaVuSans-73" transform="translate(143.945312 0)"/>
      <use xlink:href="#DejaVuSans-75" transform="translate(196.044922 0)"/>
      <use xlink:href="#DejaVuSans-72" transform="translate(259.423828 0)"/>
      <use xlink:href="#DejaVuSans-65" transform="translate(298.287109 0)"/>
      <use xlink:href="#DejaVuSans-20" transform="translate(359.810547 0)"/>
      <use xlink:href="#DejaVuSans-61" transform="translate(391.597656 0)"/>
      <use xlink:href="#DejaVuSans-78" transform="translate(452.876953 0)"/>
      <use xlink:href="#DejaVuSans-69" transform="translate(512.056641 0)"/>
      <use xlink:href="#DejaVuSans-73" transform="translate(539.839844 0)"/>
      <use xlink:href="#DejaVuSans-20" transform="translate(591.939453 0)"/>
      <use xlink:href="#DejaVuSans-32" transform="translate(623.726562 0)"/>
     </g>
    </g>
   </g>
   <g id="line2d_65">
    <path d="M 671.272219 181.8 
L 671.176457 179.234752 
L 670.890075 176.680683 
L 670.415773 174.14879 
L 669.758008 171.649706 
L 668.922932 169.193531 
L 667.9183 166.789662 
L 666.75336 164.446645 
L 665.438722 162.172032 
L 663.986204 159.972261 
L 661.577277 156.823998 
L 658.934078 153.867633 
L 656.106274 151.10824 
L 653.144816 148.543746 
L 650.100342 146.165043 
L 645.995751 143.25432 
L 640.938455 139.956817 
L 632.516815 134.544359 
L 629.176244 132.154547 
L 626.105052 129.660213 
L 623.968861 127.678825 
L 621.959095 125.575983 
L 619.437078 122.554083 
L 617.033477 119.264224 
L 614.076322 114.781542 
L 607.70582 104.882143 
L 604.77764 100.778144 
L 602.383968 97.73869 
L 599.803485 94.78642 
L 597.027659 91.972062 
L 594.05501 89.346517 
L 590.891206 86.959276 
L 588.681769 85.52331 
L 586.398229 84.226761 
L 584.04717 83.081305 
L 581.636277 82.097391 
L 579.174209 81.284087 
L 576.670459 80.648953 
L 574.135203 80.197933 
L 571.57913 79.935267 
L 569.013269 79.863433 
L 566.448809 79.983109 
L 563.896916 80.293166 
L 561.368552 80.79068 
L 558.874292 81.470978 
L 556.424158 82.327705 
L 554.027447 83.35291 
L 551.692589 84.537169 
L 549.427003 85.869712 
L 547.23698 87.338579 
L 544.104343 89.768867 
L 541.164296 92.429375 
L 538.421323 95.270269 
L 535.872754 98.240564 
L 533.508911 101.289717 
L 530.615434 105.394487 
L 526.711549 111.428378 
L 521.930747 118.834006 
L 519.536648 122.157693 
L 517.033353 125.212378 
L 515.042666 127.337338 
L 512.928824 129.337485 
L 509.890571 131.850009 
L 506.58379 134.248705 
L 502.081563 137.206942 
L 492.159882 143.603337 
L 488.056894 146.549182 
L 485.0228 148.957928 
L 482.080072 151.55446 
L 479.279513 154.346731 
L 476.671968 157.335623 
L 474.306737 160.51488 
L 472.887521 162.7339 
L 471.609244 165.026263 
L 470.483437 167.385243 
L 469.520383 169.803025 
L 468.728969 172.270838 
L 468.116558 174.779095 
L 467.688886 177.317546 
L 467.449975 179.875451 
L 467.40208 182.44175 
L 467.545653 185.005247 
L 467.879338 187.554792 
L 468.39999 190.079462 
L 469.102724 192.568741 
L 469.980976 195.012689 
L 471.026608 197.40211 
L 472.230017 199.728693 
L 473.580277 201.985153 
L 475.065292 204.165348 
L 477.516612 207.282281 
L 480.194081 210.205977 
L 483.04771 212.93255 
L 486.02649 215.465261 
L 489.079985 217.814359 
L 493.184521 220.690803 
L 499.207055 224.576816 
L 506.58379 229.351295 
L 509.890571 231.749991 
L 512.928824 234.262515 
L 515.042666 236.262662 
L 517.033353 238.387622 
L 519.536648 241.442307 
L 521.930747 244.765994 
L 524.890477 249.287606 
L 531.313499 259.230819 
L 534.277209 263.332375 
L 536.701133 266.360766 
L 539.313768 269.293598 
L 542.122489 272.080004 
L 545.127582 274.669206 
L 548.3222 277.012106 
L 550.550716 278.414373 
L 552.851798 279.674198 
L 555.218576 280.780196 
L 557.64311 281.722251 
L 560.116518 282.49166 
L 562.629121 283.081258 
L 565.1706 283.485519 
L 567.730163 283.700639 
L 570.296725 283.724589 
L 572.859085 283.557141 
L 575.406111 283.199877 
L 577.926922 282.656161 
L 580.411064 281.931096 
L 582.848683 281.031445 
L 585.230684 279.965537 
L 587.548877 278.743148 
L 589.796116 277.375361 
L 593.021165 275.078081 
L 596.058511 272.526587 
L 598.900135 269.769548 
L 601.545128 266.857571 
L 603.999698 263.841618 
L 606.999729 259.744202 
L 610.382203 254.652124 
L 617.627391 243.487901 
L 620.053649 240.265769 
L 622.616215 237.308362 
L 624.665958 235.248264 
L 626.848139 233.302402 
L 629.985987 230.841167 
L 633.393744 228.465367 
L 638.974357 224.883718 
L 645.995751 220.34568 
L 650.100342 217.434957 
L 653.144816 215.056254 
L 656.106274 212.49176 
L 658.934078 209.732367 
L 661.577277 206.776002 
L 663.986204 203.627739 
L 665.438722 201.427968 
L 666.75336 199.153355 
L 667.9183 196.810338 
L 668.922932 194.406469 
L 669.758008 191.950294 
L 670.415773 189.45121 
L 670.890075 186.919317 
L 671.176457 184.365248 
L 671.272219 181.8 
L 671.272219 181.8 
" clip-path="url(#p822bf517f7)" style="fill: none; stroke: #000000; stroke-width: 2; stroke-linecap: square"/>
   </g>
   <g id="patch_13">
    <path d="M 430.734155 320.4 
L 430.734155 43.2 
" style="fill: none; opacity: 0.35; stroke: #000000; stroke-width: 0.8; stroke-linejoin: miter; stroke-linecap: square"/>
   </g>
   <g id="patch_14">
    <path d="M 707.934155 320.4 
L 707.934155 43.2 
" style="fill: none; opacity: 0.35; stroke: #000000; stroke-width: 0.8; stroke-linejoin: miter; stroke-linecap: square"/>
   </g>
   <g id="patch_15">
    <path d="M 430.734155 320.4 
L 707.934155 320.4 
" style="fill: none; opacity: 0.35; stroke: #000000; stroke-width: 0.8; stroke-linejoin: miter; stroke-linecap: square"/>
   </g>
   <g id="patch_16">
    <path d="M 430.734155 43.2 
L 707.934155 43.2 
" style="fill: none; opacity: 0.35; stroke: #000000; stroke-width: 0.8; stroke-linejoin: miter; stroke-linecap: square"/>
   </g>
   <g id="text_38">
    <!-- $P\bar P=m^2c^2$ -->
    <g transform="translate(448.618026 67.343226) scale(0.1 -0.1)">
     <defs>
      <path id="DejaVuSans-Oblique-6d" d="M 5747 2113 
L 5338 0 
L 4763 0 
L 5166 2094 
Q 5191 2228 5203 2325 
Q 5216 2422 5216 2491 
Q 5216 2772 5059 2928 
Q 4903 3084 4622 3084 
Q 4203 3084 3875 2770 
Q 3547 2456 3450 1953 
L 3066 0 
L 2491 0 
L 2900 2094 
Q 2925 2209 2937 2307 
Q 2950 2406 2950 2484 
Q 2950 2769 2794 2926 
Q 2638 3084 2363 3084 
Q 1938 3084 1609 2770 
Q 1281 2456 1184 1953 
L 800 0 
L 225 0 
L 909 3500 
L 1484 3500 
L 1375 2956 
Q 1609 3263 1923 3423 
Q 2238 3584 2597 3584 
Q 2978 3584 3223 3384 
Q 3469 3184 3519 2828 
Q 3781 3197 4126 3390 
Q 4472 3584 4856 3584 
Q 5306 3584 5551 3325 
Q 5797 3066 5797 2591 
Q 5797 2488 5784 2364 
Q 5772 2241 5747 2113 
z
" transform="scale(0.015625)"/>
      <path id="DejaVuSans-Oblique-63" d="M 3431 3366 
L 3316 2797 
Q 3109 2947 2876 3022 
Q 2644 3097 2394 3097 
Q 2119 3097 1870 3000 
Q 1622 2903 1453 2725 
Q 1184 2453 1037 2087 
Q 891 1722 891 1331 
Q 891 859 1127 628 
Q 1363 397 1844 397 
Q 2081 397 2348 469 
Q 2616 541 2906 684 
L 2797 116 
Q 2547 13 2283 -39 
Q 2019 -91 1741 -91 
Q 1044 -91 669 257 
Q 294 606 294 1253 
Q 294 1797 489 2255 
Q 684 2713 1069 3078 
Q 1331 3328 1684 3456 
Q 2038 3584 2456 3584 
Q 2700 3584 2940 3529 
Q 3181 3475 3431 3366 
z
" transform="scale(0.015625)"/>
     </defs>
     <use xlink:href="#DejaVuSans-Oblique-50" transform="translate(0 0.359375)"/>
     <use xlink:href="#DejaVuSans-304" transform="translate(121.001953 18.484375)"/>
     <use xlink:href="#DejaVuSans-Oblique-50" transform="translate(60.302734 0.359375)"/>
     <use xlink:href="#DejaVuSans-3d" transform="translate(140.087891 0.359375)"/>
     <use xlink:href="#DejaVuSans-Oblique-6d" transform="translate(243.359375 0.359375)"/>
     <use xlink:href="#DejaVuSans-32" transform="translate(345.42138 38.640625) scale(0.7)"/>
     <use xlink:href="#DejaVuSans-Oblique-63" transform="translate(392.691888 0.359375)"/>
     <use xlink:href="#DejaVuSans-32" transform="translate(452.322253 38.640625) scale(0.7)"/>
    </g>
   </g>
   <g id="text_39">
    <!-- Closed light: standing-wave closure -->
    <g transform="translate(462.515405 37.2) scale(0.12 -0.12)">
     <defs>
      <path id="DejaVuSans-43" d="M 4122 4306 
L 4122 3641 
Q 3803 3938 3442 4084 
Q 3081 4231 2675 4231 
Q 1875 4231 1450 3742 
Q 1025 3253 1025 2328 
Q 1025 1406 1450 917 
Q 1875 428 2675 428 
Q 3081 428 3442 575 
Q 3803 722 4122 1019 
L 4122 359 
Q 3791 134 3420 21 
Q 3050 -91 2638 -91 
Q 1578 -91 968 557 
Q 359 1206 359 2328 
Q 359 3453 968 4101 
Q 1578 4750 2638 4750 
Q 3056 4750 3426 4639 
Q 3797 4528 4122 4306 
z
" transform="scale(0.015625)"/>
      <path id="DejaVuSans-77" d="M 269 3500 
L 844 3500 
L 1563 769 
L 2278 3500 
L 2956 3500 
L 3675 769 
L 4391 3500 
L 4966 3500 
L 4050 0 
L 3372 0 
L 2619 2869 
L 1863 0 
L 1184 0 
L 269 3500 
z
" transform="scale(0.015625)"/>
      <path id="DejaVuSans-76" d="M 191 3500 
L 800 3500 
L 1894 563 
L 2988 3500 
L 3597 3500 
L 2284 0 
L 1503 0 
L 191 3500 
z
" transform="scale(0.015625)"/>
     </defs>
     <use xlink:href="#DejaVuSans-43"/>
     <use xlink:href="#DejaVuSans-6c" transform="translate(69.824219 0)"/>
     <use xlink:href="#DejaVuSans-6f" transform="translate(97.607422 0)"/>
     <use xlink:href="#DejaVuSans-73" transform="translate(158.789062 0)"/>
     <use xlink:href="#DejaVuSans-65" transform="translate(210.888672 0)"/>
     <use xlink:href="#DejaVuSans-64" transform="translate(272.412109 0)"/>
     <use xlink:href="#DejaVuSans-20" transform="translate(335.888672 0)"/>
     <use xlink:href="#DejaVuSans-6c" transform="translate(367.675781 0)"/>
     <use xlink:href="#DejaVuSans-69" transform="translate(395.458984 0)"/>
     <use xlink:href="#DejaVuSans-67" transform="translate(423.242188 0)"/>
     <use xlink:href="#DejaVuSans-68" transform="translate(486.71875 0)"/>
     <use xlink:href="#DejaVuSans-74" transform="translate(550.097656 0)"/>
     <use xlink:href="#DejaVuSans-3a" transform="translate(589.306641 0)"/>
     <use xlink:href="#DejaVuSans-20" transform="translate(622.998047 0)"/>
     <use xlink:href="#DejaVuSans-73" transform="translate(654.785156 0)"/>
     <use xlink:href="#DejaVuSans-74" transform="translate(706.884766 0)"/>
     <use xlink:href="#DejaVuSans-61" transform="translate(746.09375 0)"/>
     <use xlink:href="#DejaVuSans-6e" transform="translate(807.373047 0)"/>
     <use xlink:href="#DejaVuSans-64" transform="translate(870.751953 0)"/>
     <use xlink:href="#DejaVuSans-69" transform="translate(934.228516 0)"/>
     <use xlink:href="#DejaVuSans-6e" transform="translate(962.011719 0)"/>
     <use xlink:href="#DejaVuSans-67" transform="translate(1025.390625 0)"/>
     <use xlink:href="#DejaVuSans-2d" transform="translate(1088.867188 0)"/>
     <use xlink:href="#DejaVuSans-77" transform="translate(1124.951172 0)"/>
     <use xlink:href="#DejaVuSans-61" transform="translate(1206.738281 0)"/>
     <use xlink:href="#DejaVuSans-76" transform="translate(1268.017578 0)"/>
     <use xlink:href="#DejaVuSans-65" transform="translate(1327.197266 0)"/>
     <use xlink:href="#DejaVuSans-20" transform="translate(1388.720703 0)"/>
     <use xlink:href="#DejaVuSans-63" transform="translate(1420.507812 0)"/>
     <use xlink:href="#DejaVuSans-6c" transform="translate(1475.488281 0)"/>
     <use xlink:href="#DejaVuSans-6f" transform="translate(1503.271484 0)"/>
     <use xlink:href="#DejaVuSans-73" transform="translate(1564.453125 0)"/>
     <use xlink:href="#DejaVuSans-75" transform="translate(1616.552734 0)"/>
     <use xlink:href="#DejaVuSans-72" transform="translate(1679.931641 0)"/>
     <use xlink:href="#DejaVuSans-65" transform="translate(1718.794922 0)"/>
    </g>
   </g>
  </g>
  <g id="text_40">
   <!-- Phase regimes: free propagation vs stable closure -->
   <g transform="translate(228.908984 16.318125) scale(0.12 -0.12)">
    <defs>
     <path id="DejaVuSans-50" d="M 1259 4147 
L 1259 2394 
L 2053 2394 
Q 2494 2394 2734 2622 
Q 2975 2850 2975 3272 
Q 2975 3691 2734 3919 
Q 2494 4147 2053 4147 
L 1259 4147 
z
M 628 4666 
L 2053 4666 
Q 2838 4666 3239 4311 
Q 3641 3956 3641 3272 
Q 3641 2581 3239 2228 
Q 2838 1875 2053 1875 
L 1259 1875 
L 1259 0 
L 628 0 
L 628 4666 
z
" transform="scale(0.015625)"/>
     <path id="DejaVuSans-66" d="M 2375 4863 
L 2375 4384 
L 1825 4384 
Q 1516 4384 1395 4259 
Q 1275 4134 1275 3809 
L 1275 3500 
L 2222 3500 
L 2222 3053 
L 1275 3053 
L 1275 0 
L 697 0 
L 697 3053 
L 147 3053 
L 147 3500 
L 697 3500 
L 697 3744 
Q 697 4328 969 4595 
Q 1241 4863 1831 4863 
L 2375 4863 
z
" transform="scale(0.015625)"/>
     <path id="DejaVuSans-62" d="M 3116 1747 
Q 3116 2381 2855 2742 
Q 2594 3103 2138 3103 
Q 1681 3103 1420 2742 
Q 1159 2381 1159 1747 
Q 1159 1113 1420 752 
Q 1681 391 2138 391 
Q 2594 391 2855 752 
Q 3116 1113 3116 1747 
z
M 1159 2969 
Q 1341 3281 1617 3432 
Q 1894 3584 2278 3584 
Q 2916 3584 3314 3078 
Q 3713 2572 3713 1747 
Q 3713 922 3314 415 
Q 2916 -91 2278 -91 
Q 1894 -91 1617 61 
Q 1341 213 1159 525 
L 1159 0 
L 581 0 
L 581 4863 
L 1159 4863 
L 1159 2969 
z
" transform="scale(0.015625)"/>
    </defs>
    <use xlink:href="#DejaVuSans-50"/>
    <use xlink:href="#DejaVuSans-68" transform="translate(60.302734 0)"/>
    <use xlink:href="#DejaVuSans-61" transform="translate(123.681641 0)"/>
    <use xlink:href="#DejaVuSans-73" transform="translate(184.960938 0)"/>
    <use xlink:href="#DejaVuSans-65" transform="translate(237.060547 0)"/>
    <use xlink:href="#DejaVuSans-20" transform="translate(298.583984 0)"/>
    <use xlink:href="#DejaVuSans-72" transform="translate(330.371094 0)"/>
    <use xlink:href="#DejaVuSans-65" transform="translate(369.234375 0)"/>
    <use xlink:href="#DejaVuSans-67" transform="translate(430.757812 0)"/>
    <use xlink:href="#DejaVuSans-69" transform="translate(494.234375 0)"/>
    <use xlink:href="#DejaVuSans-6d" transform="translate(522.017578 0)"/>
    <use xlink:href="#DejaVuSans-65" transform="translate(619.429688 0)"/>
    <use xlink:href="#DejaVuSans-73" transform="translate(680.953125 0)"/>
    <use xlink:href="#DejaVuSans-3a" transform="translate(733.052734 0)"/>
    <use xlink:href="#DejaVuSans-20" transform="translate(766.744141 0)"/>
    <use xlink:href="#DejaVuSans-66" transform="translate(798.53125 0)"/>
    <use xlink:href="#DejaVuSans-72" transform="translate(833.736328 0)"/>
    <use xlink:href="#DejaVuSans-65" transform="translate(872.599609 0)"/>
    <use xlink:href="#DejaVuSans-65" transform="translate(934.123047 0)"/>
    <use xlink:href="#DejaVuSans-20" transform="translate(995.646484 0)"/>
    <use xlink:href="#DejaVuSans-70" transform="translate(1027.433594 0)"/>
    <use xlink:href="#DejaVuSans-72" transform="translate(1090.910156 0)"/>
    <use xlink:href="#DejaVuSans-6f" transform="translate(1129.773438 0)"/>
    <use xlink:href="#DejaVuSans-70" transform="translate(1190.955078 0)"/>
    <use xlink:href="#DejaVuSans-61" transform="translate(1254.431641 0)"/>
    <use xlink:href="#DejaVuSans-67" transform="translate(1315.710938 0)"/>
    <use xlink:href="#DejaVuSans-61" transform="translate(1379.1875 0)"/>
    <use xlink:href="#DejaVuSans-74" transform="translate(1440.466797 0)"/>
    <use xlink:href="#DejaVuSans-69" transform="translate(1479.675781 0)"/>
    <use xlink:href="#DejaVuSans-6f" transform="translate(1507.458984 0)"/>
    <use xlink:href="#DejaVuSans-6e" transform="translate(1568.640625 0)"/>
    <use xlink:href="#DejaVuSans-20" transform="translate(1632.019531 0)"/>
    <use xlink:href="#DejaVuSans-76" transform="translate(1663.806641 0)"/>
    <use xlink:href="#DejaVuSans-73" transform="translate(1722.986328 0)"/>
    <use xlink:href="#DejaVuSans-20" transform="translate(1775.085938 0)"/>
    <use xlink:href="#DejaVuSans-73" transform="translate(1806.873047 0)"/>
    <use xlink:href="#DejaVuSans-74" transform="translate(1858.972656 0)"/>
    <use xlink:href="#DejaVuSans-61" transform="translate(1898.181641 0)"/>
    <use xlink:href="#DejaVuSans-62" transform="translate(1959.460938 0)"/>
    <use xlink:href="#DejaVuSans-6c" transform="translate(2022.9375 0)"/>
    <use xlink:href="#DejaVuSans-65" transform="translate(2050.720703 0)"/>
    <use xlink:href="#DejaVuSans-20" transform="translate(2112.244141 0)"/>
    <use xlink:href="#DejaVuSans-63" transform="translate(2144.03125 0)"/>
    <use xlink:href="#DejaVuSans-6c" transform="translate(2199.011719 0)"/>
    <use xlink:href="#DejaVuSans-6f" transform="translate(2226.794922 0)"/>
    <use xlink:href="#DejaVuSans-73" transform="translate(2287.976562 0)"/>
    <use xlink:href="#DejaVuSans-75" transform="translate(2340.076172 0)"/>
    <use xlink:href="#DejaVuSans-72" transform="translate(2403.455078 0)"/>
    <use xlink:href="#DejaVuSans-65" transform="translate(2442.318359 0)"/>
   </g>
  </g>
 </g>
 <defs>
  <clipPath id="pb3d321f5a8">
   <rect x="60.539609" y="43.2" width="299.290909" height="277.2"/>
  </clipPath>
  <clipPath id="p822bf517f7">
   <rect x="430.734155" y="43.2" width="277.2" height="277.2"/>
  </clipPath>
 </defs>
</svg>
