<?xml version="1.0" encoding="utf-8" standalone="no"?>
<!DOCTYPE svg PUBLIC "-//W3C//DTD SVG 1.1//EN"
  "http://www.w3.org/Graphics/SVG/1.1/DTD/svg11.dtd">
<svg xmlns:xlink="http://www.w3.org/1999/xlink" width="795.6pt" height="280.512pt" viewBox="0 0 795.6 280.512" xmlns="http://www.w3.org/2000/svg" version="1.1">
 <metadata>
  <rdf:RDF xmlns:dc="http://purl.org/dc/elements/1.1/" xmlns:cc="http://creativecommons.org/ns#" xmlns:rdf="http://www.w3.org/1999/02/22-rdf-syntax-ns#">
   <cc:Work>
    <dc:type rdf:resource="http://purl.org/dc/dcmitype/StillImage"/>
    <dc:date>2026-04-26T20:33:12.765318</dc:date>
    <dc:format>image/svg+xml</dc:format>
    <dc:creator>
     <cc:Agent>
      <dc:title>Matplotlib v3.10.9, https://matplotlib.org/</dc:title>
     </cc:Agent>
    </dc:creator>
   </cc:Work>
  </rdf:RDF>
 </metadata>
 <defs>
  <style type="text/css">*{stroke-linejoin: round; stroke-linecap: butt}</style>
 </defs>
 <g id="figure_1">
  <g id="patch_1">
   <path d="M 0 280.512 
L 795.6 280.512 
L 795.6 0 
L 0 0 
z
" style="fill: #ffffff"/>
  </g>
  <g id="axes_1">
   <g id="patch_2">
    <path d="M 50.166 170.85888 
L 143.91 170.85888 
Q 167.346 170.85888 167.346 162.87552 
L 167.346 106.992 
Q 167.346 99.00864 143.91 99.00864 
L 50.166 99.00864 
Q 26.73 99.00864 26.73 106.992 
L 26.73 162.87552 
Q 26.73 170.85888 50.166 170.85888 
z
" clip-path="url(#pf702d649ec)" style="fill: #ffffff; stroke: #000000; stroke-width: 1.2; stroke-linejoin: miter"/>
   </g>
   <g id="patch_3">
    <path d="M 165.43782 134.93376 
Q 173.204456 134.93376 179.405844 134.93376 
" clip-path="url(#pf702d649ec)" style="fill: none; stroke: #000000; stroke-width: 1.4; stroke-linecap: round"/>
    <path d="M 173.805844 132.13376 
L 179.405844 134.93376 
L 173.805844 137.73376 
z
" clip-path="url(#pf702d649ec)" style="stroke: #000000; stroke-width: 1.4; stroke-linecap: round"/>
   </g>
   <g id="patch_4">
    <path d="M 202.5 170.85888 
L 296.244 170.85888 
Q 319.68 170.85888 319.68 162.87552 
L 319.68 106.992 
Q 319.68 99.00864 296.244 99.00864 
L 202.5 99.00864 
Q 179.064 99.00864 179.064 106.992 
L 179.064 162.87552 
Q 179.064 170.85888 202.5 170.85888 
z
" clip-path="url(#pf702d649ec)" style="fill: #ffffff; stroke: #000000; stroke-width: 1.2; stroke-linejoin: miter"/>
   </g>
   <g id="patch_5">
    <path d="M 317.77182 134.93376 
Q 325.538456 134.93376 331.739844 134.93376 
" clip-path="url(#pf702d649ec)" style="fill: none; stroke: #000000; stroke-width: 1.4; stroke-linecap: round"/>
    <path d="M 326.139844 132.13376 
L 331.739844 134.93376 
L 326.139844 137.73376 
z
" clip-path="url(#pf702d649ec)" style="stroke: #000000; stroke-width: 1.4; stroke-linecap: round"/>
   </g>
   <g id="patch_6">
    <path d="M 354.834 170.85888 
L 448.578 170.85888 
Q 472.014 170.85888 472.014 162.87552 
L 472.014 106.992 
Q 472.014 99.00864 448.578 99.00864 
L 354.834 99.00864 
Q 331.398 99.00864 331.398 106.992 
L 331.398 162.87552 
Q 331.398 170.85888 354.834 170.85888 
z
" clip-path="url(#pf702d649ec)" style="fill: #ffffff; stroke: #000000; stroke-width: 1.2; stroke-linejoin: miter"/>
   </g>
   <g id="patch_7">
    <path d="M 470.10582 134.93376 
Q 477.872456 134.93376 484.073844 134.93376 
" clip-path="url(#pf702d649ec)" style="fill: none; stroke: #000000; stroke-width: 1.4; stroke-linecap: round"/>
    <path d="M 478.473844 132.13376 
L 484.073844 134.93376 
L 478.473844 137.73376 
z
" clip-path="url(#pf702d649ec)" style="stroke: #000000; stroke-width: 1.4; stroke-linecap: round"/>
   </g>
   <g id="patch_8">
    <path d="M 507.168 170.85888 
L 600.912 170.85888 
Q 624.348 170.85888 624.348 162.87552 
L 624.348 106.992 
Q 624.348 99.00864 600.912 99.00864 
L 507.168 99.00864 
Q 483.732 99.00864 483.732 106.992 
L 483.732 162.87552 
Q 483.732 170.85888 507.168 170.85888 
z
" clip-path="url(#pf702d649ec)" style="fill: #ffffff; stroke: #000000; stroke-width: 1.2; stroke-linejoin: miter"/>
   </g>
   <g id="patch_9">
    <path d="M 622.43982 134.93376 
Q 630.206456 134.93376 636.407844 134.93376 
" clip-path="url(#pf702d649ec)" style="fill: none; stroke: #000000; stroke-width: 1.4; stroke-linecap: round"/>
    <path d="M 630.807844 132.13376 
L 636.407844 134.93376 
L 630.807844 137.73376 
z
" clip-path="url(#pf702d649ec)" style="stroke: #000000; stroke-width: 1.4; stroke-linecap: round"/>
   </g>
   <g id="patch_10">
    <path d="M 659.502 170.85888 
L 753.246 170.85888 
Q 776.682 170.85888 776.682 162.87552 
L 776.682 106.992 
Q 776.682 99.00864 753.246 99.00864 
L 659.502 99.00864 
Q 636.066 99.00864 636.066 106.992 
L 636.066 162.87552 
Q 636.066 170.85888 659.502 170.85888 
z
" clip-path="url(#pf702d649ec)" style="fill: #ffffff; stroke: #000000; stroke-width: 1.2; stroke-linejoin: miter"/>
   </g>
   <g id="text_1">
    <!-- Paper 1 -->
    <g transform="translate(77.728922 126.326554) scale(0.102 -0.102)">
     <defs>
      <path id="DejaVuSans-50" d="M 1259 4147 
L 1259 2394 
L 2053 2394 
Q 2494 2394 2734 2622 
Q 2975 2850 2975 3272 
Q 2975 3691 2734 3919 
Q 2494 4147 2053 4147 
L 1259 4147 
z
M 628 4666 
L 2053 4666 
Q 2838 4666 3239 4311 
Q 3641 3956 3641 3272 
Q 3641 2581 3239 2228 
Q 2838 1875 2053 1875 
L 1259 1875 
L 1259 0 
L 628 0 
L 628 4666 
z
" transform="scale(0.015625)"/>
      <path id="DejaVuSans-61" d="M 2194 1759 
Q 1497 1759 1228 1600 
Q 959 1441 959 1056 
Q 959 750 1161 570 
Q 1363 391 1709 391 
Q 2188 391 2477 730 
Q 2766 1069 2766 1631 
L 2766 1759 
L 2194 1759 
z
M 3341 1997 
L 3341 0 
L 2766 0 
L 2766 531 
Q 2569 213 2275 61 
Q 1981 -91 1556 -91 
Q 1019 -91 701 211 
Q 384 513 384 1019 
Q 384 1609 779 1909 
Q 1175 2209 1959 2209 
L 2766 2209 
L 2766 2266 
Q 2766 2663 2505 2880 
Q 2244 3097 1772 3097 
Q 1472 3097 1187 3025 
Q 903 2953 641 2809 
L 641 3341 
Q 956 3463 1253 3523 
Q 1550 3584 1831 3584 
Q 2591 3584 2966 3190 
Q 3341 2797 3341 1997 
z
" transform="scale(0.015625)"/>
      <path id="DejaVuSans-70" d="M 1159 525 
L 1159 -1331 
L 581 -1331 
L 581 3500 
L 1159 3500 
L 1159 2969 
Q 1341 3281 1617 3432 
Q 1894 3584 2278 3584 
Q 2916 3584 3314 3078 
Q 3713 2572 3713 1747 
Q 3713 922 3314 415 
Q 2916 -91 2278 -91 
Q 1894 -91 1617 61 
Q 1341 213 1159 525 
z
M 3116 1747 
Q 3116 2381 2855 2742 
Q 2594 3103 2138 3103 
Q 1681 3103 1420 2742 
Q 1159 2381 1159 1747 
Q 1159 1113 1420 752 
Q 1681 391 2138 391 
Q 2594 391 2855 752 
Q 3116 1113 3116 1747 
z
" transform="scale(0.015625)"/>
      <path id="DejaVuSans-65" d="M 3597 1894 
L 3597 1613 
L 953 1613 
Q 991 1019 1311 708 
Q 1631 397 2203 397 
Q 2534 397 2845 478 
Q 3156 559 3463 722 
L 3463 178 
Q 3153 47 2828 -22 
Q 2503 -91 2169 -91 
Q 1331 -91 842 396 
Q 353 884 353 1716 
Q 353 2575 817 3079 
Q 1281 3584 2069 3584 
Q 2775 3584 3186 3129 
Q 3597 2675 3597 1894 
z
M 3022 2063 
Q 3016 2534 2758 2815 
Q 2500 3097 2075 3097 
Q 1594 3097 1305 2825 
Q 1016 2553 972 2059 
L 3022 2063 
z
" transform="scale(0.015625)"/>
      <path id="DejaVuSans-72" d="M 2631 2963 
Q 2534 3019 2420 3045 
Q 2306 3072 2169 3072 
Q 1681 3072 1420 2755 
Q 1159 2438 1159 1844 
L 1159 0 
L 581 0 
L 581 3500 
L 1159 3500 
L 1159 2956 
Q 1341 3275 1631 3429 
Q 1922 3584 2338 3584 
Q 2397 3584 2469 3576 
Q 2541 3569 2628 3553 
L 2631 2963 
z
" transform="scale(0.015625)"/>
      <path id="DejaVuSans-20" transform="scale(0.015625)"/>
      <path id="DejaVuSans-31" d="M 794 531 
L 1825 531 
L 1825 4091 
L 703 3866 
L 703 4441 
L 1819 4666 
L 2450 4666 
L 2450 531 
L 3481 531 
L 3481 0 
L 794 0 
L 794 531 
z
" transform="scale(0.015625)"/>
     </defs>
     <use xlink:href="#DejaVuSans-50"/>
     <use xlink:href="#DejaVuSans-61" transform="translate(55.802734 0)"/>
     <use xlink:href="#DejaVuSans-70" transform="translate(117.082031 0)"/>
     <use xlink:href="#DejaVuSans-65" transform="translate(180.558594 0)"/>
     <use xlink:href="#DejaVuSans-72" transform="translate(242.082031 0)"/>
     <use xlink:href="#DejaVuSans-20" transform="translate(283.195312 0)"/>
     <use xlink:href="#DejaVuSans-31" transform="translate(314.982422 0)"/>
    </g>
    <!-- Complex spectral trace -->
    <g transform="translate(37.786359 137.748322) scale(0.102 -0.102)">
     <defs>
      <path id="DejaVuSans-43" d="M 4122 4306 
L 4122 3641 
Q 3803 3938 3442 4084 
Q 3081 4231 2675 4231 
Q 1875 4231 1450 3742 
Q 1025 3253 1025 2328 
Q 1025 1406 1450 917 
Q 1875 428 2675 428 
Q 3081 428 3442 575 
Q 3803 722 4122 1019 
L 4122 359 
Q 3791 134 3420 21 
Q 3050 -91 2638 -91 
Q 1578 -91 968 557 
Q 359 1206 359 2328 
Q 359 3453 968 4101 
Q 1578 4750 2638 4750 
Q 3056 4750 3426 4639 
Q 3797 4528 4122 4306 
z
" transform="scale(0.015625)"/>
      <path id="DejaVuSans-6f" d="M 1959 3097 
Q 1497 3097 1228 2736 
Q 959 2375 959 1747 
Q 959 1119 1226 758 
Q 1494 397 1959 397 
Q 2419 397 2687 759 
Q 2956 1122 2956 1747 
Q 2956 2369 2687 2733 
Q 2419 3097 1959 3097 
z
M 1959 3584 
Q 2709 3584 3137 3096 
Q 3566 2609 3566 1747 
Q 3566 888 3137 398 
Q 2709 -91 1959 -91 
Q 1206 -91 779 398 
Q 353 888 353 1747 
Q 353 2609 779 3096 
Q 1206 3584 1959 3584 
z
" transform="scale(0.015625)"/>
      <path id="DejaVuSans-6d" d="M 3328 2828 
Q 3544 3216 3844 3400 
Q 4144 3584 4550 3584 
Q 5097 3584 5394 3201 
Q 5691 2819 5691 2113 
L 5691 0 
L 5113 0 
L 5113 2094 
Q 5113 2597 4934 2840 
Q 4756 3084 4391 3084 
Q 3944 3084 3684 2787 
Q 3425 2491 3425 1978 
L 3425 0 
L 2847 0 
L 2847 2094 
Q 2847 2600 2669 2842 
Q 2491 3084 2119 3084 
Q 1678 3084 1418 2786 
Q 1159 2488 1159 1978 
L 1159 0 
L 581 0 
L 581 3500 
L 1159 3500 
L 1159 2956 
Q 1356 3278 1631 3431 
Q 1906 3584 2284 3584 
Q 2666 3584 2933 3390 
Q 3200 3197 3328 2828 
z
" transform="scale(0.015625)"/>
      <path id="DejaVuSans-6c" d="M 603 4863 
L 1178 4863 
L 1178 0 
L 603 0 
L 603 4863 
z
" transform="scale(0.015625)"/>
      <path id="DejaVuSans-78" d="M 3513 3500 
L 2247 1797 
L 3578 0 
L 2900 0 
L 1881 1375 
L 863 0 
L 184 0 
L 1544 1831 
L 300 3500 
L 978 3500 
L 1906 2253 
L 2834 3500 
L 3513 3500 
z
" transform="scale(0.015625)"/>
      <path id="DejaVuSans-73" d="M 2834 3397 
L 2834 2853 
Q 2591 2978 2328 3040 
Q 2066 3103 1784 3103 
Q 1356 3103 1142 2972 
Q 928 2841 928 2578 
Q 928 2378 1081 2264 
Q 1234 2150 1697 2047 
L 1894 2003 
Q 2506 1872 2764 1633 
Q 3022 1394 3022 966 
Q 3022 478 2636 193 
Q 2250 -91 1575 -91 
Q 1294 -91 989 -36 
Q 684 19 347 128 
L 347 722 
Q 666 556 975 473 
Q 1284 391 1588 391 
Q 1994 391 2212 530 
Q 2431 669 2431 922 
Q 2431 1156 2273 1281 
Q 2116 1406 1581 1522 
L 1381 1569 
Q 847 1681 609 1914 
Q 372 2147 372 2553 
Q 372 3047 722 3315 
Q 1072 3584 1716 3584 
Q 2034 3584 2315 3537 
Q 2597 3491 2834 3397 
z
" transform="scale(0.015625)"/>
      <path id="DejaVuSans-63" d="M 3122 3366 
L 3122 2828 
Q 2878 2963 2633 3030 
Q 2388 3097 2138 3097 
Q 1578 3097 1268 2742 
Q 959 2388 959 1747 
Q 959 1106 1268 751 
Q 1578 397 2138 397 
Q 2388 397 2633 464 
Q 2878 531 3122 666 
L 3122 134 
Q 2881 22 2623 -34 
Q 2366 -91 2075 -91 
Q 1284 -91 818 406 
Q 353 903 353 1747 
Q 353 2603 823 3093 
Q 1294 3584 2113 3584 
Q 2378 3584 2631 3529 
Q 2884 3475 3122 3366 
z
" transform="scale(0.015625)"/>
      <path id="DejaVuSans-74" d="M 1172 4494 
L 1172 3500 
L 2356 3500 
L 2356 3053 
L 1172 3053 
L 1172 1153 
Q 1172 725 1289 603 
Q 1406 481 1766 481 
L 2356 481 
L 2356 0 
L 1766 0 
Q 1100 0 847 248 
Q 594 497 594 1153 
L 594 3053 
L 172 3053 
L 172 3500 
L 594 3500 
L 594 4494 
L 1172 4494 
z
" transform="scale(0.015625)"/>
     </defs>
     <use xlink:href="#DejaVuSans-43"/>
     <use xlink:href="#DejaVuSans-6f" transform="translate(69.824219 0)"/>
     <use xlink:href="#DejaVuSans-6d" transform="translate(131.005859 0)"/>
     <use xlink:href="#DejaVuSans-70" transform="translate(228.417969 0)"/>
     <use xlink:href="#DejaVuSans-6c" transform="translate(291.894531 0)"/>
     <use xlink:href="#DejaVuSans-65" transform="translate(319.677734 0)"/>
     <use xlink:href="#DejaVuSans-78" transform="translate(379.451172 0)"/>
     <use xlink:href="#DejaVuSans-20" transform="translate(438.630859 0)"/>
     <use xlink:href="#DejaVuSans-73" transform="translate(470.417969 0)"/>
     <use xlink:href="#DejaVuSans-70" transform="translate(522.517578 0)"/>
     <use xlink:href="#DejaVuSans-65" transform="translate(585.994141 0)"/>
     <use xlink:href="#DejaVuSans-63" transform="translate(647.517578 0)"/>
     <use xlink:href="#DejaVuSans-74" transform="translate(702.498047 0)"/>
     <use xlink:href="#DejaVuSans-72" transform="translate(741.707031 0)"/>
     <use xlink:href="#DejaVuSans-61" transform="translate(782.820312 0)"/>
     <use xlink:href="#DejaVuSans-6c" transform="translate(844.099609 0)"/>
     <use xlink:href="#DejaVuSans-20" transform="translate(871.882812 0)"/>
     <use xlink:href="#DejaVuSans-74" transform="translate(903.669922 0)"/>
     <use xlink:href="#DejaVuSans-72" transform="translate(942.878906 0)"/>
     <use xlink:href="#DejaVuSans-61" transform="translate(983.992188 0)"/>
     <use xlink:href="#DejaVuSans-63" transform="translate(1045.271484 0)"/>
     <use xlink:href="#DejaVuSans-65" transform="translate(1100.251953 0)"/>
    </g>
    <!-- $\Xi(t_n)=0$ -->
    <g transform="translate(75.924 149.170091) scale(0.102 -0.102)">
     <defs>
      <path id="DejaVuSans-39e" d="M 956 2753 
L 3178 2753 
L 3178 2222 
L 956 2222 
L 956 2753 
z
M 628 4666 
L 3506 4666 
L 3506 4134 
L 628 4134 
L 628 4666 
z
M 628 531 
L 3506 531 
L 3506 0 
L 628 0 
L 628 531 
z
" transform="scale(0.015625)"/>
      <path id="DejaVuSans-28" d="M 1984 4856 
Q 1566 4138 1362 3434 
Q 1159 2731 1159 2009 
Q 1159 1288 1364 580 
Q 1569 -128 1984 -844 
L 1484 -844 
Q 1016 -109 783 600 
Q 550 1309 550 2009 
Q 550 2706 781 3412 
Q 1013 4119 1484 4856 
L 1984 4856 
z
" transform="scale(0.015625)"/>
      <path id="DejaVuSans-Oblique-74" d="M 2706 3500 
L 2619 3053 
L 1472 3053 
L 1100 1153 
Q 1081 1047 1072 975 
Q 1063 903 1063 863 
Q 1063 663 1183 572 
Q 1303 481 1569 481 
L 2150 481 
L 2053 0 
L 1503 0 
Q 991 0 739 200 
Q 488 400 488 806 
Q 488 878 497 964 
Q 506 1050 525 1153 
L 897 3053 
L 409 3053 
L 500 3500 
L 978 3500 
L 1172 4494 
L 1747 4494 
L 1556 3500 
L 2706 3500 
z
" transform="scale(0.015625)"/>
      <path id="DejaVuSans-Oblique-6e" d="M 3566 2113 
L 3156 0 
L 2578 0 
L 2988 2091 
Q 3016 2238 3031 2350 
Q 3047 2463 3047 2528 
Q 3047 2791 2881 2937 
Q 2716 3084 2419 3084 
Q 1956 3084 1622 2776 
Q 1288 2469 1184 1941 
L 800 0 
L 225 0 
L 903 3500 
L 1478 3500 
L 1363 2950 
Q 1603 3253 1940 3418 
Q 2278 3584 2650 3584 
Q 3113 3584 3367 3334 
Q 3622 3084 3622 2631 
Q 3622 2519 3608 2391 
Q 3594 2263 3566 2113 
z
" transform="scale(0.015625)"/>
      <path id="DejaVuSans-29" d="M 513 4856 
L 1013 4856 
Q 1481 4119 1714 3412 
Q 1947 2706 1947 2009 
Q 1947 1309 1714 600 
Q 1481 -109 1013 -844 
L 513 -844 
Q 928 -128 1133 580 
Q 1338 1288 1338 2009 
Q 1338 2731 1133 3434 
Q 928 4138 513 4856 
z
" transform="scale(0.015625)"/>
      <path id="DejaVuSans-3d" d="M 678 2906 
L 4684 2906 
L 4684 2381 
L 678 2381 
L 678 2906 
z
M 678 1631 
L 4684 1631 
L 4684 1100 
L 678 1100 
L 678 1631 
z
" transform="scale(0.015625)"/>
      <path id="DejaVuSans-30" d="M 2034 4250 
Q 1547 4250 1301 3770 
Q 1056 3291 1056 2328 
Q 1056 1369 1301 889 
Q 1547 409 2034 409 
Q 2525 409 2770 889 
Q 3016 1369 3016 2328 
Q 3016 3291 2770 3770 
Q 2525 4250 2034 4250 
z
M 2034 4750 
Q 2819 4750 3233 4129 
Q 3647 3509 3647 2328 
Q 3647 1150 3233 529 
Q 2819 -91 2034 -91 
Q 1250 -91 836 529 
Q 422 1150 422 2328 
Q 422 3509 836 4129 
Q 1250 4750 2034 4750 
z
" transform="scale(0.015625)"/>
     </defs>
     <use xlink:href="#DejaVuSans-39e" transform="translate(0 0.125)"/>
     <use xlink:href="#DejaVuSans-28" transform="translate(63.183594 0.125)"/>
     <use xlink:href="#DejaVuSans-Oblique-74" transform="translate(102.197266 0.125)"/>
     <use xlink:href="#DejaVuSans-Oblique-6e" transform="translate(141.40625 -16.28125) scale(0.7)"/>
     <use xlink:href="#DejaVuSans-29" transform="translate(188.505859 0.125)"/>
     <use xlink:href="#DejaVuSans-3d" transform="translate(247.001953 0.125)"/>
     <use xlink:href="#DejaVuSans-30" transform="translate(350.273438 0.125)"/>
    </g>
   </g>
   <g id="text_2">
    <!-- Paper 2 -->
    <g transform="translate(230.062922 126.315238) scale(0.102 -0.102)">
     <defs>
      <path id="DejaVuSans-32" d="M 1228 531 
L 3431 531 
L 3431 0 
L 469 0 
L 469 531 
Q 828 903 1448 1529 
Q 2069 2156 2228 2338 
Q 2531 2678 2651 2914 
Q 2772 3150 2772 3378 
Q 2772 3750 2511 3984 
Q 2250 4219 1831 4219 
Q 1534 4219 1204 4116 
Q 875 4013 500 3803 
L 500 4441 
Q 881 4594 1212 4672 
Q 1544 4750 1819 4750 
Q 2544 4750 2975 4387 
Q 3406 4025 3406 3419 
Q 3406 3131 3298 2873 
Q 3191 2616 2906 2266 
Q 2828 2175 2409 1742 
Q 1991 1309 1228 531 
z
" transform="scale(0.015625)"/>
     </defs>
     <use xlink:href="#DejaVuSans-50"/>
     <use xlink:href="#DejaVuSans-61" transform="translate(55.802734 0)"/>
     <use xlink:href="#DejaVuSans-70" transform="translate(117.082031 0)"/>
     <use xlink:href="#DejaVuSans-65" transform="translate(180.558594 0)"/>
     <use xlink:href="#DejaVuSans-72" transform="translate(242.082031 0)"/>
     <use xlink:href="#DejaVuSans-20" transform="translate(283.195312 0)"/>
     <use xlink:href="#DejaVuSans-32" transform="translate(314.982422 0)"/>
    </g>
    <!-- Quaternionic slices -->
    <g transform="translate(200.922 137.737007) scale(0.102 -0.102)">
     <defs>
      <path id="DejaVuSans-51" d="M 2522 4238 
Q 1834 4238 1429 3725 
Q 1025 3213 1025 2328 
Q 1025 1447 1429 934 
Q 1834 422 2522 422 
Q 3209 422 3611 934 
Q 4013 1447 4013 2328 
Q 4013 3213 3611 3725 
Q 3209 4238 2522 4238 
z
M 3406 84 
L 4238 -825 
L 3475 -825 
L 2784 -78 
Q 2681 -84 2626 -87 
Q 2572 -91 2522 -91 
Q 1538 -91 948 567 
Q 359 1225 359 2328 
Q 359 3434 948 4092 
Q 1538 4750 2522 4750 
Q 3503 4750 4090 4092 
Q 4678 3434 4678 2328 
Q 4678 1516 4351 937 
Q 4025 359 3406 84 
z
" transform="scale(0.015625)"/>
      <path id="DejaVuSans-75" d="M 544 1381 
L 544 3500 
L 1119 3500 
L 1119 1403 
Q 1119 906 1312 657 
Q 1506 409 1894 409 
Q 2359 409 2629 706 
Q 2900 1003 2900 1516 
L 2900 3500 
L 3475 3500 
L 3475 0 
L 2900 0 
L 2900 538 
Q 2691 219 2414 64 
Q 2138 -91 1772 -91 
Q 1169 -91 856 284 
Q 544 659 544 1381 
z
M 1991 3584 
L 1991 3584 
z
" transform="scale(0.015625)"/>
      <path id="DejaVuSans-6e" d="M 3513 2113 
L 3513 0 
L 2938 0 
L 2938 2094 
Q 2938 2591 2744 2837 
Q 2550 3084 2163 3084 
Q 1697 3084 1428 2787 
Q 1159 2491 1159 1978 
L 1159 0 
L 581 0 
L 581 3500 
L 1159 3500 
L 1159 2956 
Q 1366 3272 1645 3428 
Q 1925 3584 2291 3584 
Q 2894 3584 3203 3211 
Q 3513 2838 3513 2113 
z
" transform="scale(0.015625)"/>
      <path id="DejaVuSans-69" d="M 603 3500 
L 1178 3500 
L 1178 0 
L 603 0 
L 603 3500 
z
M 603 4863 
L 1178 4863 
L 1178 4134 
L 603 4134 
L 603 4863 
z
" transform="scale(0.015625)"/>
     </defs>
     <use xlink:href="#DejaVuSans-51"/>
     <use xlink:href="#DejaVuSans-75" transform="translate(78.710938 0)"/>
     <use xlink:href="#DejaVuSans-61" transform="translate(142.089844 0)"/>
     <use xlink:href="#DejaVuSans-74" transform="translate(203.369141 0)"/>
     <use xlink:href="#DejaVuSans-65" transform="translate(242.578125 0)"/>
     <use xlink:href="#DejaVuSans-72" transform="translate(304.101562 0)"/>
     <use xlink:href="#DejaVuSans-6e" transform="translate(343.464844 0)"/>
     <use xlink:href="#DejaVuSans-69" transform="translate(406.84375 0)"/>
     <use xlink:href="#DejaVuSans-6f" transform="translate(434.626953 0)"/>
     <use xlink:href="#DejaVuSans-6e" transform="translate(495.808594 0)"/>
     <use xlink:href="#DejaVuSans-69" transform="translate(559.1875 0)"/>
     <use xlink:href="#DejaVuSans-63" transform="translate(586.970703 0)"/>
     <use xlink:href="#DejaVuSans-20" transform="translate(641.951172 0)"/>
     <use xlink:href="#DejaVuSans-73" transform="translate(673.738281 0)"/>
     <use xlink:href="#DejaVuSans-6c" transform="translate(725.837891 0)"/>
     <use xlink:href="#DejaVuSans-69" transform="translate(753.621094 0)"/>
     <use xlink:href="#DejaVuSans-63" transform="translate(781.404297 0)"/>
     <use xlink:href="#DejaVuSans-65" transform="translate(836.384766 0)"/>
     <use xlink:href="#DejaVuSans-73" transform="translate(897.908203 0)"/>
    </g>
    <!-- $q_u(t)$ -->
    <g transform="translate(237.744 149.160688) scale(0.102 -0.102)">
     <defs>
      <path id="DejaVuSans-Oblique-71" d="M 2669 525 
Q 2438 222 2123 65 
Q 1809 -91 1428 -91 
Q 897 -91 595 267 
Q 294 625 294 1253 
Q 294 1759 480 2231 
Q 666 2703 1013 3078 
Q 1238 3322 1530 3453 
Q 1822 3584 2144 3584 
Q 2531 3584 2781 3431 
Q 3031 3278 3144 2969 
L 3244 3494 
L 3822 3494 
L 2888 -1319 
L 2309 -1319 
L 2669 525 
z
M 891 1338 
Q 891 875 1084 633 
Q 1278 391 1644 391 
Q 2188 391 2572 911 
Q 2956 1431 2956 2175 
Q 2956 2625 2757 2864 
Q 2559 3103 2188 3103 
Q 1916 3103 1684 2976 
Q 1453 2850 1281 2606 
Q 1100 2350 995 2006 
Q 891 1663 891 1338 
z
" transform="scale(0.015625)"/>
      <path id="DejaVuSans-Oblique-75" d="M 428 1388 
L 838 3500 
L 1416 3500 
L 1006 1409 
Q 975 1256 961 1147 
Q 947 1038 947 966 
Q 947 700 1109 554 
Q 1272 409 1569 409 
Q 2031 409 2368 721 
Q 2706 1034 2809 1563 
L 3194 3500 
L 3769 3500 
L 3091 0 
L 2516 0 
L 2631 550 
Q 2388 244 2052 76 
Q 1716 -91 1338 -91 
Q 878 -91 622 161 
Q 366 413 366 863 
Q 366 956 381 1097 
Q 397 1238 428 1388 
z
" transform="scale(0.015625)"/>
     </defs>
     <use xlink:href="#DejaVuSans-Oblique-71" transform="translate(0 0.125)"/>
     <use xlink:href="#DejaVuSans-Oblique-75" transform="translate(63.476562 -16.28125) scale(0.7)"/>
     <use xlink:href="#DejaVuSans-28" transform="translate(110.576172 0.125)"/>
     <use xlink:href="#DejaVuSans-Oblique-74" transform="translate(149.589844 0.125)"/>
     <use xlink:href="#DejaVuSans-29" transform="translate(188.798828 0.125)"/>
    </g>
   </g>
   <g id="text_3">
    <!-- Paper 3 -->
    <g transform="translate(382.396922 126.326554) scale(0.102 -0.102)">
     <defs>
      <path id="DejaVuSans-33" d="M 2597 2516 
Q 3050 2419 3304 2112 
Q 3559 1806 3559 1356 
Q 3559 666 3084 287 
Q 2609 -91 1734 -91 
Q 1441 -91 1130 -33 
Q 819 25 488 141 
L 488 750 
Q 750 597 1062 519 
Q 1375 441 1716 441 
Q 2309 441 2620 675 
Q 2931 909 2931 1356 
Q 2931 1769 2642 2001 
Q 2353 2234 1838 2234 
L 1294 2234 
L 1294 2753 
L 1863 2753 
Q 2328 2753 2575 2939 
Q 2822 3125 2822 3475 
Q 2822 3834 2567 4026 
Q 2313 4219 1838 4219 
Q 1578 4219 1281 4162 
Q 984 4106 628 3988 
L 628 4550 
Q 988 4650 1302 4700 
Q 1616 4750 1894 4750 
Q 2613 4750 3031 4423 
Q 3450 4097 3450 3541 
Q 3450 3153 3228 2886 
Q 3006 2619 2597 2516 
z
" transform="scale(0.015625)"/>
     </defs>
     <use xlink:href="#DejaVuSans-50"/>
     <use xlink:href="#DejaVuSans-61" transform="translate(55.802734 0)"/>
     <use xlink:href="#DejaVuSans-70" transform="translate(117.082031 0)"/>
     <use xlink:href="#DejaVuSans-65" transform="translate(180.558594 0)"/>
     <use xlink:href="#DejaVuSans-72" transform="translate(242.082031 0)"/>
     <use xlink:href="#DejaVuSans-20" transform="translate(283.195312 0)"/>
     <use xlink:href="#DejaVuSans-33" transform="translate(314.982422 0)"/>
    </g>
    <!-- Mass-shell norm -->
    <g transform="translate(360.2175 137.748322) scale(0.102 -0.102)">
     <defs>
      <path id="DejaVuSans-4d" d="M 628 4666 
L 1569 4666 
L 2759 1491 
L 3956 4666 
L 4897 4666 
L 4897 0 
L 4281 0 
L 4281 4097 
L 3078 897 
L 2444 897 
L 1241 4097 
L 1241 0 
L 628 0 
L 628 4666 
z
" transform="scale(0.015625)"/>
      <path id="DejaVuSans-2d" d="M 313 2009 
L 1997 2009 
L 1997 1497 
L 313 1497 
L 313 2009 
z
" transform="scale(0.015625)"/>
      <path id="DejaVuSans-68" d="M 3513 2113 
L 3513 0 
L 2938 0 
L 2938 2094 
Q 2938 2591 2744 2837 
Q 2550 3084 2163 3084 
Q 1697 3084 1428 2787 
Q 1159 2491 1159 1978 
L 1159 0 
L 581 0 
L 581 4863 
L 1159 4863 
L 1159 2956 
Q 1366 3272 1645 3428 
Q 1925 3584 2291 3584 
Q 2894 3584 3203 3211 
Q 3513 2838 3513 2113 
z
" transform="scale(0.015625)"/>
     </defs>
     <use xlink:href="#DejaVuSans-4d"/>
     <use xlink:href="#DejaVuSans-61" transform="translate(86.279297 0)"/>
     <use xlink:href="#DejaVuSans-73" transform="translate(147.558594 0)"/>
     <use xlink:href="#DejaVuSans-73" transform="translate(199.658203 0)"/>
     <use xlink:href="#DejaVuSans-2d" transform="translate(251.757812 0)"/>
     <use xlink:href="#DejaVuSans-73" transform="translate(287.841797 0)"/>
     <use xlink:href="#DejaVuSans-68" transform="translate(339.941406 0)"/>
     <use xlink:href="#DejaVuSans-65" transform="translate(403.320312 0)"/>
     <use xlink:href="#DejaVuSans-6c" transform="translate(464.84375 0)"/>
     <use xlink:href="#DejaVuSans-6c" transform="translate(492.626953 0)"/>
     <use xlink:href="#DejaVuSans-20" transform="translate(520.410156 0)"/>
     <use xlink:href="#DejaVuSans-6e" transform="translate(552.197266 0)"/>
     <use xlink:href="#DejaVuSans-6f" transform="translate(615.576172 0)"/>
     <use xlink:href="#DejaVuSans-72" transform="translate(676.757812 0)"/>
     <use xlink:href="#DejaVuSans-6d" transform="translate(716.121094 0)"/>
    </g>
    <!-- $P\bar P=m^2c^2$ -->
    <g transform="translate(376.206 149.170091) scale(0.102 -0.102)">
     <defs>
      <path id="DejaVuSans-Oblique-50" d="M 1081 4666 
L 2541 4666 
Q 3178 4666 3512 4369 
Q 3847 4072 3847 3500 
Q 3847 2731 3353 2303 
Q 2859 1875 1966 1875 
L 1172 1875 
L 806 0 
L 172 0 
L 1081 4666 
z
M 1613 4147 
L 1275 2394 
L 2069 2394 
Q 2606 2394 2893 2669 
Q 3181 2944 3181 3456 
Q 3181 3784 2986 3965 
Q 2791 4147 2438 4147 
L 1613 4147 
z
" transform="scale(0.015625)"/>
      <path id="DejaVuSans-304" d="M -2518 4769 
L -650 4769 
L -650 4306 
L -2518 4306 
L -2518 4769 
z
" transform="scale(0.015625)"/>
      <path id="DejaVuSans-Oblique-6d" d="M 5747 2113 
L 5338 0 
L 4763 0 
L 5166 2094 
Q 5191 2228 5203 2325 
Q 5216 2422 5216 2491 
Q 5216 2772 5059 2928 
Q 4903 3084 4622 3084 
Q 4203 3084 3875 2770 
Q 3547 2456 3450 1953 
L 3066 0 
L 2491 0 
L 2900 2094 
Q 2925 2209 2937 2307 
Q 2950 2406 2950 2484 
Q 2950 2769 2794 2926 
Q 2638 3084 2363 3084 
Q 1938 3084 1609 2770 
Q 1281 2456 1184 1953 
L 800 0 
L 225 0 
L 909 3500 
L 1484 3500 
L 1375 2956 
Q 1609 3263 1923 3423 
Q 2238 3584 2597 3584 
Q 2978 3584 3223 3384 
Q 3469 3184 3519 2828 
Q 3781 3197 4126 3390 
Q 4472 3584 4856 3584 
Q 5306 3584 5551 3325 
Q 5797 3066 5797 2591 
Q 5797 2488 5784 2364 
Q 5772 2241 5747 2113 
z
" transform="scale(0.015625)"/>
      <path id="DejaVuSans-Oblique-63" d="M 3431 3366 
L 3316 2797 
Q 3109 2947 2876 3022 
Q 2644 3097 2394 3097 
Q 2119 3097 1870 3000 
Q 1622 2903 1453 2725 
Q 1184 2453 1037 2087 
Q 891 1722 891 1331 
Q 891 859 1127 628 
Q 1363 397 1844 397 
Q 2081 397 2348 469 
Q 2616 541 2906 684 
L 2797 116 
Q 2547 13 2283 -39 
Q 2019 -91 1741 -91 
Q 1044 -91 669 257 
Q 294 606 294 1253 
Q 294 1797 489 2255 
Q 684 2713 1069 3078 
Q 1331 3328 1684 3456 
Q 2038 3584 2456 3584 
Q 2700 3584 2940 3529 
Q 3181 3475 3431 3366 
z
" transform="scale(0.015625)"/>
     </defs>
     <use xlink:href="#DejaVuSans-Oblique-50" transform="translate(0 0.359375)"/>
     <use xlink:href="#DejaVuSans-304" transform="translate(121.001953 18.484375)"/>
     <use xlink:href="#DejaVuSans-Oblique-50" transform="translate(60.302734 0.359375)"/>
     <use xlink:href="#DejaVuSans-3d" transform="translate(140.087891 0.359375)"/>
     <use xlink:href="#DejaVuSans-Oblique-6d" transform="translate(243.359375 0.359375)"/>
     <use xlink:href="#DejaVuSans-32" transform="translate(345.42138 38.640625) scale(0.7)"/>
     <use xlink:href="#DejaVuSans-Oblique-63" transform="translate(392.691888 0.359375)"/>
     <use xlink:href="#DejaVuSans-32" transform="translate(452.322253 38.640625) scale(0.7)"/>
    </g>
   </g>
   <g id="text_4">
    <!-- Paper 4 -->
    <g transform="translate(534.730922 126.326554) scale(0.102 -0.102)">
     <defs>
      <path id="DejaVuSans-34" d="M 2419 4116 
L 825 1625 
L 2419 1625 
L 2419 4116 
z
M 2253 4666 
L 3047 4666 
L 3047 1625 
L 3713 1625 
L 3713 1100 
L 3047 1100 
L 3047 0 
L 2419 0 
L 2419 1100 
L 313 1100 
L 313 1709 
L 2253 4666 
z
" transform="scale(0.015625)"/>
     </defs>
     <use xlink:href="#DejaVuSans-50"/>
     <use xlink:href="#DejaVuSans-61" transform="translate(55.802734 0)"/>
     <use xlink:href="#DejaVuSans-70" transform="translate(117.082031 0)"/>
     <use xlink:href="#DejaVuSans-65" transform="translate(180.558594 0)"/>
     <use xlink:href="#DejaVuSans-72" transform="translate(242.082031 0)"/>
     <use xlink:href="#DejaVuSans-20" transform="translate(283.195312 0)"/>
     <use xlink:href="#DejaVuSans-34" transform="translate(314.982422 0)"/>
    </g>
    <!-- Operator bridge -->
    <g transform="translate(513.225656 137.748322) scale(0.102 -0.102)">
     <defs>
      <path id="DejaVuSans-4f" d="M 2522 4238 
Q 1834 4238 1429 3725 
Q 1025 3213 1025 2328 
Q 1025 1447 1429 934 
Q 1834 422 2522 422 
Q 3209 422 3611 934 
Q 4013 1447 4013 2328 
Q 4013 3213 3611 3725 
Q 3209 4238 2522 4238 
z
M 2522 4750 
Q 3503 4750 4090 4092 
Q 4678 3434 4678 2328 
Q 4678 1225 4090 567 
Q 3503 -91 2522 -91 
Q 1538 -91 948 565 
Q 359 1222 359 2328 
Q 359 3434 948 4092 
Q 1538 4750 2522 4750 
z
" transform="scale(0.015625)"/>
      <path id="DejaVuSans-62" d="M 3116 1747 
Q 3116 2381 2855 2742 
Q 2594 3103 2138 3103 
Q 1681 3103 1420 2742 
Q 1159 2381 1159 1747 
Q 1159 1113 1420 752 
Q 1681 391 2138 391 
Q 2594 391 2855 752 
Q 3116 1113 3116 1747 
z
M 1159 2969 
Q 1341 3281 1617 3432 
Q 1894 3584 2278 3584 
Q 2916 3584 3314 3078 
Q 3713 2572 3713 1747 
Q 3713 922 3314 415 
Q 2916 -91 2278 -91 
Q 1894 -91 1617 61 
Q 1341 213 1159 525 
L 1159 0 
L 581 0 
L 581 4863 
L 1159 4863 
L 1159 2969 
z
" transform="scale(0.015625)"/>
      <path id="DejaVuSans-64" d="M 2906 2969 
L 2906 4863 
L 3481 4863 
L 3481 0 
L 2906 0 
L 2906 525 
Q 2725 213 2448 61 
Q 2172 -91 1784 -91 
Q 1150 -91 751 415 
Q 353 922 353 1747 
Q 353 2572 751 3078 
Q 1150 3584 1784 3584 
Q 2172 3584 2448 3432 
Q 2725 3281 2906 2969 
z
M 947 1747 
Q 947 1113 1208 752 
Q 1469 391 1925 391 
Q 2381 391 2643 752 
Q 2906 1113 2906 1747 
Q 2906 2381 2643 2742 
Q 2381 3103 1925 3103 
Q 1469 3103 1208 2742 
Q 947 2381 947 1747 
z
" transform="scale(0.015625)"/>
      <path id="DejaVuSans-67" d="M 2906 1791 
Q 2906 2416 2648 2759 
Q 2391 3103 1925 3103 
Q 1463 3103 1205 2759 
Q 947 2416 947 1791 
Q 947 1169 1205 825 
Q 1463 481 1925 481 
Q 2391 481 2648 825 
Q 2906 1169 2906 1791 
z
M 3481 434 
Q 3481 -459 3084 -895 
Q 2688 -1331 1869 -1331 
Q 1566 -1331 1297 -1286 
Q 1028 -1241 775 -1147 
L 775 -588 
Q 1028 -725 1275 -790 
Q 1522 -856 1778 -856 
Q 2344 -856 2625 -561 
Q 2906 -266 2906 331 
L 2906 616 
Q 2728 306 2450 153 
Q 2172 0 1784 0 
Q 1141 0 747 490 
Q 353 981 353 1791 
Q 353 2603 747 3093 
Q 1141 3584 1784 3584 
Q 2172 3584 2450 3431 
Q 2728 3278 2906 2969 
L 2906 3500 
L 3481 3500 
L 3481 434 
z
" transform="scale(0.015625)"/>
     </defs>
     <use xlink:href="#DejaVuSans-4f"/>
     <use xlink:href="#DejaVuSans-70" transform="translate(78.710938 0)"/>
     <use xlink:href="#DejaVuSans-65" transform="translate(142.1875 0)"/>
     <use xlink:href="#DejaVuSans-72" transform="translate(203.710938 0)"/>
     <use xlink:href="#DejaVuSans-61" transform="translate(244.824219 0)"/>
     <use xlink:href="#DejaVuSans-74" transform="translate(306.103516 0)"/>
     <use xlink:href="#DejaVuSans-6f" transform="translate(345.3125 0)"/>
     <use xlink:href="#DejaVuSans-72" transform="translate(406.494141 0)"/>
     <use xlink:href="#DejaVuSans-20" transform="translate(447.607422 0)"/>
     <use xlink:href="#DejaVuSans-62" transform="translate(479.394531 0)"/>
     <use xlink:href="#DejaVuSans-72" transform="translate(542.871094 0)"/>
     <use xlink:href="#DejaVuSans-69" transform="translate(583.984375 0)"/>
     <use xlink:href="#DejaVuSans-64" transform="translate(611.767578 0)"/>
     <use xlink:href="#DejaVuSans-67" transform="translate(675.244141 0)"/>
     <use xlink:href="#DejaVuSans-65" transform="translate(738.720703 0)"/>
    </g>
    <!-- $\mathcal{A}_u$ -->
    <g transform="translate(547.206 149.170091) scale(0.102 -0.102)">
     <defs>
      <path id="STIXNonUnicode-Italic-e22d" d="M 5075 416 
L 5197 320 
Q 4928 -198 4365 -198 
Q 4013 -198 3865 74 
Q 3718 346 3706 1024 
L 2182 1024 
Q 2112 922 1961 717 
Q 1811 512 1750 425 
Q 1690 339 1571 192 
Q 1453 45 1382 -16 
Q 1312 -77 1209 -153 
Q 1107 -230 1014 -259 
Q 922 -288 819 -288 
Q 595 -288 435 -131 
Q 275 26 275 243 
Q 275 416 364 521 
Q 454 627 614 627 
Q 717 627 784 572 
Q 851 518 873 457 
Q 896 397 941 342 
Q 986 288 1056 288 
Q 1376 288 1965 1178 
L 4026 4333 
L 4205 4333 
L 4378 883 
Q 4416 198 4691 198 
Q 4941 198 5075 416 
z
M 3699 1280 
L 3616 3232 
L 2330 1280 
Q 2291 1229 2291 1197 
Q 2291 1190 2294 1190 
Q 2298 1190 2298 1184 
Q 2336 1184 2502 1280 
L 3699 1280 
z
" transform="scale(0.015625)"/>
     </defs>
     <use xlink:href="#STIXNonUnicode-Italic-e22d" transform="translate(0 0.296875)"/>
     <use xlink:href="#DejaVuSans-Oblique-75" transform="translate(86.157013 -16.109375) scale(0.7)"/>
    </g>
   </g>
   <g id="text_5">
    <!-- Paper 5 -->
    <g transform="translate(687.064922 126.315238) scale(0.102 -0.102)">
     <defs>
      <path id="DejaVuSans-35" d="M 691 4666 
L 3169 4666 
L 3169 4134 
L 1269 4134 
L 1269 2991 
Q 1406 3038 1543 3061 
Q 1681 3084 1819 3084 
Q 2600 3084 3056 2656 
Q 3513 2228 3513 1497 
Q 3513 744 3044 326 
Q 2575 -91 1722 -91 
Q 1428 -91 1123 -41 
Q 819 9 494 109 
L 494 744 
Q 775 591 1075 516 
Q 1375 441 1709 441 
Q 2250 441 2565 725 
Q 2881 1009 2881 1497 
Q 2881 1984 2565 2268 
Q 2250 2553 1709 2553 
Q 1456 2553 1204 2497 
Q 953 2441 691 2322 
L 691 4666 
z
" transform="scale(0.015625)"/>
     </defs>
     <use xlink:href="#DejaVuSans-50"/>
     <use xlink:href="#DejaVuSans-61" transform="translate(55.802734 0)"/>
     <use xlink:href="#DejaVuSans-70" transform="translate(117.082031 0)"/>
     <use xlink:href="#DejaVuSans-65" transform="translate(180.558594 0)"/>
     <use xlink:href="#DejaVuSans-72" transform="translate(242.082031 0)"/>
     <use xlink:href="#DejaVuSans-20" transform="translate(283.195312 0)"/>
     <use xlink:href="#DejaVuSans-35" transform="translate(314.982422 0)"/>
    </g>
    <!-- Calibration tests -->
    <g transform="translate(664.554 137.737007) scale(0.102 -0.102)">
     <use xlink:href="#DejaVuSans-43"/>
     <use xlink:href="#DejaVuSans-61" transform="translate(69.824219 0)"/>
     <use xlink:href="#DejaVuSans-6c" transform="translate(131.103516 0)"/>
     <use xlink:href="#DejaVuSans-69" transform="translate(158.886719 0)"/>
     <use xlink:href="#DejaVuSans-62" transform="translate(186.669922 0)"/>
     <use xlink:href="#DejaVuSans-72" transform="translate(250.146484 0)"/>
     <use xlink:href="#DejaVuSans-61" transform="translate(291.259766 0)"/>
     <use xlink:href="#DejaVuSans-74" transform="translate(352.539062 0)"/>
     <use xlink:href="#DejaVuSans-69" transform="translate(391.748047 0)"/>
     <use xlink:href="#DejaVuSans-6f" transform="translate(419.53125 0)"/>
     <use xlink:href="#DejaVuSans-6e" transform="translate(480.712891 0)"/>
     <use xlink:href="#DejaVuSans-20" transform="translate(544.091797 0)"/>
     <use xlink:href="#DejaVuSans-74" transform="translate(575.878906 0)"/>
     <use xlink:href="#DejaVuSans-65" transform="translate(615.087891 0)"/>
     <use xlink:href="#DejaVuSans-73" transform="translate(676.611328 0)"/>
     <use xlink:href="#DejaVuSans-74" transform="translate(728.710938 0)"/>
     <use xlink:href="#DejaVuSans-73" transform="translate(767.919922 0)"/>
    </g>
    <!-- $L_*$ regimes -->
    <g transform="translate(677.916 149.160688) scale(0.102 -0.102)">
     <defs>
      <path id="DejaVuSans-Oblique-4c" d="M 1075 4666 
L 1709 4666 
L 909 525 
L 3181 525 
L 3078 0 
L 172 0 
L 1075 4666 
z
" transform="scale(0.015625)"/>
      <path id="DejaVuSans-2a" d="M 3009 3897 
L 1888 3291 
L 3009 2681 
L 2828 2375 
L 1778 3009 
L 1778 1831 
L 1422 1831 
L 1422 3009 
L 372 2375 
L 191 2681 
L 1313 3291 
L 191 3897 
L 372 4206 
L 1422 3572 
L 1422 4750 
L 1778 4750 
L 1778 3572 
L 2828 4206 
L 3009 3897 
z
" transform="scale(0.015625)"/>
     </defs>
     <use xlink:href="#DejaVuSans-Oblique-4c" transform="translate(0 0.015625)"/>
     <use xlink:href="#DejaVuSans-2a" transform="translate(69.350586 -16.390625) scale(0.7)"/>
     <use xlink:href="#DejaVuSans-20" transform="translate(120.722656 0.015625)"/>
     <use xlink:href="#DejaVuSans-72" transform="translate(152.509766 0.015625)"/>
     <use xlink:href="#DejaVuSans-65" transform="translate(193.623047 0.015625)"/>
     <use xlink:href="#DejaVuSans-67" transform="translate(255.146484 0.015625)"/>
     <use xlink:href="#DejaVuSans-69" transform="translate(318.623047 0.015625)"/>
     <use xlink:href="#DejaVuSans-6d" transform="translate(346.40625 0.015625)"/>
     <use xlink:href="#DejaVuSans-65" transform="translate(443.818359 0.015625)"/>
     <use xlink:href="#DejaVuSans-73" transform="translate(505.341797 0.015625)"/>
    </g>
   </g>
   <g id="text_6">
    <!-- Narrative spine: complex trace  -&gt;  quaternionic geometry  -&gt;  mass shell  -&gt;  eigenvalue bridge  -&gt;  calibration. -->
    <g transform="translate(91.745719 233.714205) scale(0.108 -0.108)">
     <defs>
      <path id="DejaVuSans-4e" d="M 628 4666 
L 1478 4666 
L 3547 763 
L 3547 4666 
L 4159 4666 
L 4159 0 
L 3309 0 
L 1241 3903 
L 1241 0 
L 628 0 
L 628 4666 
z
" transform="scale(0.015625)"/>
      <path id="DejaVuSans-76" d="M 191 3500 
L 800 3500 
L 1894 563 
L 2988 3500 
L 3597 3500 
L 2284 0 
L 1503 0 
L 191 3500 
z
" transform="scale(0.015625)"/>
      <path id="DejaVuSans-3a" d="M 750 794 
L 1409 794 
L 1409 0 
L 750 0 
L 750 794 
z
M 750 3309 
L 1409 3309 
L 1409 2516 
L 750 2516 
L 750 3309 
z
" transform="scale(0.015625)"/>
      <path id="DejaVuSans-3e" d="M 678 3150 
L 678 3719 
L 4684 2266 
L 4684 1747 
L 678 294 
L 678 863 
L 3897 2003 
L 678 3150 
z
" transform="scale(0.015625)"/>
      <path id="DejaVuSans-71" d="M 947 1747 
Q 947 1113 1208 752 
Q 1469 391 1925 391 
Q 2381 391 2643 752 
Q 2906 1113 2906 1747 
Q 2906 2381 2643 2742 
Q 2381 3103 1925 3103 
Q 1469 3103 1208 2742 
Q 947 2381 947 1747 
z
M 2906 525 
Q 2725 213 2448 61 
Q 2172 -91 1784 -91 
Q 1150 -91 751 415 
Q 353 922 353 1747 
Q 353 2572 751 3078 
Q 1150 3584 1784 3584 
Q 2172 3584 2448 3432 
Q 2725 3281 2906 2969 
L 2906 3500 
L 3481 3500 
L 3481 -1331 
L 2906 -1331 
L 2906 525 
z
" transform="scale(0.015625)"/>
      <path id="DejaVuSans-79" d="M 2059 -325 
Q 1816 -950 1584 -1140 
Q 1353 -1331 966 -1331 
L 506 -1331 
L 506 -850 
L 844 -850 
Q 1081 -850 1212 -737 
Q 1344 -625 1503 -206 
L 1606 56 
L 191 3500 
L 800 3500 
L 1894 763 
L 2988 3500 
L 3597 3500 
L 2059 -325 
z
" transform="scale(0.015625)"/>
      <path id="DejaVuSans-2e" d="M 684 794 
L 1344 794 
L 1344 0 
L 684 0 
L 684 794 
z
" transform="scale(0.015625)"/>
     </defs>
     <use xlink:href="#DejaVuSans-4e"/>
     <use xlink:href="#DejaVuSans-61" transform="translate(74.804688 0)"/>
     <use xlink:href="#DejaVuSans-72" transform="translate(136.083984 0)"/>
     <use xlink:href="#DejaVuSans-72" transform="translate(175.447266 0)"/>
     <use xlink:href="#DejaVuSans-61" transform="translate(216.560547 0)"/>
     <use xlink:href="#DejaVuSans-74" transform="translate(277.839844 0)"/>
     <use xlink:href="#DejaVuSans-69" transform="translate(317.048828 0)"/>
     <use xlink:href="#DejaVuSans-76" transform="translate(344.832031 0)"/>
     <use xlink:href="#DejaVuSans-65" transform="translate(404.011719 0)"/>
     <use xlink:href="#DejaVuSans-20" transform="translate(465.535156 0)"/>
     <use xlink:href="#DejaVuSans-73" transform="translate(497.322266 0)"/>
     <use xlink:href="#DejaVuSans-70" transform="translate(549.421875 0)"/>
     <use xlink:href="#DejaVuSans-69" transform="translate(612.898438 0)"/>
     <use xlink:href="#DejaVuSans-6e" transform="translate(640.681641 0)"/>
     <use xlink:href="#DejaVuSans-65" transform="translate(704.060547 0)"/>
     <use xlink:href="#DejaVuSans-3a" transform="translate(765.583984 0)"/>
     <use xlink:href="#DejaVuSans-20" transform="translate(799.275391 0)"/>
     <use xlink:href="#DejaVuSans-63" transform="translate(831.0625 0)"/>
     <use xlink:href="#DejaVuSans-6f" transform="translate(886.042969 0)"/>
     <use xlink:href="#DejaVuSans-6d" transform="translate(947.224609 0)"/>
     <use xlink:href="#DejaVuSans-70" transform="translate(1044.636719 0)"/>
     <use xlink:href="#DejaVuSans-6c" transform="translate(1108.113281 0)"/>
     <use xlink:href="#DejaVuSans-65" transform="translate(1135.896484 0)"/>
     <use xlink:href="#DejaVuSans-78" transform="translate(1195.669922 0)"/>
     <use xlink:href="#DejaVuSans-20" transform="translate(1254.849609 0)"/>
     <use xlink:href="#DejaVuSans-74" transform="translate(1286.636719 0)"/>
     <use xlink:href="#DejaVuSans-72" transform="translate(1325.845703 0)"/>
     <use xlink:href="#DejaVuSans-61" transform="translate(1366.958984 0)"/>
     <use xlink:href="#DejaVuSans-63" transform="translate(1428.238281 0)"/>
     <use xlink:href="#DejaVuSans-65" transform="translate(1483.21875 0)"/>
     <use xlink:href="#DejaVuSans-20" transform="translate(1544.742188 0)"/>
     <use xlink:href="#DejaVuSans-20" transform="translate(1576.529297 0)"/>
     <use xlink:href="#DejaVuSans-2d" transform="translate(1608.316406 0)"/>
     <use xlink:href="#DejaVuSans-3e" transform="translate(1644.400391 0)"/>
     <use xlink:href="#DejaVuSans-20" transform="translate(1728.189453 0)"/>
     <use xlink:href="#DejaVuSans-20" transform="translate(1759.976562 0)"/>
     <use xlink:href="#DejaVuSans-71" transform="translate(1791.763672 0)"/>
     <use xlink:href="#DejaVuSans-75" transform="translate(1855.240234 0)"/>
     <use xlink:href="#DejaVuSans-61" transform="translate(1918.619141 0)"/>
     <use xlink:href="#DejaVuSans-74" transform="translate(1979.898438 0)"/>
     <use xlink:href="#DejaVuSans-65" transform="translate(2019.107422 0)"/>
     <use xlink:href="#DejaVuSans-72" transform="translate(2080.630859 0)"/>
     <use xlink:href="#DejaVuSans-6e" transform="translate(2119.994141 0)"/>
     <use xlink:href="#DejaVuSans-69" transform="translate(2183.373047 0)"/>
     <use xlink:href="#DejaVuSans-6f" transform="translate(2211.15625 0)"/>
     <use xlink:href="#DejaVuSans-6e" transform="translate(2272.337891 0)"/>
     <use xlink:href="#DejaVuSans-69" transform="translate(2335.716797 0)"/>
     <use xlink:href="#DejaVuSans-63" transform="translate(2363.5 0)"/>
     <use xlink:href="#DejaVuSans-20" transform="translate(2418.480469 0)"/>
     <use xlink:href="#DejaVuSans-67" transform="translate(2450.267578 0)"/>
     <use xlink:href="#DejaVuSans-65" transform="translate(2513.744141 0)"/>
     <use xlink:href="#DejaVuSans-6f" transform="translate(2575.267578 0)"/>
     <use xlink:href="#DejaVuSans-6d" transform="translate(2636.449219 0)"/>
     <use xlink:href="#DejaVuSans-65" transform="translate(2733.861328 0)"/>
     <use xlink:href="#DejaVuSans-74" transform="translate(2795.384766 0)"/>
     <use xlink:href="#DejaVuSans-72" transform="translate(2834.59375 0)"/>
     <use xlink:href="#DejaVuSans-79" transform="translate(2875.707031 0)"/>
     <use xlink:href="#DejaVuSans-20" transform="translate(2934.886719 0)"/>
     <use xlink:href="#DejaVuSans-20" transform="translate(2966.673828 0)"/>
     <use xlink:href="#DejaVuSans-2d" transform="translate(2998.460938 0)"/>
     <use xlink:href="#DejaVuSans-3e" transform="translate(3034.544922 0)"/>
     <use xlink:href="#DejaVuSans-20" transform="translate(3118.333984 0)"/>
     <use xlink:href="#DejaVuSans-20" transform="translate(3150.121094 0)"/>
     <use xlink:href="#DejaVuSans-6d" transform="translate(3181.908203 0)"/>
     <use xlink:href="#DejaVuSans-61" transform="translate(3279.320312 0)"/>
     <use xlink:href="#DejaVuSans-73" transform="translate(3340.599609 0)"/>
     <use xlink:href="#DejaVuSans-73" transform="translate(3392.699219 0)"/>
     <use xlink:href="#DejaVuSans-20" transform="translate(3444.798828 0)"/>
     <use xlink:href="#DejaVuSans-73" transform="translate(3476.585938 0)"/>
     <use xlink:href="#DejaVuSans-68" transform="translate(3528.685547 0)"/>
     <use xlink:href="#DejaVuSans-65" transform="translate(3592.064453 0)"/>
     <use xlink:href="#DejaVuSans-6c" transform="translate(3653.587891 0)"/>
     <use xlink:href="#DejaVuSans-6c" transform="translate(3681.371094 0)"/>
     <use xlink:href="#DejaVuSans-20" transform="translate(3709.154297 0)"/>
     <use xlink:href="#DejaVuSans-20" transform="translate(3740.941406 0)"/>
     <use xlink:href="#DejaVuSans-2d" transform="translate(3772.728516 0)"/>
     <use xlink:href="#DejaVuSans-3e" transform="translate(3808.8125 0)"/>
     <use xlink:href="#DejaVuSans-20" transform="translate(3892.601562 0)"/>
     <use xlink:href="#DejaVuSans-20" transform="translate(3924.388672 0)"/>
     <use xlink:href="#DejaVuSans-65" transform="translate(3956.175781 0)"/>
     <use xlink:href="#DejaVuSans-69" transform="translate(4017.699219 0)"/>
     <use xlink:href="#DejaVuSans-67" transform="translate(4045.482422 0)"/>
     <use xlink:href="#DejaVuSans-65" transform="translate(4108.958984 0)"/>
     <use xlink:href="#DejaVuSans-6e" transform="translate(4170.482422 0)"/>
     <use xlink:href="#DejaVuSans-76" transform="translate(4233.861328 0)"/>
     <use xlink:href="#DejaVuSans-61" transform="translate(4293.041016 0)"/>
     <use xlink:href="#DejaVuSans-6c" transform="translate(4354.320312 0)"/>
     <use xlink:href="#DejaVuSans-75" transform="translate(4382.103516 0)"/>
     <use xlink:href="#DejaVuSans-65" transform="translate(4445.482422 0)"/>
     <use xlink:href="#DejaVuSans-20" transform="translate(4507.005859 0)"/>
     <use xlink:href="#DejaVuSans-62" transform="translate(4538.792969 0)"/>
     <use xlink:href="#DejaVuSans-72" transform="translate(4602.269531 0)"/>
     <use xlink:href="#DejaVuSans-69" transform="translate(4643.382812 0)"/>
     <use xlink:href="#DejaVuSans-64" transform="translate(4671.166016 0)"/>
     <use xlink:href="#DejaVuSans-67" transform="translate(4734.642578 0)"/>
     <use xlink:href="#DejaVuSans-65" transform="translate(4798.119141 0)"/>
     <use xlink:href="#DejaVuSans-20" transform="translate(4859.642578 0)"/>
     <use xlink:href="#DejaVuSans-20" transform="translate(4891.429688 0)"/>
     <use xlink:href="#DejaVuSans-2d" transform="translate(4923.216797 0)"/>
     <use xlink:href="#DejaVuSans-3e" transform="translate(4959.300781 0)"/>
     <use xlink:href="#DejaVuSans-20" transform="translate(5043.089844 0)"/>
     <use xlink:href="#DejaVuSans-20" transform="translate(5074.876953 0)"/>
     <use xlink:href="#DejaVuSans-63" transform="translate(5106.664062 0)"/>
     <use xlink:href="#DejaVuSans-61" transform="translate(5161.644531 0)"/>
     <use xlink:href="#DejaVuSans-6c" transform="translate(5222.923828 0)"/>
     <use xlink:href="#DejaVuSans-69" transform="translate(5250.707031 0)"/>
     <use xlink:href="#DejaVuSans-62" transform="translate(5278.490234 0)"/>
     <use xlink:href="#DejaVuSans-72" transform="translate(5341.966797 0)"/>
     <use xlink:href="#DejaVuSans-61" transform="translate(5383.080078 0)"/>
     <use xlink:href="#DejaVuSans-74" transform="translate(5444.359375 0)"/>
     <use xlink:href="#DejaVuSans-69" transform="translate(5483.568359 0)"/>
     <use xlink:href="#DejaVuSans-6f" transform="translate(5511.351562 0)"/>
     <use xlink:href="#DejaVuSans-6e" transform="translate(5572.533203 0)"/>
     <use xlink:href="#DejaVuSans-2e" transform="translate(5635.912109 0)"/>
    </g>
   </g>
  </g>
 </g>
 <defs>
  <clipPath id="pf702d649ec">
   <rect x="7.2" y="7.2" width="781.2" height="266.112"/>
  </clipPath>
 </defs>
</svg>
