<?xml version="1.0" encoding="utf-8" standalone="no"?>
<!DOCTYPE svg PUBLIC "-//W3C//DTD SVG 1.1//EN"
  "http://www.w3.org/Graphics/SVG/1.1/DTD/svg11.dtd">
<svg xmlns:xlink="http://www.w3.org/1999/xlink" width="585.008281pt" height="375.319156pt" viewBox="0 0 585.008281 375.319156" xmlns="http://www.w3.org/2000/svg" version="1.1">
 <metadata>
  <rdf:RDF xmlns:dc="http://purl.org/dc/elements/1.1/" xmlns:cc="http://creativecommons.org/ns#" xmlns:rdf="http://www.w3.org/1999/02/22-rdf-syntax-ns#">
   <cc:Work>
    <dc:type rdf:resource="http://purl.org/dc/dcmitype/StillImage"/>
    <dc:date>2026-04-26T20:33:13.595572</dc:date>
    <dc:format>image/svg+xml</dc:format>
    <dc:creator>
     <cc:Agent>
      <dc:title>Matplotlib v3.10.9, https://matplotlib.org/</dc:title>
     </cc:Agent>
    </dc:creator>
   </cc:Work>
  </rdf:RDF>
 </metadata>
 <defs>
  <style type="text/css">*{stroke-linejoin: round; stroke-linecap: butt}</style>
 </defs>
 <g id="figure_1">
  <g id="patch_1">
   <path d="M 0 375.319156 
L 585.008281 375.319156 
L 585.008281 0 
L 0 0 
z
" style="fill: #ffffff"/>
  </g>
  <g id="axes_1">
   <g id="patch_2">
    <path d="M 47.708281 332.782125 
L 577.808281 332.782125 
L 577.808281 22.318125 
L 47.708281 22.318125 
z
" style="fill: #ffffff"/>
   </g>
   <g id="matplotlib.axis_1">
    <g id="xtick_1">
     <g id="line2d_1">
      <path d="M 127.408631 332.782125 
L 127.408631 22.318125 
" clip-path="url(#p7a4450752c)" style="fill: none; stroke: #b0b0b0; stroke-opacity: 0.25; stroke-width: 0.8; stroke-linecap: square"/>
     </g>
     <g id="line2d_2">
      <defs>
       <path id="m155d12e0f8" d="M 0 0 
L 0 3.5 
" style="stroke: #000000; stroke-width: 0.8"/>
      </defs>
      <g>
       <use xlink:href="#m155d12e0f8" x="127.408631" y="332.782125" style="stroke: #000000; stroke-width: 0.8"/>
      </g>
     </g>
     <g id="text_1">
      <!-- −0.4 -->
      <g transform="translate(114.660154 347.760484) scale(0.105 -0.105)">
       <defs>
        <path id="DejaVuSans-2212" d="M 678 2272 
L 4684 2272 
L 4684 1741 
L 678 1741 
L 678 2272 
z
" transform="scale(0.015625)"/>
        <path id="DejaVuSans-30" d="M 2034 4250 
Q 1547 4250 1301 3770 
Q 1056 3291 1056 2328 
Q 1056 1369 1301 889 
Q 1547 409 2034 409 
Q 2525 409 2770 889 
Q 3016 1369 3016 2328 
Q 3016 3291 2770 3770 
Q 2525 4250 2034 4250 
z
M 2034 4750 
Q 2819 4750 3233 4129 
Q 3647 3509 3647 2328 
Q 3647 1150 3233 529 
Q 2819 -91 2034 -91 
Q 1250 -91 836 529 
Q 422 1150 422 2328 
Q 422 3509 836 4129 
Q 1250 4750 2034 4750 
z
" transform="scale(0.015625)"/>
        <path id="DejaVuSans-2e" d="M 684 794 
L 1344 794 
L 1344 0 
L 684 0 
L 684 794 
z
" transform="scale(0.015625)"/>
        <path id="DejaVuSans-34" d="M 2419 4116 
L 825 1625 
L 2419 1625 
L 2419 4116 
z
M 2253 4666 
L 3047 4666 
L 3047 1625 
L 3713 1625 
L 3713 1100 
L 3047 1100 
L 3047 0 
L 2419 0 
L 2419 1100 
L 313 1100 
L 313 1709 
L 2253 4666 
z
" transform="scale(0.015625)"/>
       </defs>
       <use xlink:href="#DejaVuSans-2212"/>
       <use xlink:href="#DejaVuSans-30" transform="translate(83.789062 0)"/>
       <use xlink:href="#DejaVuSans-2e" transform="translate(147.412109 0)"/>
       <use xlink:href="#DejaVuSans-34" transform="translate(179.199219 0)"/>
      </g>
     </g>
    </g>
    <g id="xtick_2">
     <g id="line2d_3">
      <path d="M 220.083456 332.782125 
L 220.083456 22.318125 
" clip-path="url(#p7a4450752c)" style="fill: none; stroke: #b0b0b0; stroke-opacity: 0.25; stroke-width: 0.8; stroke-linecap: square"/>
     </g>
     <g id="line2d_4">
      <g>
       <use xlink:href="#m155d12e0f8" x="220.083456" y="332.782125" style="stroke: #000000; stroke-width: 0.8"/>
      </g>
     </g>
     <g id="text_2">
      <!-- −0.2 -->
      <g transform="translate(207.33498 347.760484) scale(0.105 -0.105)">
       <defs>
        <path id="DejaVuSans-32" d="M 1228 531 
L 3431 531 
L 3431 0 
L 469 0 
L 469 531 
Q 828 903 1448 1529 
Q 2069 2156 2228 2338 
Q 2531 2678 2651 2914 
Q 2772 3150 2772 3378 
Q 2772 3750 2511 3984 
Q 2250 4219 1831 4219 
Q 1534 4219 1204 4116 
Q 875 4013 500 3803 
L 500 4441 
Q 881 4594 1212 4672 
Q 1544 4750 1819 4750 
Q 2544 4750 2975 4387 
Q 3406 4025 3406 3419 
Q 3406 3131 3298 2873 
Q 3191 2616 2906 2266 
Q 2828 2175 2409 1742 
Q 1991 1309 1228 531 
z
" transform="scale(0.015625)"/>
       </defs>
       <use xlink:href="#DejaVuSans-2212"/>
       <use xlink:href="#DejaVuSans-30" transform="translate(83.789062 0)"/>
       <use xlink:href="#DejaVuSans-2e" transform="translate(147.412109 0)"/>
       <use xlink:href="#DejaVuSans-32" transform="translate(179.199219 0)"/>
      </g>
     </g>
    </g>
    <g id="xtick_3">
     <g id="line2d_5">
      <path d="M 312.758281 332.782125 
L 312.758281 22.318125 
" clip-path="url(#p7a4450752c)" style="fill: none; stroke: #b0b0b0; stroke-opacity: 0.25; stroke-width: 0.8; stroke-linecap: square"/>
     </g>
     <g id="line2d_6">
      <g>
       <use xlink:href="#m155d12e0f8" x="312.758281" y="332.782125" style="stroke: #000000; stroke-width: 0.8"/>
      </g>
     </g>
     <g id="text_3">
      <!-- 0.0 -->
      <g transform="translate(304.409141 347.760484) scale(0.105 -0.105)">
       <use xlink:href="#DejaVuSans-30"/>
       <use xlink:href="#DejaVuSans-2e" transform="translate(63.623047 0)"/>
       <use xlink:href="#DejaVuSans-30" transform="translate(95.410156 0)"/>
      </g>
     </g>
    </g>
    <g id="xtick_4">
     <g id="line2d_7">
      <path d="M 405.433106 332.782125 
L 405.433106 22.318125 
" clip-path="url(#p7a4450752c)" style="fill: none; stroke: #b0b0b0; stroke-opacity: 0.25; stroke-width: 0.8; stroke-linecap: square"/>
     </g>
     <g id="line2d_8">
      <g>
       <use xlink:href="#m155d12e0f8" x="405.433106" y="332.782125" style="stroke: #000000; stroke-width: 0.8"/>
      </g>
     </g>
     <g id="text_4">
      <!-- 0.2 -->
      <g transform="translate(397.083966 347.760484) scale(0.105 -0.105)">
       <use xlink:href="#DejaVuSans-30"/>
       <use xlink:href="#DejaVuSans-2e" transform="translate(63.623047 0)"/>
       <use xlink:href="#DejaVuSans-32" transform="translate(95.410156 0)"/>
      </g>
     </g>
    </g>
    <g id="xtick_5">
     <g id="line2d_9">
      <path d="M 498.107932 332.782125 
L 498.107932 22.318125 
" clip-path="url(#p7a4450752c)" style="fill: none; stroke: #b0b0b0; stroke-opacity: 0.25; stroke-width: 0.8; stroke-linecap: square"/>
     </g>
     <g id="line2d_10">
      <g>
       <use xlink:href="#m155d12e0f8" x="498.107932" y="332.782125" style="stroke: #000000; stroke-width: 0.8"/>
      </g>
     </g>
     <g id="text_5">
      <!-- 0.4 -->
      <g transform="translate(489.758791 347.760484) scale(0.105 -0.105)">
       <use xlink:href="#DejaVuSans-30"/>
       <use xlink:href="#DejaVuSans-2e" transform="translate(63.623047 0)"/>
       <use xlink:href="#DejaVuSans-34" transform="translate(95.410156 0)"/>
      </g>
     </g>
    </g>
    <g id="text_6">
     <!-- $\delta$ in $\sigma=\frac{1}{2}+\delta$ -->
     <g transform="translate(278.948281 363.919156) scale(0.105 -0.105)">
      <defs>
       <path id="DejaVuSans-Oblique-3b4" d="M 3472 4053 
Q 3197 4272 2450 4272 
Q 1659 4272 1588 3906 
Q 1531 3619 2328 3469 
Q 2953 3353 3253 3003 
Q 3616 2581 3447 1716 
Q 3284 888 2763 400 
Q 2238 -91 1488 -91 
Q 741 -91 406 400 
Q 72 888 241 1747 
Q 363 2384 891 2900 
Q 1097 3100 1353 3213 
Q 913 3459 1000 3900 
Q 1166 4750 2544 4750 
Q 3234 4750 3566 4531 
L 3472 4053 
z
M 1753 3056 
Q 1525 2966 1306 2738 
Q 969 2384 847 1747 
Q 722 1113 919 756 
Q 1119 397 1584 397 
Q 2044 397 2381 759 
Q 2722 1122 2838 1716 
Q 2956 2338 2731 2638 
Q 2491 2959 2103 2994 
Q 1906 3013 1753 3056 
z
" transform="scale(0.015625)"/>
       <path id="DejaVuSans-20" transform="scale(0.015625)"/>
       <path id="DejaVuSans-69" d="M 603 3500 
L 1178 3500 
L 1178 0 
L 603 0 
L 603 3500 
z
M 603 4863 
L 1178 4863 
L 1178 4134 
L 603 4134 
L 603 4863 
z
" transform="scale(0.015625)"/>
       <path id="DejaVuSans-6e" d="M 3513 2113 
L 3513 0 
L 2938 0 
L 2938 2094 
Q 2938 2591 2744 2837 
Q 2550 3084 2163 3084 
Q 1697 3084 1428 2787 
Q 1159 2491 1159 1978 
L 1159 0 
L 581 0 
L 581 3500 
L 1159 3500 
L 1159 2956 
Q 1366 3272 1645 3428 
Q 1925 3584 2291 3584 
Q 2894 3584 3203 3211 
Q 3513 2838 3513 2113 
z
" transform="scale(0.015625)"/>
       <path id="DejaVuSans-Oblique-3c3" d="M 2219 3044 
Q 1744 3044 1422 2700 
Q 1081 2341 969 1747 
Q 844 1119 1044 756 
Q 1241 397 1706 397 
Q 2166 397 2503 759 
Q 2844 1122 2966 1747 
Q 3075 2319 2881 2700 
Q 2700 3044 2219 3044 
z
M 2309 3503 
L 4219 3500 
L 4106 2925 
L 3463 2925 
Q 3706 2438 3575 1747 
Q 3406 888 2884 400 
Q 2359 -91 1609 -91 
Q 856 -91 525 400 
Q 194 888 363 1747 
Q 528 2609 1050 3097 
Q 1484 3503 2309 3503 
z
" transform="scale(0.015625)"/>
       <path id="DejaVuSans-3d" d="M 678 2906 
L 4684 2906 
L 4684 2381 
L 678 2381 
L 678 2906 
z
M 678 1631 
L 4684 1631 
L 4684 1100 
L 678 1100 
L 678 1631 
z
" transform="scale(0.015625)"/>
       <path id="DejaVuSans-31" d="M 794 531 
L 1825 531 
L 1825 4091 
L 703 3866 
L 703 4441 
L 1819 4666 
L 2450 4666 
L 2450 531 
L 3481 531 
L 3481 0 
L 794 0 
L 794 531 
z
" transform="scale(0.015625)"/>
       <path id="DejaVuSans-2b" d="M 2944 4013 
L 2944 2272 
L 4684 2272 
L 4684 1741 
L 2944 1741 
L 2944 0 
L 2419 0 
L 2419 1741 
L 678 1741 
L 678 2272 
L 2419 2272 
L 2419 4013 
L 2944 4013 
z
" transform="scale(0.015625)"/>
      </defs>
      <use xlink:href="#DejaVuSans-Oblique-3b4" transform="translate(0 0.16875)"/>
      <use xlink:href="#DejaVuSans-20" transform="translate(61.181641 0.16875)"/>
      <use xlink:href="#DejaVuSans-69" transform="translate(92.96875 0.16875)"/>
      <use xlink:href="#DejaVuSans-6e" transform="translate(120.751953 0.16875)"/>
      <use xlink:href="#DejaVuSans-20" transform="translate(184.130859 0.16875)"/>
      <use xlink:href="#DejaVuSans-Oblique-3c3" transform="translate(215.917969 0.16875)"/>
      <use xlink:href="#DejaVuSans-3d" transform="translate(298.779297 0.16875)"/>
      <use xlink:href="#DejaVuSans-31" transform="translate(402.050781 43.965625) scale(0.7)"/>
      <use xlink:href="#DejaVuSans-32" transform="translate(402.050781 -39.2375) scale(0.7)"/>
      <use xlink:href="#DejaVuSans-2b" transform="translate(478.569336 0.16875)"/>
      <use xlink:href="#DejaVuSans-Oblique-3b4" transform="translate(581.84082 0.16875)"/>
      <path d="M 402.050781 18.965625 
L 402.050781 25.215625 
L 446.586914 25.215625 
L 446.586914 18.965625 
L 402.050781 18.965625 
z
"/>
     </g>
    </g>
   </g>
   <g id="matplotlib.axis_2">
    <g id="ytick_1">
     <g id="line2d_11">
      <path d="M 47.708281 318.969996 
L 577.808281 318.969996 
" clip-path="url(#p7a4450752c)" style="fill: none; stroke: #b0b0b0; stroke-opacity: 0.25; stroke-width: 0.8; stroke-linecap: square"/>
     </g>
     <g id="line2d_12">
      <defs>
       <path id="mc1b0937208" d="M 0 0 
L -3.5 0 
" style="stroke: #000000; stroke-width: 0.8"/>
      </defs>
      <g>
       <use xlink:href="#mc1b0937208" x="47.708281" y="318.969996" style="stroke: #000000; stroke-width: 0.8"/>
      </g>
     </g>
     <g id="text_7">
      <!-- 0.0 -->
      <g transform="translate(24.01 322.959175) scale(0.105 -0.105)">
       <use xlink:href="#DejaVuSans-30"/>
       <use xlink:href="#DejaVuSans-2e" transform="translate(63.623047 0)"/>
       <use xlink:href="#DejaVuSans-30" transform="translate(95.410156 0)"/>
      </g>
     </g>
    </g>
    <g id="ytick_2">
     <g id="line2d_13">
      <path d="M 47.708281 260.258846 
L 577.808281 260.258846 
" clip-path="url(#p7a4450752c)" style="fill: none; stroke: #b0b0b0; stroke-opacity: 0.25; stroke-width: 0.8; stroke-linecap: square"/>
     </g>
     <g id="line2d_14">
      <g>
       <use xlink:href="#mc1b0937208" x="47.708281" y="260.258846" style="stroke: #000000; stroke-width: 0.8"/>
      </g>
     </g>
     <g id="text_8">
      <!-- 0.2 -->
      <g transform="translate(24.01 264.248025) scale(0.105 -0.105)">
       <use xlink:href="#DejaVuSans-30"/>
       <use xlink:href="#DejaVuSans-2e" transform="translate(63.623047 0)"/>
       <use xlink:href="#DejaVuSans-32" transform="translate(95.410156 0)"/>
      </g>
     </g>
    </g>
    <g id="ytick_3">
     <g id="line2d_15">
      <path d="M 47.708281 201.547695 
L 577.808281 201.547695 
" clip-path="url(#p7a4450752c)" style="fill: none; stroke: #b0b0b0; stroke-opacity: 0.25; stroke-width: 0.8; stroke-linecap: square"/>
     </g>
     <g id="line2d_16">
      <g>
       <use xlink:href="#mc1b0937208" x="47.708281" y="201.547695" style="stroke: #000000; stroke-width: 0.8"/>
      </g>
     </g>
     <g id="text_9">
      <!-- 0.4 -->
      <g transform="translate(24.01 205.536875) scale(0.105 -0.105)">
       <use xlink:href="#DejaVuSans-30"/>
       <use xlink:href="#DejaVuSans-2e" transform="translate(63.623047 0)"/>
       <use xlink:href="#DejaVuSans-34" transform="translate(95.410156 0)"/>
      </g>
     </g>
    </g>
    <g id="ytick_4">
     <g id="line2d_17">
      <path d="M 47.708281 142.836545 
L 577.808281 142.836545 
" clip-path="url(#p7a4450752c)" style="fill: none; stroke: #b0b0b0; stroke-opacity: 0.25; stroke-width: 0.8; stroke-linecap: square"/>
     </g>
     <g id="line2d_18">
      <g>
       <use xlink:href="#mc1b0937208" x="47.708281" y="142.836545" style="stroke: #000000; stroke-width: 0.8"/>
      </g>
     </g>
     <g id="text_10">
      <!-- 0.6 -->
      <g transform="translate(24.01 146.825725) scale(0.105 -0.105)">
       <defs>
        <path id="DejaVuSans-36" d="M 2113 2584 
Q 1688 2584 1439 2293 
Q 1191 2003 1191 1497 
Q 1191 994 1439 701 
Q 1688 409 2113 409 
Q 2538 409 2786 701 
Q 3034 994 3034 1497 
Q 3034 2003 2786 2293 
Q 2538 2584 2113 2584 
z
M 3366 4563 
L 3366 3988 
Q 3128 4100 2886 4159 
Q 2644 4219 2406 4219 
Q 1781 4219 1451 3797 
Q 1122 3375 1075 2522 
Q 1259 2794 1537 2939 
Q 1816 3084 2150 3084 
Q 2853 3084 3261 2657 
Q 3669 2231 3669 1497 
Q 3669 778 3244 343 
Q 2819 -91 2113 -91 
Q 1303 -91 875 529 
Q 447 1150 447 2328 
Q 447 3434 972 4092 
Q 1497 4750 2381 4750 
Q 2619 4750 2861 4703 
Q 3103 4656 3366 4563 
z
" transform="scale(0.015625)"/>
       </defs>
       <use xlink:href="#DejaVuSans-30"/>
       <use xlink:href="#DejaVuSans-2e" transform="translate(63.623047 0)"/>
       <use xlink:href="#DejaVuSans-36" transform="translate(95.410156 0)"/>
      </g>
     </g>
    </g>
    <g id="ytick_5">
     <g id="line2d_19">
      <path d="M 47.708281 84.125395 
L 577.808281 84.125395 
" clip-path="url(#p7a4450752c)" style="fill: none; stroke: #b0b0b0; stroke-opacity: 0.25; stroke-width: 0.8; stroke-linecap: square"/>
     </g>
     <g id="line2d_20">
      <g>
       <use xlink:href="#mc1b0937208" x="47.708281" y="84.125395" style="stroke: #000000; stroke-width: 0.8"/>
      </g>
     </g>
     <g id="text_11">
      <!-- 0.8 -->
      <g transform="translate(24.01 88.114575) scale(0.105 -0.105)">
       <defs>
        <path id="DejaVuSans-38" d="M 2034 2216 
Q 1584 2216 1326 1975 
Q 1069 1734 1069 1313 
Q 1069 891 1326 650 
Q 1584 409 2034 409 
Q 2484 409 2743 651 
Q 3003 894 3003 1313 
Q 3003 1734 2745 1975 
Q 2488 2216 2034 2216 
z
M 1403 2484 
Q 997 2584 770 2862 
Q 544 3141 544 3541 
Q 544 4100 942 4425 
Q 1341 4750 2034 4750 
Q 2731 4750 3128 4425 
Q 3525 4100 3525 3541 
Q 3525 3141 3298 2862 
Q 3072 2584 2669 2484 
Q 3125 2378 3379 2068 
Q 3634 1759 3634 1313 
Q 3634 634 3220 271 
Q 2806 -91 2034 -91 
Q 1263 -91 848 271 
Q 434 634 434 1313 
Q 434 1759 690 2068 
Q 947 2378 1403 2484 
z
M 1172 3481 
Q 1172 3119 1398 2916 
Q 1625 2713 2034 2713 
Q 2441 2713 2670 2916 
Q 2900 3119 2900 3481 
Q 2900 3844 2670 4047 
Q 2441 4250 2034 4250 
Q 1625 4250 1398 4047 
Q 1172 3844 1172 3481 
z
" transform="scale(0.015625)"/>
       </defs>
       <use xlink:href="#DejaVuSans-30"/>
       <use xlink:href="#DejaVuSans-2e" transform="translate(63.623047 0)"/>
       <use xlink:href="#DejaVuSans-38" transform="translate(95.410156 0)"/>
      </g>
     </g>
    </g>
    <g id="ytick_6">
     <g id="line2d_21">
      <path d="M 47.708281 25.414245 
L 577.808281 25.414245 
" clip-path="url(#p7a4450752c)" style="fill: none; stroke: #b0b0b0; stroke-opacity: 0.25; stroke-width: 0.8; stroke-linecap: square"/>
     </g>
     <g id="line2d_22">
      <g>
       <use xlink:href="#mc1b0937208" x="47.708281" y="25.414245" style="stroke: #000000; stroke-width: 0.8"/>
      </g>
     </g>
     <g id="text_12">
      <!-- 1.0 -->
      <g transform="translate(24.01 29.403425) scale(0.105 -0.105)">
       <use xlink:href="#DejaVuSans-31"/>
       <use xlink:href="#DejaVuSans-2e" transform="translate(63.623047 0)"/>
       <use xlink:href="#DejaVuSans-30" transform="translate(95.410156 0)"/>
      </g>
     </g>
    </g>
    <g id="text_13">
     <!-- $B_p(\sigma)=2p^{-1/2}|\sinh(\delta\log p)|$ -->
     <g transform="translate(16.755 247.322625) rotate(-90) scale(0.105 -0.105)">
      <defs>
       <path id="DejaVuSans-Oblique-42" d="M 1081 4666 
L 2694 4666 
Q 3350 4666 3675 4422 
Q 4000 4178 4000 3688 
Q 4000 3238 3720 2911 
Q 3441 2584 2988 2516 
Q 3375 2428 3569 2181 
Q 3763 1934 3763 1522 
Q 3763 819 3242 409 
Q 2722 0 1819 0 
L 172 0 
L 1081 4666 
z
M 1234 2228 
L 903 519 
L 1919 519 
Q 2491 519 2800 781 
Q 3109 1044 3109 1522 
Q 3109 1891 2904 2059 
Q 2700 2228 2247 2228 
L 1234 2228 
z
M 1606 4147 
L 1331 2741 
L 2272 2741 
Q 2775 2741 3058 2959 
Q 3341 3178 3341 3566 
Q 3341 3869 3150 4008 
Q 2959 4147 2541 4147 
L 1606 4147 
z
" transform="scale(0.015625)"/>
       <path id="DejaVuSans-Oblique-70" d="M 3175 2156 
Q 3175 2616 2975 2859 
Q 2775 3103 2400 3103 
Q 2144 3103 1911 2972 
Q 1678 2841 1497 2591 
Q 1319 2344 1212 1994 
Q 1106 1644 1106 1300 
Q 1106 863 1306 627 
Q 1506 391 1875 391 
Q 2147 391 2380 519 
Q 2613 647 2778 891 
Q 2956 1147 3065 1494 
Q 3175 1841 3175 2156 
z
M 1394 2969 
Q 1625 3272 1939 3428 
Q 2253 3584 2638 3584 
Q 3175 3584 3472 3232 
Q 3769 2881 3769 2247 
Q 3769 1728 3584 1258 
Q 3400 788 3053 416 
Q 2822 169 2531 39 
Q 2241 -91 1919 -91 
Q 1547 -91 1294 64 
Q 1041 219 916 525 
L 556 -1331 
L -19 -1331 
L 922 3500 
L 1497 3500 
L 1394 2969 
z
" transform="scale(0.015625)"/>
       <path id="DejaVuSans-28" d="M 1984 4856 
Q 1566 4138 1362 3434 
Q 1159 2731 1159 2009 
Q 1159 1288 1364 580 
Q 1569 -128 1984 -844 
L 1484 -844 
Q 1016 -109 783 600 
Q 550 1309 550 2009 
Q 550 2706 781 3412 
Q 1013 4119 1484 4856 
L 1984 4856 
z
" transform="scale(0.015625)"/>
       <path id="DejaVuSans-29" d="M 513 4856 
L 1013 4856 
Q 1481 4119 1714 3412 
Q 1947 2706 1947 2009 
Q 1947 1309 1714 600 
Q 1481 -109 1013 -844 
L 513 -844 
Q 928 -128 1133 580 
Q 1338 1288 1338 2009 
Q 1338 2731 1133 3434 
Q 928 4138 513 4856 
z
" transform="scale(0.015625)"/>
       <path id="DejaVuSans-2f" d="M 1625 4666 
L 2156 4666 
L 531 -594 
L 0 -594 
L 1625 4666 
z
" transform="scale(0.015625)"/>
       <path id="DejaVuSans-7c" d="M 1344 4891 
L 1344 -1509 
L 813 -1509 
L 813 4891 
L 1344 4891 
z
" transform="scale(0.015625)"/>
       <path id="DejaVuSans-73" d="M 2834 3397 
L 2834 2853 
Q 2591 2978 2328 3040 
Q 2066 3103 1784 3103 
Q 1356 3103 1142 2972 
Q 928 2841 928 2578 
Q 928 2378 1081 2264 
Q 1234 2150 1697 2047 
L 1894 2003 
Q 2506 1872 2764 1633 
Q 3022 1394 3022 966 
Q 3022 478 2636 193 
Q 2250 -91 1575 -91 
Q 1294 -91 989 -36 
Q 684 19 347 128 
L 347 722 
Q 666 556 975 473 
Q 1284 391 1588 391 
Q 1994 391 2212 530 
Q 2431 669 2431 922 
Q 2431 1156 2273 1281 
Q 2116 1406 1581 1522 
L 1381 1569 
Q 847 1681 609 1914 
Q 372 2147 372 2553 
Q 372 3047 722 3315 
Q 1072 3584 1716 3584 
Q 2034 3584 2315 3537 
Q 2597 3491 2834 3397 
z
" transform="scale(0.015625)"/>
       <path id="DejaVuSans-68" d="M 3513 2113 
L 3513 0 
L 2938 0 
L 2938 2094 
Q 2938 2591 2744 2837 
Q 2550 3084 2163 3084 
Q 1697 3084 1428 2787 
Q 1159 2491 1159 1978 
L 1159 0 
L 581 0 
L 581 4863 
L 1159 4863 
L 1159 2956 
Q 1366 3272 1645 3428 
Q 1925 3584 2291 3584 
Q 2894 3584 3203 3211 
Q 3513 2838 3513 2113 
z
" transform="scale(0.015625)"/>
       <path id="DejaVuSans-6c" d="M 603 4863 
L 1178 4863 
L 1178 0 
L 603 0 
L 603 4863 
z
" transform="scale(0.015625)"/>
       <path id="DejaVuSans-6f" d="M 1959 3097 
Q 1497 3097 1228 2736 
Q 959 2375 959 1747 
Q 959 1119 1226 758 
Q 1494 397 1959 397 
Q 2419 397 2687 759 
Q 2956 1122 2956 1747 
Q 2956 2369 2687 2733 
Q 2419 3097 1959 3097 
z
M 1959 3584 
Q 2709 3584 3137 3096 
Q 3566 2609 3566 1747 
Q 3566 888 3137 398 
Q 2709 -91 1959 -91 
Q 1206 -91 779 398 
Q 353 888 353 1747 
Q 353 2609 779 3096 
Q 1206 3584 1959 3584 
z
" transform="scale(0.015625)"/>
       <path id="DejaVuSans-67" d="M 2906 1791 
Q 2906 2416 2648 2759 
Q 2391 3103 1925 3103 
Q 1463 3103 1205 2759 
Q 947 2416 947 1791 
Q 947 1169 1205 825 
Q 1463 481 1925 481 
Q 2391 481 2648 825 
Q 2906 1169 2906 1791 
z
M 3481 434 
Q 3481 -459 3084 -895 
Q 2688 -1331 1869 -1331 
Q 1566 -1331 1297 -1286 
Q 1028 -1241 775 -1147 
L 775 -588 
Q 1028 -725 1275 -790 
Q 1522 -856 1778 -856 
Q 2344 -856 2625 -561 
Q 2906 -266 2906 331 
L 2906 616 
Q 2728 306 2450 153 
Q 2172 0 1784 0 
Q 1141 0 747 490 
Q 353 981 353 1791 
Q 353 2603 747 3093 
Q 1141 3584 1784 3584 
Q 2172 3584 2450 3431 
Q 2728 3278 2906 2969 
L 2906 3500 
L 3481 3500 
L 3481 434 
z
" transform="scale(0.015625)"/>
      </defs>
      <use xlink:href="#DejaVuSans-Oblique-42" transform="translate(0 0.765625)"/>
      <use xlink:href="#DejaVuSans-Oblique-70" transform="translate(68.603516 -15.640625) scale(0.7)"/>
      <use xlink:href="#DejaVuSans-28" transform="translate(115.771484 0.765625)"/>
      <use xlink:href="#DejaVuSans-Oblique-3c3" transform="translate(154.785156 0.765625)"/>
      <use xlink:href="#DejaVuSans-29" transform="translate(218.164062 0.765625)"/>
      <use xlink:href="#DejaVuSans-3d" transform="translate(276.660156 0.765625)"/>
      <use xlink:href="#DejaVuSans-32" transform="translate(379.931641 0.765625)"/>
      <use xlink:href="#DejaVuSans-Oblique-70" transform="translate(443.554688 0.765625)"/>
      <use xlink:href="#DejaVuSans-2212" transform="translate(511.681146 39.046875) scale(0.7)"/>
      <use xlink:href="#DejaVuSans-31" transform="translate(570.33349 39.046875) scale(0.7)"/>
      <use xlink:href="#DejaVuSans-2f" transform="translate(614.869622 39.046875) scale(0.7)"/>
      <use xlink:href="#DejaVuSans-32" transform="translate(635.916107 39.046875) scale(0.7)"/>
      <use xlink:href="#DejaVuSans-7c" transform="translate(683.186615 0.765625)"/>
      <use xlink:href="#DejaVuSans-73" transform="translate(716.878021 0.765625)"/>
      <use xlink:href="#DejaVuSans-69" transform="translate(768.97763 0.765625)"/>
      <use xlink:href="#DejaVuSans-6e" transform="translate(796.760833 0.765625)"/>
      <use xlink:href="#DejaVuSans-68" transform="translate(860.13974 0.765625)"/>
      <use xlink:href="#DejaVuSans-28" transform="translate(923.518646 0.765625)"/>
      <use xlink:href="#DejaVuSans-Oblique-3b4" transform="translate(962.532318 0.765625)"/>
      <use xlink:href="#DejaVuSans-6c" transform="translate(1023.713958 0.765625)"/>
      <use xlink:href="#DejaVuSans-6f" transform="translate(1051.497161 0.765625)"/>
      <use xlink:href="#DejaVuSans-67" transform="translate(1112.678802 0.765625)"/>
      <use xlink:href="#DejaVuSans-Oblique-70" transform="translate(1192.391041 0.765625)"/>
      <use xlink:href="#DejaVuSans-29" transform="translate(1255.867603 0.765625)"/>
      <use xlink:href="#DejaVuSans-7c" transform="translate(1294.881275 0.765625)"/>
     </g>
    </g>
   </g>
   <g id="line2d_23">
    <path d="M 71.803736 166.073501 
L 100.776226 185.109558 
L 131.680216 205.138382 
L 165.481455 226.767832 
L 203.145692 250.593954 
L 247.570178 278.423281 
L 312.275406 318.670125 
L 313.241156 318.670125 
L 395.329879 267.561643 
L 438.788615 240.239333 
L 475.487103 216.912656 
L 508.322592 195.782762 
L 538.260832 176.259522 
L 553.712827 166.073501 
L 553.712827 166.073501 
" clip-path="url(#p7a4450752c)" style="fill: none; stroke: #1f77b4; stroke-width: 2; stroke-linecap: square"/>
   </g>
   <g id="line2d_24">
    <path d="M 71.803736 114.618122 
L 88.22148 129.87371 
L 105.604975 145.71485 
L 122.988469 161.261651 
L 141.337713 177.38202 
L 160.652706 194.061857 
L 181.899199 212.108411 
L 205.077192 231.487807 
L 230.186684 252.185774 
L 260.124924 276.560777 
L 300.68641 309.266985 
L 312.275406 318.581928 
L 313.241156 318.581928 
L 369.254638 273.430211 
L 400.158627 248.226034 
L 425.268119 227.474155 
L 448.446111 208.032371 
L 469.692604 189.917816 
L 489.007598 173.167039 
L 507.356842 156.97109 
L 524.740336 141.345198 
L 542.123831 125.417544 
L 553.712827 114.618122 
L 553.712827 114.618122 
" clip-path="url(#p7a4450752c)" style="fill: none; stroke: #ff7f0e; stroke-width: 2; stroke-linecap: square"/>
   </g>
   <g id="line2d_25">
    <path d="M 71.803736 72.662729 
L 82.426982 85.781614 
L 94.015978 99.731614 
L 105.604975 113.326348 
L 117.193971 126.587848 
L 129.748717 140.603338 
L 142.303463 154.279607 
L 154.858208 167.642664 
L 168.378704 181.712509 
L 182.864949 196.452187 
L 197.351194 210.881633 
L 212.803189 225.972251 
L 230.186684 242.631064 
L 249.501677 260.816965 
L 271.71392 281.412071 
L 301.65216 308.839093 
L 312.275406 318.529631 
L 313.241156 318.529631 
L 355.734142 279.631824 
L 378.912134 258.107756 
L 398.227128 239.875554 
L 415.610622 223.164469 
L 431.062617 208.018798 
L 445.548862 193.530253 
L 460.035108 178.724076 
L 473.555603 164.585342 
L 486.110349 151.152282 
L 498.665095 137.400062 
L 511.219841 123.30253 
L 522.808837 109.959756 
L 534.397833 96.278293 
L 545.986829 82.235969 
L 553.712827 72.662729 
L 553.712827 72.662729 
" clip-path="url(#p7a4450752c)" style="fill: none; stroke: #2ca02c; stroke-width: 2; stroke-linecap: square"/>
   </g>
   <g id="line2d_26">
    <path d="M 71.803736 36.430125 
L 79.529733 49.538049 
L 87.255731 62.215236 
L 94.981728 74.481951 
L 102.707726 86.357807 
L 110.433723 97.861788 
L 119.12547 110.382137 
L 127.817217 122.480428 
L 136.508964 134.181139 
L 145.200712 145.507946 
L 153.892459 156.483768 
L 162.584206 167.130814 
L 172.241703 178.601444 
L 181.899199 189.721414 
L 191.556696 200.518503 
L 202.179943 212.054543 
L 212.803189 223.267391 
L 224.392185 235.170794 
L 236.946931 247.727251 
L 250.467427 260.914661 
L 264.953672 274.730201 
L 282.337166 290.987261 
L 305.515159 312.333326 
L 312.275406 318.527654 
L 313.241156 318.527654 
L 345.110896 289.194499 
L 362.49439 272.904179 
L 376.980635 259.049642 
L 390.501131 245.81638 
L 403.055876 233.208972 
L 414.644873 221.251191 
L 425.268119 209.982129 
L 435.891366 198.38361 
L 445.548862 187.524127 
L 455.206359 176.336275 
L 464.863856 164.792103 
L 473.555603 154.073881 
L 482.24735 143.022005 
L 490.939097 131.614115 
L 499.630845 119.827126 
L 508.322592 107.63719 
L 516.048589 96.443493 
L 523.774587 84.894045 
L 531.500584 72.970383 
L 539.226581 60.653444 
L 546.952579 47.923538 
L 553.712827 36.430125 
L 553.712827 36.430125 
" clip-path="url(#p7a4450752c)" style="fill: none; stroke: #d62728; stroke-width: 2; stroke-linecap: square"/>
   </g>
   <g id="line2d_27">
    <path d="M 312.758281 332.782125 
L 312.758281 22.318125 
" clip-path="url(#p7a4450752c)" style="fill: none; stroke-dasharray: 4.81,2.08; stroke-dashoffset: 0; stroke: #000000; stroke-width: 1.3"/>
   </g>
   <g id="patch_3">
    <path d="M 47.708281 332.782125 
L 47.708281 22.318125 
" style="fill: none; opacity: 0.35; stroke: #000000; stroke-width: 0.8; stroke-linejoin: miter; stroke-linecap: square"/>
   </g>
   <g id="patch_4">
    <path d="M 577.808281 332.782125 
L 577.808281 22.318125 
" style="fill: none; opacity: 0.35; stroke: #000000; stroke-width: 0.8; stroke-linejoin: miter; stroke-linecap: square"/>
   </g>
   <g id="patch_5">
    <path d="M 47.708281 332.782125 
L 577.808281 332.782125 
" style="fill: none; opacity: 0.35; stroke: #000000; stroke-width: 0.8; stroke-linejoin: miter; stroke-linecap: square"/>
   </g>
   <g id="patch_6">
    <path d="M 47.708281 22.318125 
L 577.808281 22.318125 
" style="fill: none; opacity: 0.35; stroke: #000000; stroke-width: 0.8; stroke-linejoin: miter; stroke-linecap: square"/>
   </g>
   <g id="patch_7">
    <path d="M 398.269457 159.707125 
Q 355.986858 238.457628 314.338916 316.026094 
" style="fill: none; stroke: #000000; stroke-width: 1.2; stroke-linecap: round"/>
    <path d="M 317.993174 313.448033 
L 314.338916 316.026094 
L 314.469023 311.555851 
" style="fill: none; stroke: #000000; stroke-width: 1.2; stroke-linecap: round"/>
   </g>
   <g id="text_14">
    <!-- $\sigma=1/2$ gives $B_p=0$ -->
    <g transform="translate(354.461953 152.844948) scale(0.1 -0.1)">
     <defs>
      <path id="DejaVuSans-76" d="M 191 3500 
L 800 3500 
L 1894 563 
L 2988 3500 
L 3597 3500 
L 2284 0 
L 1503 0 
L 191 3500 
z
" transform="scale(0.015625)"/>
      <path id="DejaVuSans-65" d="M 3597 1894 
L 3597 1613 
L 953 1613 
Q 991 1019 1311 708 
Q 1631 397 2203 397 
Q 2534 397 2845 478 
Q 3156 559 3463 722 
L 3463 178 
Q 3153 47 2828 -22 
Q 2503 -91 2169 -91 
Q 1331 -91 842 396 
Q 353 884 353 1716 
Q 353 2575 817 3079 
Q 1281 3584 2069 3584 
Q 2775 3584 3186 3129 
Q 3597 2675 3597 1894 
z
M 3022 2063 
Q 3016 2534 2758 2815 
Q 2500 3097 2075 3097 
Q 1594 3097 1305 2825 
Q 1016 2553 972 2059 
L 3022 2063 
z
" transform="scale(0.015625)"/>
     </defs>
     <use xlink:href="#DejaVuSans-Oblique-3c3" transform="translate(0 0.015625)"/>
     <use xlink:href="#DejaVuSans-3d" transform="translate(82.861328 0.015625)"/>
     <use xlink:href="#DejaVuSans-31" transform="translate(186.132812 0.015625)"/>
     <use xlink:href="#DejaVuSans-2f" transform="translate(249.755859 0.015625)"/>
     <use xlink:href="#DejaVuSans-32" transform="translate(279.822266 0.015625)"/>
     <use xlink:href="#DejaVuSans-20" transform="translate(343.445312 0.015625)"/>
     <use xlink:href="#DejaVuSans-67" transform="translate(375.232422 0.015625)"/>
     <use xlink:href="#DejaVuSans-69" transform="translate(438.708984 0.015625)"/>
     <use xlink:href="#DejaVuSans-76" transform="translate(466.492188 0.015625)"/>
     <use xlink:href="#DejaVuSans-65" transform="translate(525.671875 0.015625)"/>
     <use xlink:href="#DejaVuSans-73" transform="translate(587.195312 0.015625)"/>
     <use xlink:href="#DejaVuSans-20" transform="translate(639.294922 0.015625)"/>
     <use xlink:href="#DejaVuSans-Oblique-42" transform="translate(671.082031 0.015625)"/>
     <use xlink:href="#DejaVuSans-Oblique-70" transform="translate(739.685547 -16.390625) scale(0.7)"/>
     <use xlink:href="#DejaVuSans-3d" transform="translate(806.335938 0.015625)"/>
     <use xlink:href="#DejaVuSans-30" transform="translate(909.607422 0.015625)"/>
    </g>
   </g>
   <g id="text_15">
    <!-- Prime-route imbalance around the critical line -->
    <g transform="translate(175.030156 16.318125) scale(0.12 -0.12)">
     <defs>
      <path id="DejaVuSans-50" d="M 1259 4147 
L 1259 2394 
L 2053 2394 
Q 2494 2394 2734 2622 
Q 2975 2850 2975 3272 
Q 2975 3691 2734 3919 
Q 2494 4147 2053 4147 
L 1259 4147 
z
M 628 4666 
L 2053 4666 
Q 2838 4666 3239 4311 
Q 3641 3956 3641 3272 
Q 3641 2581 3239 2228 
Q 2838 1875 2053 1875 
L 1259 1875 
L 1259 0 
L 628 0 
L 628 4666 
z
" transform="scale(0.015625)"/>
      <path id="DejaVuSans-72" d="M 2631 2963 
Q 2534 3019 2420 3045 
Q 2306 3072 2169 3072 
Q 1681 3072 1420 2755 
Q 1159 2438 1159 1844 
L 1159 0 
L 581 0 
L 581 3500 
L 1159 3500 
L 1159 2956 
Q 1341 3275 1631 3429 
Q 1922 3584 2338 3584 
Q 2397 3584 2469 3576 
Q 2541 3569 2628 3553 
L 2631 2963 
z
" transform="scale(0.015625)"/>
      <path id="DejaVuSans-6d" d="M 3328 2828 
Q 3544 3216 3844 3400 
Q 4144 3584 4550 3584 
Q 5097 3584 5394 3201 
Q 5691 2819 5691 2113 
L 5691 0 
L 5113 0 
L 5113 2094 
Q 5113 2597 4934 2840 
Q 4756 3084 4391 3084 
Q 3944 3084 3684 2787 
Q 3425 2491 3425 1978 
L 3425 0 
L 2847 0 
L 2847 2094 
Q 2847 2600 2669 2842 
Q 2491 3084 2119 3084 
Q 1678 3084 1418 2786 
Q 1159 2488 1159 1978 
L 1159 0 
L 581 0 
L 581 3500 
L 1159 3500 
L 1159 2956 
Q 1356 3278 1631 3431 
Q 1906 3584 2284 3584 
Q 2666 3584 2933 3390 
Q 3200 3197 3328 2828 
z
" transform="scale(0.015625)"/>
      <path id="DejaVuSans-2d" d="M 313 2009 
L 1997 2009 
L 1997 1497 
L 313 1497 
L 313 2009 
z
" transform="scale(0.015625)"/>
      <path id="DejaVuSans-75" d="M 544 1381 
L 544 3500 
L 1119 3500 
L 1119 1403 
Q 1119 906 1312 657 
Q 1506 409 1894 409 
Q 2359 409 2629 706 
Q 2900 1003 2900 1516 
L 2900 3500 
L 3475 3500 
L 3475 0 
L 2900 0 
L 2900 538 
Q 2691 219 2414 64 
Q 2138 -91 1772 -91 
Q 1169 -91 856 284 
Q 544 659 544 1381 
z
M 1991 3584 
L 1991 3584 
z
" transform="scale(0.015625)"/>
      <path id="DejaVuSans-74" d="M 1172 4494 
L 1172 3500 
L 2356 3500 
L 2356 3053 
L 1172 3053 
L 1172 1153 
Q 1172 725 1289 603 
Q 1406 481 1766 481 
L 2356 481 
L 2356 0 
L 1766 0 
Q 1100 0 847 248 
Q 594 497 594 1153 
L 594 3053 
L 172 3053 
L 172 3500 
L 594 3500 
L 594 4494 
L 1172 4494 
z
" transform="scale(0.015625)"/>
      <path id="DejaVuSans-62" d="M 3116 1747 
Q 3116 2381 2855 2742 
Q 2594 3103 2138 3103 
Q 1681 3103 1420 2742 
Q 1159 2381 1159 1747 
Q 1159 1113 1420 752 
Q 1681 391 2138 391 
Q 2594 391 2855 752 
Q 3116 1113 3116 1747 
z
M 1159 2969 
Q 1341 3281 1617 3432 
Q 1894 3584 2278 3584 
Q 2916 3584 3314 3078 
Q 3713 2572 3713 1747 
Q 3713 922 3314 415 
Q 2916 -91 2278 -91 
Q 1894 -91 1617 61 
Q 1341 213 1159 525 
L 1159 0 
L 581 0 
L 581 4863 
L 1159 4863 
L 1159 2969 
z
" transform="scale(0.015625)"/>
      <path id="DejaVuSans-61" d="M 2194 1759 
Q 1497 1759 1228 1600 
Q 959 1441 959 1056 
Q 959 750 1161 570 
Q 1363 391 1709 391 
Q 2188 391 2477 730 
Q 2766 1069 2766 1631 
L 2766 1759 
L 2194 1759 
z
M 3341 1997 
L 3341 0 
L 2766 0 
L 2766 531 
Q 2569 213 2275 61 
Q 1981 -91 1556 -91 
Q 1019 -91 701 211 
Q 384 513 384 1019 
Q 384 1609 779 1909 
Q 1175 2209 1959 2209 
L 2766 2209 
L 2766 2266 
Q 2766 2663 2505 2880 
Q 2244 3097 1772 3097 
Q 1472 3097 1187 3025 
Q 903 2953 641 2809 
L 641 3341 
Q 956 3463 1253 3523 
Q 1550 3584 1831 3584 
Q 2591 3584 2966 3190 
Q 3341 2797 3341 1997 
z
" transform="scale(0.015625)"/>
      <path id="DejaVuSans-63" d="M 3122 3366 
L 3122 2828 
Q 2878 2963 2633 3030 
Q 2388 3097 2138 3097 
Q 1578 3097 1268 2742 
Q 959 2388 959 1747 
Q 959 1106 1268 751 
Q 1578 397 2138 397 
Q 2388 397 2633 464 
Q 2878 531 3122 666 
L 3122 134 
Q 2881 22 2623 -34 
Q 2366 -91 2075 -91 
Q 1284 -91 818 406 
Q 353 903 353 1747 
Q 353 2603 823 3093 
Q 1294 3584 2113 3584 
Q 2378 3584 2631 3529 
Q 2884 3475 3122 3366 
z
" transform="scale(0.015625)"/>
      <path id="DejaVuSans-64" d="M 2906 2969 
L 2906 4863 
L 3481 4863 
L 3481 0 
L 2906 0 
L 2906 525 
Q 2725 213 2448 61 
Q 2172 -91 1784 -91 
Q 1150 -91 751 415 
Q 353 922 353 1747 
Q 353 2572 751 3078 
Q 1150 3584 1784 3584 
Q 2172 3584 2448 3432 
Q 2725 3281 2906 2969 
z
M 947 1747 
Q 947 1113 1208 752 
Q 1469 391 1925 391 
Q 2381 391 2643 752 
Q 2906 1113 2906 1747 
Q 2906 2381 2643 2742 
Q 2381 3103 1925 3103 
Q 1469 3103 1208 2742 
Q 947 2381 947 1747 
z
" transform="scale(0.015625)"/>
     </defs>
     <use xlink:href="#DejaVuSans-50"/>
     <use xlink:href="#DejaVuSans-72" transform="translate(58.552734 0)"/>
     <use xlink:href="#DejaVuSans-69" transform="translate(99.666016 0)"/>
     <use xlink:href="#DejaVuSans-6d" transform="translate(127.449219 0)"/>
     <use xlink:href="#DejaVuSans-65" transform="translate(224.861328 0)"/>
     <use xlink:href="#DejaVuSans-2d" transform="translate(286.384766 0)"/>
     <use xlink:href="#DejaVuSans-72" transform="translate(322.46875 0)"/>
     <use xlink:href="#DejaVuSans-6f" transform="translate(361.332031 0)"/>
     <use xlink:href="#DejaVuSans-75" transform="translate(422.513672 0)"/>
     <use xlink:href="#DejaVuSans-74" transform="translate(485.892578 0)"/>
     <use xlink:href="#DejaVuSans-65" transform="translate(525.101562 0)"/>
     <use xlink:href="#DejaVuSans-20" transform="translate(586.625 0)"/>
     <use xlink:href="#DejaVuSans-69" transform="translate(618.412109 0)"/>
     <use xlink:href="#DejaVuSans-6d" transform="translate(646.195312 0)"/>
     <use xlink:href="#DejaVuSans-62" transform="translate(743.607422 0)"/>
     <use xlink:href="#DejaVuSans-61" transform="translate(807.083984 0)"/>
     <use xlink:href="#DejaVuSans-6c" transform="translate(868.363281 0)"/>
     <use xlink:href="#DejaVuSans-61" transform="translate(896.146484 0)"/>
     <use xlink:href="#DejaVuSans-6e" transform="translate(957.425781 0)"/>
     <use xlink:href="#DejaVuSans-63" transform="translate(1020.804688 0)"/>
     <use xlink:href="#DejaVuSans-65" transform="translate(1075.785156 0)"/>
     <use xlink:href="#DejaVuSans-20" transform="translate(1137.308594 0)"/>
     <use xlink:href="#DejaVuSans-61" transform="translate(1169.095703 0)"/>
     <use xlink:href="#DejaVuSans-72" transform="translate(1230.375 0)"/>
     <use xlink:href="#DejaVuSans-6f" transform="translate(1269.238281 0)"/>
     <use xlink:href="#DejaVuSans-75" transform="translate(1330.419922 0)"/>
     <use xlink:href="#DejaVuSans-6e" transform="translate(1393.798828 0)"/>
     <use xlink:href="#DejaVuSans-64" transform="translate(1457.177734 0)"/>
     <use xlink:href="#DejaVuSans-20" transform="translate(1520.654297 0)"/>
     <use xlink:href="#DejaVuSans-74" transform="translate(1552.441406 0)"/>
     <use xlink:href="#DejaVuSans-68" transform="translate(1591.650391 0)"/>
     <use xlink:href="#DejaVuSans-65" transform="translate(1655.029297 0)"/>
     <use xlink:href="#DejaVuSans-20" transform="translate(1716.552734 0)"/>
     <use xlink:href="#DejaVuSans-63" transform="translate(1748.339844 0)"/>
     <use xlink:href="#DejaVuSans-72" transform="translate(1803.320312 0)"/>
     <use xlink:href="#DejaVuSans-69" transform="translate(1844.433594 0)"/>
     <use xlink:href="#DejaVuSans-74" transform="translate(1872.216797 0)"/>
     <use xlink:href="#DejaVuSans-69" transform="translate(1911.425781 0)"/>
     <use xlink:href="#DejaVuSans-63" transform="translate(1939.208984 0)"/>
     <use xlink:href="#DejaVuSans-61" transform="translate(1994.189453 0)"/>
     <use xlink:href="#DejaVuSans-6c" transform="translate(2055.46875 0)"/>
     <use xlink:href="#DejaVuSans-20" transform="translate(2083.251953 0)"/>
     <use xlink:href="#DejaVuSans-6c" transform="translate(2115.039062 0)"/>
     <use xlink:href="#DejaVuSans-69" transform="translate(2142.822266 0)"/>
     <use xlink:href="#DejaVuSans-6e" transform="translate(2170.605469 0)"/>
     <use xlink:href="#DejaVuSans-65" transform="translate(2233.984375 0)"/>
    </g>
   </g>
   <g id="legend_1">
    <g id="patch_8">
     <path d="M 55.058281 327.532125 
L 124.158125 327.532125 
Q 126.258125 327.532125 126.258125 325.432125 
L 126.258125 264.834 
Q 126.258125 262.734 124.158125 262.734 
L 55.058281 262.734 
Q 52.958281 262.734 52.958281 264.834 
L 52.958281 325.432125 
Q 52.958281 327.532125 55.058281 327.532125 
z
" style="fill: #ffffff; opacity: 0.95; stroke: #cccccc; stroke-linejoin: miter"/>
    </g>
    <g id="line2d_28">
     <path d="M 57.158281 271.237359 
L 67.658281 271.237359 
L 78.158281 271.237359 
" style="fill: none; stroke: #1f77b4; stroke-width: 2; stroke-linecap: square"/>
    </g>
    <g id="text_16">
     <!-- p = 2 -->
     <g transform="translate(86.558281 274.912359) scale(0.105 -0.105)">
      <defs>
       <path id="DejaVuSans-70" d="M 1159 525 
L 1159 -1331 
L 581 -1331 
L 581 3500 
L 1159 3500 
L 1159 2969 
Q 1341 3281 1617 3432 
Q 1894 3584 2278 3584 
Q 2916 3584 3314 3078 
Q 3713 2572 3713 1747 
Q 3713 922 3314 415 
Q 2916 -91 2278 -91 
Q 1894 -91 1617 61 
Q 1341 213 1159 525 
z
M 3116 1747 
Q 3116 2381 2855 2742 
Q 2594 3103 2138 3103 
Q 1681 3103 1420 2742 
Q 1159 2381 1159 1747 
Q 1159 1113 1420 752 
Q 1681 391 2138 391 
Q 2594 391 2855 752 
Q 3116 1113 3116 1747 
z
" transform="scale(0.015625)"/>
      </defs>
      <use xlink:href="#DejaVuSans-70"/>
      <use xlink:href="#DejaVuSans-20" transform="translate(63.476562 0)"/>
      <use xlink:href="#DejaVuSans-3d" transform="translate(95.263672 0)"/>
      <use xlink:href="#DejaVuSans-20" transform="translate(179.052734 0)"/>
      <use xlink:href="#DejaVuSans-32" transform="translate(210.839844 0)"/>
     </g>
    </g>
    <g id="line2d_29">
     <path d="M 57.158281 286.649391 
L 67.658281 286.649391 
L 78.158281 286.649391 
" style="fill: none; stroke: #ff7f0e; stroke-width: 2; stroke-linecap: square"/>
    </g>
    <g id="text_17">
     <!-- p = 3 -->
     <g transform="translate(86.558281 290.324391) scale(0.105 -0.105)">
      <defs>
       <path id="DejaVuSans-33" d="M 2597 2516 
Q 3050 2419 3304 2112 
Q 3559 1806 3559 1356 
Q 3559 666 3084 287 
Q 2609 -91 1734 -91 
Q 1441 -91 1130 -33 
Q 819 25 488 141 
L 488 750 
Q 750 597 1062 519 
Q 1375 441 1716 441 
Q 2309 441 2620 675 
Q 2931 909 2931 1356 
Q 2931 1769 2642 2001 
Q 2353 2234 1838 2234 
L 1294 2234 
L 1294 2753 
L 1863 2753 
Q 2328 2753 2575 2939 
Q 2822 3125 2822 3475 
Q 2822 3834 2567 4026 
Q 2313 4219 1838 4219 
Q 1578 4219 1281 4162 
Q 984 4106 628 3988 
L 628 4550 
Q 988 4650 1302 4700 
Q 1616 4750 1894 4750 
Q 2613 4750 3031 4423 
Q 3450 4097 3450 3541 
Q 3450 3153 3228 2886 
Q 3006 2619 2597 2516 
z
" transform="scale(0.015625)"/>
      </defs>
      <use xlink:href="#DejaVuSans-70"/>
      <use xlink:href="#DejaVuSans-20" transform="translate(63.476562 0)"/>
      <use xlink:href="#DejaVuSans-3d" transform="translate(95.263672 0)"/>
      <use xlink:href="#DejaVuSans-20" transform="translate(179.052734 0)"/>
      <use xlink:href="#DejaVuSans-33" transform="translate(210.839844 0)"/>
     </g>
    </g>
    <g id="line2d_30">
     <path d="M 57.158281 302.061422 
L 67.658281 302.061422 
L 78.158281 302.061422 
" style="fill: none; stroke: #2ca02c; stroke-width: 2; stroke-linecap: square"/>
    </g>
    <g id="text_18">
     <!-- p = 5 -->
     <g transform="translate(86.558281 305.736422) scale(0.105 -0.105)">
      <defs>
       <path id="DejaVuSans-35" d="M 691 4666 
L 3169 4666 
L 3169 4134 
L 1269 4134 
L 1269 2991 
Q 1406 3038 1543 3061 
Q 1681 3084 1819 3084 
Q 2600 3084 3056 2656 
Q 3513 2228 3513 1497 
Q 3513 744 3044 326 
Q 2575 -91 1722 -91 
Q 1428 -91 1123 -41 
Q 819 9 494 109 
L 494 744 
Q 775 591 1075 516 
Q 1375 441 1709 441 
Q 2250 441 2565 725 
Q 2881 1009 2881 1497 
Q 2881 1984 2565 2268 
Q 2250 2553 1709 2553 
Q 1456 2553 1204 2497 
Q 953 2441 691 2322 
L 691 4666 
z
" transform="scale(0.015625)"/>
      </defs>
      <use xlink:href="#DejaVuSans-70"/>
      <use xlink:href="#DejaVuSans-20" transform="translate(63.476562 0)"/>
      <use xlink:href="#DejaVuSans-3d" transform="translate(95.263672 0)"/>
      <use xlink:href="#DejaVuSans-20" transform="translate(179.052734 0)"/>
      <use xlink:href="#DejaVuSans-35" transform="translate(210.839844 0)"/>
     </g>
    </g>
    <g id="line2d_31">
     <path d="M 57.158281 317.473453 
L 67.658281 317.473453 
L 78.158281 317.473453 
" style="fill: none; stroke: #d62728; stroke-width: 2; stroke-linecap: square"/>
    </g>
    <g id="text_19">
     <!-- p = 11 -->
     <g transform="translate(86.558281 321.148453) scale(0.105 -0.105)">
      <use xlink:href="#DejaVuSans-70"/>
      <use xlink:href="#DejaVuSans-20" transform="translate(63.476562 0)"/>
      <use xlink:href="#DejaVuSans-3d" transform="translate(95.263672 0)"/>
      <use xlink:href="#DejaVuSans-20" transform="translate(179.052734 0)"/>
      <use xlink:href="#DejaVuSans-31" transform="translate(210.839844 0)"/>
      <use xlink:href="#DejaVuSans-31" transform="translate(274.462891 0)"/>
     </g>
    </g>
   </g>
  </g>
 </g>
 <defs>
  <clipPath id="p7a4450752c">
   <rect x="47.708281" y="22.318125" width="530.1" height="310.464"/>
  </clipPath>
 </defs>
</svg>
