<?xml version="1.0" encoding="utf-8" standalone="no"?>
<!DOCTYPE svg PUBLIC "-//W3C//DTD SVG 1.1//EN"
  "http://www.w3.org/Graphics/SVG/1.1/DTD/svg11.dtd">
<svg xmlns:xlink="http://www.w3.org/1999/xlink" width="559.971875pt" height="392.514375pt" viewBox="0 0 559.971875 392.514375" xmlns="http://www.w3.org/2000/svg" version="1.1">
 <metadata>
  <rdf:RDF xmlns:dc="http://purl.org/dc/elements/1.1/" xmlns:cc="http://creativecommons.org/ns#" xmlns:rdf="http://www.w3.org/1999/02/22-rdf-syntax-ns#">
   <cc:Work>
    <dc:type rdf:resource="http://purl.org/dc/dcmitype/StillImage"/>
    <dc:date>2026-04-26T19:59:55.597728</dc:date>
    <dc:format>image/svg+xml</dc:format>
    <dc:creator>
     <cc:Agent>
      <dc:title>Matplotlib v3.10.9, https://matplotlib.org/</dc:title>
     </cc:Agent>
    </dc:creator>
   </cc:Work>
  </rdf:RDF>
 </metadata>
 <defs>
  <style type="text/css">*{stroke-linejoin: round; stroke-linecap: butt}</style>
 </defs>
 <g id="figure_1">
  <g id="patch_1">
   <path d="M 0 392.514375 
L 559.971875 392.514375 
L 559.971875 0 
L 0 0 
z
" style="fill: #ffffff"/>
  </g>
  <g id="axes_1">
   <g id="patch_2">
    <path d="M 42.620313 354.958125 
L 544.820312 354.958125 
L 544.820312 22.318125 
L 42.620313 22.318125 
z
" style="fill: #fcfcfd"/>
   </g>
   <g id="matplotlib.axis_1">
    <g id="xtick_1">
     <g id="line2d_1">
      <path d="M 42.620313 354.958125 
L 42.620313 22.318125 
" clip-path="url(#pf1bce5b16c)" style="fill: none; stroke: #b0b0b0; stroke-opacity: 0.22; stroke-width: 0.7; stroke-linecap: square"/>
     </g>
     <g id="line2d_2">
      <defs>
       <path id="m36ec511fc9" d="M 0 0 
L 0 3.5 
" style="stroke: #000000; stroke-width: 0.8"/>
      </defs>
      <g>
       <use xlink:href="#m36ec511fc9" x="42.620313" y="354.958125" style="stroke: #000000; stroke-width: 0.8"/>
      </g>
     </g>
     <g id="text_1">
      <!-- 0.0 -->
      <g transform="translate(34.66875 369.556562) scale(0.1 -0.1)">
       <defs>
        <path id="DejaVuSans-30" d="M 2034 4250 
Q 1547 4250 1301 3770 
Q 1056 3291 1056 2328 
Q 1056 1369 1301 889 
Q 1547 409 2034 409 
Q 2525 409 2770 889 
Q 3016 1369 3016 2328 
Q 3016 3291 2770 3770 
Q 2525 4250 2034 4250 
z
M 2034 4750 
Q 2819 4750 3233 4129 
Q 3647 3509 3647 2328 
Q 3647 1150 3233 529 
Q 2819 -91 2034 -91 
Q 1250 -91 836 529 
Q 422 1150 422 2328 
Q 422 3509 836 4129 
Q 1250 4750 2034 4750 
z
" transform="scale(0.015625)"/>
        <path id="DejaVuSans-2e" d="M 684 794 
L 1344 794 
L 1344 0 
L 684 0 
L 684 794 
z
" transform="scale(0.015625)"/>
       </defs>
       <use xlink:href="#DejaVuSans-30"/>
       <use xlink:href="#DejaVuSans-2e" transform="translate(63.623047 0)"/>
       <use xlink:href="#DejaVuSans-30" transform="translate(95.410156 0)"/>
      </g>
     </g>
    </g>
    <g id="xtick_2">
     <g id="line2d_3">
      <path d="M 143.060313 354.958125 
L 143.060313 22.318125 
" clip-path="url(#pf1bce5b16c)" style="fill: none; stroke: #b0b0b0; stroke-opacity: 0.22; stroke-width: 0.7; stroke-linecap: square"/>
     </g>
     <g id="line2d_4">
      <g>
       <use xlink:href="#m36ec511fc9" x="143.060313" y="354.958125" style="stroke: #000000; stroke-width: 0.8"/>
      </g>
     </g>
     <g id="text_2">
      <!-- 0.2 -->
      <g transform="translate(135.10875 369.556562) scale(0.1 -0.1)">
       <defs>
        <path id="DejaVuSans-32" d="M 1228 531 
L 3431 531 
L 3431 0 
L 469 0 
L 469 531 
Q 828 903 1448 1529 
Q 2069 2156 2228 2338 
Q 2531 2678 2651 2914 
Q 2772 3150 2772 3378 
Q 2772 3750 2511 3984 
Q 2250 4219 1831 4219 
Q 1534 4219 1204 4116 
Q 875 4013 500 3803 
L 500 4441 
Q 881 4594 1212 4672 
Q 1544 4750 1819 4750 
Q 2544 4750 2975 4387 
Q 3406 4025 3406 3419 
Q 3406 3131 3298 2873 
Q 3191 2616 2906 2266 
Q 2828 2175 2409 1742 
Q 1991 1309 1228 531 
z
" transform="scale(0.015625)"/>
       </defs>
       <use xlink:href="#DejaVuSans-30"/>
       <use xlink:href="#DejaVuSans-2e" transform="translate(63.623047 0)"/>
       <use xlink:href="#DejaVuSans-32" transform="translate(95.410156 0)"/>
      </g>
     </g>
    </g>
    <g id="xtick_3">
     <g id="line2d_5">
      <path d="M 243.500313 354.958125 
L 243.500313 22.318125 
" clip-path="url(#pf1bce5b16c)" style="fill: none; stroke: #b0b0b0; stroke-opacity: 0.22; stroke-width: 0.7; stroke-linecap: square"/>
     </g>
     <g id="line2d_6">
      <g>
       <use xlink:href="#m36ec511fc9" x="243.500313" y="354.958125" style="stroke: #000000; stroke-width: 0.8"/>
      </g>
     </g>
     <g id="text_3">
      <!-- 0.4 -->
      <g transform="translate(235.54875 369.556562) scale(0.1 -0.1)">
       <defs>
        <path id="DejaVuSans-34" d="M 2419 4116 
L 825 1625 
L 2419 1625 
L 2419 4116 
z
M 2253 4666 
L 3047 4666 
L 3047 1625 
L 3713 1625 
L 3713 1100 
L 3047 1100 
L 3047 0 
L 2419 0 
L 2419 1100 
L 313 1100 
L 313 1709 
L 2253 4666 
z
" transform="scale(0.015625)"/>
       </defs>
       <use xlink:href="#DejaVuSans-30"/>
       <use xlink:href="#DejaVuSans-2e" transform="translate(63.623047 0)"/>
       <use xlink:href="#DejaVuSans-34" transform="translate(95.410156 0)"/>
      </g>
     </g>
    </g>
    <g id="xtick_4">
     <g id="line2d_7">
      <path d="M 343.940313 354.958125 
L 343.940313 22.318125 
" clip-path="url(#pf1bce5b16c)" style="fill: none; stroke: #b0b0b0; stroke-opacity: 0.22; stroke-width: 0.7; stroke-linecap: square"/>
     </g>
     <g id="line2d_8">
      <g>
       <use xlink:href="#m36ec511fc9" x="343.940313" y="354.958125" style="stroke: #000000; stroke-width: 0.8"/>
      </g>
     </g>
     <g id="text_4">
      <!-- 0.6 -->
      <g transform="translate(335.98875 369.556562) scale(0.1 -0.1)">
       <defs>
        <path id="DejaVuSans-36" d="M 2113 2584 
Q 1688 2584 1439 2293 
Q 1191 2003 1191 1497 
Q 1191 994 1439 701 
Q 1688 409 2113 409 
Q 2538 409 2786 701 
Q 3034 994 3034 1497 
Q 3034 2003 2786 2293 
Q 2538 2584 2113 2584 
z
M 3366 4563 
L 3366 3988 
Q 3128 4100 2886 4159 
Q 2644 4219 2406 4219 
Q 1781 4219 1451 3797 
Q 1122 3375 1075 2522 
Q 1259 2794 1537 2939 
Q 1816 3084 2150 3084 
Q 2853 3084 3261 2657 
Q 3669 2231 3669 1497 
Q 3669 778 3244 343 
Q 2819 -91 2113 -91 
Q 1303 -91 875 529 
Q 447 1150 447 2328 
Q 447 3434 972 4092 
Q 1497 4750 2381 4750 
Q 2619 4750 2861 4703 
Q 3103 4656 3366 4563 
z
" transform="scale(0.015625)"/>
       </defs>
       <use xlink:href="#DejaVuSans-30"/>
       <use xlink:href="#DejaVuSans-2e" transform="translate(63.623047 0)"/>
       <use xlink:href="#DejaVuSans-36" transform="translate(95.410156 0)"/>
      </g>
     </g>
    </g>
    <g id="xtick_5">
     <g id="line2d_9">
      <path d="M 444.380313 354.958125 
L 444.380313 22.318125 
" clip-path="url(#pf1bce5b16c)" style="fill: none; stroke: #b0b0b0; stroke-opacity: 0.22; stroke-width: 0.7; stroke-linecap: square"/>
     </g>
     <g id="line2d_10">
      <g>
       <use xlink:href="#m36ec511fc9" x="444.380313" y="354.958125" style="stroke: #000000; stroke-width: 0.8"/>
      </g>
     </g>
     <g id="text_5">
      <!-- 0.8 -->
      <g transform="translate(436.42875 369.556562) scale(0.1 -0.1)">
       <defs>
        <path id="DejaVuSans-38" d="M 2034 2216 
Q 1584 2216 1326 1975 
Q 1069 1734 1069 1313 
Q 1069 891 1326 650 
Q 1584 409 2034 409 
Q 2484 409 2743 651 
Q 3003 894 3003 1313 
Q 3003 1734 2745 1975 
Q 2488 2216 2034 2216 
z
M 1403 2484 
Q 997 2584 770 2862 
Q 544 3141 544 3541 
Q 544 4100 942 4425 
Q 1341 4750 2034 4750 
Q 2731 4750 3128 4425 
Q 3525 4100 3525 3541 
Q 3525 3141 3298 2862 
Q 3072 2584 2669 2484 
Q 3125 2378 3379 2068 
Q 3634 1759 3634 1313 
Q 3634 634 3220 271 
Q 2806 -91 2034 -91 
Q 1263 -91 848 271 
Q 434 634 434 1313 
Q 434 1759 690 2068 
Q 947 2378 1403 2484 
z
M 1172 3481 
Q 1172 3119 1398 2916 
Q 1625 2713 2034 2713 
Q 2441 2713 2670 2916 
Q 2900 3119 2900 3481 
Q 2900 3844 2670 4047 
Q 2441 4250 2034 4250 
Q 1625 4250 1398 4047 
Q 1172 3844 1172 3481 
z
" transform="scale(0.015625)"/>
       </defs>
       <use xlink:href="#DejaVuSans-30"/>
       <use xlink:href="#DejaVuSans-2e" transform="translate(63.623047 0)"/>
       <use xlink:href="#DejaVuSans-38" transform="translate(95.410156 0)"/>
      </g>
     </g>
    </g>
    <g id="xtick_6">
     <g id="line2d_11">
      <path d="M 544.820312 354.958125 
L 544.820312 22.318125 
" clip-path="url(#pf1bce5b16c)" style="fill: none; stroke: #b0b0b0; stroke-opacity: 0.22; stroke-width: 0.7; stroke-linecap: square"/>
     </g>
     <g id="line2d_12">
      <g>
       <use xlink:href="#m36ec511fc9" x="544.820312" y="354.958125" style="stroke: #000000; stroke-width: 0.8"/>
      </g>
     </g>
     <g id="text_6">
      <!-- 1.0 -->
      <g transform="translate(536.86875 369.556562) scale(0.1 -0.1)">
       <defs>
        <path id="DejaVuSans-31" d="M 794 531 
L 1825 531 
L 1825 4091 
L 703 3866 
L 703 4441 
L 1819 4666 
L 2450 4666 
L 2450 531 
L 3481 531 
L 3481 0 
L 794 0 
L 794 531 
z
" transform="scale(0.015625)"/>
       </defs>
       <use xlink:href="#DejaVuSans-31"/>
       <use xlink:href="#DejaVuSans-2e" transform="translate(63.623047 0)"/>
       <use xlink:href="#DejaVuSans-30" transform="translate(95.410156 0)"/>
      </g>
     </g>
    </g>
    <g id="text_7">
     <!-- Real component -->
     <g transform="translate(253.065625 383.234687) scale(0.1 -0.1)">
      <defs>
       <path id="DejaVuSans-52" d="M 2841 2188 
Q 3044 2119 3236 1894 
Q 3428 1669 3622 1275 
L 4263 0 
L 3584 0 
L 2988 1197 
Q 2756 1666 2539 1819 
Q 2322 1972 1947 1972 
L 1259 1972 
L 1259 0 
L 628 0 
L 628 4666 
L 2053 4666 
Q 2853 4666 3247 4331 
Q 3641 3997 3641 3322 
Q 3641 2881 3436 2590 
Q 3231 2300 2841 2188 
z
M 1259 4147 
L 1259 2491 
L 2053 2491 
Q 2509 2491 2742 2702 
Q 2975 2913 2975 3322 
Q 2975 3731 2742 3939 
Q 2509 4147 2053 4147 
L 1259 4147 
z
" transform="scale(0.015625)"/>
       <path id="DejaVuSans-65" d="M 3597 1894 
L 3597 1613 
L 953 1613 
Q 991 1019 1311 708 
Q 1631 397 2203 397 
Q 2534 397 2845 478 
Q 3156 559 3463 722 
L 3463 178 
Q 3153 47 2828 -22 
Q 2503 -91 2169 -91 
Q 1331 -91 842 396 
Q 353 884 353 1716 
Q 353 2575 817 3079 
Q 1281 3584 2069 3584 
Q 2775 3584 3186 3129 
Q 3597 2675 3597 1894 
z
M 3022 2063 
Q 3016 2534 2758 2815 
Q 2500 3097 2075 3097 
Q 1594 3097 1305 2825 
Q 1016 2553 972 2059 
L 3022 2063 
z
" transform="scale(0.015625)"/>
       <path id="DejaVuSans-61" d="M 2194 1759 
Q 1497 1759 1228 1600 
Q 959 1441 959 1056 
Q 959 750 1161 570 
Q 1363 391 1709 391 
Q 2188 391 2477 730 
Q 2766 1069 2766 1631 
L 2766 1759 
L 2194 1759 
z
M 3341 1997 
L 3341 0 
L 2766 0 
L 2766 531 
Q 2569 213 2275 61 
Q 1981 -91 1556 -91 
Q 1019 -91 701 211 
Q 384 513 384 1019 
Q 384 1609 779 1909 
Q 1175 2209 1959 2209 
L 2766 2209 
L 2766 2266 
Q 2766 2663 2505 2880 
Q 2244 3097 1772 3097 
Q 1472 3097 1187 3025 
Q 903 2953 641 2809 
L 641 3341 
Q 956 3463 1253 3523 
Q 1550 3584 1831 3584 
Q 2591 3584 2966 3190 
Q 3341 2797 3341 1997 
z
" transform="scale(0.015625)"/>
       <path id="DejaVuSans-6c" d="M 603 4863 
L 1178 4863 
L 1178 0 
L 603 0 
L 603 4863 
z
" transform="scale(0.015625)"/>
       <path id="DejaVuSans-20" transform="scale(0.015625)"/>
       <path id="DejaVuSans-63" d="M 3122 3366 
L 3122 2828 
Q 2878 2963 2633 3030 
Q 2388 3097 2138 3097 
Q 1578 3097 1268 2742 
Q 959 2388 959 1747 
Q 959 1106 1268 751 
Q 1578 397 2138 397 
Q 2388 397 2633 464 
Q 2878 531 3122 666 
L 3122 134 
Q 2881 22 2623 -34 
Q 2366 -91 2075 -91 
Q 1284 -91 818 406 
Q 353 903 353 1747 
Q 353 2603 823 3093 
Q 1294 3584 2113 3584 
Q 2378 3584 2631 3529 
Q 2884 3475 3122 3366 
z
" transform="scale(0.015625)"/>
       <path id="DejaVuSans-6f" d="M 1959 3097 
Q 1497 3097 1228 2736 
Q 959 2375 959 1747 
Q 959 1119 1226 758 
Q 1494 397 1959 397 
Q 2419 397 2687 759 
Q 2956 1122 2956 1747 
Q 2956 2369 2687 2733 
Q 2419 3097 1959 3097 
z
M 1959 3584 
Q 2709 3584 3137 3096 
Q 3566 2609 3566 1747 
Q 3566 888 3137 398 
Q 2709 -91 1959 -91 
Q 1206 -91 779 398 
Q 353 888 353 1747 
Q 353 2609 779 3096 
Q 1206 3584 1959 3584 
z
" transform="scale(0.015625)"/>
       <path id="DejaVuSans-6d" d="M 3328 2828 
Q 3544 3216 3844 3400 
Q 4144 3584 4550 3584 
Q 5097 3584 5394 3201 
Q 5691 2819 5691 2113 
L 5691 0 
L 5113 0 
L 5113 2094 
Q 5113 2597 4934 2840 
Q 4756 3084 4391 3084 
Q 3944 3084 3684 2787 
Q 3425 2491 3425 1978 
L 3425 0 
L 2847 0 
L 2847 2094 
Q 2847 2600 2669 2842 
Q 2491 3084 2119 3084 
Q 1678 3084 1418 2786 
Q 1159 2488 1159 1978 
L 1159 0 
L 581 0 
L 581 3500 
L 1159 3500 
L 1159 2956 
Q 1356 3278 1631 3431 
Q 1906 3584 2284 3584 
Q 2666 3584 2933 3390 
Q 3200 3197 3328 2828 
z
" transform="scale(0.015625)"/>
       <path id="DejaVuSans-70" d="M 1159 525 
L 1159 -1331 
L 581 -1331 
L 581 3500 
L 1159 3500 
L 1159 2969 
Q 1341 3281 1617 3432 
Q 1894 3584 2278 3584 
Q 2916 3584 3314 3078 
Q 3713 2572 3713 1747 
Q 3713 922 3314 415 
Q 2916 -91 2278 -91 
Q 1894 -91 1617 61 
Q 1341 213 1159 525 
z
M 3116 1747 
Q 3116 2381 2855 2742 
Q 2594 3103 2138 3103 
Q 1681 3103 1420 2742 
Q 1159 2381 1159 1747 
Q 1159 1113 1420 752 
Q 1681 391 2138 391 
Q 2594 391 2855 752 
Q 3116 1113 3116 1747 
z
" transform="scale(0.015625)"/>
       <path id="DejaVuSans-6e" d="M 3513 2113 
L 3513 0 
L 2938 0 
L 2938 2094 
Q 2938 2591 2744 2837 
Q 2550 3084 2163 3084 
Q 1697 3084 1428 2787 
Q 1159 2491 1159 1978 
L 1159 0 
L 581 0 
L 581 3500 
L 1159 3500 
L 1159 2956 
Q 1366 3272 1645 3428 
Q 1925 3584 2291 3584 
Q 2894 3584 3203 3211 
Q 3513 2838 3513 2113 
z
" transform="scale(0.015625)"/>
       <path id="DejaVuSans-74" d="M 1172 4494 
L 1172 3500 
L 2356 3500 
L 2356 3053 
L 1172 3053 
L 1172 1153 
Q 1172 725 1289 603 
Q 1406 481 1766 481 
L 2356 481 
L 2356 0 
L 1766 0 
Q 1100 0 847 248 
Q 594 497 594 1153 
L 594 3053 
L 172 3053 
L 172 3500 
L 594 3500 
L 594 4494 
L 1172 4494 
z
" transform="scale(0.015625)"/>
      </defs>
      <use xlink:href="#DejaVuSans-52"/>
      <use xlink:href="#DejaVuSans-65" transform="translate(64.982422 0)"/>
      <use xlink:href="#DejaVuSans-61" transform="translate(126.505859 0)"/>
      <use xlink:href="#DejaVuSans-6c" transform="translate(187.785156 0)"/>
      <use xlink:href="#DejaVuSans-20" transform="translate(215.568359 0)"/>
      <use xlink:href="#DejaVuSans-63" transform="translate(247.355469 0)"/>
      <use xlink:href="#DejaVuSans-6f" transform="translate(302.335938 0)"/>
      <use xlink:href="#DejaVuSans-6d" transform="translate(363.517578 0)"/>
      <use xlink:href="#DejaVuSans-70" transform="translate(460.929688 0)"/>
      <use xlink:href="#DejaVuSans-6f" transform="translate(524.40625 0)"/>
      <use xlink:href="#DejaVuSans-6e" transform="translate(585.587891 0)"/>
      <use xlink:href="#DejaVuSans-65" transform="translate(648.966797 0)"/>
      <use xlink:href="#DejaVuSans-6e" transform="translate(710.490234 0)"/>
      <use xlink:href="#DejaVuSans-74" transform="translate(773.869141 0)"/>
     </g>
    </g>
   </g>
   <g id="matplotlib.axis_2">
    <g id="ytick_1">
     <g id="line2d_13">
      <path d="M 42.620313 344.563125 
L 544.820312 344.563125 
" clip-path="url(#pf1bce5b16c)" style="fill: none; stroke: #b0b0b0; stroke-opacity: 0.22; stroke-width: 0.7; stroke-linecap: square"/>
     </g>
     <g id="line2d_14">
      <defs>
       <path id="m427356a98b" d="M 0 0 
L -3.5 0 
" style="stroke: #000000; stroke-width: 0.8"/>
      </defs>
      <g>
       <use xlink:href="#m427356a98b" x="42.620313" y="344.563125" style="stroke: #000000; stroke-width: 0.8"/>
      </g>
     </g>
     <g id="text_8">
      <!-- −3 -->
      <g transform="translate(20.878125 348.362344) scale(0.1 -0.1)">
       <defs>
        <path id="DejaVuSans-2212" d="M 678 2272 
L 4684 2272 
L 4684 1741 
L 678 1741 
L 678 2272 
z
" transform="scale(0.015625)"/>
        <path id="DejaVuSans-33" d="M 2597 2516 
Q 3050 2419 3304 2112 
Q 3559 1806 3559 1356 
Q 3559 666 3084 287 
Q 2609 -91 1734 -91 
Q 1441 -91 1130 -33 
Q 819 25 488 141 
L 488 750 
Q 750 597 1062 519 
Q 1375 441 1716 441 
Q 2309 441 2620 675 
Q 2931 909 2931 1356 
Q 2931 1769 2642 2001 
Q 2353 2234 1838 2234 
L 1294 2234 
L 1294 2753 
L 1863 2753 
Q 2328 2753 2575 2939 
Q 2822 3125 2822 3475 
Q 2822 3834 2567 4026 
Q 2313 4219 1838 4219 
Q 1578 4219 1281 4162 
Q 984 4106 628 3988 
L 628 4550 
Q 988 4650 1302 4700 
Q 1616 4750 1894 4750 
Q 2613 4750 3031 4423 
Q 3450 4097 3450 3541 
Q 3450 3153 3228 2886 
Q 3006 2619 2597 2516 
z
" transform="scale(0.015625)"/>
       </defs>
       <use xlink:href="#DejaVuSans-2212"/>
       <use xlink:href="#DejaVuSans-33" transform="translate(83.789062 0)"/>
      </g>
     </g>
    </g>
    <g id="ytick_2">
     <g id="line2d_15">
      <path d="M 42.620313 292.588125 
L 544.820312 292.588125 
" clip-path="url(#pf1bce5b16c)" style="fill: none; stroke: #b0b0b0; stroke-opacity: 0.22; stroke-width: 0.7; stroke-linecap: square"/>
     </g>
     <g id="line2d_16">
      <g>
       <use xlink:href="#m427356a98b" x="42.620313" y="292.588125" style="stroke: #000000; stroke-width: 0.8"/>
      </g>
     </g>
     <g id="text_9">
      <!-- −2 -->
      <g transform="translate(20.878125 296.387344) scale(0.1 -0.1)">
       <use xlink:href="#DejaVuSans-2212"/>
       <use xlink:href="#DejaVuSans-32" transform="translate(83.789062 0)"/>
      </g>
     </g>
    </g>
    <g id="ytick_3">
     <g id="line2d_17">
      <path d="M 42.620313 240.613125 
L 544.820312 240.613125 
" clip-path="url(#pf1bce5b16c)" style="fill: none; stroke: #b0b0b0; stroke-opacity: 0.22; stroke-width: 0.7; stroke-linecap: square"/>
     </g>
     <g id="line2d_18">
      <g>
       <use xlink:href="#m427356a98b" x="42.620313" y="240.613125" style="stroke: #000000; stroke-width: 0.8"/>
      </g>
     </g>
     <g id="text_10">
      <!-- −1 -->
      <g transform="translate(20.878125 244.412344) scale(0.1 -0.1)">
       <use xlink:href="#DejaVuSans-2212"/>
       <use xlink:href="#DejaVuSans-31" transform="translate(83.789062 0)"/>
      </g>
     </g>
    </g>
    <g id="ytick_4">
     <g id="line2d_19">
      <path d="M 42.620313 188.638125 
L 544.820312 188.638125 
" clip-path="url(#pf1bce5b16c)" style="fill: none; stroke: #b0b0b0; stroke-opacity: 0.22; stroke-width: 0.7; stroke-linecap: square"/>
     </g>
     <g id="line2d_20">
      <g>
       <use xlink:href="#m427356a98b" x="42.620313" y="188.638125" style="stroke: #000000; stroke-width: 0.8"/>
      </g>
     </g>
     <g id="text_11">
      <!-- 0 -->
      <g transform="translate(29.257813 192.437344) scale(0.1 -0.1)">
       <use xlink:href="#DejaVuSans-30"/>
      </g>
     </g>
    </g>
    <g id="ytick_5">
     <g id="line2d_21">
      <path d="M 42.620313 136.663125 
L 544.820312 136.663125 
" clip-path="url(#pf1bce5b16c)" style="fill: none; stroke: #b0b0b0; stroke-opacity: 0.22; stroke-width: 0.7; stroke-linecap: square"/>
     </g>
     <g id="line2d_22">
      <g>
       <use xlink:href="#m427356a98b" x="42.620313" y="136.663125" style="stroke: #000000; stroke-width: 0.8"/>
      </g>
     </g>
     <g id="text_12">
      <!-- 1 -->
      <g transform="translate(29.257813 140.462344) scale(0.1 -0.1)">
       <use xlink:href="#DejaVuSans-31"/>
      </g>
     </g>
    </g>
    <g id="ytick_6">
     <g id="line2d_23">
      <path d="M 42.620313 84.688125 
L 544.820312 84.688125 
" clip-path="url(#pf1bce5b16c)" style="fill: none; stroke: #b0b0b0; stroke-opacity: 0.22; stroke-width: 0.7; stroke-linecap: square"/>
     </g>
     <g id="line2d_24">
      <g>
       <use xlink:href="#m427356a98b" x="42.620313" y="84.688125" style="stroke: #000000; stroke-width: 0.8"/>
      </g>
     </g>
     <g id="text_13">
      <!-- 2 -->
      <g transform="translate(29.257813 88.487344) scale(0.1 -0.1)">
       <use xlink:href="#DejaVuSans-32"/>
      </g>
     </g>
    </g>
    <g id="ytick_7">
     <g id="line2d_25">
      <path d="M 42.620313 32.713125 
L 544.820312 32.713125 
" clip-path="url(#pf1bce5b16c)" style="fill: none; stroke: #b0b0b0; stroke-opacity: 0.22; stroke-width: 0.7; stroke-linecap: square"/>
     </g>
     <g id="line2d_26">
      <g>
       <use xlink:href="#m427356a98b" x="42.620313" y="32.713125" style="stroke: #000000; stroke-width: 0.8"/>
      </g>
     </g>
     <g id="text_14">
      <!-- 3 -->
      <g transform="translate(29.257813 36.512344) scale(0.1 -0.1)">
       <use xlink:href="#DejaVuSans-33"/>
      </g>
     </g>
    </g>
    <g id="text_15">
     <!-- Imaginary / slice coordinate -->
     <g transform="translate(14.798438 258.187344) rotate(-90) scale(0.1 -0.1)">
      <defs>
       <path id="DejaVuSans-49" d="M 628 4666 
L 1259 4666 
L 1259 0 
L 628 0 
L 628 4666 
z
" transform="scale(0.015625)"/>
       <path id="DejaVuSans-67" d="M 2906 1791 
Q 2906 2416 2648 2759 
Q 2391 3103 1925 3103 
Q 1463 3103 1205 2759 
Q 947 2416 947 1791 
Q 947 1169 1205 825 
Q 1463 481 1925 481 
Q 2391 481 2648 825 
Q 2906 1169 2906 1791 
z
M 3481 434 
Q 3481 -459 3084 -895 
Q 2688 -1331 1869 -1331 
Q 1566 -1331 1297 -1286 
Q 1028 -1241 775 -1147 
L 775 -588 
Q 1028 -725 1275 -790 
Q 1522 -856 1778 -856 
Q 2344 -856 2625 -561 
Q 2906 -266 2906 331 
L 2906 616 
Q 2728 306 2450 153 
Q 2172 0 1784 0 
Q 1141 0 747 490 
Q 353 981 353 1791 
Q 353 2603 747 3093 
Q 1141 3584 1784 3584 
Q 2172 3584 2450 3431 
Q 2728 3278 2906 2969 
L 2906 3500 
L 3481 3500 
L 3481 434 
z
" transform="scale(0.015625)"/>
       <path id="DejaVuSans-69" d="M 603 3500 
L 1178 3500 
L 1178 0 
L 603 0 
L 603 3500 
z
M 603 4863 
L 1178 4863 
L 1178 4134 
L 603 4134 
L 603 4863 
z
" transform="scale(0.015625)"/>
       <path id="DejaVuSans-72" d="M 2631 2963 
Q 2534 3019 2420 3045 
Q 2306 3072 2169 3072 
Q 1681 3072 1420 2755 
Q 1159 2438 1159 1844 
L 1159 0 
L 581 0 
L 581 3500 
L 1159 3500 
L 1159 2956 
Q 1341 3275 1631 3429 
Q 1922 3584 2338 3584 
Q 2397 3584 2469 3576 
Q 2541 3569 2628 3553 
L 2631 2963 
z
" transform="scale(0.015625)"/>
       <path id="DejaVuSans-79" d="M 2059 -325 
Q 1816 -950 1584 -1140 
Q 1353 -1331 966 -1331 
L 506 -1331 
L 506 -850 
L 844 -850 
Q 1081 -850 1212 -737 
Q 1344 -625 1503 -206 
L 1606 56 
L 191 3500 
L 800 3500 
L 1894 763 
L 2988 3500 
L 3597 3500 
L 2059 -325 
z
" transform="scale(0.015625)"/>
       <path id="DejaVuSans-2f" d="M 1625 4666 
L 2156 4666 
L 531 -594 
L 0 -594 
L 1625 4666 
z
" transform="scale(0.015625)"/>
       <path id="DejaVuSans-73" d="M 2834 3397 
L 2834 2853 
Q 2591 2978 2328 3040 
Q 2066 3103 1784 3103 
Q 1356 3103 1142 2972 
Q 928 2841 928 2578 
Q 928 2378 1081 2264 
Q 1234 2150 1697 2047 
L 1894 2003 
Q 2506 1872 2764 1633 
Q 3022 1394 3022 966 
Q 3022 478 2636 193 
Q 2250 -91 1575 -91 
Q 1294 -91 989 -36 
Q 684 19 347 128 
L 347 722 
Q 666 556 975 473 
Q 1284 391 1588 391 
Q 1994 391 2212 530 
Q 2431 669 2431 922 
Q 2431 1156 2273 1281 
Q 2116 1406 1581 1522 
L 1381 1569 
Q 847 1681 609 1914 
Q 372 2147 372 2553 
Q 372 3047 722 3315 
Q 1072 3584 1716 3584 
Q 2034 3584 2315 3537 
Q 2597 3491 2834 3397 
z
" transform="scale(0.015625)"/>
       <path id="DejaVuSans-64" d="M 2906 2969 
L 2906 4863 
L 3481 4863 
L 3481 0 
L 2906 0 
L 2906 525 
Q 2725 213 2448 61 
Q 2172 -91 1784 -91 
Q 1150 -91 751 415 
Q 353 922 353 1747 
Q 353 2572 751 3078 
Q 1150 3584 1784 3584 
Q 2172 3584 2448 3432 
Q 2725 3281 2906 2969 
z
M 947 1747 
Q 947 1113 1208 752 
Q 1469 391 1925 391 
Q 2381 391 2643 752 
Q 2906 1113 2906 1747 
Q 2906 2381 2643 2742 
Q 2381 3103 1925 3103 
Q 1469 3103 1208 2742 
Q 947 2381 947 1747 
z
" transform="scale(0.015625)"/>
      </defs>
      <use xlink:href="#DejaVuSans-49"/>
      <use xlink:href="#DejaVuSans-6d" transform="translate(29.492188 0)"/>
      <use xlink:href="#DejaVuSans-61" transform="translate(126.904297 0)"/>
      <use xlink:href="#DejaVuSans-67" transform="translate(188.183594 0)"/>
      <use xlink:href="#DejaVuSans-69" transform="translate(251.660156 0)"/>
      <use xlink:href="#DejaVuSans-6e" transform="translate(279.443359 0)"/>
      <use xlink:href="#DejaVuSans-61" transform="translate(342.822266 0)"/>
      <use xlink:href="#DejaVuSans-72" transform="translate(404.101562 0)"/>
      <use xlink:href="#DejaVuSans-79" transform="translate(445.214844 0)"/>
      <use xlink:href="#DejaVuSans-20" transform="translate(504.394531 0)"/>
      <use xlink:href="#DejaVuSans-2f" transform="translate(536.181641 0)"/>
      <use xlink:href="#DejaVuSans-20" transform="translate(569.873047 0)"/>
      <use xlink:href="#DejaVuSans-73" transform="translate(601.660156 0)"/>
      <use xlink:href="#DejaVuSans-6c" transform="translate(653.759766 0)"/>
      <use xlink:href="#DejaVuSans-69" transform="translate(681.542969 0)"/>
      <use xlink:href="#DejaVuSans-63" transform="translate(709.326172 0)"/>
      <use xlink:href="#DejaVuSans-65" transform="translate(764.306641 0)"/>
      <use xlink:href="#DejaVuSans-20" transform="translate(825.830078 0)"/>
      <use xlink:href="#DejaVuSans-63" transform="translate(857.617188 0)"/>
      <use xlink:href="#DejaVuSans-6f" transform="translate(912.597656 0)"/>
      <use xlink:href="#DejaVuSans-6f" transform="translate(973.779297 0)"/>
      <use xlink:href="#DejaVuSans-72" transform="translate(1034.960938 0)"/>
      <use xlink:href="#DejaVuSans-64" transform="translate(1074.324219 0)"/>
      <use xlink:href="#DejaVuSans-69" transform="translate(1137.800781 0)"/>
      <use xlink:href="#DejaVuSans-6e" transform="translate(1165.583984 0)"/>
      <use xlink:href="#DejaVuSans-61" transform="translate(1228.962891 0)"/>
      <use xlink:href="#DejaVuSans-74" transform="translate(1290.242188 0)"/>
      <use xlink:href="#DejaVuSans-65" transform="translate(1329.451172 0)"/>
     </g>
    </g>
   </g>
   <g id="line2d_27">
    <path d="M 293.720312 219.823125 
L 293.720312 219.193125 
L 293.720312 218.563125 
L 293.720312 217.933125 
L 293.720312 217.303125 
L 293.720312 216.673125 
L 293.720312 216.043125 
L 293.720312 215.413125 
L 293.720312 214.783125 
L 293.720312 214.153125 
L 293.720312 213.523125 
L 293.720312 212.893125 
L 293.720312 212.263125 
L 293.720312 211.633125 
L 293.720312 211.003125 
L 293.720312 210.373125 
L 293.720312 209.743125 
L 293.720312 209.113125 
L 293.720312 208.483125 
L 293.720312 207.853125 
L 293.720312 207.223125 
L 293.720312 206.593125 
L 293.720312 205.963125 
L 293.720312 205.333125 
L 293.720312 204.703125 
L 293.720312 204.073125 
L 293.720312 203.443125 
L 293.720312 202.813125 
L 293.720312 202.183125 
L 293.720312 201.553125 
L 293.720312 200.923125 
L 293.720312 200.293125 
L 293.720312 199.663125 
L 293.720312 199.033125 
L 293.720312 198.403125 
L 293.720312 197.773125 
L 293.720312 197.143125 
L 293.720312 196.513125 
L 293.720312 195.883125 
L 293.720312 195.253125 
L 293.720312 194.623125 
L 293.720312 193.993125 
L 293.720312 193.363125 
L 293.720312 192.733125 
L 293.720312 192.103125 
L 293.720312 191.473125 
L 293.720312 190.843125 
L 293.720312 190.213125 
L 293.720312 189.583125 
L 293.720312 188.953125 
L 293.720312 188.323125 
L 293.720312 187.693125 
L 293.720312 187.063125 
L 293.720312 186.433125 
L 293.720312 185.803125 
L 293.720312 185.173125 
L 293.720312 184.543125 
L 293.720312 183.913125 
L 293.720312 183.283125 
L 293.720312 182.653125 
L 293.720312 182.023125 
L 293.720312 181.393125 
L 293.720312 180.763125 
L 293.720312 180.133125 
L 293.720312 179.503125 
L 293.720312 178.873125 
L 293.720312 178.243125 
L 293.720312 177.613125 
L 293.720312 176.983125 
L 293.720312 176.353125 
L 293.720312 175.723125 
L 293.720312 175.093125 
L 293.720312 174.463125 
L 293.720312 173.833125 
L 293.720312 173.203125 
L 293.720312 172.573125 
L 293.720312 171.943125 
L 293.720312 171.313125 
L 293.720312 170.683125 
L 293.720312 170.053125 
L 293.720312 169.423125 
L 293.720312 168.793125 
L 293.720312 168.163125 
L 293.720312 167.533125 
L 293.720312 166.903125 
L 293.720312 166.273125 
L 293.720312 165.643125 
L 293.720312 165.013125 
L 293.720312 164.383125 
L 293.720312 163.753125 
L 293.720312 163.123125 
L 293.720312 162.493125 
L 293.720312 161.863125 
L 293.720312 161.233125 
L 293.720312 160.603125 
L 293.720312 159.973125 
L 293.720312 159.343125 
L 293.720312 158.713125 
L 293.720312 158.083125 
L 293.720312 157.453125 
" clip-path="url(#pf1bce5b16c)" style="fill: none; stroke: #9ecae1; stroke-width: 2; stroke-linecap: square"/>
   </g>
   <g id="line2d_28">
    <path d="M 293.720312 266.600625 
L 293.720312 265.025625 
L 293.720312 263.450625 
L 293.720312 261.875625 
L 293.720312 260.300625 
L 293.720312 258.725625 
L 293.720312 257.150625 
L 293.720312 255.575625 
L 293.720312 254.000625 
L 293.720312 252.425625 
L 293.720312 250.850625 
L 293.720312 249.275625 
L 293.720312 247.700625 
L 293.720312 246.125625 
L 293.720312 244.550625 
L 293.720312 242.975625 
L 293.720312 241.400625 
L 293.720312 239.825625 
L 293.720312 238.250625 
L 293.720312 236.675625 
L 293.720312 235.100625 
L 293.720312 233.525625 
L 293.720312 231.950625 
L 293.720312 230.375625 
L 293.720312 228.800625 
L 293.720312 227.225625 
L 293.720312 225.650625 
L 293.720312 224.075625 
L 293.720312 222.500625 
L 293.720312 220.925625 
L 293.720312 219.350625 
L 293.720312 217.775625 
L 293.720312 216.200625 
L 293.720312 214.625625 
L 293.720312 213.050625 
L 293.720312 211.475625 
L 293.720312 209.900625 
L 293.720312 208.325625 
L 293.720312 206.750625 
L 293.720312 205.175625 
L 293.720312 203.600625 
L 293.720312 202.025625 
L 293.720312 200.450625 
L 293.720312 198.875625 
L 293.720312 197.300625 
L 293.720312 195.725625 
L 293.720312 194.150625 
L 293.720312 192.575625 
L 293.720312 191.000625 
L 293.720312 189.425625 
L 293.720312 187.850625 
L 293.720312 186.275625 
L 293.720312 184.700625 
L 293.720312 183.125625 
L 293.720312 181.550625 
L 293.720312 179.975625 
L 293.720312 178.400625 
L 293.720312 176.825625 
L 293.720312 175.250625 
L 293.720312 173.675625 
L 293.720312 172.100625 
L 293.720312 170.525625 
L 293.720312 168.950625 
L 293.720312 167.375625 
L 293.720312 165.800625 
L 293.720312 164.225625 
L 293.720312 162.650625 
L 293.720312 161.075625 
L 293.720312 159.500625 
L 293.720312 157.925625 
L 293.720312 156.350625 
L 293.720312 154.775625 
L 293.720312 153.200625 
L 293.720312 151.625625 
L 293.720312 150.050625 
L 293.720312 148.475625 
L 293.720312 146.900625 
L 293.720312 145.325625 
L 293.720312 143.750625 
L 293.720312 142.175625 
L 293.720312 140.600625 
L 293.720312 139.025625 
L 293.720312 137.450625 
L 293.720312 135.875625 
L 293.720312 134.300625 
L 293.720312 132.725625 
L 293.720312 131.150625 
L 293.720312 129.575625 
L 293.720312 128.000625 
L 293.720312 126.425625 
L 293.720312 124.850625 
L 293.720312 123.275625 
L 293.720312 121.700625 
L 293.720312 120.125625 
L 293.720312 118.550625 
L 293.720312 116.975625 
L 293.720312 115.400625 
L 293.720312 113.825625 
L 293.720312 112.250625 
L 293.720312 110.675625 
" clip-path="url(#pf1bce5b16c)" style="fill: none; stroke: #74c476; stroke-width: 2; stroke-linecap: square"/>
   </g>
   <g id="line2d_29">
    <path d="M 293.720312 344.563125 
L 293.720312 341.413125 
L 293.720312 338.263125 
L 293.720312 335.113125 
L 293.720312 331.963125 
L 293.720312 328.813125 
L 293.720312 325.663125 
L 293.720312 322.513125 
L 293.720312 319.363125 
L 293.720312 316.213125 
L 293.720312 313.063125 
L 293.720312 309.913125 
L 293.720312 306.763125 
L 293.720312 303.613125 
L 293.720312 300.463125 
L 293.720312 297.313125 
L 293.720312 294.163125 
L 293.720312 291.013125 
L 293.720312 287.863125 
L 293.720312 284.713125 
L 293.720312 281.563125 
L 293.720312 278.413125 
L 293.720312 275.263125 
L 293.720312 272.113125 
L 293.720312 268.963125 
L 293.720312 265.813125 
L 293.720312 262.663125 
L 293.720312 259.513125 
L 293.720312 256.363125 
L 293.720312 253.213125 
L 293.720312 250.063125 
L 293.720312 246.913125 
L 293.720312 243.763125 
L 293.720312 240.613125 
L 293.720312 237.463125 
L 293.720312 234.313125 
L 293.720312 231.163125 
L 293.720312 228.013125 
L 293.720312 224.863125 
L 293.720312 221.713125 
L 293.720312 218.563125 
L 293.720312 215.413125 
L 293.720312 212.263125 
L 293.720312 209.113125 
L 293.720312 205.963125 
L 293.720312 202.813125 
L 293.720312 199.663125 
L 293.720312 196.513125 
L 293.720312 193.363125 
L 293.720312 190.213125 
L 293.720312 187.063125 
L 293.720312 183.913125 
L 293.720312 180.763125 
L 293.720312 177.613125 
L 293.720312 174.463125 
L 293.720312 171.313125 
L 293.720312 168.163125 
L 293.720312 165.013125 
L 293.720312 161.863125 
L 293.720312 158.713125 
L 293.720312 155.563125 
L 293.720312 152.413125 
L 293.720312 149.263125 
L 293.720312 146.113125 
L 293.720312 142.963125 
L 293.720312 139.813125 
L 293.720312 136.663125 
L 293.720312 133.513125 
L 293.720312 130.363125 
L 293.720312 127.213125 
L 293.720312 124.063125 
L 293.720312 120.913125 
L 293.720312 117.763125 
L 293.720312 114.613125 
L 293.720312 111.463125 
L 293.720312 108.313125 
L 293.720312 105.163125 
L 293.720312 102.013125 
L 293.720312 98.863125 
L 293.720312 95.713125 
L 293.720312 92.563125 
L 293.720312 89.413125 
L 293.720312 86.263125 
L 293.720312 83.113125 
L 293.720312 79.963125 
L 293.720312 76.813125 
L 293.720312 73.663125 
L 293.720312 70.513125 
L 293.720312 67.363125 
L 293.720312 64.213125 
L 293.720312 61.063125 
L 293.720312 57.913125 
L 293.720312 54.763125 
L 293.720312 51.613125 
L 293.720312 48.463125 
L 293.720312 45.313125 
L 293.720312 42.163125 
L 293.720312 39.013125 
L 293.720312 35.863125 
L 293.720312 32.713125 
" clip-path="url(#pf1bce5b16c)" style="fill: none; stroke: #ef3b2c; stroke-width: 2; stroke-linecap: square"/>
   </g>
   <g id="line2d_30">
    <path d="M 293.720312 95.083125 
L 293.720312 96.973125 
L 293.720312 98.863125 
L 293.720312 100.753125 
L 293.720312 102.643125 
L 293.720312 104.533125 
L 293.720312 106.423125 
L 293.720312 108.313125 
L 293.720312 110.203125 
L 293.720312 112.093125 
L 293.720312 113.983125 
L 293.720312 115.873125 
L 293.720312 117.763125 
L 293.720312 119.653125 
L 293.720312 121.543125 
L 293.720312 123.433125 
L 293.720312 125.323125 
L 293.720312 127.213125 
L 293.720312 129.103125 
L 293.720312 130.993125 
L 293.720312 132.883125 
L 293.720312 134.773125 
L 293.720312 136.663125 
L 293.720312 138.553125 
L 293.720312 140.443125 
L 293.720312 142.333125 
L 293.720312 144.223125 
L 293.720312 146.113125 
L 293.720312 148.003125 
L 293.720312 149.893125 
L 293.720312 151.783125 
L 293.720312 153.673125 
L 293.720312 155.563125 
L 293.720312 157.453125 
L 293.720312 159.343125 
L 293.720312 161.233125 
L 293.720312 163.123125 
L 293.720312 165.013125 
L 293.720312 166.903125 
L 293.720312 168.793125 
L 293.720312 170.683125 
L 293.720312 172.573125 
L 293.720312 174.463125 
L 293.720312 176.353125 
L 293.720312 178.243125 
L 293.720312 180.133125 
L 293.720312 182.023125 
L 293.720312 183.913125 
L 293.720312 185.803125 
L 293.720312 187.693125 
L 293.720312 189.583125 
L 293.720312 191.473125 
L 293.720312 193.363125 
L 293.720312 195.253125 
L 293.720312 197.143125 
L 293.720312 199.033125 
L 293.720312 200.923125 
L 293.720312 202.813125 
L 293.720312 204.703125 
L 293.720312 206.593125 
L 293.720312 208.483125 
L 293.720312 210.373125 
L 293.720312 212.263125 
L 293.720312 214.153125 
L 293.720312 216.043125 
L 293.720312 217.933125 
L 293.720312 219.823125 
L 293.720312 221.713125 
L 293.720312 223.603125 
L 293.720312 225.493125 
L 293.720312 227.383125 
L 293.720312 229.273125 
L 293.720312 231.163125 
L 293.720312 233.053125 
L 293.720312 234.943125 
L 293.720312 236.833125 
L 293.720312 238.723125 
L 293.720312 240.613125 
L 293.720312 242.503125 
L 293.720312 244.393125 
L 293.720312 246.283125 
L 293.720312 248.173125 
L 293.720312 250.063125 
L 293.720312 251.953125 
L 293.720312 253.843125 
L 293.720312 255.733125 
L 293.720312 257.623125 
L 293.720312 259.513125 
L 293.720312 261.403125 
L 293.720312 263.293125 
L 293.720312 265.183125 
L 293.720312 267.073125 
L 293.720312 268.963125 
L 293.720312 270.853125 
L 293.720312 272.743125 
L 293.720312 274.633125 
L 293.720312 276.523125 
L 293.720312 278.413125 
L 293.720312 280.303125 
L 293.720312 282.193125 
" clip-path="url(#pf1bce5b16c)" style="fill: none; stroke: #9e9ac8; stroke-width: 2; stroke-linecap: square"/>
   </g>
   <g id="line2d_31">
    <path d="M 293.720312 344.563125 
L 293.720312 341.413125 
L 293.720312 338.263125 
L 293.720312 335.113125 
L 293.720312 331.963125 
L 293.720312 328.813125 
L 293.720312 325.663125 
L 293.720312 322.513125 
L 293.720312 319.363125 
L 293.720312 316.213125 
L 293.720312 313.063125 
L 293.720312 309.913125 
L 293.720312 306.763125 
L 293.720312 303.613125 
L 293.720312 300.463125 
L 293.720312 297.313125 
L 293.720312 294.163125 
L 293.720312 291.013125 
L 293.720312 287.863125 
L 293.720312 284.713125 
L 293.720312 281.563125 
L 293.720312 278.413125 
L 293.720312 275.263125 
L 293.720312 272.113125 
L 293.720312 268.963125 
L 293.720312 265.813125 
L 293.720312 262.663125 
L 293.720312 259.513125 
L 293.720312 256.363125 
L 293.720312 253.213125 
L 293.720312 250.063125 
L 293.720312 246.913125 
L 293.720312 243.763125 
L 293.720312 240.613125 
L 293.720312 237.463125 
L 293.720312 234.313125 
L 293.720312 231.163125 
L 293.720312 228.013125 
L 293.720312 224.863125 
L 293.720312 221.713125 
L 293.720312 218.563125 
L 293.720312 215.413125 
L 293.720312 212.263125 
L 293.720312 209.113125 
L 293.720312 205.963125 
L 293.720312 202.813125 
L 293.720312 199.663125 
L 293.720312 196.513125 
L 293.720312 193.363125 
L 293.720312 190.213125 
L 293.720312 187.063125 
L 293.720312 183.913125 
L 293.720312 180.763125 
L 293.720312 177.613125 
L 293.720312 174.463125 
L 293.720312 171.313125 
L 293.720312 168.163125 
L 293.720312 165.013125 
L 293.720312 161.863125 
L 293.720312 158.713125 
L 293.720312 155.563125 
L 293.720312 152.413125 
L 293.720312 149.263125 
L 293.720312 146.113125 
L 293.720312 142.963125 
L 293.720312 139.813125 
L 293.720312 136.663125 
L 293.720312 133.513125 
L 293.720312 130.363125 
L 293.720312 127.213125 
L 293.720312 124.063125 
L 293.720312 120.913125 
L 293.720312 117.763125 
L 293.720312 114.613125 
L 293.720312 111.463125 
L 293.720312 108.313125 
L 293.720312 105.163125 
L 293.720312 102.013125 
L 293.720312 98.863125 
L 293.720312 95.713125 
L 293.720312 92.563125 
L 293.720312 89.413125 
L 293.720312 86.263125 
L 293.720312 83.113125 
L 293.720312 79.963125 
L 293.720312 76.813125 
L 293.720312 73.663125 
L 293.720312 70.513125 
L 293.720312 67.363125 
L 293.720312 64.213125 
L 293.720312 61.063125 
L 293.720312 57.913125 
L 293.720312 54.763125 
L 293.720312 51.613125 
L 293.720312 48.463125 
L 293.720312 45.313125 
L 293.720312 42.163125 
L 293.720312 39.013125 
L 293.720312 35.863125 
L 293.720312 32.713125 
" clip-path="url(#pf1bce5b16c)" style="fill: none; stroke: #08519c; stroke-width: 3; stroke-linecap: square"/>
   </g>
   <g id="line2d_32">
    <path d="M 293.720312 354.958125 
L 293.720312 22.318125 
" clip-path="url(#pf1bce5b16c)" style="fill: none; stroke-dasharray: 5.18,2.24; stroke-dashoffset: 0; stroke: #2b2b2b; stroke-width: 1.4"/>
   </g>
   <g id="patch_3">
    <path d="M 42.620313 354.958125 
L 42.620313 22.318125 
" style="fill: none; opacity: 0.35; stroke: #000000; stroke-width: 0.8; stroke-linejoin: miter; stroke-linecap: square"/>
   </g>
   <g id="patch_4">
    <path d="M 544.820312 354.958125 
L 544.820312 22.318125 
" style="fill: none; opacity: 0.35; stroke: #000000; stroke-width: 0.8; stroke-linejoin: miter; stroke-linecap: square"/>
   </g>
   <g id="patch_5">
    <path d="M 42.620313 354.958125 
L 544.820312 354.958125 
" style="fill: none; opacity: 0.35; stroke: #000000; stroke-width: 0.8; stroke-linejoin: miter; stroke-linecap: square"/>
   </g>
   <g id="patch_6">
    <path d="M 42.620313 22.318125 
L 544.820312 22.318125 
" style="fill: none; opacity: 0.35; stroke: #000000; stroke-width: 0.8; stroke-linejoin: miter; stroke-linecap: square"/>
   </g>
   <g id="text_16">
    <!-- Re=1/2 -->
    <g transform="translate(303.764313 53.503125) scale(0.1 -0.1)">
     <defs>
      <path id="DejaVuSans-3d" d="M 678 2906 
L 4684 2906 
L 4684 2381 
L 678 2381 
L 678 2906 
z
M 678 1631 
L 4684 1631 
L 4684 1100 
L 678 1100 
L 678 1631 
z
" transform="scale(0.015625)"/>
     </defs>
     <use xlink:href="#DejaVuSans-52"/>
     <use xlink:href="#DejaVuSans-65" transform="translate(64.982422 0)"/>
     <use xlink:href="#DejaVuSans-3d" transform="translate(126.505859 0)"/>
     <use xlink:href="#DejaVuSans-31" transform="translate(210.294922 0)"/>
     <use xlink:href="#DejaVuSans-2f" transform="translate(273.917969 0)"/>
     <use xlink:href="#DejaVuSans-32" transform="translate(307.609375 0)"/>
    </g>
   </g>
   <g id="text_17">
    <!-- Quaternionic critical slices: q_u(t)=1/2 + u t -->
    <g transform="translate(161.558125 16.318125) scale(0.12 -0.12)">
     <defs>
      <path id="DejaVuSans-51" d="M 2522 4238 
Q 1834 4238 1429 3725 
Q 1025 3213 1025 2328 
Q 1025 1447 1429 934 
Q 1834 422 2522 422 
Q 3209 422 3611 934 
Q 4013 1447 4013 2328 
Q 4013 3213 3611 3725 
Q 3209 4238 2522 4238 
z
M 3406 84 
L 4238 -825 
L 3475 -825 
L 2784 -78 
Q 2681 -84 2626 -87 
Q 2572 -91 2522 -91 
Q 1538 -91 948 567 
Q 359 1225 359 2328 
Q 359 3434 948 4092 
Q 1538 4750 2522 4750 
Q 3503 4750 4090 4092 
Q 4678 3434 4678 2328 
Q 4678 1516 4351 937 
Q 4025 359 3406 84 
z
" transform="scale(0.015625)"/>
      <path id="DejaVuSans-75" d="M 544 1381 
L 544 3500 
L 1119 3500 
L 1119 1403 
Q 1119 906 1312 657 
Q 1506 409 1894 409 
Q 2359 409 2629 706 
Q 2900 1003 2900 1516 
L 2900 3500 
L 3475 3500 
L 3475 0 
L 2900 0 
L 2900 538 
Q 2691 219 2414 64 
Q 2138 -91 1772 -91 
Q 1169 -91 856 284 
Q 544 659 544 1381 
z
M 1991 3584 
L 1991 3584 
z
" transform="scale(0.015625)"/>
      <path id="DejaVuSans-3a" d="M 750 794 
L 1409 794 
L 1409 0 
L 750 0 
L 750 794 
z
M 750 3309 
L 1409 3309 
L 1409 2516 
L 750 2516 
L 750 3309 
z
" transform="scale(0.015625)"/>
      <path id="DejaVuSans-71" d="M 947 1747 
Q 947 1113 1208 752 
Q 1469 391 1925 391 
Q 2381 391 2643 752 
Q 2906 1113 2906 1747 
Q 2906 2381 2643 2742 
Q 2381 3103 1925 3103 
Q 1469 3103 1208 2742 
Q 947 2381 947 1747 
z
M 2906 525 
Q 2725 213 2448 61 
Q 2172 -91 1784 -91 
Q 1150 -91 751 415 
Q 353 922 353 1747 
Q 353 2572 751 3078 
Q 1150 3584 1784 3584 
Q 2172 3584 2448 3432 
Q 2725 3281 2906 2969 
L 2906 3500 
L 3481 3500 
L 3481 -1331 
L 2906 -1331 
L 2906 525 
z
" transform="scale(0.015625)"/>
      <path id="DejaVuSans-5f" d="M 3263 -1063 
L 3263 -1509 
L -63 -1509 
L -63 -1063 
L 3263 -1063 
z
" transform="scale(0.015625)"/>
      <path id="DejaVuSans-28" d="M 1984 4856 
Q 1566 4138 1362 3434 
Q 1159 2731 1159 2009 
Q 1159 1288 1364 580 
Q 1569 -128 1984 -844 
L 1484 -844 
Q 1016 -109 783 600 
Q 550 1309 550 2009 
Q 550 2706 781 3412 
Q 1013 4119 1484 4856 
L 1984 4856 
z
" transform="scale(0.015625)"/>
      <path id="DejaVuSans-29" d="M 513 4856 
L 1013 4856 
Q 1481 4119 1714 3412 
Q 1947 2706 1947 2009 
Q 1947 1309 1714 600 
Q 1481 -109 1013 -844 
L 513 -844 
Q 928 -128 1133 580 
Q 1338 1288 1338 2009 
Q 1338 2731 1133 3434 
Q 928 4138 513 4856 
z
" transform="scale(0.015625)"/>
      <path id="DejaVuSans-2b" d="M 2944 4013 
L 2944 2272 
L 4684 2272 
L 4684 1741 
L 2944 1741 
L 2944 0 
L 2419 0 
L 2419 1741 
L 678 1741 
L 678 2272 
L 2419 2272 
L 2419 4013 
L 2944 4013 
z
" transform="scale(0.015625)"/>
     </defs>
     <use xlink:href="#DejaVuSans-51"/>
     <use xlink:href="#DejaVuSans-75" transform="translate(78.710938 0)"/>
     <use xlink:href="#DejaVuSans-61" transform="translate(142.089844 0)"/>
     <use xlink:href="#DejaVuSans-74" transform="translate(203.369141 0)"/>
     <use xlink:href="#DejaVuSans-65" transform="translate(242.578125 0)"/>
     <use xlink:href="#DejaVuSans-72" transform="translate(304.101562 0)"/>
     <use xlink:href="#DejaVuSans-6e" transform="translate(343.464844 0)"/>
     <use xlink:href="#DejaVuSans-69" transform="translate(406.84375 0)"/>
     <use xlink:href="#DejaVuSans-6f" transform="translate(434.626953 0)"/>
     <use xlink:href="#DejaVuSans-6e" transform="translate(495.808594 0)"/>
     <use xlink:href="#DejaVuSans-69" transform="translate(559.1875 0)"/>
     <use xlink:href="#DejaVuSans-63" transform="translate(586.970703 0)"/>
     <use xlink:href="#DejaVuSans-20" transform="translate(641.951172 0)"/>
     <use xlink:href="#DejaVuSans-63" transform="translate(673.738281 0)"/>
     <use xlink:href="#DejaVuSans-72" transform="translate(728.71875 0)"/>
     <use xlink:href="#DejaVuSans-69" transform="translate(769.832031 0)"/>
     <use xlink:href="#DejaVuSans-74" transform="translate(797.615234 0)"/>
     <use xlink:href="#DejaVuSans-69" transform="translate(836.824219 0)"/>
     <use xlink:href="#DejaVuSans-63" transform="translate(864.607422 0)"/>
     <use xlink:href="#DejaVuSans-61" transform="translate(919.587891 0)"/>
     <use xlink:href="#DejaVuSans-6c" transform="translate(980.867188 0)"/>
     <use xlink:href="#DejaVuSans-20" transform="translate(1008.650391 0)"/>
     <use xlink:href="#DejaVuSans-73" transform="translate(1040.4375 0)"/>
     <use xlink:href="#DejaVuSans-6c" transform="translate(1092.537109 0)"/>
     <use xlink:href="#DejaVuSans-69" transform="translate(1120.320312 0)"/>
     <use xlink:href="#DejaVuSans-63" transform="translate(1148.103516 0)"/>
     <use xlink:href="#DejaVuSans-65" transform="translate(1203.083984 0)"/>
     <use xlink:href="#DejaVuSans-73" transform="translate(1264.607422 0)"/>
     <use xlink:href="#DejaVuSans-3a" transform="translate(1316.707031 0)"/>
     <use xlink:href="#DejaVuSans-20" transform="translate(1350.398438 0)"/>
     <use xlink:href="#DejaVuSans-71" transform="translate(1382.185547 0)"/>
     <use xlink:href="#DejaVuSans-5f" transform="translate(1445.662109 0)"/>
     <use xlink:href="#DejaVuSans-75" transform="translate(1495.662109 0)"/>
     <use xlink:href="#DejaVuSans-28" transform="translate(1559.041016 0)"/>
     <use xlink:href="#DejaVuSans-74" transform="translate(1598.054688 0)"/>
     <use xlink:href="#DejaVuSans-29" transform="translate(1637.263672 0)"/>
     <use xlink:href="#DejaVuSans-3d" transform="translate(1676.277344 0)"/>
     <use xlink:href="#DejaVuSans-31" transform="translate(1760.066406 0)"/>
     <use xlink:href="#DejaVuSans-2f" transform="translate(1823.689453 0)"/>
     <use xlink:href="#DejaVuSans-32" transform="translate(1857.380859 0)"/>
     <use xlink:href="#DejaVuSans-20" transform="translate(1921.003906 0)"/>
     <use xlink:href="#DejaVuSans-2b" transform="translate(1952.791016 0)"/>
     <use xlink:href="#DejaVuSans-20" transform="translate(2036.580078 0)"/>
     <use xlink:href="#DejaVuSans-75" transform="translate(2068.367188 0)"/>
     <use xlink:href="#DejaVuSans-20" transform="translate(2131.746094 0)"/>
     <use xlink:href="#DejaVuSans-74" transform="translate(2163.533203 0)"/>
    </g>
   </g>
   <g id="legend_1">
    <g id="patch_7">
     <path d="M 415.685937 44.99625 
L 537.820312 44.99625 
Q 539.820312 44.99625 539.820312 42.99625 
L 539.820312 29.318125 
Q 539.820312 27.318125 537.820312 27.318125 
L 415.685937 27.318125 
Q 413.685937 27.318125 413.685937 29.318125 
L 413.685937 42.99625 
Q 413.685937 44.99625 415.685937 44.99625 
z
" style="fill: #ffffff; opacity: 0.8; stroke: #cccccc; stroke-linejoin: miter"/>
    </g>
    <g id="line2d_33">
     <path d="M 417.685937 35.416563 
L 427.685937 35.416563 
L 437.685937 35.416563 
" style="fill: none; stroke: #08519c; stroke-width: 3; stroke-linecap: square"/>
    </g>
    <g id="text_18">
     <!-- Complex slice u=i -->
     <g transform="translate(445.685937 38.916563) scale(0.1 -0.1)">
      <defs>
       <path id="DejaVuSans-43" d="M 4122 4306 
L 4122 3641 
Q 3803 3938 3442 4084 
Q 3081 4231 2675 4231 
Q 1875 4231 1450 3742 
Q 1025 3253 1025 2328 
Q 1025 1406 1450 917 
Q 1875 428 2675 428 
Q 3081 428 3442 575 
Q 3803 722 4122 1019 
L 4122 359 
Q 3791 134 3420 21 
Q 3050 -91 2638 -91 
Q 1578 -91 968 557 
Q 359 1206 359 2328 
Q 359 3453 968 4101 
Q 1578 4750 2638 4750 
Q 3056 4750 3426 4639 
Q 3797 4528 4122 4306 
z
" transform="scale(0.015625)"/>
       <path id="DejaVuSans-78" d="M 3513 3500 
L 2247 1797 
L 3578 0 
L 2900 0 
L 1881 1375 
L 863 0 
L 184 0 
L 1544 1831 
L 300 3500 
L 978 3500 
L 1906 2253 
L 2834 3500 
L 3513 3500 
z
" transform="scale(0.015625)"/>
      </defs>
      <use xlink:href="#DejaVuSans-43"/>
      <use xlink:href="#DejaVuSans-6f" transform="translate(69.824219 0)"/>
      <use xlink:href="#DejaVuSans-6d" transform="translate(131.005859 0)"/>
      <use xlink:href="#DejaVuSans-70" transform="translate(228.417969 0)"/>
      <use xlink:href="#DejaVuSans-6c" transform="translate(291.894531 0)"/>
      <use xlink:href="#DejaVuSans-65" transform="translate(319.677734 0)"/>
      <use xlink:href="#DejaVuSans-78" transform="translate(379.451172 0)"/>
      <use xlink:href="#DejaVuSans-20" transform="translate(438.630859 0)"/>
      <use xlink:href="#DejaVuSans-73" transform="translate(470.417969 0)"/>
      <use xlink:href="#DejaVuSans-6c" transform="translate(522.517578 0)"/>
      <use xlink:href="#DejaVuSans-69" transform="translate(550.300781 0)"/>
      <use xlink:href="#DejaVuSans-63" transform="translate(578.083984 0)"/>
      <use xlink:href="#DejaVuSans-65" transform="translate(633.064453 0)"/>
      <use xlink:href="#DejaVuSans-20" transform="translate(694.587891 0)"/>
      <use xlink:href="#DejaVuSans-75" transform="translate(726.375 0)"/>
      <use xlink:href="#DejaVuSans-3d" transform="translate(789.753906 0)"/>
      <use xlink:href="#DejaVuSans-69" transform="translate(873.542969 0)"/>
     </g>
    </g>
   </g>
  </g>
 </g>
 <defs>
  <clipPath id="pf1bce5b16c">
   <rect x="42.620313" y="22.318125" width="502.2" height="332.64"/>
  </clipPath>
 </defs>
</svg>
