<?xml version="1.0" encoding="utf-8" standalone="no"?>
<!DOCTYPE svg PUBLIC "-//W3C//DTD SVG 1.1//EN"
  "http://www.w3.org/Graphics/SVG/1.1/DTD/svg11.dtd">
<svg xmlns:xlink="http://www.w3.org/1999/xlink" width="427.268844pt" height="440.714237pt" viewBox="0 0 427.268844 440.714237" xmlns="http://www.w3.org/2000/svg" version="1.1">
 <metadata>
  <rdf:RDF xmlns:dc="http://purl.org/dc/elements/1.1/" xmlns:cc="http://creativecommons.org/ns#" xmlns:rdf="http://www.w3.org/1999/02/22-rdf-syntax-ns#">
   <cc:Work>
    <dc:type rdf:resource="http://purl.org/dc/dcmitype/StillImage"/>
    <dc:date>2026-04-26T20:33:13.960251</dc:date>
    <dc:format>image/svg+xml</dc:format>
    <dc:creator>
     <cc:Agent>
      <dc:title>Matplotlib v3.10.9, https://matplotlib.org/</dc:title>
     </cc:Agent>
    </dc:creator>
   </cc:Work>
  </rdf:RDF>
 </metadata>
 <defs>
  <style type="text/css">*{stroke-linejoin: round; stroke-linecap: butt}</style>
 </defs>
 <g id="figure_1">
  <g id="patch_1">
   <path d="M 0 440.714237 
L 427.268844 440.714237 
L 427.268844 0 
L 0 0 
z
" style="fill: #ffffff"/>
  </g>
  <g id="patch_2">
   <path d="M 7.2 432.576 
L 417.456 432.576 
L 417.456 22.32 
L 7.2 22.32 
z
" style="fill: #ffffff"/>
  </g>
  <g id="pane3d_1">
   <g id="patch_3">
    <path d="M 38.177157 331.420018 
L 173.657087 217.858055 
L 171.773786 54.081403 
L 29.810443 157.679784 
" style="fill: #f2f2f2; opacity: 0.5; stroke: #f2f2f2; stroke-linejoin: miter"/>
   </g>
  </g>
  <g id="pane3d_2">
   <g id="patch_4">
    <path d="M 173.657087 217.858055 
L 391.054034 281.046765 
L 398.812165 111.629013 
L 171.773786 54.081403 
" style="fill: #e6e6e6; opacity: 0.5; stroke: #e6e6e6; stroke-linejoin: miter"/>
   </g>
  </g>
  <g id="pane3d_3">
   <g id="patch_5">
    <path d="M 38.177157 331.420018 
L 268.62854 406.685439 
L 391.054034 281.046765 
L 173.657087 217.858055 
" style="fill: #ececec; opacity: 0.5; stroke: #ececec; stroke-linejoin: miter"/>
   </g>
  </g>
  <g id="grid3d_1">
   <g id="Line3DCollection_1">
    <path d="M 38.177157 331.420018 
L 173.657087 217.858055 
L 171.773786 54.081403 
" style="fill: none; stroke: #b0b0b0; stroke-width: 0.8"/>
    <path d="M 74.927259 343.422601 
L 208.454244 227.972214 
L 208.049786 63.276311 
" style="fill: none; stroke: #b0b0b0; stroke-width: 0.8"/>
    <path d="M 112.31763 355.634296 
L 243.807318 238.247957 
L 244.930427 72.624478 
" style="fill: none; stroke: #b0b0b0; stroke-width: 0.8"/>
    <path d="M 150.365151 368.060616 
L 279.729741 248.689187 
L 282.430952 82.129769 
" style="fill: none; stroke: #b0b0b0; stroke-width: 0.8"/>
    <path d="M 189.087298 380.70727 
L 316.235376 259.299934 
L 320.567124 91.796176 
" style="fill: none; stroke: #b0b0b0; stroke-width: 0.8"/>
    <path d="M 228.502175 393.580168 
L 353.338543 270.08436 
L 359.355241 101.627833 
" style="fill: none; stroke: #b0b0b0; stroke-width: 0.8"/>
    <path d="M 268.62854 406.685439 
L 391.054034 281.046765 
L 398.812165 111.629013 
" style="fill: none; stroke: #b0b0b0; stroke-width: 0.8"/>
   </g>
  </g>
  <g id="grid3d_2">
   <g id="Line3DCollection_2">
    <path d="M 49.686845 143.174891 
L 57.083953 315.571967 
L 285.778542 389.085318 
" style="fill: none; stroke: #b0b0b0; stroke-width: 0.8"/>
    <path d="M 77.27299 123.043779 
L 83.357689 293.5488 
L 309.575842 364.663433 
" style="fill: none; stroke: #b0b0b0; stroke-width: 0.8"/>
    <path d="M 103.950035 103.576087 
L 108.802455 272.220493 
L 332.583468 341.051949 
" style="fill: none; stroke: #b0b0b0; stroke-width: 0.8"/>
    <path d="M 129.762188 84.739553 
L 133.456873 251.554671 
L 354.840084 318.211187 
" style="fill: none; stroke: #b0b0b0; stroke-width: 0.8"/>
    <path d="M 154.750841 66.503972 
L 157.357205 231.520939 
L 376.38187 296.104014 
" style="fill: none; stroke: #b0b0b0; stroke-width: 0.8"/>
   </g>
  </g>
  <g id="grid3d_3">
   <g id="Line3DCollection_3">
    <path d="M 392.021977 259.909361 
L 173.421682 197.386678 
L 37.134824 309.775289 
" style="fill: none; stroke: #b0b0b0; stroke-width: 0.8"/>
    <path d="M 393.423674 229.299897 
L 173.081009 167.760823 
L 35.624624 278.41502 
" style="fill: none; stroke: #b0b0b0; stroke-width: 0.8"/>
    <path d="M 394.848117 198.193696 
L 172.735073 137.677347 
L 34.088975 246.526257 
" style="fill: none; stroke: #b0b0b0; stroke-width: 0.8"/>
    <path d="M 396.295865 166.578569 
L 172.383752 107.125564 
L 32.527225 214.095525 
" style="fill: none; stroke: #b0b0b0; stroke-width: 0.8"/>
    <path d="M 397.767496 134.441921 
L 172.026919 76.094454 
L 30.938706 181.108891 
" style="fill: none; stroke: #b0b0b0; stroke-width: 0.8"/>
   </g>
  </g>
  <g id="axis3d_1">
   <g id="line2d_1">
    <path d="M 38.177157 331.420018 
L 268.62854 406.685439 
" style="fill: none; stroke: #000000; stroke-width: 0.8; stroke-linecap: square"/>
   </g>
   <g id="xtick_1">
    <g id="line2d_2">
     <path d="M 39.356595 330.43139 
L 35.813236 333.401504 
" style="fill: none; stroke: #000000; stroke-width: 0.8; stroke-linecap: square"/>
    </g>
    <g id="text_1">
     <!-- 0.2 -->
     <g transform="translate(22.299928 355.026239) scale(0.105 -0.105)">
      <defs>
       <path id="DejaVuSans-30" d="M 2034 4250 
Q 1547 4250 1301 3770 
Q 1056 3291 1056 2328 
Q 1056 1369 1301 889 
Q 1547 409 2034 409 
Q 2525 409 2770 889 
Q 3016 1369 3016 2328 
Q 3016 3291 2770 3770 
Q 2525 4250 2034 4250 
z
M 2034 4750 
Q 2819 4750 3233 4129 
Q 3647 3509 3647 2328 
Q 3647 1150 3233 529 
Q 2819 -91 2034 -91 
Q 1250 -91 836 529 
Q 422 1150 422 2328 
Q 422 3509 836 4129 
Q 1250 4750 2034 4750 
z
" transform="scale(0.015625)"/>
       <path id="DejaVuSans-2e" d="M 684 794 
L 1344 794 
L 1344 0 
L 684 0 
L 684 794 
z
" transform="scale(0.015625)"/>
       <path id="DejaVuSans-32" d="M 1228 531 
L 3431 531 
L 3431 0 
L 469 0 
L 469 531 
Q 828 903 1448 1529 
Q 2069 2156 2228 2338 
Q 2531 2678 2651 2914 
Q 2772 3150 2772 3378 
Q 2772 3750 2511 3984 
Q 2250 4219 1831 4219 
Q 1534 4219 1204 4116 
Q 875 4013 500 3803 
L 500 4441 
Q 881 4594 1212 4672 
Q 1544 4750 1819 4750 
Q 2544 4750 2975 4387 
Q 3406 4025 3406 3419 
Q 3406 3131 3298 2873 
Q 3191 2616 2906 2266 
Q 2828 2175 2409 1742 
Q 1991 1309 1228 531 
z
" transform="scale(0.015625)"/>
      </defs>
      <use xlink:href="#DejaVuSans-30"/>
      <use xlink:href="#DejaVuSans-2e" transform="translate(63.623047 0)"/>
      <use xlink:href="#DejaVuSans-32" transform="translate(95.410156 0)"/>
     </g>
    </g>
   </g>
   <g id="xtick_2">
    <g id="line2d_3">
     <path d="M 76.090509 342.41683 
L 72.595741 345.438483 
" style="fill: none; stroke: #000000; stroke-width: 0.8; stroke-linecap: square"/>
    </g>
    <g id="text_2">
     <!-- 0.3 -->
     <g transform="translate(59.07383 367.193167) scale(0.105 -0.105)">
      <defs>
       <path id="DejaVuSans-33" d="M 2597 2516 
Q 3050 2419 3304 2112 
Q 3559 1806 3559 1356 
Q 3559 666 3084 287 
Q 2609 -91 1734 -91 
Q 1441 -91 1130 -33 
Q 819 25 488 141 
L 488 750 
Q 750 597 1062 519 
Q 1375 441 1716 441 
Q 2309 441 2620 675 
Q 2931 909 2931 1356 
Q 2931 1769 2642 2001 
Q 2353 2234 1838 2234 
L 1294 2234 
L 1294 2753 
L 1863 2753 
Q 2328 2753 2575 2939 
Q 2822 3125 2822 3475 
Q 2822 3834 2567 4026 
Q 2313 4219 1838 4219 
Q 1578 4219 1281 4162 
Q 984 4106 628 3988 
L 628 4550 
Q 988 4650 1302 4700 
Q 1616 4750 1894 4750 
Q 2613 4750 3031 4423 
Q 3450 4097 3450 3541 
Q 3450 3153 3228 2886 
Q 3006 2619 2597 2516 
z
" transform="scale(0.015625)"/>
      </defs>
      <use xlink:href="#DejaVuSans-30"/>
      <use xlink:href="#DejaVuSans-2e" transform="translate(63.623047 0)"/>
      <use xlink:href="#DejaVuSans-33" transform="translate(95.410156 0)"/>
     </g>
    </g>
   </g>
   <g id="xtick_3">
    <g id="line2d_4">
     <path d="M 113.463946 354.610932 
L 110.02001 357.685478 
" style="fill: none; stroke: #000000; stroke-width: 0.8; stroke-linecap: square"/>
    </g>
    <g id="text_3">
     <!-- 0.4 -->
     <g transform="translate(96.489981 379.572588) scale(0.105 -0.105)">
      <defs>
       <path id="DejaVuSans-34" d="M 2419 4116 
L 825 1625 
L 2419 1625 
L 2419 4116 
z
M 2253 4666 
L 3047 4666 
L 3047 1625 
L 3713 1625 
L 3713 1100 
L 3047 1100 
L 3047 0 
L 2419 0 
L 2419 1100 
L 313 1100 
L 313 1709 
L 2253 4666 
z
" transform="scale(0.015625)"/>
      </defs>
      <use xlink:href="#DejaVuSans-30"/>
      <use xlink:href="#DejaVuSans-2e" transform="translate(63.623047 0)"/>
      <use xlink:href="#DejaVuSans-34" transform="translate(95.410156 0)"/>
     </g>
    </g>
   </g>
   <g id="xtick_4">
    <g id="line2d_5">
     <path d="M 151.493756 367.019194 
L 148.102986 370.148033 
" style="fill: none; stroke: #000000; stroke-width: 0.8; stroke-linecap: square"/>
    </g>
    <g id="text_4">
     <!-- 0.5 -->
     <g transform="translate(134.565355 392.170118) scale(0.105 -0.105)">
      <defs>
       <path id="DejaVuSans-35" d="M 691 4666 
L 3169 4666 
L 3169 4134 
L 1269 4134 
L 1269 2991 
Q 1406 3038 1543 3061 
Q 1681 3084 1819 3084 
Q 2600 3084 3056 2656 
Q 3513 2228 3513 1497 
Q 3513 744 3044 326 
Q 2575 -91 1722 -91 
Q 1428 -91 1123 -41 
Q 819 9 494 109 
L 494 744 
Q 775 591 1075 516 
Q 1375 441 1709 441 
Q 2250 441 2565 725 
Q 2881 1009 2881 1497 
Q 2881 1984 2565 2268 
Q 2250 2553 1709 2553 
Q 1456 2553 1204 2497 
Q 953 2441 691 2322 
L 691 4666 
z
" transform="scale(0.015625)"/>
      </defs>
      <use xlink:href="#DejaVuSans-30"/>
      <use xlink:href="#DejaVuSans-2e" transform="translate(63.623047 0)"/>
      <use xlink:href="#DejaVuSans-35" transform="translate(95.410156 0)"/>
     </g>
    </g>
   </g>
   <g id="xtick_5">
    <g id="line2d_6">
     <path d="M 190.197381 379.647306 
L 186.862214 382.831891 
" style="fill: none; stroke: #000000; stroke-width: 0.8; stroke-linecap: square"/>
    </g>
    <g id="text_5">
     <!-- 0.6 -->
     <g transform="translate(173.317526 404.991572) scale(0.105 -0.105)">
      <defs>
       <path id="DejaVuSans-36" d="M 2113 2584 
Q 1688 2584 1439 2293 
Q 1191 2003 1191 1497 
Q 1191 994 1439 701 
Q 1688 409 2113 409 
Q 2538 409 2786 701 
Q 3034 994 3034 1497 
Q 3034 2003 2786 2293 
Q 2538 2584 2113 2584 
z
M 3366 4563 
L 3366 3988 
Q 3128 4100 2886 4159 
Q 2644 4219 2406 4219 
Q 1781 4219 1451 3797 
Q 1122 3375 1075 2522 
Q 1259 2794 1537 2939 
Q 1816 3084 2150 3084 
Q 2853 3084 3261 2657 
Q 3669 2231 3669 1497 
Q 3669 778 3244 343 
Q 2819 -91 2113 -91 
Q 1303 -91 875 529 
Q 447 1150 447 2328 
Q 447 3434 972 4092 
Q 1497 4750 2381 4750 
Q 2619 4750 2861 4703 
Q 3103 4656 3366 4563 
z
" transform="scale(0.015625)"/>
      </defs>
      <use xlink:href="#DejaVuSans-30"/>
      <use xlink:href="#DejaVuSans-2e" transform="translate(63.623047 0)"/>
      <use xlink:href="#DejaVuSans-36" transform="translate(95.410156 0)"/>
     </g>
    </g>
   </g>
   <g id="xtick_6">
    <g id="line2d_7">
     <path d="M 229.592891 392.501165 
L 226.315869 395.742997 
" style="fill: none; stroke: #000000; stroke-width: 0.8; stroke-linecap: square"/>
    </g>
    <g id="text_6">
     <!-- 0.7 -->
     <g transform="translate(212.764704 418.042973) scale(0.105 -0.105)">
      <defs>
       <path id="DejaVuSans-37" d="M 525 4666 
L 3525 4666 
L 3525 4397 
L 1831 0 
L 1172 0 
L 2766 4134 
L 525 4134 
L 525 4666 
z
" transform="scale(0.015625)"/>
      </defs>
      <use xlink:href="#DejaVuSans-30"/>
      <use xlink:href="#DejaVuSans-2e" transform="translate(63.623047 0)"/>
      <use xlink:href="#DejaVuSans-37" transform="translate(95.410156 0)"/>
     </g>
    </g>
   </g>
   <g id="xtick_7">
    <g id="line2d_8">
     <path d="M 269.699005 405.586878 
L 266.482781 408.887515 
" style="fill: none; stroke: #000000; stroke-width: 0.8; stroke-linecap: square"/>
    </g>
    <g id="text_7">
     <!-- 0.8 -->
     <g transform="translate(252.925754 431.330565) scale(0.105 -0.105)">
      <defs>
       <path id="DejaVuSans-38" d="M 2034 2216 
Q 1584 2216 1326 1975 
Q 1069 1734 1069 1313 
Q 1069 891 1326 650 
Q 1584 409 2034 409 
Q 2484 409 2743 651 
Q 3003 894 3003 1313 
Q 3003 1734 2745 1975 
Q 2488 2216 2034 2216 
z
M 1403 2484 
Q 997 2584 770 2862 
Q 544 3141 544 3541 
Q 544 4100 942 4425 
Q 1341 4750 2034 4750 
Q 2731 4750 3128 4425 
Q 3525 4100 3525 3541 
Q 3525 3141 3298 2862 
Q 3072 2584 2669 2484 
Q 3125 2378 3379 2068 
Q 3634 1759 3634 1313 
Q 3634 634 3220 271 
Q 2806 -91 2034 -91 
Q 1263 -91 848 271 
Q 434 634 434 1313 
Q 434 1759 690 2068 
Q 947 2378 1403 2484 
z
M 1172 3481 
Q 1172 3119 1398 2916 
Q 1625 2713 2034 2713 
Q 2441 2713 2670 2916 
Q 2900 3119 2900 3481 
Q 2900 3844 2670 4047 
Q 2441 4250 2034 4250 
Q 1625 4250 1398 4047 
Q 1172 3844 1172 3481 
z
" transform="scale(0.015625)"/>
      </defs>
      <use xlink:href="#DejaVuSans-30"/>
      <use xlink:href="#DejaVuSans-2e" transform="translate(63.623047 0)"/>
      <use xlink:href="#DejaVuSans-38" transform="translate(95.410156 0)"/>
     </g>
    </g>
   </g>
   <g id="text_8">
    <!-- $\Re(q)$ -->
    <g transform="translate(122.095652 402.340118) rotate(-341.912962) scale(0.105 -0.105)">
     <defs>
      <path id="DejaVuSans-Oblique-211c" d="M 4006 -91 
Q 3750 481 3750 978 
Q 3750 1416 3681 1700 
Q 3556 2219 3309 2219 
Q 3178 2219 2891 2084 
L 2516 1909 
L 2516 1288 
Q 2516 644 2194 275 
Q 1872 -91 1434 -91 
Q 994 -91 675 275 
Q 353 644 353 1194 
Q 494 1156 638 1119 
Q 638 738 838 469 
Q 1038 197 1263 197 
Q 1488 197 1684 469 
Q 1884 741 1884 1209 
L 1884 3294 
Q 1884 3759 1684 4034 
Q 1488 4306 1200 4306 
Q 947 4306 744 4034 
Q 544 3766 544 3450 
Q 544 3134 744 2866 
Q 944 2594 1203 2594 
L 1372 2306 
Q 900 2306 581 2672 
Q 259 3041 259 3528 
Q 259 4019 581 4384 
Q 900 4750 1372 4750 
Q 1878 4750 2194 4384 
Q 2288 4275 2338 4175 
L 2997 4481 
Q 3581 4753 3931 4753 
Q 4078 4753 4191 4709 
Q 4584 4556 4584 4003 
Q 4584 3731 4381 3347 
Q 4175 2959 3784 2666 
Q 3966 2666 4119 2513 
Q 4231 2400 4316 2075 
Q 4416 1691 4416 1281 
Q 4416 881 4556 513 
L 5006 722 
L 5138 438 
L 4006 -91 
z
M 2450 3897 
Q 2516 3663 2516 3375 
L 2516 2241 
L 2997 2463 
Q 3447 2672 3688 2997 
Q 3919 3316 3919 3694 
Q 3919 4166 3688 4266 
Q 3613 4297 3516 4297 
Q 3316 4297 2997 4150 
L 2450 3897 
z
" transform="scale(0.015625)"/>
      <path id="DejaVuSans-28" d="M 1984 4856 
Q 1566 4138 1362 3434 
Q 1159 2731 1159 2009 
Q 1159 1288 1364 580 
Q 1569 -128 1984 -844 
L 1484 -844 
Q 1016 -109 783 600 
Q 550 1309 550 2009 
Q 550 2706 781 3412 
Q 1013 4119 1484 4856 
L 1984 4856 
z
" transform="scale(0.015625)"/>
      <path id="DejaVuSans-Oblique-71" d="M 2669 525 
Q 2438 222 2123 65 
Q 1809 -91 1428 -91 
Q 897 -91 595 267 
Q 294 625 294 1253 
Q 294 1759 480 2231 
Q 666 2703 1013 3078 
Q 1238 3322 1530 3453 
Q 1822 3584 2144 3584 
Q 2531 3584 2781 3431 
Q 3031 3278 3144 2969 
L 3244 3494 
L 3822 3494 
L 2888 -1319 
L 2309 -1319 
L 2669 525 
z
M 891 1338 
Q 891 875 1084 633 
Q 1278 391 1644 391 
Q 2188 391 2572 911 
Q 2956 1431 2956 2175 
Q 2956 2625 2757 2864 
Q 2559 3103 2188 3103 
Q 1916 3103 1684 2976 
Q 1453 2850 1281 2606 
Q 1100 2350 995 2006 
Q 891 1663 891 1338 
z
" transform="scale(0.015625)"/>
      <path id="DejaVuSans-29" d="M 513 4856 
L 1013 4856 
Q 1481 4119 1714 3412 
Q 1947 2706 1947 2009 
Q 1947 1309 1714 600 
Q 1481 -109 1013 -844 
L 513 -844 
Q 928 -128 1133 580 
Q 1338 1288 1338 2009 
Q 1338 2731 1133 3434 
Q 928 4138 513 4856 
z
" transform="scale(0.015625)"/>
     </defs>
     <use xlink:href="#DejaVuSans-Oblique-211c" transform="translate(0 0.125)"/>
     <use xlink:href="#DejaVuSans-28" transform="translate(81.396484 0.125)"/>
     <use xlink:href="#DejaVuSans-Oblique-71" transform="translate(120.410156 0.125)"/>
     <use xlink:href="#DejaVuSans-29" transform="translate(183.886719 0.125)"/>
    </g>
   </g>
  </g>
  <g id="axis3d_2">
   <g id="line2d_9">
    <path d="M 391.054034 281.046765 
L 268.62854 406.685439 
" style="fill: none; stroke: #000000; stroke-width: 0.8; stroke-linecap: square"/>
   </g>
   <g id="xtick_8">
    <g id="line2d_10">
     <path d="M 283.851923 388.466011 
L 289.636732 390.325524 
" style="fill: none; stroke: #000000; stroke-width: 0.8; stroke-linecap: square"/>
    </g>
    <g id="text_9">
     <!-- −2 -->
     <g transform="translate(290.841381 410.398603) scale(0.105 -0.105)">
      <defs>
       <path id="DejaVuSans-2212" d="M 678 2272 
L 4684 2272 
L 4684 1741 
L 678 1741 
L 678 2272 
z
" transform="scale(0.015625)"/>
      </defs>
      <use xlink:href="#DejaVuSans-2212"/>
      <use xlink:href="#DejaVuSans-32" transform="translate(83.789062 0)"/>
     </g>
    </g>
   </g>
   <g id="xtick_9">
    <g id="line2d_11">
     <path d="M 307.671705 364.064843 
L 313.388929 365.862127 
" style="fill: none; stroke: #000000; stroke-width: 0.8; stroke-linecap: square"/>
    </g>
    <g id="text_10">
     <!-- −1 -->
     <g transform="translate(314.43163 385.742385) scale(0.105 -0.105)">
      <defs>
       <path id="DejaVuSans-31" d="M 794 531 
L 1825 531 
L 1825 4091 
L 703 3866 
L 703 4441 
L 1819 4666 
L 2450 4666 
L 2450 531 
L 3481 531 
L 3481 0 
L 794 0 
L 794 531 
z
" transform="scale(0.015625)"/>
      </defs>
      <use xlink:href="#DejaVuSans-2212"/>
      <use xlink:href="#DejaVuSans-31" transform="translate(83.789062 0)"/>
     </g>
    </g>
   </g>
   <g id="xtick_10">
    <g id="line2d_12">
     <path d="M 330.701393 340.473053 
L 336.352294 342.21118 
" style="fill: none; stroke: #000000; stroke-width: 0.8; stroke-linecap: square"/>
    </g>
    <g id="text_11">
     <!-- 0 -->
     <g transform="translate(341.638119 361.904649) scale(0.105 -0.105)">
      <use xlink:href="#DejaVuSans-30"/>
     </g>
    </g>
   </g>
   <g id="xtick_11">
    <g id="line2d_13">
     <path d="M 352.979657 317.651029 
L 358.565484 319.332871 
" style="fill: none; stroke: #000000; stroke-width: 0.8; stroke-linecap: square"/>
    </g>
    <g id="text_12">
     <!-- 1 -->
     <g transform="translate(363.700532 338.845305) scale(0.105 -0.105)">
      <use xlink:href="#DejaVuSans-31"/>
     </g>
    </g>
   </g>
   <g id="xtick_12">
    <g id="line2d_14">
     <path d="M 374.542683 295.561699 
L 380.064668 297.189948 
" style="fill: none; stroke: #000000; stroke-width: 0.8; stroke-linecap: square"/>
    </g>
    <g id="text_13">
     <!-- 2 -->
     <g transform="translate(385.054098 316.526839) scale(0.105 -0.105)">
      <use xlink:href="#DejaVuSans-32"/>
     </g>
    </g>
   </g>
   <g id="text_14">
    <!-- $i$-axis component -->
    <g transform="translate(330.025923 403.478961) rotate(-45.742112) scale(0.105 -0.105)">
     <defs>
      <path id="DejaVuSans-Oblique-69" d="M 1172 4863 
L 1747 4863 
L 1606 4134 
L 1031 4134 
L 1172 4863 
z
M 909 3500 
L 1484 3500 
L 800 0 
L 225 0 
L 909 3500 
z
" transform="scale(0.015625)"/>
      <path id="DejaVuSans-2d" d="M 313 2009 
L 1997 2009 
L 1997 1497 
L 313 1497 
L 313 2009 
z
" transform="scale(0.015625)"/>
      <path id="DejaVuSans-61" d="M 2194 1759 
Q 1497 1759 1228 1600 
Q 959 1441 959 1056 
Q 959 750 1161 570 
Q 1363 391 1709 391 
Q 2188 391 2477 730 
Q 2766 1069 2766 1631 
L 2766 1759 
L 2194 1759 
z
M 3341 1997 
L 3341 0 
L 2766 0 
L 2766 531 
Q 2569 213 2275 61 
Q 1981 -91 1556 -91 
Q 1019 -91 701 211 
Q 384 513 384 1019 
Q 384 1609 779 1909 
Q 1175 2209 1959 2209 
L 2766 2209 
L 2766 2266 
Q 2766 2663 2505 2880 
Q 2244 3097 1772 3097 
Q 1472 3097 1187 3025 
Q 903 2953 641 2809 
L 641 3341 
Q 956 3463 1253 3523 
Q 1550 3584 1831 3584 
Q 2591 3584 2966 3190 
Q 3341 2797 3341 1997 
z
" transform="scale(0.015625)"/>
      <path id="DejaVuSans-78" d="M 3513 3500 
L 2247 1797 
L 3578 0 
L 2900 0 
L 1881 1375 
L 863 0 
L 184 0 
L 1544 1831 
L 300 3500 
L 978 3500 
L 1906 2253 
L 2834 3500 
L 3513 3500 
z
" transform="scale(0.015625)"/>
      <path id="DejaVuSans-69" d="M 603 3500 
L 1178 3500 
L 1178 0 
L 603 0 
L 603 3500 
z
M 603 4863 
L 1178 4863 
L 1178 4134 
L 603 4134 
L 603 4863 
z
" transform="scale(0.015625)"/>
      <path id="DejaVuSans-73" d="M 2834 3397 
L 2834 2853 
Q 2591 2978 2328 3040 
Q 2066 3103 1784 3103 
Q 1356 3103 1142 2972 
Q 928 2841 928 2578 
Q 928 2378 1081 2264 
Q 1234 2150 1697 2047 
L 1894 2003 
Q 2506 1872 2764 1633 
Q 3022 1394 3022 966 
Q 3022 478 2636 193 
Q 2250 -91 1575 -91 
Q 1294 -91 989 -36 
Q 684 19 347 128 
L 347 722 
Q 666 556 975 473 
Q 1284 391 1588 391 
Q 1994 391 2212 530 
Q 2431 669 2431 922 
Q 2431 1156 2273 1281 
Q 2116 1406 1581 1522 
L 1381 1569 
Q 847 1681 609 1914 
Q 372 2147 372 2553 
Q 372 3047 722 3315 
Q 1072 3584 1716 3584 
Q 2034 3584 2315 3537 
Q 2597 3491 2834 3397 
z
" transform="scale(0.015625)"/>
      <path id="DejaVuSans-20" transform="scale(0.015625)"/>
      <path id="DejaVuSans-63" d="M 3122 3366 
L 3122 2828 
Q 2878 2963 2633 3030 
Q 2388 3097 2138 3097 
Q 1578 3097 1268 2742 
Q 959 2388 959 1747 
Q 959 1106 1268 751 
Q 1578 397 2138 397 
Q 2388 397 2633 464 
Q 2878 531 3122 666 
L 3122 134 
Q 2881 22 2623 -34 
Q 2366 -91 2075 -91 
Q 1284 -91 818 406 
Q 353 903 353 1747 
Q 353 2603 823 3093 
Q 1294 3584 2113 3584 
Q 2378 3584 2631 3529 
Q 2884 3475 3122 3366 
z
" transform="scale(0.015625)"/>
      <path id="DejaVuSans-6f" d="M 1959 3097 
Q 1497 3097 1228 2736 
Q 959 2375 959 1747 
Q 959 1119 1226 758 
Q 1494 397 1959 397 
Q 2419 397 2687 759 
Q 2956 1122 2956 1747 
Q 2956 2369 2687 2733 
Q 2419 3097 1959 3097 
z
M 1959 3584 
Q 2709 3584 3137 3096 
Q 3566 2609 3566 1747 
Q 3566 888 3137 398 
Q 2709 -91 1959 -91 
Q 1206 -91 779 398 
Q 353 888 353 1747 
Q 353 2609 779 3096 
Q 1206 3584 1959 3584 
z
" transform="scale(0.015625)"/>
      <path id="DejaVuSans-6d" d="M 3328 2828 
Q 3544 3216 3844 3400 
Q 4144 3584 4550 3584 
Q 5097 3584 5394 3201 
Q 5691 2819 5691 2113 
L 5691 0 
L 5113 0 
L 5113 2094 
Q 5113 2597 4934 2840 
Q 4756 3084 4391 3084 
Q 3944 3084 3684 2787 
Q 3425 2491 3425 1978 
L 3425 0 
L 2847 0 
L 2847 2094 
Q 2847 2600 2669 2842 
Q 2491 3084 2119 3084 
Q 1678 3084 1418 2786 
Q 1159 2488 1159 1978 
L 1159 0 
L 581 0 
L 581 3500 
L 1159 3500 
L 1159 2956 
Q 1356 3278 1631 3431 
Q 1906 3584 2284 3584 
Q 2666 3584 2933 3390 
Q 3200 3197 3328 2828 
z
" transform="scale(0.015625)"/>
      <path id="DejaVuSans-70" d="M 1159 525 
L 1159 -1331 
L 581 -1331 
L 581 3500 
L 1159 3500 
L 1159 2969 
Q 1341 3281 1617 3432 
Q 1894 3584 2278 3584 
Q 2916 3584 3314 3078 
Q 3713 2572 3713 1747 
Q 3713 922 3314 415 
Q 2916 -91 2278 -91 
Q 1894 -91 1617 61 
Q 1341 213 1159 525 
z
M 3116 1747 
Q 3116 2381 2855 2742 
Q 2594 3103 2138 3103 
Q 1681 3103 1420 2742 
Q 1159 2381 1159 1747 
Q 1159 1113 1420 752 
Q 1681 391 2138 391 
Q 2594 391 2855 752 
Q 3116 1113 3116 1747 
z
" transform="scale(0.015625)"/>
      <path id="DejaVuSans-6e" d="M 3513 2113 
L 3513 0 
L 2938 0 
L 2938 2094 
Q 2938 2591 2744 2837 
Q 2550 3084 2163 3084 
Q 1697 3084 1428 2787 
Q 1159 2491 1159 1978 
L 1159 0 
L 581 0 
L 581 3500 
L 1159 3500 
L 1159 2956 
Q 1366 3272 1645 3428 
Q 1925 3584 2291 3584 
Q 2894 3584 3203 3211 
Q 3513 2838 3513 2113 
z
" transform="scale(0.015625)"/>
      <path id="DejaVuSans-65" d="M 3597 1894 
L 3597 1613 
L 953 1613 
Q 991 1019 1311 708 
Q 1631 397 2203 397 
Q 2534 397 2845 478 
Q 3156 559 3463 722 
L 3463 178 
Q 3153 47 2828 -22 
Q 2503 -91 2169 -91 
Q 1331 -91 842 396 
Q 353 884 353 1716 
Q 353 2575 817 3079 
Q 1281 3584 2069 3584 
Q 2775 3584 3186 3129 
Q 3597 2675 3597 1894 
z
M 3022 2063 
Q 3016 2534 2758 2815 
Q 2500 3097 2075 3097 
Q 1594 3097 1305 2825 
Q 1016 2553 972 2059 
L 3022 2063 
z
" transform="scale(0.015625)"/>
      <path id="DejaVuSans-74" d="M 1172 4494 
L 1172 3500 
L 2356 3500 
L 2356 3053 
L 1172 3053 
L 1172 1153 
Q 1172 725 1289 603 
Q 1406 481 1766 481 
L 2356 481 
L 2356 0 
L 1766 0 
Q 1100 0 847 248 
Q 594 497 594 1153 
L 594 3053 
L 172 3053 
L 172 3500 
L 594 3500 
L 594 4494 
L 1172 4494 
z
" transform="scale(0.015625)"/>
     </defs>
     <use xlink:href="#DejaVuSans-Oblique-69" transform="translate(0 0.015625)"/>
     <use xlink:href="#DejaVuSans-2d" transform="translate(27.783203 0.015625)"/>
     <use xlink:href="#DejaVuSans-61" transform="translate(63.867188 0.015625)"/>
     <use xlink:href="#DejaVuSans-78" transform="translate(125.146484 0.015625)"/>
     <use xlink:href="#DejaVuSans-69" transform="translate(184.326172 0.015625)"/>
     <use xlink:href="#DejaVuSans-73" transform="translate(212.109375 0.015625)"/>
     <use xlink:href="#DejaVuSans-20" transform="translate(264.208984 0.015625)"/>
     <use xlink:href="#DejaVuSans-63" transform="translate(295.996094 0.015625)"/>
     <use xlink:href="#DejaVuSans-6f" transform="translate(350.976562 0.015625)"/>
     <use xlink:href="#DejaVuSans-6d" transform="translate(412.158203 0.015625)"/>
     <use xlink:href="#DejaVuSans-70" transform="translate(509.570312 0.015625)"/>
     <use xlink:href="#DejaVuSans-6f" transform="translate(573.046875 0.015625)"/>
     <use xlink:href="#DejaVuSans-6e" transform="translate(634.228516 0.015625)"/>
     <use xlink:href="#DejaVuSans-65" transform="translate(697.607422 0.015625)"/>
     <use xlink:href="#DejaVuSans-6e" transform="translate(759.130859 0.015625)"/>
     <use xlink:href="#DejaVuSans-74" transform="translate(822.509766 0.015625)"/>
    </g>
   </g>
  </g>
  <g id="axis3d_3">
   <g id="line2d_15">
    <path d="M 391.054034 281.046765 
L 398.812165 111.629013 
" style="fill: none; stroke: #000000; stroke-width: 0.8; stroke-linecap: square"/>
   </g>
   <g id="xtick_13">
    <g id="line2d_16">
     <path d="M 390.186839 259.384487 
L 395.696643 260.960366 
" style="fill: none; stroke: #000000; stroke-width: 0.8; stroke-linecap: square"/>
    </g>
    <g id="text_15">
     <!-- −2 -->
     <g transform="translate(402.650219 265.30681) scale(0.105 -0.105)">
      <use xlink:href="#DejaVuSans-2212"/>
      <use xlink:href="#DejaVuSans-32" transform="translate(83.789062 0)"/>
     </g>
    </g>
   </g>
   <g id="xtick_14">
    <g id="line2d_17">
     <path d="M 391.573208 228.783084 
L 397.129066 230.334769 
" style="fill: none; stroke: #000000; stroke-width: 0.8; stroke-linecap: square"/>
    </g>
    <g id="text_16">
     <!-- −1 -->
     <g transform="translate(404.196697 234.737019) scale(0.105 -0.105)">
      <use xlink:href="#DejaVuSans-2212"/>
      <use xlink:href="#DejaVuSans-31" transform="translate(83.789062 0)"/>
     </g>
    </g>
   </g>
   <g id="xtick_15">
    <g id="line2d_18">
     <path d="M 392.982066 197.685277 
L 398.584753 199.211771 
" style="fill: none; stroke: #000000; stroke-width: 0.8; stroke-linecap: square"/>
    </g>
    <g id="text_17">
     <!-- 0 -->
     <g transform="translate(410.167557 203.672123) scale(0.105 -0.105)">
      <use xlink:href="#DejaVuSans-30"/>
     </g>
    </g>
   </g>
   <g id="xtick_16">
    <g id="line2d_19">
     <path d="M 394.413965 166.078888 
L 400.064277 167.579155 
" style="fill: none; stroke: #000000; stroke-width: 0.8; stroke-linecap: square"/>
    </g>
    <g id="text_18">
     <!-- 1 -->
     <g transform="translate(411.764741 172.099994) scale(0.105 -0.105)">
      <use xlink:href="#DejaVuSans-31"/>
     </g>
    </g>
   </g>
   <g id="xtick_17">
    <g id="line2d_20">
     <path d="M 395.869475 133.951337 
L 401.568227 135.424301 
" style="fill: none; stroke: #000000; stroke-width: 0.8; stroke-linecap: square"/>
    </g>
    <g id="text_19">
     <!-- 2 -->
     <g transform="translate(413.388219 140.008109) scale(0.105 -0.105)">
      <use xlink:href="#DejaVuSans-32"/>
     </g>
    </g>
   </g>
   <g id="text_20">
    <!-- $j/k$-axis component -->
    <g transform="translate(435.911624 242.936379) rotate(-87.378092) scale(0.105 -0.105)">
     <defs>
      <path id="DejaVuSans-Oblique-6a" d="M 928 3500 
L 1503 3500 
L 813 -63 
L 809 -78 
Q 694 -675 544 -897 
Q 403 -1106 132 -1218 
Q -138 -1331 -506 -1331 
L -722 -1331 
L -628 -844 
L -481 -844 
Q -144 -844 -1 -703 
Q 141 -563 238 -63 
L 928 3500 
z
M 1197 4863 
L 1772 4863 
L 1631 4134 
L 1056 4134 
L 1197 4863 
z
" transform="scale(0.015625)"/>
      <path id="DejaVuSans-2f" d="M 1625 4666 
L 2156 4666 
L 531 -594 
L 0 -594 
L 1625 4666 
z
" transform="scale(0.015625)"/>
      <path id="DejaVuSans-Oblique-6b" d="M 1172 4863 
L 1747 4863 
L 1197 2028 
L 3169 3500 
L 3916 3500 
L 1716 1825 
L 3322 0 
L 2625 0 
L 1131 1709 
L 800 0 
L 225 0 
L 1172 4863 
z
" transform="scale(0.015625)"/>
     </defs>
     <use xlink:href="#DejaVuSans-Oblique-6a" transform="translate(0 0.015625)"/>
     <use xlink:href="#DejaVuSans-2f" transform="translate(27.783203 0.015625)"/>
     <use xlink:href="#DejaVuSans-Oblique-6b" transform="translate(61.474609 0.015625)"/>
     <use xlink:href="#DejaVuSans-2d" transform="translate(119.384766 0.015625)"/>
     <use xlink:href="#DejaVuSans-61" transform="translate(155.46875 0.015625)"/>
     <use xlink:href="#DejaVuSans-78" transform="translate(216.748047 0.015625)"/>
     <use xlink:href="#DejaVuSans-69" transform="translate(275.927734 0.015625)"/>
     <use xlink:href="#DejaVuSans-73" transform="translate(303.710938 0.015625)"/>
     <use xlink:href="#DejaVuSans-20" transform="translate(355.810547 0.015625)"/>
     <use xlink:href="#DejaVuSans-63" transform="translate(387.597656 0.015625)"/>
     <use xlink:href="#DejaVuSans-6f" transform="translate(442.578125 0.015625)"/>
     <use xlink:href="#DejaVuSans-6d" transform="translate(503.759766 0.015625)"/>
     <use xlink:href="#DejaVuSans-70" transform="translate(601.171875 0.015625)"/>
     <use xlink:href="#DejaVuSans-6f" transform="translate(664.648438 0.015625)"/>
     <use xlink:href="#DejaVuSans-6e" transform="translate(725.830078 0.015625)"/>
     <use xlink:href="#DejaVuSans-65" transform="translate(789.208984 0.015625)"/>
     <use xlink:href="#DejaVuSans-6e" transform="translate(850.732422 0.015625)"/>
     <use xlink:href="#DejaVuSans-74" transform="translate(914.111328 0.015625)"/>
    </g>
   </g>
  </g>
  <g id="axes_1">
   <g id="line2d_21">
    <path d="M 154.12588 277.109759 
L 155.24263 276.142625 
L 156.357763 275.176892 
L 157.471284 274.212555 
L 158.583195 273.249611 
L 159.693501 272.288058 
L 160.802204 271.327893 
L 161.909308 270.369113 
L 163.014817 269.411714 
L 164.118735 268.455693 
L 165.221064 267.501048 
L 166.321807 266.547776 
L 167.42097 265.595874 
L 168.518553 264.645338 
L 169.614563 263.696167 
L 170.709 262.748356 
L 171.80187 261.801903 
L 172.893175 260.856805 
L 173.982919 259.913059 
L 175.071104 258.970663 
L 176.157735 258.029613 
L 177.242815 257.089906 
L 178.326347 256.15154 
L 179.408334 255.214512 
L 180.48878 254.278818 
L 181.567687 253.344457 
L 182.64506 252.411425 
L 183.720901 251.479719 
L 184.795215 250.549336 
L 185.868003 249.620275 
L 186.939269 248.692531 
L 188.009017 247.766102 
L 189.077249 246.840986 
L 190.143969 245.917179 
L 191.209181 244.994679 
L 192.272886 244.073483 
L 193.33509 243.153588 
L 194.395794 242.234991 
L 195.455002 241.31769 
L 196.512716 240.401682 
L 197.568941 239.486964 
L 198.62368 238.573534 
L 199.676935 237.661389 
L 200.728709 236.750525 
L 201.779006 235.840941 
L 202.827829 234.932634 
L 203.875181 234.025601 
L 204.921065 233.119839 
L 205.965484 232.215345 
L 207.008441 231.312118 
L 208.04994 230.410154 
L 209.089982 229.509451 
L 210.128572 228.610005 
L 211.165713 227.711815 
L 212.201407 226.814878 
L 213.235657 225.919191 
L 214.268467 225.024751 
L 215.299839 224.131557 
L 216.329777 223.239605 
L 217.358283 222.348892 
L 218.38536 221.459417 
L 219.411012 220.571176 
L 220.435242 219.684167 
L 221.458052 218.798388 
L 222.479445 217.913836 
L 223.499424 217.030508 
L 224.517992 216.148402 
L 225.535153 215.267515 
L 226.550909 214.387845 
L 227.565262 213.509389 
L 228.578216 212.632145 
L 229.589774 211.75611 
L 230.599939 210.881282 
L 231.608713 210.007658 
L 232.616099 209.135235 
L 233.622101 208.264012 
L 234.626721 207.393986 
L 235.629961 206.525154 
L 236.631826 205.657514 
L 237.632317 204.791064 
L 238.631437 203.9258 
L 239.629189 203.061721 
L 240.625577 202.198824 
L 241.620602 201.337107 
L 242.614268 200.476567 
L 243.606577 199.617202 
L 244.597533 198.75901 
L 245.587137 197.901987 
L 246.575393 197.046132 
L 247.562304 196.191442 
L 248.547872 195.337916 
L 249.532099 194.48555 
L 250.51499 193.634342 
L 251.496546 192.784289 
L 252.476769 191.935391 
L 253.455664 191.087643 
L 254.433232 190.241044 
L 255.409477 189.395592 
L 256.3844 188.551283 
L 257.358005 187.708117 
L 258.330294 186.86609 
L 259.30127 186.0252 
L 260.270936 185.185445 
L 261.239293 184.346822 
L 262.206346 183.50933 
L 263.172096 182.672966 
L 264.136547 181.837727 
L 265.0997 181.003612 
L 266.061558 180.170618 
L 267.022125 179.338743 
L 267.981402 178.507985 
L 268.939392 177.678341 
L 269.896098 176.84981 
L 270.851522 176.022388 
L 271.805667 175.196074 
L 272.758536 174.370865 
L 273.710131 173.54676 
L 274.660454 172.723756 
L 275.609509 171.901851 
L 276.557297 171.081042 
" clip-path="url(#p7deca99a23)" style="fill: none; stroke: #1f77b4; stroke-width: 2.6; stroke-linecap: square"/>
   </g>
   <g id="line2d_22">
    <path d="M 217.872 299.682144 
L 217.872 298.400983 
L 217.872 297.118948 
L 217.872 295.83604 
L 217.872 294.552258 
L 217.872 293.267601 
L 217.872 291.982067 
L 217.872 290.695656 
L 217.872 289.408367 
L 217.872 288.1202 
L 217.872 286.831152 
L 217.872 285.541224 
L 217.872 284.250414 
L 217.872 282.958722 
L 217.872 281.666146 
L 217.872 280.372686 
L 217.872 279.078341 
L 217.872 277.78311 
L 217.872 276.486991 
L 217.872 275.189985 
L 217.872 273.89209 
L 217.872 272.593305 
L 217.872 271.293629 
L 217.872 269.993062 
L 217.872 268.691602 
L 217.872 267.389249 
L 217.872 266.086001 
L 217.872 264.781858 
L 217.872 263.476819 
L 217.872 262.170883 
L 217.872 260.864048 
L 217.872 259.556315 
L 217.872 258.247682 
L 217.872 256.938148 
L 217.872 255.627712 
L 217.872 254.316373 
L 217.872 253.004131 
L 217.872 251.690984 
L 217.872 250.376932 
L 217.872 249.061973 
L 217.872 247.746107 
L 217.872 246.429333 
L 217.872 245.111649 
L 217.872 243.793055 
L 217.872 242.47355 
L 217.872 241.153133 
L 217.872 239.831803 
L 217.872 238.509559 
L 217.872 237.186399 
L 217.872 235.862324 
L 217.872 234.537333 
L 217.872 233.211423 
L 217.872 231.884595 
L 217.872 230.556846 
L 217.872 229.228178 
L 217.872 227.898587 
L 217.872 226.568074 
L 217.872 225.236638 
L 217.872 223.904277 
L 217.872 222.570991 
L 217.872 221.236778 
L 217.872 219.901637 
L 217.872 218.565569 
L 217.872 217.228571 
L 217.872 215.890643 
L 217.872 214.551783 
L 217.872 213.211992 
L 217.872 211.871267 
L 217.872 210.529607 
L 217.872 209.187013 
L 217.872 207.843483 
L 217.872 206.499015 
L 217.872 205.153609 
L 217.872 203.807265 
L 217.872 202.45998 
L 217.872 201.111754 
L 217.872 199.762586 
L 217.872 198.412475 
L 217.872 197.06142 
L 217.872 195.70942 
L 217.872 194.356474 
L 217.872 193.002581 
L 217.872 191.64774 
L 217.872 190.29195 
L 217.872 188.93521 
L 217.872 187.577519 
L 217.872 186.218876 
L 217.872 184.859281 
L 217.872 183.498731 
L 217.872 182.137226 
L 217.872 180.774765 
L 217.872 179.411347 
L 217.872 178.046971 
L 217.872 176.681636 
L 217.872 175.315341 
L 217.872 173.948085 
L 217.872 172.579867 
L 217.872 171.210686 
L 217.872 169.840541 
L 217.872 168.469431 
L 217.872 167.097354 
L 217.872 165.724311 
L 217.872 164.350299 
L 217.872 162.975318 
L 217.872 161.599367 
L 217.872 160.222444 
L 217.872 158.84455 
L 217.872 157.465681 
L 217.872 156.085839 
L 217.872 154.705021 
L 217.872 153.323227 
L 217.872 151.940455 
L 217.872 150.556705 
L 217.872 149.171976 
L 217.872 147.786265 
L 217.872 146.399574 
L 217.872 145.011899 
L 217.872 143.623241 
L 217.872 142.233598 
L 217.872 140.842969 
" clip-path="url(#p7deca99a23)" style="fill: none; stroke: #ff7f0e; stroke-width: 1.8; stroke-linecap: square"/>
   </g>
   <g id="line2d_23">
    <path d="M 217.872 237.715773 
L 217.872 237.451104 
L 217.872 237.186399 
L 217.872 236.921658 
L 217.872 236.656879 
L 217.872 236.392064 
L 217.872 236.127213 
L 217.872 235.862324 
L 217.872 235.597399 
L 217.872 235.332438 
L 217.872 235.067439 
L 217.872 234.802404 
L 217.872 234.537333 
L 217.872 234.272224 
L 217.872 234.007079 
L 217.872 233.741897 
L 217.872 233.476678 
L 217.872 233.211423 
L 217.872 232.946131 
L 217.872 232.680802 
L 217.872 232.415436 
L 217.872 232.150034 
L 217.872 231.884595 
L 217.872 231.619119 
L 217.872 231.353606 
L 217.872 231.088056 
L 217.872 230.82247 
L 217.872 230.556846 
L 217.872 230.291186 
L 217.872 230.025489 
L 217.872 229.759756 
L 217.872 229.493985 
L 217.872 229.228178 
L 217.872 228.962333 
L 217.872 228.696452 
L 217.872 228.430534 
L 217.872 228.164579 
L 217.872 227.898587 
L 217.872 227.632559 
L 217.872 227.366493 
L 217.872 227.10039 
L 217.872 226.834251 
L 217.872 226.568074 
L 217.872 226.301861 
L 217.872 226.035611 
L 217.872 225.769323 
L 217.872 225.502999 
L 217.872 225.236638 
L 217.872 224.97024 
L 217.872 224.703805 
L 217.872 224.437332 
L 217.872 224.170823 
L 217.872 223.904277 
L 217.872 223.637694 
L 217.872 223.371074 
L 217.872 223.104416 
L 217.872 222.837722 
L 217.872 222.570991 
L 217.872 222.304222 
L 217.872 222.037417 
L 217.872 221.770574 
L 217.872 221.503694 
L 217.872 221.236778 
L 217.872 220.969824 
L 217.872 220.702833 
L 217.872 220.435805 
L 217.872 220.16874 
L 217.872 219.901637 
L 217.872 219.634498 
L 217.872 219.367321 
L 217.872 219.100108 
L 217.872 218.832857 
L 217.872 218.565569 
L 217.872 218.298244 
L 217.872 218.030881 
L 217.872 217.763482 
L 217.872 217.496045 
L 217.872 217.228571 
L 217.872 216.96106 
L 217.872 216.693511 
L 217.872 216.425926 
L 217.872 216.158303 
L 217.872 215.890643 
L 217.872 215.622945 
L 217.872 215.355211 
L 217.872 215.087439 
L 217.872 214.81963 
L 217.872 214.551783 
L 217.872 214.283899 
L 217.872 214.015978 
L 217.872 213.74802 
L 217.872 213.480024 
L 217.872 213.211992 
L 217.872 212.943921 
L 217.872 212.675814 
L 217.872 212.407669 
L 217.872 212.139486 
L 217.872 211.871267 
L 217.872 211.603009 
L 217.872 211.334715 
L 217.872 211.066383 
L 217.872 210.798014 
L 217.872 210.529607 
L 217.872 210.261163 
L 217.872 209.992682 
L 217.872 209.724163 
L 217.872 209.455607 
L 217.872 209.187013 
L 217.872 208.918382 
L 217.872 208.649713 
L 217.872 208.381007 
L 217.872 208.112264 
L 217.872 207.843483 
L 217.872 207.574664 
L 217.872 207.305808 
L 217.872 207.036915 
L 217.872 206.767984 
L 217.872 206.499015 
L 217.872 206.230009 
L 217.872 205.960965 
" clip-path="url(#p7deca99a23)" style="fill: none; stroke: #2ca02c; stroke-width: 1.8; stroke-linecap: square"/>
   </g>
   <g id="line2d_24">
    <path d="M 182.249426 308.284152 
L 182.853797 306.81863 
L 183.457972 305.353583 
L 184.061952 303.889009 
L 184.665736 302.42491 
L 185.269325 300.961285 
L 185.872718 299.498134 
L 186.475917 298.035456 
L 187.07892 296.573252 
L 187.681728 295.11152 
L 188.284341 293.650261 
L 188.886759 292.189475 
L 189.488982 290.729161 
L 190.091011 289.269319 
L 190.692845 287.809949 
L 191.294484 286.351051 
L 191.895929 284.892624 
L 192.49718 283.434668 
L 193.098237 281.977184 
L 193.699099 280.52017 
L 194.299767 279.063626 
L 194.900242 277.607553 
L 195.500522 276.15195 
L 196.100609 274.696817 
L 196.700503 273.242153 
L 197.300202 271.787959 
L 197.899708 270.334233 
L 198.499021 268.880977 
L 199.098141 267.42819 
L 199.697067 265.97587 
L 200.2958 264.52402 
L 200.89434 263.072637 
L 201.492688 261.621721 
L 202.090842 260.171274 
L 202.688804 258.721294 
L 203.286573 257.271781 
L 203.88415 255.822734 
L 204.481534 254.374155 
L 205.078726 252.926042 
L 205.675725 251.478395 
L 206.272533 250.031214 
L 206.869148 248.584498 
L 207.465571 247.138249 
L 208.061803 245.692464 
L 208.657842 244.247145 
L 209.25369 242.80229 
L 209.849347 241.357901 
L 210.444811 239.913975 
L 211.040085 238.470514 
L 211.635167 237.027517 
L 212.230058 235.584983 
L 212.824757 234.142913 
L 213.419266 232.701306 
L 214.013584 231.260162 
L 214.60771 229.819481 
L 215.201646 228.379263 
L 215.795392 226.939507 
L 216.388946 225.500214 
L 216.982311 224.061382 
L 217.575484 222.623012 
L 218.168468 221.185103 
L 218.761261 219.747656 
L 219.353864 218.31067 
L 219.946277 216.874145 
L 220.5385 215.43808 
L 221.130534 214.002476 
L 221.722377 212.567332 
L 222.314031 211.132647 
L 222.905495 209.698423 
L 223.49677 208.264658 
L 224.087855 206.831352 
L 224.678751 205.398506 
L 225.269458 203.966118 
L 225.859975 202.534189 
L 226.450304 201.102718 
L 227.040444 199.671706 
L 227.630394 198.241151 
L 228.220156 196.811054 
L 228.80973 195.381415 
L 229.399114 193.952233 
L 229.988311 192.523508 
L 230.577318 191.09524 
L 231.166138 189.667429 
L 231.754769 188.240074 
L 232.343212 186.813175 
L 232.931467 185.386733 
L 233.519534 183.960746 
L 234.107414 182.535214 
L 234.695105 181.110138 
L 235.282609 179.685518 
L 235.869925 178.261352 
L 236.457054 176.83764 
L 237.043995 175.414383 
L 237.630749 173.991581 
L 238.217315 172.569232 
L 238.803695 171.147338 
L 239.389887 169.725896 
L 239.975893 168.304909 
L 240.561711 166.884374 
L 241.147343 165.464292 
L 241.732788 164.044664 
L 242.318047 162.625487 
L 242.903119 161.206763 
L 243.488004 159.788491 
L 244.072703 158.370671 
L 244.657216 156.953302 
L 245.241543 155.536385 
L 245.825684 154.11992 
L 246.409638 152.703905 
L 246.993407 151.288341 
L 247.57699 149.873227 
L 248.160387 148.458564 
L 248.743599 147.044351 
L 249.326625 145.630588 
L 249.909466 144.217275 
L 250.492121 142.804411 
L 251.074591 141.391996 
L 251.656875 139.980031 
L 252.238975 138.568514 
L 252.82089 137.157446 
" clip-path="url(#p7deca99a23)" style="fill: none; stroke: #d62728; stroke-width: 1.8; stroke-linecap: square"/>
   </g>
   <g id="text_21">
    <!-- Complex slice: $u=i$ -->
    <g transform="translate(280.578813 107.625804) scale(0.1 -0.1)">
     <defs>
      <path id="DejaVuSans-43" d="M 4122 4306 
L 4122 3641 
Q 3803 3938 3442 4084 
Q 3081 4231 2675 4231 
Q 1875 4231 1450 3742 
Q 1025 3253 1025 2328 
Q 1025 1406 1450 917 
Q 1875 428 2675 428 
Q 3081 428 3442 575 
Q 3803 722 4122 1019 
L 4122 359 
Q 3791 134 3420 21 
Q 3050 -91 2638 -91 
Q 1578 -91 968 557 
Q 359 1206 359 2328 
Q 359 3453 968 4101 
Q 1578 4750 2638 4750 
Q 3056 4750 3426 4639 
Q 3797 4528 4122 4306 
z
" transform="scale(0.015625)"/>
      <path id="DejaVuSans-6c" d="M 603 4863 
L 1178 4863 
L 1178 0 
L 603 0 
L 603 4863 
z
" transform="scale(0.015625)"/>
      <path id="DejaVuSans-3a" d="M 750 794 
L 1409 794 
L 1409 0 
L 750 0 
L 750 794 
z
M 750 3309 
L 1409 3309 
L 1409 2516 
L 750 2516 
L 750 3309 
z
" transform="scale(0.015625)"/>
      <path id="DejaVuSans-Oblique-75" d="M 428 1388 
L 838 3500 
L 1416 3500 
L 1006 1409 
Q 975 1256 961 1147 
Q 947 1038 947 966 
Q 947 700 1109 554 
Q 1272 409 1569 409 
Q 2031 409 2368 721 
Q 2706 1034 2809 1563 
L 3194 3500 
L 3769 3500 
L 3091 0 
L 2516 0 
L 2631 550 
Q 2388 244 2052 76 
Q 1716 -91 1338 -91 
Q 878 -91 622 161 
Q 366 413 366 863 
Q 366 956 381 1097 
Q 397 1238 428 1388 
z
" transform="scale(0.015625)"/>
      <path id="DejaVuSans-3d" d="M 678 2906 
L 4684 2906 
L 4684 2381 
L 678 2381 
L 678 2906 
z
M 678 1631 
L 4684 1631 
L 4684 1100 
L 678 1100 
L 678 1631 
z
" transform="scale(0.015625)"/>
     </defs>
     <use xlink:href="#DejaVuSans-43" transform="translate(0 0.015625)"/>
     <use xlink:href="#DejaVuSans-6f" transform="translate(69.824219 0.015625)"/>
     <use xlink:href="#DejaVuSans-6d" transform="translate(131.005859 0.015625)"/>
     <use xlink:href="#DejaVuSans-70" transform="translate(228.417969 0.015625)"/>
     <use xlink:href="#DejaVuSans-6c" transform="translate(291.894531 0.015625)"/>
     <use xlink:href="#DejaVuSans-65" transform="translate(319.677734 0.015625)"/>
     <use xlink:href="#DejaVuSans-78" transform="translate(381.201172 0.015625)"/>
     <use xlink:href="#DejaVuSans-20" transform="translate(440.380859 0.015625)"/>
     <use xlink:href="#DejaVuSans-73" transform="translate(472.167969 0.015625)"/>
     <use xlink:href="#DejaVuSans-6c" transform="translate(524.267578 0.015625)"/>
     <use xlink:href="#DejaVuSans-69" transform="translate(552.050781 0.015625)"/>
     <use xlink:href="#DejaVuSans-63" transform="translate(579.833984 0.015625)"/>
     <use xlink:href="#DejaVuSans-65" transform="translate(634.814453 0.015625)"/>
     <use xlink:href="#DejaVuSans-3a" transform="translate(696.337891 0.015625)"/>
     <use xlink:href="#DejaVuSans-20" transform="translate(730.029297 0.015625)"/>
     <use xlink:href="#DejaVuSans-Oblique-75" transform="translate(761.816406 0.015625)"/>
     <use xlink:href="#DejaVuSans-3d" transform="translate(844.677734 0.015625)"/>
     <use xlink:href="#DejaVuSans-Oblique-69" transform="translate(947.949219 0.015625)"/>
    </g>
   </g>
   <g id="text_22">
    <!-- Quaternionic critical slices $q_u(t)=1/2+ut$ -->
    <g transform="translate(87.288 16.32) scale(0.12 -0.12)">
     <defs>
      <path id="DejaVuSans-51" d="M 2522 4238 
Q 1834 4238 1429 3725 
Q 1025 3213 1025 2328 
Q 1025 1447 1429 934 
Q 1834 422 2522 422 
Q 3209 422 3611 934 
Q 4013 1447 4013 2328 
Q 4013 3213 3611 3725 
Q 3209 4238 2522 4238 
z
M 3406 84 
L 4238 -825 
L 3475 -825 
L 2784 -78 
Q 2681 -84 2626 -87 
Q 2572 -91 2522 -91 
Q 1538 -91 948 567 
Q 359 1225 359 2328 
Q 359 3434 948 4092 
Q 1538 4750 2522 4750 
Q 3503 4750 4090 4092 
Q 4678 3434 4678 2328 
Q 4678 1516 4351 937 
Q 4025 359 3406 84 
z
" transform="scale(0.015625)"/>
      <path id="DejaVuSans-75" d="M 544 1381 
L 544 3500 
L 1119 3500 
L 1119 1403 
Q 1119 906 1312 657 
Q 1506 409 1894 409 
Q 2359 409 2629 706 
Q 2900 1003 2900 1516 
L 2900 3500 
L 3475 3500 
L 3475 0 
L 2900 0 
L 2900 538 
Q 2691 219 2414 64 
Q 2138 -91 1772 -91 
Q 1169 -91 856 284 
Q 544 659 544 1381 
z
M 1991 3584 
L 1991 3584 
z
" transform="scale(0.015625)"/>
      <path id="DejaVuSans-72" d="M 2631 2963 
Q 2534 3019 2420 3045 
Q 2306 3072 2169 3072 
Q 1681 3072 1420 2755 
Q 1159 2438 1159 1844 
L 1159 0 
L 581 0 
L 581 3500 
L 1159 3500 
L 1159 2956 
Q 1341 3275 1631 3429 
Q 1922 3584 2338 3584 
Q 2397 3584 2469 3576 
Q 2541 3569 2628 3553 
L 2631 2963 
z
" transform="scale(0.015625)"/>
      <path id="DejaVuSans-Oblique-74" d="M 2706 3500 
L 2619 3053 
L 1472 3053 
L 1100 1153 
Q 1081 1047 1072 975 
Q 1063 903 1063 863 
Q 1063 663 1183 572 
Q 1303 481 1569 481 
L 2150 481 
L 2053 0 
L 1503 0 
Q 991 0 739 200 
Q 488 400 488 806 
Q 488 878 497 964 
Q 506 1050 525 1153 
L 897 3053 
L 409 3053 
L 500 3500 
L 978 3500 
L 1172 4494 
L 1747 4494 
L 1556 3500 
L 2706 3500 
z
" transform="scale(0.015625)"/>
      <path id="DejaVuSans-2b" d="M 2944 4013 
L 2944 2272 
L 4684 2272 
L 4684 1741 
L 2944 1741 
L 2944 0 
L 2419 0 
L 2419 1741 
L 678 1741 
L 678 2272 
L 2419 2272 
L 2419 4013 
L 2944 4013 
z
" transform="scale(0.015625)"/>
     </defs>
     <use xlink:href="#DejaVuSans-51" transform="translate(0 0.015625)"/>
     <use xlink:href="#DejaVuSans-75" transform="translate(78.710938 0.015625)"/>
     <use xlink:href="#DejaVuSans-61" transform="translate(142.089844 0.015625)"/>
     <use xlink:href="#DejaVuSans-74" transform="translate(203.369141 0.015625)"/>
     <use xlink:href="#DejaVuSans-65" transform="translate(242.578125 0.015625)"/>
     <use xlink:href="#DejaVuSans-72" transform="translate(304.101562 0.015625)"/>
     <use xlink:href="#DejaVuSans-6e" transform="translate(345.214844 0.015625)"/>
     <use xlink:href="#DejaVuSans-69" transform="translate(408.59375 0.015625)"/>
     <use xlink:href="#DejaVuSans-6f" transform="translate(436.376953 0.015625)"/>
     <use xlink:href="#DejaVuSans-6e" transform="translate(497.558594 0.015625)"/>
     <use xlink:href="#DejaVuSans-69" transform="translate(560.9375 0.015625)"/>
     <use xlink:href="#DejaVuSans-63" transform="translate(588.720703 0.015625)"/>
     <use xlink:href="#DejaVuSans-20" transform="translate(643.701172 0.015625)"/>
     <use xlink:href="#DejaVuSans-63" transform="translate(675.488281 0.015625)"/>
     <use xlink:href="#DejaVuSans-72" transform="translate(730.46875 0.015625)"/>
     <use xlink:href="#DejaVuSans-69" transform="translate(771.582031 0.015625)"/>
     <use xlink:href="#DejaVuSans-74" transform="translate(799.365234 0.015625)"/>
     <use xlink:href="#DejaVuSans-69" transform="translate(838.574219 0.015625)"/>
     <use xlink:href="#DejaVuSans-63" transform="translate(866.357422 0.015625)"/>
     <use xlink:href="#DejaVuSans-61" transform="translate(921.337891 0.015625)"/>
     <use xlink:href="#DejaVuSans-6c" transform="translate(982.617188 0.015625)"/>
     <use xlink:href="#DejaVuSans-20" transform="translate(1010.400391 0.015625)"/>
     <use xlink:href="#DejaVuSans-73" transform="translate(1042.1875 0.015625)"/>
     <use xlink:href="#DejaVuSans-6c" transform="translate(1094.287109 0.015625)"/>
     <use xlink:href="#DejaVuSans-69" transform="translate(1122.070312 0.015625)"/>
     <use xlink:href="#DejaVuSans-63" transform="translate(1149.853516 0.015625)"/>
     <use xlink:href="#DejaVuSans-65" transform="translate(1204.833984 0.015625)"/>
     <use xlink:href="#DejaVuSans-73" transform="translate(1266.357422 0.015625)"/>
     <use xlink:href="#DejaVuSans-20" transform="translate(1318.457031 0.015625)"/>
     <use xlink:href="#DejaVuSans-Oblique-71" transform="translate(1350.244141 0.015625)"/>
     <use xlink:href="#DejaVuSans-Oblique-75" transform="translate(1413.720703 -16.390625) scale(0.7)"/>
     <use xlink:href="#DejaVuSans-28" transform="translate(1460.820312 0.015625)"/>
     <use xlink:href="#DejaVuSans-Oblique-74" transform="translate(1499.833984 0.015625)"/>
     <use xlink:href="#DejaVuSans-29" transform="translate(1539.042969 0.015625)"/>
     <use xlink:href="#DejaVuSans-3d" transform="translate(1597.539062 0.015625)"/>
     <use xlink:href="#DejaVuSans-31" transform="translate(1700.810547 0.015625)"/>
     <use xlink:href="#DejaVuSans-2f" transform="translate(1764.433594 0.015625)"/>
     <use xlink:href="#DejaVuSans-32" transform="translate(1794.5 0.015625)"/>
     <use xlink:href="#DejaVuSans-2b" transform="translate(1877.605469 0.015625)"/>
     <use xlink:href="#DejaVuSans-Oblique-75" transform="translate(1980.876953 0.015625)"/>
     <use xlink:href="#DejaVuSans-Oblique-74" transform="translate(2044.255859 0.015625)"/>
    </g>
   </g>
   <g id="legend_1">
    <g id="patch_6">
     <path d="M 14.55 92.391094 
L 78.81 92.391094 
Q 80.91 92.391094 80.91 90.291094 
L 80.91 29.67 
Q 80.91 27.57 78.81 27.57 
L 14.55 27.57 
Q 12.45 27.57 12.45 29.67 
L 12.45 90.291094 
Q 12.45 92.391094 14.55 92.391094 
z
" style="fill: #ffffff; opacity: 0.95; stroke: #cccccc; stroke-linejoin: miter"/>
    </g>
    <g id="line2d_25">
     <path d="M 16.65 36.073359 
L 27.15 36.073359 
L 37.65 36.073359 
" style="fill: none; stroke: #1f77b4; stroke-width: 2.6; stroke-linecap: square"/>
    </g>
    <g id="text_23">
     <!-- $u_1=i$ -->
     <g transform="translate(46.05 39.748359) scale(0.105 -0.105)">
      <use xlink:href="#DejaVuSans-Oblique-75" transform="translate(0 0.015625)"/>
      <use xlink:href="#DejaVuSans-31" transform="translate(63.378906 -16.390625) scale(0.7)"/>
      <use xlink:href="#DejaVuSans-3d" transform="translate(130.131836 0.015625)"/>
      <use xlink:href="#DejaVuSans-Oblique-69" transform="translate(233.40332 0.015625)"/>
     </g>
    </g>
    <g id="line2d_26">
     <path d="M 16.65 51.487031 
L 27.15 51.487031 
L 37.65 51.487031 
" style="fill: none; stroke: #ff7f0e; stroke-width: 1.8; stroke-linecap: square"/>
    </g>
    <g id="text_24">
     <!-- $u_2=j$ -->
     <g transform="translate(46.05 55.162031) scale(0.105 -0.105)">
      <use xlink:href="#DejaVuSans-Oblique-75" transform="translate(0 0.015625)"/>
      <use xlink:href="#DejaVuSans-32" transform="translate(63.378906 -16.390625) scale(0.7)"/>
      <use xlink:href="#DejaVuSans-3d" transform="translate(130.131836 0.015625)"/>
      <use xlink:href="#DejaVuSans-Oblique-6a" transform="translate(233.40332 0.015625)"/>
     </g>
    </g>
    <g id="line2d_27">
     <path d="M 16.65 66.920391 
L 27.15 66.920391 
L 37.65 66.920391 
" style="fill: none; stroke: #2ca02c; stroke-width: 1.8; stroke-linecap: square"/>
    </g>
    <g id="text_25">
     <!-- $u_3=k$ -->
     <g transform="translate(46.05 70.595391) scale(0.105 -0.105)">
      <use xlink:href="#DejaVuSans-Oblique-75" transform="translate(0 0.015625)"/>
      <use xlink:href="#DejaVuSans-33" transform="translate(63.378906 -16.390625) scale(0.7)"/>
      <use xlink:href="#DejaVuSans-3d" transform="translate(130.131836 0.015625)"/>
      <use xlink:href="#DejaVuSans-Oblique-6b" transform="translate(233.40332 0.015625)"/>
     </g>
    </g>
    <g id="line2d_28">
     <path d="M 16.65 82.332422 
L 27.15 82.332422 
L 37.65 82.332422 
" style="fill: none; stroke: #d62728; stroke-width: 1.8; stroke-linecap: square"/>
    </g>
    <g id="text_26">
     <!-- $u_4$ -->
     <g transform="translate(46.05 86.007422) scale(0.105 -0.105)">
      <use xlink:href="#DejaVuSans-Oblique-75" transform="translate(0 0.3125)"/>
      <use xlink:href="#DejaVuSans-34" transform="translate(63.378906 -16.09375) scale(0.7)"/>
     </g>
    </g>
   </g>
  </g>
 </g>
 <defs>
  <clipPath id="p7deca99a23">
   <rect x="7.2" y="22.32" width="410.256" height="410.256"/>
  </clipPath>
 </defs>
</svg>
