<?xml version="1.0" encoding="utf-8" standalone="no"?>
<!DOCTYPE svg PUBLIC "-//W3C//DTD SVG 1.1//EN"
  "http://www.w3.org/Graphics/SVG/1.1/DTD/svg11.dtd">
<svg xmlns:xlink="http://www.w3.org/1999/xlink" width="457.92pt" height="457.92pt" viewBox="0 0 457.92 457.92" xmlns="http://www.w3.org/2000/svg" version="1.1">
 <metadata>
  <rdf:RDF xmlns:dc="http://purl.org/dc/elements/1.1/" xmlns:cc="http://creativecommons.org/ns#" xmlns:rdf="http://www.w3.org/1999/02/22-rdf-syntax-ns#">
   <cc:Work>
    <dc:type rdf:resource="http://purl.org/dc/dcmitype/StillImage"/>
    <dc:date>2026-04-26T20:33:14.288524</dc:date>
    <dc:format>image/svg+xml</dc:format>
    <dc:creator>
     <cc:Agent>
      <dc:title>Matplotlib v3.10.9, https://matplotlib.org/</dc:title>
     </cc:Agent>
    </dc:creator>
   </cc:Work>
  </rdf:RDF>
 </metadata>
 <defs>
  <style type="text/css">*{stroke-linejoin: round; stroke-linecap: butt}</style>
 </defs>
 <g id="figure_1">
  <g id="patch_1">
   <path d="M 0 457.92 
L 457.92 457.92 
L 457.92 0 
L 0 0 
z
" style="fill: #ffffff"/>
  </g>
  <g id="axes_1">
   <g id="patch_2">
    <path d="M 387.36 236.088 
C 389.250368 236.088 391.063565 235.336949 392.400257 234.000257 
C 393.736949 232.663565 394.488 230.850368 394.488 228.96 
C 394.488 227.069632 393.736949 225.256435 392.400257 223.919743 
C 391.063565 222.583051 389.250368 221.832 387.36 221.832 
C 385.469632 221.832 383.656435 222.583051 382.319743 223.919743 
C 380.983051 225.256435 380.232 227.069632 380.232 228.96 
C 380.232 230.850368 380.983051 232.663565 382.319743 234.000257 
C 383.656435 235.336949 385.469632 236.088 387.36 236.088 
z
" clip-path="url(#pc333925a27)" style="fill: #ffffff; stroke: #000000; stroke-linejoin: miter"/>
   </g>
   <g id="patch_3">
    <path d="M 308.16 98.909576 
C 310.050368 98.909576 311.863565 98.158525 313.200257 96.821833 
C 314.536949 95.485141 315.288 93.671944 315.288 91.781576 
C 315.288 89.891208 314.536949 88.078011 313.200257 86.741319 
C 311.863565 85.404627 310.050368 84.653576 308.16 84.653576 
C 306.269632 84.653576 304.456435 85.404627 303.119743 86.741319 
C 301.783051 88.078011 301.032 89.891208 301.032 91.781576 
C 301.032 93.671944 301.783051 95.485141 303.119743 96.821833 
C 304.456435 98.158525 306.269632 98.909576 308.16 98.909576 
z
" clip-path="url(#pc333925a27)" style="fill: #ffffff; stroke: #000000; stroke-linejoin: miter"/>
   </g>
   <g id="patch_4">
    <path d="M 149.76 98.909576 
C 151.650368 98.909576 153.463565 98.158525 154.800257 96.821833 
C 156.136949 95.485141 156.888 93.671944 156.888 91.781576 
C 156.888 89.891208 156.136949 88.078011 154.800257 86.741319 
C 153.463565 85.404627 151.650368 84.653576 149.76 84.653576 
C 147.869632 84.653576 146.056435 85.404627 144.719743 86.741319 
C 143.383051 88.078011 142.632 89.891208 142.632 91.781576 
C 142.632 93.671944 143.383051 95.485141 144.719743 96.821833 
C 146.056435 98.158525 147.869632 98.909576 149.76 98.909576 
z
" clip-path="url(#pc333925a27)" style="fill: #ffffff; stroke: #000000; stroke-linejoin: miter"/>
   </g>
   <g id="patch_5">
    <path d="M 70.56 236.088 
C 72.450368 236.088 74.263565 235.336949 75.600257 234.000257 
C 76.936949 232.663565 77.688 230.850368 77.688 228.96 
C 77.688 227.069632 76.936949 225.256435 75.600257 223.919743 
C 74.263565 222.583051 72.450368 221.832 70.56 221.832 
C 68.669632 221.832 66.856435 222.583051 65.519743 223.919743 
C 64.183051 225.256435 63.432 227.069632 63.432 228.96 
C 63.432 230.850368 64.183051 232.663565 65.519743 234.000257 
C 66.856435 235.336949 68.669632 236.088 70.56 236.088 
z
" clip-path="url(#pc333925a27)" style="fill: #ffffff; stroke: #000000; stroke-linejoin: miter"/>
   </g>
   <g id="patch_6">
    <path d="M 149.76 373.266424 
C 151.650368 373.266424 153.463565 372.515373 154.800257 371.178681 
C 156.136949 369.841989 156.888 368.028792 156.888 366.138424 
C 156.888 364.248056 156.136949 362.434859 154.800257 361.098167 
C 153.463565 359.761475 151.650368 359.010424 149.76 359.010424 
C 147.869632 359.010424 146.056435 359.761475 144.719743 361.098167 
C 143.383051 362.434859 142.632 364.248056 142.632 366.138424 
C 142.632 368.028792 143.383051 369.841989 144.719743 371.178681 
C 146.056435 372.515373 147.869632 373.266424 149.76 373.266424 
z
" clip-path="url(#pc333925a27)" style="fill: #ffffff; stroke: #000000; stroke-linejoin: miter"/>
   </g>
   <g id="patch_7">
    <path d="M 308.16 373.266424 
C 310.050368 373.266424 311.863565 372.515373 313.200257 371.178681 
C 314.536949 369.841989 315.288 368.028792 315.288 366.138424 
C 315.288 364.248056 314.536949 362.434859 313.200257 361.098167 
C 311.863565 359.761475 310.050368 359.010424 308.16 359.010424 
C 306.269632 359.010424 304.456435 359.761475 303.119743 361.098167 
C 301.783051 362.434859 301.032 364.248056 301.032 366.138424 
C 301.032 368.028792 301.783051 369.841989 303.119743 371.178681 
C 304.456435 372.515373 306.269632 373.266424 308.16 373.266424 
z
" clip-path="url(#pc333925a27)" style="fill: #ffffff; stroke: #000000; stroke-linejoin: miter"/>
   </g>
   <g id="line2d_1">
    <path d="M 387.36 228.96 
L 387.281447 223.97207 
L 387.045866 218.989087 
L 386.65349 214.015994 
L 386.104708 209.057723 
L 385.400066 204.119191 
L 384.540261 199.205297 
L 383.526147 194.320915 
L 382.358729 189.470889 
L 381.039166 184.66003 
L 379.568765 179.893109 
L 377.948986 175.174853 
L 376.181435 170.509944 
L 374.267865 165.903007 
L 372.210174 161.358613 
L 370.010403 156.881267 
L 367.670734 152.475411 
L 365.193487 148.145416 
L 362.581119 143.895574 
L 359.836222 139.730103 
L 356.961517 135.653132 
L 353.959857 131.668706 
L 350.834217 127.780777 
L 347.587699 123.993201 
L 344.223522 120.309733 
L 340.745023 116.734029 
L 337.155653 113.269634 
L 333.45897 109.919984 
L 329.658642 106.688402 
L 325.758437 103.578093 
L 321.762225 100.592142 
L 317.673969 97.73351 
L 313.497724 95.005033 
L 309.237631 92.409416 
L 304.897916 89.949235 
L 300.482884 87.626929 
L 295.996913 85.444801 
L 291.444453 83.405017 
L 286.830018 81.509598 
L 282.158187 79.760426 
L 277.433591 78.159234 
L 272.660918 76.707612 
L 267.844901 75.406998 
L 262.990317 74.258683 
L 258.10198 73.263805 
L 253.18474 72.423353 
L 248.243472 71.738158 
L 243.283079 71.2089 
L 238.308479 70.836106 
L 233.324608 70.620143 
L 228.336407 70.561227 
L 223.348825 70.659417 
L 218.366809 70.914613 
L 213.395298 71.326564 
L 208.439226 71.894861 
L 203.503507 72.61894 
L 198.593036 73.498083 
L 193.712684 74.531419 
L 188.867292 75.717921 
L 184.061664 77.056414 
L 179.300569 78.54557 
L 174.588727 80.183911 
L 169.930812 81.969813 
L 165.331445 83.901505 
L 160.795186 85.977071 
L 156.326535 88.194451 
L 151.929925 90.551447 
L 147.609715 93.045721 
L 143.370191 95.6748 
L 139.215558 98.436075 
L 135.149936 101.326807 
L 131.177358 104.344131 
L 127.301764 107.485052 
L 123.526998 110.746456 
L 119.856803 114.125108 
L 116.294821 117.617657 
L 112.844584 121.220638 
L 109.509513 124.930479 
L 106.292917 128.7435 
L 103.197987 132.655919 
L 100.227791 136.663855 
L 97.385276 140.763334 
L 94.673261 144.950288 
L 92.094435 149.220567 
L 89.651358 153.569933 
L 87.346451 157.994074 
L 85.182001 162.4886 
L 83.160154 167.049056 
L 81.282917 171.670916 
L 79.55215 176.349598 
L 77.969571 181.08046 
L 76.536749 185.858811 
L 75.255105 190.679911 
L 74.12591 195.538978 
L 73.150285 200.431194 
L 72.329197 205.351705 
L 71.66346 210.295632 
L 71.153735 215.25807 
L 70.800528 220.234099 
L 70.604188 225.218782 
L 70.56491 230.207176 
L 70.682733 235.194333 
L 70.957541 240.175306 
L 71.389061 245.145156 
L 71.976865 250.098953 
L 72.72037 255.031783 
L 73.618838 259.938755 
L 74.671378 264.815001 
L 75.876947 269.655685 
L 77.234348 274.456005 
L 78.742236 279.211201 
L 80.399114 283.916557 
L 82.20334 288.567405 
L 84.153124 293.159132 
L 86.246531 297.687184 
L 88.481487 302.147071 
L 90.855774 306.534368 
L 93.367036 310.844725 
L 96.012785 315.073866 
L 98.790394 319.217596 
L 101.69711 323.271806 
L 104.730049 327.232475 
L 107.886204 331.095674 
L 111.162443 334.857571 
L 114.555518 338.514436 
L 118.062062 342.062641 
L 121.678599 345.498667 
L 125.401541 348.819107 
L 129.227195 352.020667 
L 133.151768 355.100171 
L 137.171366 358.054565 
L 141.282003 360.880919 
L 145.479602 363.57643 
L 149.76 366.138424 
L 154.118951 368.56436 
L 158.552131 370.851832 
L 163.055144 372.998571 
L 167.623524 375.002448 
L 172.252739 376.861476 
L 176.938198 378.57381 
L 181.675254 380.137752 
L 186.459208 381.551752 
L 191.285317 382.814406 
L 196.148792 383.924462 
L 201.04481 384.88082 
L 205.968516 385.682531 
L 210.915025 386.328799 
L 215.879432 386.818984 
L 220.856812 387.152599 
L 225.84223 387.329314 
L 230.83074 387.348953 
L 235.817394 387.211497 
L 240.797247 386.917081 
L 245.765359 386.466 
L 250.716804 385.858698 
L 255.646669 385.09578 
L 260.550065 384.178001 
L 265.42213 383.106272 
L 270.25803 381.881655 
L 275.05297 380.505367 
L 279.802193 378.97877 
L 284.500989 377.303381 
L 289.144698 375.480859 
L 293.728713 373.513014 
L 298.248489 371.401796 
L 302.699543 369.1493 
L 307.077459 366.75776 
L 311.377896 364.229547 
L 315.596588 361.56717 
L 319.729352 358.773269 
L 323.772087 355.850615 
L 327.720785 352.802107 
L 331.571528 349.630768 
L 335.320498 346.339744 
L 338.963977 342.932299 
L 342.49835 339.411813 
L 345.920112 335.781778 
L 349.22587 332.045792 
L 352.412343 328.207564 
L 355.476373 324.270898 
L 358.41492 320.2397 
L 361.22507 316.117968 
L 363.904034 311.90979 
L 366.449157 307.619339 
L 368.857914 303.250872 
L 371.127916 298.80872 
L 373.256911 294.297291 
L 375.242787 289.721058 
L 377.083576 285.08456 
L 378.777451 280.392396 
L 380.322732 275.64922 
L 381.717887 270.859735 
L 382.961532 266.028694 
L 384.052433 261.160886 
L 384.989509 256.261141 
L 385.77183 251.334317 
L 386.398619 246.385302 
L 386.869256 241.419004 
L 387.183274 236.440349 
L 387.340361 231.454274 
L 387.36 228.96 
L 387.36 228.96 
" clip-path="url(#pc333925a27)" style="fill: none; stroke: #000000; stroke-width: 1.8; stroke-linecap: square"/>
   </g>
   <g id="line2d_2">
    <path d="M 228.96 228.96 
L 387.36 228.96 
" clip-path="url(#pc333925a27)" style="fill: none; stroke: #000000; stroke-opacity: 0.6; stroke-width: 0.9; stroke-linecap: square"/>
   </g>
   <g id="line2d_3">
    <path d="M 228.96 228.96 
L 308.16 91.781576 
" clip-path="url(#pc333925a27)" style="fill: none; stroke: #000000; stroke-opacity: 0.6; stroke-width: 0.9; stroke-linecap: square"/>
   </g>
   <g id="line2d_4">
    <path d="M 228.96 228.96 
L 149.76 91.781576 
" clip-path="url(#pc333925a27)" style="fill: none; stroke: #000000; stroke-opacity: 0.6; stroke-width: 0.9; stroke-linecap: square"/>
   </g>
   <g id="line2d_5">
    <path d="M 228.96 228.96 
L 70.56 228.96 
" clip-path="url(#pc333925a27)" style="fill: none; stroke: #000000; stroke-opacity: 0.6; stroke-width: 0.9; stroke-linecap: square"/>
   </g>
   <g id="line2d_6">
    <path d="M 228.96 228.96 
L 149.76 366.138424 
" clip-path="url(#pc333925a27)" style="fill: none; stroke: #000000; stroke-opacity: 0.6; stroke-width: 0.9; stroke-linecap: square"/>
   </g>
   <g id="line2d_7">
    <path d="M 228.96 228.96 
L 308.16 366.138424 
" clip-path="url(#pc333925a27)" style="fill: none; stroke: #000000; stroke-opacity: 0.6; stroke-width: 0.9; stroke-linecap: square"/>
   </g>
   <g id="text_1">
    <!-- $Q^0$ -->
    <g transform="translate(402.166 232.392344) scale(0.11 -0.11)">
     <defs>
      <path id="DejaVuSans-Oblique-51" d="M 2309 -84 
Q 2275 -88 2237 -89 
Q 2200 -91 2125 -91 
Q 1250 -91 756 411 
Q 263 913 263 1797 
Q 263 2319 452 2844 
Q 641 3369 978 3788 
Q 1369 4269 1858 4509 
Q 2347 4750 2938 4750 
Q 3794 4750 4287 4245 
Q 4781 3741 4781 2869 
Q 4781 1928 4265 1147 
Q 3750 366 2919 44 
L 3553 -825 
L 2847 -825 
L 2309 -84 
z
M 2919 4238 
Q 2400 4238 2003 3986 
Q 1606 3734 1313 3219 
Q 1125 2891 1026 2522 
Q 928 2153 928 1778 
Q 928 1128 1239 775 
Q 1550 422 2119 422 
Q 2631 422 3032 676 
Q 3434 931 3719 1434 
Q 3909 1772 4009 2142 
Q 4109 2513 4109 2881 
Q 4109 3528 3796 3883 
Q 3484 4238 2919 4238 
z
" transform="scale(0.015625)"/>
      <path id="DejaVuSans-30" d="M 2034 4250 
Q 1547 4250 1301 3770 
Q 1056 3291 1056 2328 
Q 1056 1369 1301 889 
Q 1547 409 2034 409 
Q 2525 409 2770 889 
Q 3016 1369 3016 2328 
Q 3016 3291 2770 3770 
Q 2525 4250 2034 4250 
z
M 2034 4750 
Q 2819 4750 3233 4129 
Q 3647 3509 3647 2328 
Q 3647 1150 3233 529 
Q 2819 -91 2034 -91 
Q 1250 -91 836 529 
Q 422 1150 422 2328 
Q 422 3509 836 4129 
Q 1250 4750 2034 4750 
z
" transform="scale(0.015625)"/>
     </defs>
     <use xlink:href="#DejaVuSans-Oblique-51" transform="translate(0 0.765625)"/>
     <use xlink:href="#DejaVuSans-30" transform="translate(85.911458 39.046875) scale(0.7)"/>
    </g>
   </g>
   <g id="text_2">
    <!-- $Q^1$ -->
    <g transform="translate(311.878 75.95394) scale(0.11 -0.11)">
     <defs>
      <path id="DejaVuSans-31" d="M 794 531 
L 1825 531 
L 1825 4091 
L 703 3866 
L 703 4441 
L 1819 4666 
L 2450 4666 
L 2450 531 
L 3481 531 
L 3481 0 
L 794 0 
L 794 531 
z
" transform="scale(0.015625)"/>
     </defs>
     <use xlink:href="#DejaVuSans-Oblique-51" transform="translate(0 0.684375)"/>
     <use xlink:href="#DejaVuSans-31" transform="translate(85.911458 38.965625) scale(0.7)"/>
    </g>
   </g>
   <g id="text_3">
    <!-- $Q^2$ -->
    <g transform="translate(131.302 76.00894) scale(0.11 -0.11)">
     <defs>
      <path id="DejaVuSans-32" d="M 1228 531 
L 3431 531 
L 3431 0 
L 469 0 
L 469 531 
Q 828 903 1448 1529 
Q 2069 2156 2228 2338 
Q 2531 2678 2651 2914 
Q 2772 3150 2772 3378 
Q 2772 3750 2511 3984 
Q 2250 4219 1831 4219 
Q 1534 4219 1204 4116 
Q 875 4013 500 3803 
L 500 4441 
Q 881 4594 1212 4672 
Q 1544 4750 1819 4750 
Q 2544 4750 2975 4387 
Q 3406 4025 3406 3419 
Q 3406 3131 3298 2873 
Q 3191 2616 2906 2266 
Q 2828 2175 2409 1742 
Q 1991 1309 1228 531 
z
" transform="scale(0.015625)"/>
     </defs>
     <use xlink:href="#DejaVuSans-Oblique-51" transform="translate(0 0.765625)"/>
     <use xlink:href="#DejaVuSans-32" transform="translate(85.911458 39.046875) scale(0.7)"/>
    </g>
   </g>
   <g id="text_4">
    <!-- $Q^3$ -->
    <g transform="translate(41.014 232.392344) scale(0.11 -0.11)">
     <defs>
      <path id="DejaVuSans-33" d="M 2597 2516 
Q 3050 2419 3304 2112 
Q 3559 1806 3559 1356 
Q 3559 666 3084 287 
Q 2609 -91 1734 -91 
Q 1441 -91 1130 -33 
Q 819 25 488 141 
L 488 750 
Q 750 597 1062 519 
Q 1375 441 1716 441 
Q 2309 441 2620 675 
Q 2931 909 2931 1356 
Q 2931 1769 2642 2001 
Q 2353 2234 1838 2234 
L 1294 2234 
L 1294 2753 
L 1863 2753 
Q 2328 2753 2575 2939 
Q 2822 3125 2822 3475 
Q 2822 3834 2567 4026 
Q 2313 4219 1838 4219 
Q 1578 4219 1281 4162 
Q 984 4106 628 3988 
L 628 4550 
Q 988 4650 1302 4700 
Q 1616 4750 1894 4750 
Q 2613 4750 3031 4423 
Q 3450 4097 3450 3541 
Q 3450 3153 3228 2886 
Q 3006 2619 2597 2516 
z
" transform="scale(0.015625)"/>
     </defs>
     <use xlink:href="#DejaVuSans-Oblique-51" transform="translate(0 0.765625)"/>
     <use xlink:href="#DejaVuSans-33" transform="translate(85.911458 39.046875) scale(0.7)"/>
    </g>
   </g>
   <g id="text_5">
    <!-- $Q^4$ -->
    <g transform="translate(131.302 388.720747) scale(0.11 -0.11)">
     <defs>
      <path id="DejaVuSans-34" d="M 2419 4116 
L 825 1625 
L 2419 1625 
L 2419 4116 
z
M 2253 4666 
L 3047 4666 
L 3047 1625 
L 3713 1625 
L 3713 1100 
L 3047 1100 
L 3047 0 
L 2419 0 
L 2419 1100 
L 313 1100 
L 313 1709 
L 2253 4666 
z
" transform="scale(0.015625)"/>
     </defs>
     <use xlink:href="#DejaVuSans-Oblique-51" transform="translate(0 0.684375)"/>
     <use xlink:href="#DejaVuSans-34" transform="translate(85.911458 38.965625) scale(0.7)"/>
    </g>
   </g>
   <g id="text_6">
    <!-- $Q^5$ -->
    <g transform="translate(311.878 388.720747) scale(0.11 -0.11)">
     <defs>
      <path id="DejaVuSans-35" d="M 691 4666 
L 3169 4666 
L 3169 4134 
L 1269 4134 
L 1269 2991 
Q 1406 3038 1543 3061 
Q 1681 3084 1819 3084 
Q 2600 3084 3056 2656 
Q 3513 2228 3513 1497 
Q 3513 744 3044 326 
Q 2575 -91 1722 -91 
Q 1428 -91 1123 -41 
Q 819 9 494 109 
L 494 744 
Q 775 591 1075 516 
Q 1375 441 1709 441 
Q 2250 441 2565 725 
Q 2881 1009 2881 1497 
Q 2881 1984 2565 2268 
Q 2250 2553 1709 2553 
Q 1456 2553 1204 2497 
Q 953 2441 691 2322 
L 691 4666 
z
" transform="scale(0.015625)"/>
     </defs>
     <use xlink:href="#DejaVuSans-Oblique-51" transform="translate(0 0.684375)"/>
     <use xlink:href="#DejaVuSans-35" transform="translate(85.911458 38.965625) scale(0.7)"/>
    </g>
   </g>
   <g id="text_7">
    <!-- $Q=e^{u\pi/3}$ -->
    <g transform="translate(203.4 224.208) scale(0.12 -0.12)">
     <defs>
      <path id="DejaVuSans-3d" d="M 678 2906 
L 4684 2906 
L 4684 2381 
L 678 2381 
L 678 2906 
z
M 678 1631 
L 4684 1631 
L 4684 1100 
L 678 1100 
L 678 1631 
z
" transform="scale(0.015625)"/>
      <path id="DejaVuSans-Oblique-65" d="M 3078 2063 
Q 3088 2113 3092 2166 
Q 3097 2219 3097 2272 
Q 3097 2653 2873 2875 
Q 2650 3097 2266 3097 
Q 1838 3097 1509 2826 
Q 1181 2556 1013 2059 
L 3078 2063 
z
M 3578 1613 
L 903 1613 
Q 884 1494 878 1425 
Q 872 1356 872 1306 
Q 872 872 1139 634 
Q 1406 397 1894 397 
Q 2269 397 2603 481 
Q 2938 566 3225 728 
L 3116 159 
Q 2806 34 2476 -28 
Q 2147 -91 1806 -91 
Q 1078 -91 686 257 
Q 294 606 294 1247 
Q 294 1794 489 2264 
Q 684 2734 1063 3103 
Q 1306 3334 1642 3459 
Q 1978 3584 2356 3584 
Q 2950 3584 3301 3228 
Q 3653 2872 3653 2272 
Q 3653 2128 3634 1964 
Q 3616 1800 3578 1613 
z
" transform="scale(0.015625)"/>
      <path id="DejaVuSans-Oblique-75" d="M 428 1388 
L 838 3500 
L 1416 3500 
L 1006 1409 
Q 975 1256 961 1147 
Q 947 1038 947 966 
Q 947 700 1109 554 
Q 1272 409 1569 409 
Q 2031 409 2368 721 
Q 2706 1034 2809 1563 
L 3194 3500 
L 3769 3500 
L 3091 0 
L 2516 0 
L 2631 550 
Q 2388 244 2052 76 
Q 1716 -91 1338 -91 
Q 878 -91 622 161 
Q 366 413 366 863 
Q 366 956 381 1097 
Q 397 1238 428 1388 
z
" transform="scale(0.015625)"/>
      <path id="DejaVuSans-Oblique-3c0" d="M 584 3500 
L 3938 3500 
L 3825 2925 
L 3384 2925 
L 2966 775 
Q 2922 550 2981 450 
Q 3038 353 3209 353 
Q 3256 353 3325 363 
Q 3397 369 3419 372 
L 3338 -44 
Q 3222 -84 3103 -103 
Q 2981 -122 2866 -122 
Q 2491 -122 2388 81 
Q 2284 288 2391 838 
L 2797 2925 
L 1506 2925 
L 938 0 
L 350 0 
L 919 2925 
L 472 2925 
L 584 3500 
z
" transform="scale(0.015625)"/>
      <path id="DejaVuSans-2f" d="M 1625 4666 
L 2156 4666 
L 531 -594 
L 0 -594 
L 1625 4666 
z
" transform="scale(0.015625)"/>
     </defs>
     <use xlink:href="#DejaVuSans-Oblique-51" transform="translate(0 0.765625)"/>
     <use xlink:href="#DejaVuSans-3d" transform="translate(98.193359 0.765625)"/>
     <use xlink:href="#DejaVuSans-Oblique-65" transform="translate(201.464844 0.765625)"/>
     <use xlink:href="#DejaVuSans-Oblique-75" transform="translate(267.638177 39.046875) scale(0.7)"/>
     <use xlink:href="#DejaVuSans-Oblique-3c0" transform="translate(312.003411 39.046875) scale(0.7)"/>
     <use xlink:href="#DejaVuSans-2f" transform="translate(354.146966 39.046875) scale(0.7)"/>
     <use xlink:href="#DejaVuSans-33" transform="translate(377.730951 39.046875) scale(0.7)"/>
    </g>
   </g>
   <g id="text_8">
    <!-- Cadence checkpoints: $Q^3=-1$, $Q^6=1$ -->
    <g transform="translate(123.36 430.128) scale(0.11 -0.11)">
     <defs>
      <path id="DejaVuSans-43" d="M 4122 4306 
L 4122 3641 
Q 3803 3938 3442 4084 
Q 3081 4231 2675 4231 
Q 1875 4231 1450 3742 
Q 1025 3253 1025 2328 
Q 1025 1406 1450 917 
Q 1875 428 2675 428 
Q 3081 428 3442 575 
Q 3803 722 4122 1019 
L 4122 359 
Q 3791 134 3420 21 
Q 3050 -91 2638 -91 
Q 1578 -91 968 557 
Q 359 1206 359 2328 
Q 359 3453 968 4101 
Q 1578 4750 2638 4750 
Q 3056 4750 3426 4639 
Q 3797 4528 4122 4306 
z
" transform="scale(0.015625)"/>
      <path id="DejaVuSans-61" d="M 2194 1759 
Q 1497 1759 1228 1600 
Q 959 1441 959 1056 
Q 959 750 1161 570 
Q 1363 391 1709 391 
Q 2188 391 2477 730 
Q 2766 1069 2766 1631 
L 2766 1759 
L 2194 1759 
z
M 3341 1997 
L 3341 0 
L 2766 0 
L 2766 531 
Q 2569 213 2275 61 
Q 1981 -91 1556 -91 
Q 1019 -91 701 211 
Q 384 513 384 1019 
Q 384 1609 779 1909 
Q 1175 2209 1959 2209 
L 2766 2209 
L 2766 2266 
Q 2766 2663 2505 2880 
Q 2244 3097 1772 3097 
Q 1472 3097 1187 3025 
Q 903 2953 641 2809 
L 641 3341 
Q 956 3463 1253 3523 
Q 1550 3584 1831 3584 
Q 2591 3584 2966 3190 
Q 3341 2797 3341 1997 
z
" transform="scale(0.015625)"/>
      <path id="DejaVuSans-64" d="M 2906 2969 
L 2906 4863 
L 3481 4863 
L 3481 0 
L 2906 0 
L 2906 525 
Q 2725 213 2448 61 
Q 2172 -91 1784 -91 
Q 1150 -91 751 415 
Q 353 922 353 1747 
Q 353 2572 751 3078 
Q 1150 3584 1784 3584 
Q 2172 3584 2448 3432 
Q 2725 3281 2906 2969 
z
M 947 1747 
Q 947 1113 1208 752 
Q 1469 391 1925 391 
Q 2381 391 2643 752 
Q 2906 1113 2906 1747 
Q 2906 2381 2643 2742 
Q 2381 3103 1925 3103 
Q 1469 3103 1208 2742 
Q 947 2381 947 1747 
z
" transform="scale(0.015625)"/>
      <path id="DejaVuSans-65" d="M 3597 1894 
L 3597 1613 
L 953 1613 
Q 991 1019 1311 708 
Q 1631 397 2203 397 
Q 2534 397 2845 478 
Q 3156 559 3463 722 
L 3463 178 
Q 3153 47 2828 -22 
Q 2503 -91 2169 -91 
Q 1331 -91 842 396 
Q 353 884 353 1716 
Q 353 2575 817 3079 
Q 1281 3584 2069 3584 
Q 2775 3584 3186 3129 
Q 3597 2675 3597 1894 
z
M 3022 2063 
Q 3016 2534 2758 2815 
Q 2500 3097 2075 3097 
Q 1594 3097 1305 2825 
Q 1016 2553 972 2059 
L 3022 2063 
z
" transform="scale(0.015625)"/>
      <path id="DejaVuSans-6e" d="M 3513 2113 
L 3513 0 
L 2938 0 
L 2938 2094 
Q 2938 2591 2744 2837 
Q 2550 3084 2163 3084 
Q 1697 3084 1428 2787 
Q 1159 2491 1159 1978 
L 1159 0 
L 581 0 
L 581 3500 
L 1159 3500 
L 1159 2956 
Q 1366 3272 1645 3428 
Q 1925 3584 2291 3584 
Q 2894 3584 3203 3211 
Q 3513 2838 3513 2113 
z
" transform="scale(0.015625)"/>
      <path id="DejaVuSans-63" d="M 3122 3366 
L 3122 2828 
Q 2878 2963 2633 3030 
Q 2388 3097 2138 3097 
Q 1578 3097 1268 2742 
Q 959 2388 959 1747 
Q 959 1106 1268 751 
Q 1578 397 2138 397 
Q 2388 397 2633 464 
Q 2878 531 3122 666 
L 3122 134 
Q 2881 22 2623 -34 
Q 2366 -91 2075 -91 
Q 1284 -91 818 406 
Q 353 903 353 1747 
Q 353 2603 823 3093 
Q 1294 3584 2113 3584 
Q 2378 3584 2631 3529 
Q 2884 3475 3122 3366 
z
" transform="scale(0.015625)"/>
      <path id="DejaVuSans-20" transform="scale(0.015625)"/>
      <path id="DejaVuSans-68" d="M 3513 2113 
L 3513 0 
L 2938 0 
L 2938 2094 
Q 2938 2591 2744 2837 
Q 2550 3084 2163 3084 
Q 1697 3084 1428 2787 
Q 1159 2491 1159 1978 
L 1159 0 
L 581 0 
L 581 4863 
L 1159 4863 
L 1159 2956 
Q 1366 3272 1645 3428 
Q 1925 3584 2291 3584 
Q 2894 3584 3203 3211 
Q 3513 2838 3513 2113 
z
" transform="scale(0.015625)"/>
      <path id="DejaVuSans-6b" d="M 581 4863 
L 1159 4863 
L 1159 1991 
L 2875 3500 
L 3609 3500 
L 1753 1863 
L 3688 0 
L 2938 0 
L 1159 1709 
L 1159 0 
L 581 0 
L 581 4863 
z
" transform="scale(0.015625)"/>
      <path id="DejaVuSans-70" d="M 1159 525 
L 1159 -1331 
L 581 -1331 
L 581 3500 
L 1159 3500 
L 1159 2969 
Q 1341 3281 1617 3432 
Q 1894 3584 2278 3584 
Q 2916 3584 3314 3078 
Q 3713 2572 3713 1747 
Q 3713 922 3314 415 
Q 2916 -91 2278 -91 
Q 1894 -91 1617 61 
Q 1341 213 1159 525 
z
M 3116 1747 
Q 3116 2381 2855 2742 
Q 2594 3103 2138 3103 
Q 1681 3103 1420 2742 
Q 1159 2381 1159 1747 
Q 1159 1113 1420 752 
Q 1681 391 2138 391 
Q 2594 391 2855 752 
Q 3116 1113 3116 1747 
z
" transform="scale(0.015625)"/>
      <path id="DejaVuSans-6f" d="M 1959 3097 
Q 1497 3097 1228 2736 
Q 959 2375 959 1747 
Q 959 1119 1226 758 
Q 1494 397 1959 397 
Q 2419 397 2687 759 
Q 2956 1122 2956 1747 
Q 2956 2369 2687 2733 
Q 2419 3097 1959 3097 
z
M 1959 3584 
Q 2709 3584 3137 3096 
Q 3566 2609 3566 1747 
Q 3566 888 3137 398 
Q 2709 -91 1959 -91 
Q 1206 -91 779 398 
Q 353 888 353 1747 
Q 353 2609 779 3096 
Q 1206 3584 1959 3584 
z
" transform="scale(0.015625)"/>
      <path id="DejaVuSans-69" d="M 603 3500 
L 1178 3500 
L 1178 0 
L 603 0 
L 603 3500 
z
M 603 4863 
L 1178 4863 
L 1178 4134 
L 603 4134 
L 603 4863 
z
" transform="scale(0.015625)"/>
      <path id="DejaVuSans-74" d="M 1172 4494 
L 1172 3500 
L 2356 3500 
L 2356 3053 
L 1172 3053 
L 1172 1153 
Q 1172 725 1289 603 
Q 1406 481 1766 481 
L 2356 481 
L 2356 0 
L 1766 0 
Q 1100 0 847 248 
Q 594 497 594 1153 
L 594 3053 
L 172 3053 
L 172 3500 
L 594 3500 
L 594 4494 
L 1172 4494 
z
" transform="scale(0.015625)"/>
      <path id="DejaVuSans-73" d="M 2834 3397 
L 2834 2853 
Q 2591 2978 2328 3040 
Q 2066 3103 1784 3103 
Q 1356 3103 1142 2972 
Q 928 2841 928 2578 
Q 928 2378 1081 2264 
Q 1234 2150 1697 2047 
L 1894 2003 
Q 2506 1872 2764 1633 
Q 3022 1394 3022 966 
Q 3022 478 2636 193 
Q 2250 -91 1575 -91 
Q 1294 -91 989 -36 
Q 684 19 347 128 
L 347 722 
Q 666 556 975 473 
Q 1284 391 1588 391 
Q 1994 391 2212 530 
Q 2431 669 2431 922 
Q 2431 1156 2273 1281 
Q 2116 1406 1581 1522 
L 1381 1569 
Q 847 1681 609 1914 
Q 372 2147 372 2553 
Q 372 3047 722 3315 
Q 1072 3584 1716 3584 
Q 2034 3584 2315 3537 
Q 2597 3491 2834 3397 
z
" transform="scale(0.015625)"/>
      <path id="DejaVuSans-3a" d="M 750 794 
L 1409 794 
L 1409 0 
L 750 0 
L 750 794 
z
M 750 3309 
L 1409 3309 
L 1409 2516 
L 750 2516 
L 750 3309 
z
" transform="scale(0.015625)"/>
      <path id="DejaVuSans-2212" d="M 678 2272 
L 4684 2272 
L 4684 1741 
L 678 1741 
L 678 2272 
z
" transform="scale(0.015625)"/>
      <path id="DejaVuSans-2c" d="M 750 794 
L 1409 794 
L 1409 256 
L 897 -744 
L 494 -744 
L 750 256 
L 750 794 
z
" transform="scale(0.015625)"/>
      <path id="DejaVuSans-36" d="M 2113 2584 
Q 1688 2584 1439 2293 
Q 1191 2003 1191 1497 
Q 1191 994 1439 701 
Q 1688 409 2113 409 
Q 2538 409 2786 701 
Q 3034 994 3034 1497 
Q 3034 2003 2786 2293 
Q 2538 2584 2113 2584 
z
M 3366 4563 
L 3366 3988 
Q 3128 4100 2886 4159 
Q 2644 4219 2406 4219 
Q 1781 4219 1451 3797 
Q 1122 3375 1075 2522 
Q 1259 2794 1537 2939 
Q 1816 3084 2150 3084 
Q 2853 3084 3261 2657 
Q 3669 2231 3669 1497 
Q 3669 778 3244 343 
Q 2819 -91 2113 -91 
Q 1303 -91 875 529 
Q 447 1150 447 2328 
Q 447 3434 972 4092 
Q 1497 4750 2381 4750 
Q 2619 4750 2861 4703 
Q 3103 4656 3366 4563 
z
" transform="scale(0.015625)"/>
     </defs>
     <use xlink:href="#DejaVuSans-43" transform="translate(0 0.765625)"/>
     <use xlink:href="#DejaVuSans-61" transform="translate(69.824219 0.765625)"/>
     <use xlink:href="#DejaVuSans-64" transform="translate(131.103516 0.765625)"/>
     <use xlink:href="#DejaVuSans-65" transform="translate(194.580078 0.765625)"/>
     <use xlink:href="#DejaVuSans-6e" transform="translate(256.103516 0.765625)"/>
     <use xlink:href="#DejaVuSans-63" transform="translate(319.482422 0.765625)"/>
     <use xlink:href="#DejaVuSans-65" transform="translate(374.462891 0.765625)"/>
     <use xlink:href="#DejaVuSans-20" transform="translate(435.986328 0.765625)"/>
     <use xlink:href="#DejaVuSans-63" transform="translate(467.773438 0.765625)"/>
     <use xlink:href="#DejaVuSans-68" transform="translate(522.753906 0.765625)"/>
     <use xlink:href="#DejaVuSans-65" transform="translate(586.132812 0.765625)"/>
     <use xlink:href="#DejaVuSans-63" transform="translate(647.65625 0.765625)"/>
     <use xlink:href="#DejaVuSans-6b" transform="translate(702.636719 0.765625)"/>
     <use xlink:href="#DejaVuSans-70" transform="translate(760.546875 0.765625)"/>
     <use xlink:href="#DejaVuSans-6f" transform="translate(824.023438 0.765625)"/>
     <use xlink:href="#DejaVuSans-69" transform="translate(885.205078 0.765625)"/>
     <use xlink:href="#DejaVuSans-6e" transform="translate(912.988281 0.765625)"/>
     <use xlink:href="#DejaVuSans-74" transform="translate(976.367188 0.765625)"/>
     <use xlink:href="#DejaVuSans-73" transform="translate(1015.576172 0.765625)"/>
     <use xlink:href="#DejaVuSans-3a" transform="translate(1067.675781 0.765625)"/>
     <use xlink:href="#DejaVuSans-20" transform="translate(1101.367188 0.765625)"/>
     <use xlink:href="#DejaVuSans-Oblique-51" transform="translate(1133.154297 0.765625)"/>
     <use xlink:href="#DejaVuSans-33" transform="translate(1219.065755 39.046875) scale(0.7)"/>
     <use xlink:href="#DejaVuSans-3d" transform="translate(1285.818685 0.765625)"/>
     <use xlink:href="#DejaVuSans-2212" transform="translate(1389.090169 0.765625)"/>
     <use xlink:href="#DejaVuSans-31" transform="translate(1472.879232 0.765625)"/>
     <use xlink:href="#DejaVuSans-2c" transform="translate(1536.502279 0.765625)"/>
     <use xlink:href="#DejaVuSans-20" transform="translate(1568.289388 0.765625)"/>
     <use xlink:href="#DejaVuSans-Oblique-51" transform="translate(1600.076497 0.765625)"/>
     <use xlink:href="#DejaVuSans-36" transform="translate(1685.987956 39.046875) scale(0.7)"/>
     <use xlink:href="#DejaVuSans-3d" transform="translate(1752.740885 0.765625)"/>
     <use xlink:href="#DejaVuSans-31" transform="translate(1856.01237 0.765625)"/>
    </g>
   </g>
  </g>
 </g>
 <defs>
  <clipPath id="pc333925a27">
   <rect x="7.2" y="7.2" width="443.52" height="443.52"/>
  </clipPath>
 </defs>
</svg>
