<?xml version="1.0" encoding="utf-8" standalone="no"?>
<!DOCTYPE svg PUBLIC "-//W3C//DTD SVG 1.1//EN"
  "http://www.w3.org/Graphics/SVG/1.1/DTD/svg11.dtd">
<svg xmlns:xlink="http://www.w3.org/1999/xlink" width="446.832pt" height="446.832pt" viewBox="0 0 446.832 446.832" xmlns="http://www.w3.org/2000/svg" version="1.1">
 <metadata>
  <rdf:RDF xmlns:dc="http://purl.org/dc/elements/1.1/" xmlns:cc="http://creativecommons.org/ns#" xmlns:rdf="http://www.w3.org/1999/02/22-rdf-syntax-ns#">
   <cc:Work>
    <dc:type rdf:resource="http://purl.org/dc/dcmitype/StillImage"/>
    <dc:date>2026-04-26T19:59:55.725886</dc:date>
    <dc:format>image/svg+xml</dc:format>
    <dc:creator>
     <cc:Agent>
      <dc:title>Matplotlib v3.10.9, https://matplotlib.org/</dc:title>
     </cc:Agent>
    </dc:creator>
   </cc:Work>
  </rdf:RDF>
 </metadata>
 <defs>
  <style type="text/css">*{stroke-linejoin: round; stroke-linecap: butt}</style>
 </defs>
 <g id="figure_1">
  <g id="patch_1">
   <path d="M 0 446.832 
L 446.832 446.832 
L 446.832 0 
L 0 0 
z
" style="fill: #ffffff"/>
  </g>
  <g id="axes_1">
   <g id="patch_2">
    <path d="M 377.856 231.138 
C 379.903898 231.138 381.868196 230.324361 383.316279 228.876279 
C 384.764361 227.428196 385.578 225.463898 385.578 223.416 
C 385.578 221.368102 384.764361 219.403804 383.316279 217.955721 
C 381.868196 216.507639 379.903898 215.694 377.856 215.694 
C 375.808102 215.694 373.843804 216.507639 372.395721 217.955721 
C 370.947639 219.403804 370.134 221.368102 370.134 223.416 
C 370.134 225.463898 370.947639 227.428196 372.395721 228.876279 
C 373.843804 230.324361 375.808102 231.138 377.856 231.138 
z
" clip-path="url(#pa69c30c43a)" style="fill: #31a354; stroke: #31a354; stroke-linejoin: miter"/>
   </g>
   <g id="patch_3">
    <path d="M 300.636 97.389037 
C 302.683898 97.389037 304.648196 96.575398 306.096279 95.127315 
C 307.544361 93.679232 308.358 91.714935 308.358 89.667037 
C 308.358 87.619138 307.544361 85.654841 306.096279 84.206758 
C 304.648196 82.758675 302.683898 81.945037 300.636 81.945037 
C 298.588102 81.945037 296.623804 82.758675 295.175721 84.206758 
C 293.727639 85.654841 292.914 87.619138 292.914 89.667037 
C 292.914 91.714935 293.727639 93.679232 295.175721 95.127315 
C 296.623804 96.575398 298.588102 97.389037 300.636 97.389037 
z
" clip-path="url(#pa69c30c43a)" style="fill: #31a354; stroke: #31a354; stroke-linejoin: miter"/>
   </g>
   <g id="patch_4">
    <path d="M 146.196 97.389037 
C 148.243898 97.389037 150.208196 96.575398 151.656279 95.127315 
C 153.104361 93.679232 153.918 91.714935 153.918 89.667037 
C 153.918 87.619138 153.104361 85.654841 151.656279 84.206758 
C 150.208196 82.758675 148.243898 81.945037 146.196 81.945037 
C 144.148102 81.945037 142.183804 82.758675 140.735721 84.206758 
C 139.287639 85.654841 138.474 87.619138 138.474 89.667037 
C 138.474 91.714935 139.287639 93.679232 140.735721 95.127315 
C 142.183804 96.575398 144.148102 97.389037 146.196 97.389037 
z
" clip-path="url(#pa69c30c43a)" style="fill: #31a354; stroke: #31a354; stroke-linejoin: miter"/>
   </g>
   <g id="patch_5">
    <path d="M 68.976 231.138 
C 71.023898 231.138 72.988196 230.324361 74.436279 228.876279 
C 75.884361 227.428196 76.698 225.463898 76.698 223.416 
C 76.698 221.368102 75.884361 219.403804 74.436279 217.955721 
C 72.988196 216.507639 71.023898 215.694 68.976 215.694 
C 66.928102 215.694 64.963804 216.507639 63.515721 217.955721 
C 62.067639 219.403804 61.254 221.368102 61.254 223.416 
C 61.254 225.463898 62.067639 227.428196 63.515721 228.876279 
C 64.963804 230.324361 66.928102 231.138 68.976 231.138 
z
" clip-path="url(#pa69c30c43a)" style="fill: #31a354; stroke: #31a354; stroke-linejoin: miter"/>
   </g>
   <g id="patch_6">
    <path d="M 146.196 364.886963 
C 148.243898 364.886963 150.208196 364.073325 151.656279 362.625242 
C 153.104361 361.177159 153.918 359.212862 153.918 357.164963 
C 153.918 355.117065 153.104361 353.152768 151.656279 351.704685 
C 150.208196 350.256602 148.243898 349.442963 146.196 349.442963 
C 144.148102 349.442963 142.183804 350.256602 140.735721 351.704685 
C 139.287639 353.152768 138.474 355.117065 138.474 357.164963 
C 138.474 359.212862 139.287639 361.177159 140.735721 362.625242 
C 142.183804 364.073325 144.148102 364.886963 146.196 364.886963 
z
" clip-path="url(#pa69c30c43a)" style="fill: #31a354; stroke: #31a354; stroke-linejoin: miter"/>
   </g>
   <g id="patch_7">
    <path d="M 300.636 364.886963 
C 302.683898 364.886963 304.648196 364.073325 306.096279 362.625242 
C 307.544361 361.177159 308.358 359.212862 308.358 357.164963 
C 308.358 355.117065 307.544361 353.152768 306.096279 351.704685 
C 304.648196 350.256602 302.683898 349.442963 300.636 349.442963 
C 298.588102 349.442963 296.623804 350.256602 295.175721 351.704685 
C 293.727639 353.152768 292.914 355.117065 292.914 357.164963 
C 292.914 359.212862 293.727639 361.177159 295.175721 362.625242 
C 296.623804 364.073325 298.588102 364.886963 300.636 364.886963 
z
" clip-path="url(#pa69c30c43a)" style="fill: #31a354; stroke: #31a354; stroke-linejoin: miter"/>
   </g>
   <g id="line2d_1">
    <path d="M 377.856 223.416 
L 377.720077 216.937934 
L 377.312548 210.47127 
L 376.63413 204.027391 
L 375.686018 197.617641 
L 374.469879 191.253301 
L 372.987855 184.945573 
L 371.242555 178.705562 
L 369.23705 172.544249 
L 366.974871 166.472482 
L 364.459999 160.500946 
L 361.696861 154.640153 
L 358.690321 148.90042 
L 355.445671 143.291849 
L 351.968622 137.824313 
L 348.265295 132.507436 
L 344.342208 127.350575 
L 340.206266 122.36281 
L 335.86475 117.552918 
L 331.325302 112.929367 
L 326.595911 108.500294 
L 321.684903 104.273496 
L 316.600922 100.256413 
L 311.352917 96.456116 
L 305.950125 92.879293 
L 300.402056 89.532242 
L 294.718477 86.420853 
L 288.90939 83.550603 
L 282.985023 80.926544 
L 276.955801 78.553295 
L 270.832339 76.435034 
L 264.625415 74.575489 
L 258.345953 72.977933 
L 252.005008 71.645179 
L 245.613741 70.579571 
L 239.1834 69.782987 
L 232.725307 69.256828 
L 226.250827 69.00202 
L 219.771357 69.019011 
L 213.298302 69.307772 
L 206.843057 69.867795 
L 200.416983 70.698094 
L 194.031392 71.797207 
L 187.697524 73.163199 
L 181.426528 74.793667 
L 175.229441 76.68574 
L 169.117173 78.836088 
L 163.100482 81.240925 
L 157.189958 83.89602 
L 151.396005 86.796697 
L 145.728822 89.937852 
L 140.198384 93.313956 
L 134.814425 96.919065 
L 129.586424 100.746834 
L 124.523581 104.790526 
L 119.634809 109.043023 
L 114.928712 113.496839 
L 110.413576 118.144134 
L 106.097346 122.97673 
L 101.98762 127.986119 
L 98.091633 133.163484 
L 94.416243 138.499711 
L 90.967917 143.985408 
L 87.752727 149.610919 
L 84.776332 155.366341 
L 82.04397 161.241545 
L 79.560452 167.226189 
L 77.330148 173.309737 
L 75.356985 179.481483 
L 73.644436 185.730563 
L 72.195515 192.045976 
L 71.012772 198.416607 
L 70.098289 204.831242 
L 69.453677 211.27859 
L 69.080069 217.747302 
L 68.978124 224.225992 
L 69.148021 230.703257 
L 69.58946 237.167694 
L 70.301665 243.607926 
L 71.283381 250.012616 
L 72.532882 256.37049 
L 74.047968 262.670358 
L 75.825971 268.90113 
L 77.863763 275.051839 
L 80.157756 281.111659 
L 82.703912 287.069923 
L 85.49775 292.916143 
L 88.534352 298.640029 
L 91.808372 304.231505 
L 95.314049 309.68073 
L 99.045211 314.978112 
L 102.99529 320.114326 
L 107.157334 325.080331 
L 111.524017 329.867387 
L 116.087652 334.467066 
L 120.840207 338.871274 
L 125.773315 343.072257 
L 130.878295 347.06262 
L 136.14616 350.835341 
L 141.567637 354.383778 
L 147.133183 357.701686 
L 152.833003 360.783224 
L 158.657063 363.622967 
L 164.595112 366.215918 
L 170.636697 368.557513 
L 176.771185 370.643629 
L 182.987777 372.470595 
L 189.275531 374.035195 
L 195.623378 375.334675 
L 202.020147 376.366747 
L 208.454576 377.129595 
L 214.915341 377.621877 
L 221.391068 377.842725 
L 227.87036 377.79175 
L 234.341811 377.469044 
L 240.794031 376.875173 
L 247.215661 376.011183 
L 253.5954 374.878594 
L 259.922016 373.479401 
L 266.184375 371.816066 
L 272.371453 369.891518 
L 278.472359 367.709142 
L 284.476355 365.272782 
L 290.372873 362.586725 
L 296.151533 359.6557 
L 301.802163 356.484866 
L 307.314819 353.079803 
L 312.679795 349.446506 
L 317.887649 345.59137 
L 322.929215 341.521181 
L 327.795616 337.243103 
L 332.478289 332.764666 
L 336.96899 328.093753 
L 341.259815 323.238587 
L 345.343211 318.207713 
L 349.211991 313.009986 
L 352.859344 307.654556 
L 356.278851 302.150849 
L 359.464493 296.508552 
L 362.410662 290.737598 
L 365.112172 284.848145 
L 367.564268 278.850559 
L 369.762635 272.755396 
L 371.703402 266.573387 
L 373.383153 260.315411 
L 374.798932 253.992486 
L 375.948247 247.615739 
L 376.829073 241.196396 
L 377.439863 234.745756 
L 377.779539 228.275174 
L 377.856 223.416 
L 377.856 223.416 
" clip-path="url(#pa69c30c43a)" style="fill: none; stroke: #4a6fa5; stroke-width: 2; stroke-linecap: square"/>
   </g>
   <g id="line2d_2">
    <path d="M 223.416 223.416 
L 377.856 223.416 
" clip-path="url(#pa69c30c43a)" style="fill: none; stroke: #999999; stroke-linecap: square"/>
   </g>
   <g id="line2d_3">
    <path d="M 223.416 223.416 
L 300.636 89.667037 
" clip-path="url(#pa69c30c43a)" style="fill: none; stroke: #999999; stroke-linecap: square"/>
   </g>
   <g id="line2d_4">
    <path d="M 223.416 223.416 
L 146.196 89.667037 
" clip-path="url(#pa69c30c43a)" style="fill: none; stroke: #999999; stroke-linecap: square"/>
   </g>
   <g id="line2d_5">
    <path d="M 223.416 223.416 
L 68.976 223.416 
" clip-path="url(#pa69c30c43a)" style="fill: none; stroke: #999999; stroke-linecap: square"/>
   </g>
   <g id="line2d_6">
    <path d="M 223.416 223.416 
L 146.196 357.164963 
" clip-path="url(#pa69c30c43a)" style="fill: none; stroke: #999999; stroke-linecap: square"/>
   </g>
   <g id="line2d_7">
    <path d="M 223.416 223.416 
L 300.636 357.164963 
" clip-path="url(#pa69c30c43a)" style="fill: none; stroke: #999999; stroke-linecap: square"/>
   </g>
   <g id="text_1">
    <!-- Q^0 -->
    <g transform="translate(388.170569 226.175375) scale(0.1 -0.1)">
     <defs>
      <path id="DejaVuSans-51" d="M 2522 4238 
Q 1834 4238 1429 3725 
Q 1025 3213 1025 2328 
Q 1025 1447 1429 934 
Q 1834 422 2522 422 
Q 3209 422 3611 934 
Q 4013 1447 4013 2328 
Q 4013 3213 3611 3725 
Q 3209 4238 2522 4238 
z
M 3406 84 
L 4238 -825 
L 3475 -825 
L 2784 -78 
Q 2681 -84 2626 -87 
Q 2572 -91 2522 -91 
Q 1538 -91 948 567 
Q 359 1225 359 2328 
Q 359 3434 948 4092 
Q 1538 4750 2522 4750 
Q 3503 4750 4090 4092 
Q 4678 3434 4678 2328 
Q 4678 1516 4351 937 
Q 4025 359 3406 84 
z
" transform="scale(0.015625)"/>
      <path id="DejaVuSans-5e" d="M 2988 4666 
L 4684 2925 
L 4056 2925 
L 2681 4159 
L 1306 2925 
L 678 2925 
L 2375 4666 
L 2988 4666 
z
" transform="scale(0.015625)"/>
      <path id="DejaVuSans-30" d="M 2034 4250 
Q 1547 4250 1301 3770 
Q 1056 3291 1056 2328 
Q 1056 1369 1301 889 
Q 1547 409 2034 409 
Q 2525 409 2770 889 
Q 3016 1369 3016 2328 
Q 3016 3291 2770 3770 
Q 2525 4250 2034 4250 
z
M 2034 4750 
Q 2819 4750 3233 4129 
Q 3647 3509 3647 2328 
Q 3647 1150 3233 529 
Q 2819 -91 2034 -91 
Q 1250 -91 836 529 
Q 422 1150 422 2328 
Q 422 3509 836 4129 
Q 1250 4750 2034 4750 
z
" transform="scale(0.015625)"/>
     </defs>
     <use xlink:href="#DejaVuSans-51"/>
     <use xlink:href="#DejaVuSans-5e" transform="translate(78.710938 0)"/>
     <use xlink:href="#DejaVuSans-30" transform="translate(162.5 0)"/>
    </g>
   </g>
   <g id="text_2">
    <!-- Q^1 -->
    <g transform="translate(300.139769 73.701557) scale(0.1 -0.1)">
     <defs>
      <path id="DejaVuSans-31" d="M 794 531 
L 1825 531 
L 1825 4091 
L 703 3866 
L 703 4441 
L 1819 4666 
L 2450 4666 
L 2450 531 
L 3481 531 
L 3481 0 
L 794 0 
L 794 531 
z
" transform="scale(0.015625)"/>
     </defs>
     <use xlink:href="#DejaVuSans-51"/>
     <use xlink:href="#DejaVuSans-5e" transform="translate(78.710938 0)"/>
     <use xlink:href="#DejaVuSans-31" transform="translate(162.5 0)"/>
    </g>
   </g>
   <g id="text_3">
    <!-- Q^2 -->
    <g transform="translate(124.078169 73.701557) scale(0.1 -0.1)">
     <defs>
      <path id="DejaVuSans-32" d="M 1228 531 
L 3431 531 
L 3431 0 
L 469 0 
L 469 531 
Q 828 903 1448 1529 
Q 2069 2156 2228 2338 
Q 2531 2678 2651 2914 
Q 2772 3150 2772 3378 
Q 2772 3750 2511 3984 
Q 2250 4219 1831 4219 
Q 1534 4219 1204 4116 
Q 875 4013 500 3803 
L 500 4441 
Q 881 4594 1212 4672 
Q 1544 4750 1819 4750 
Q 2544 4750 2975 4387 
Q 3406 4025 3406 3419 
Q 3406 3131 3298 2873 
Q 3191 2616 2906 2266 
Q 2828 2175 2409 1742 
Q 1991 1309 1228 531 
z
" transform="scale(0.015625)"/>
     </defs>
     <use xlink:href="#DejaVuSans-51"/>
     <use xlink:href="#DejaVuSans-5e" transform="translate(78.710938 0)"/>
     <use xlink:href="#DejaVuSans-32" transform="translate(162.5 0)"/>
    </g>
   </g>
   <g id="text_4">
    <!-- Q^3 -->
    <g transform="translate(36.047369 226.175375) scale(0.1 -0.1)">
     <defs>
      <path id="DejaVuSans-33" d="M 2597 2516 
Q 3050 2419 3304 2112 
Q 3559 1806 3559 1356 
Q 3559 666 3084 287 
Q 2609 -91 1734 -91 
Q 1441 -91 1130 -33 
Q 819 25 488 141 
L 488 750 
Q 750 597 1062 519 
Q 1375 441 1716 441 
Q 2309 441 2620 675 
Q 2931 909 2931 1356 
Q 2931 1769 2642 2001 
Q 2353 2234 1838 2234 
L 1294 2234 
L 1294 2753 
L 1863 2753 
Q 2328 2753 2575 2939 
Q 2822 3125 2822 3475 
Q 2822 3834 2567 4026 
Q 2313 4219 1838 4219 
Q 1578 4219 1281 4162 
Q 984 4106 628 3988 
L 628 4550 
Q 988 4650 1302 4700 
Q 1616 4750 1894 4750 
Q 2613 4750 3031 4423 
Q 3450 4097 3450 3541 
Q 3450 3153 3228 2886 
Q 3006 2619 2597 2516 
z
" transform="scale(0.015625)"/>
     </defs>
     <use xlink:href="#DejaVuSans-51"/>
     <use xlink:href="#DejaVuSans-5e" transform="translate(78.710938 0)"/>
     <use xlink:href="#DejaVuSans-33" transform="translate(162.5 0)"/>
    </g>
   </g>
   <g id="text_5">
    <!-- Q^4 -->
    <g transform="translate(124.078169 378.649193) scale(0.1 -0.1)">
     <defs>
      <path id="DejaVuSans-34" d="M 2419 4116 
L 825 1625 
L 2419 1625 
L 2419 4116 
z
M 2253 4666 
L 3047 4666 
L 3047 1625 
L 3713 1625 
L 3713 1100 
L 3047 1100 
L 3047 0 
L 2419 0 
L 2419 1100 
L 313 1100 
L 313 1709 
L 2253 4666 
z
" transform="scale(0.015625)"/>
     </defs>
     <use xlink:href="#DejaVuSans-51"/>
     <use xlink:href="#DejaVuSans-5e" transform="translate(78.710938 0)"/>
     <use xlink:href="#DejaVuSans-34" transform="translate(162.5 0)"/>
    </g>
   </g>
   <g id="text_6">
    <!-- Q^5 -->
    <g transform="translate(300.139769 378.649193) scale(0.1 -0.1)">
     <defs>
      <path id="DejaVuSans-35" d="M 691 4666 
L 3169 4666 
L 3169 4134 
L 1269 4134 
L 1269 2991 
Q 1406 3038 1543 3061 
Q 1681 3084 1819 3084 
Q 2600 3084 3056 2656 
Q 3513 2228 3513 1497 
Q 3513 744 3044 326 
Q 2575 -91 1722 -91 
Q 1428 -91 1123 -41 
Q 819 9 494 109 
L 494 744 
Q 775 591 1075 516 
Q 1375 441 1709 441 
Q 2250 441 2565 725 
Q 2881 1009 2881 1497 
Q 2881 1984 2565 2268 
Q 2250 2553 1709 2553 
Q 1456 2553 1204 2497 
Q 953 2441 691 2322 
L 691 4666 
z
" transform="scale(0.015625)"/>
     </defs>
     <use xlink:href="#DejaVuSans-51"/>
     <use xlink:href="#DejaVuSans-5e" transform="translate(78.710938 0)"/>
     <use xlink:href="#DejaVuSans-35" transform="translate(162.5 0)"/>
    </g>
   </g>
   <g id="text_7">
    <!-- Q=e^{uπ/3} -->
    <g transform="translate(184.056938 226.72725) scale(0.12 -0.12)">
     <defs>
      <path id="DejaVuSans-3d" d="M 678 2906 
L 4684 2906 
L 4684 2381 
L 678 2381 
L 678 2906 
z
M 678 1631 
L 4684 1631 
L 4684 1100 
L 678 1100 
L 678 1631 
z
" transform="scale(0.015625)"/>
      <path id="DejaVuSans-65" d="M 3597 1894 
L 3597 1613 
L 953 1613 
Q 991 1019 1311 708 
Q 1631 397 2203 397 
Q 2534 397 2845 478 
Q 3156 559 3463 722 
L 3463 178 
Q 3153 47 2828 -22 
Q 2503 -91 2169 -91 
Q 1331 -91 842 396 
Q 353 884 353 1716 
Q 353 2575 817 3079 
Q 1281 3584 2069 3584 
Q 2775 3584 3186 3129 
Q 3597 2675 3597 1894 
z
M 3022 2063 
Q 3016 2534 2758 2815 
Q 2500 3097 2075 3097 
Q 1594 3097 1305 2825 
Q 1016 2553 972 2059 
L 3022 2063 
z
" transform="scale(0.015625)"/>
      <path id="DejaVuSans-7b" d="M 3272 -594 
L 3272 -1044 
L 3078 -1044 
Q 2300 -1044 2036 -812 
Q 1772 -581 1772 109 
L 1772 856 
Q 1772 1328 1603 1509 
Q 1434 1691 991 1691 
L 800 1691 
L 800 2138 
L 991 2138 
Q 1438 2138 1605 2317 
Q 1772 2497 1772 2963 
L 1772 3713 
Q 1772 4403 2036 4633 
Q 2300 4863 3078 4863 
L 3272 4863 
L 3272 4416 
L 3059 4416 
Q 2619 4416 2484 4278 
Q 2350 4141 2350 3700 
L 2350 2925 
Q 2350 2434 2208 2212 
Q 2066 1991 1722 1913 
Q 2069 1828 2209 1606 
Q 2350 1384 2350 897 
L 2350 122 
Q 2350 -319 2484 -456 
Q 2619 -594 3059 -594 
L 3272 -594 
z
" transform="scale(0.015625)"/>
      <path id="DejaVuSans-75" d="M 544 1381 
L 544 3500 
L 1119 3500 
L 1119 1403 
Q 1119 906 1312 657 
Q 1506 409 1894 409 
Q 2359 409 2629 706 
Q 2900 1003 2900 1516 
L 2900 3500 
L 3475 3500 
L 3475 0 
L 2900 0 
L 2900 538 
Q 2691 219 2414 64 
Q 2138 -91 1772 -91 
Q 1169 -91 856 284 
Q 544 659 544 1381 
z
M 1991 3584 
L 1991 3584 
z
" transform="scale(0.015625)"/>
      <path id="DejaVuSans-3c0" d="M 231 3500 
L 3584 3500 
L 3584 2925 
L 3144 2925 
L 3144 775 
Q 3144 550 3220 451 
Q 3297 353 3469 353 
Q 3516 353 3584 361 
Q 3653 369 3675 372 
L 3675 -44 
Q 3566 -84 3450 -103 
Q 3334 -122 3219 -122 
Q 2844 -122 2700 83 
Q 2556 288 2556 838 
L 2556 2925 
L 1266 2925 
L 1266 0 
L 678 0 
L 678 2925 
L 231 2925 
L 231 3500 
z
" transform="scale(0.015625)"/>
      <path id="DejaVuSans-2f" d="M 1625 4666 
L 2156 4666 
L 531 -594 
L 0 -594 
L 1625 4666 
z
" transform="scale(0.015625)"/>
      <path id="DejaVuSans-7d" d="M 800 -594 
L 1019 -594 
Q 1456 -594 1589 -459 
Q 1722 -325 1722 122 
L 1722 897 
Q 1722 1384 1862 1606 
Q 2003 1828 2350 1913 
Q 2003 1991 1862 2212 
Q 1722 2434 1722 2925 
L 1722 3700 
Q 1722 4144 1589 4280 
Q 1456 4416 1019 4416 
L 800 4416 
L 800 4863 
L 997 4863 
Q 1775 4863 2036 4633 
Q 2297 4403 2297 3713 
L 2297 2963 
Q 2297 2497 2465 2317 
Q 2634 2138 3078 2138 
L 3272 2138 
L 3272 1691 
L 3078 1691 
Q 2634 1691 2465 1509 
Q 2297 1328 2297 856 
L 2297 109 
Q 2297 -581 2036 -812 
Q 1775 -1044 997 -1044 
L 800 -1044 
L 800 -594 
z
" transform="scale(0.015625)"/>
     </defs>
     <use xlink:href="#DejaVuSans-51"/>
     <use xlink:href="#DejaVuSans-3d" transform="translate(78.710938 0)"/>
     <use xlink:href="#DejaVuSans-65" transform="translate(162.5 0)"/>
     <use xlink:href="#DejaVuSans-5e" transform="translate(224.023438 0)"/>
     <use xlink:href="#DejaVuSans-7b" transform="translate(307.8125 0)"/>
     <use xlink:href="#DejaVuSans-75" transform="translate(371.435547 0)"/>
     <use xlink:href="#DejaVuSans-3c0" transform="translate(434.814453 0)"/>
     <use xlink:href="#DejaVuSans-2f" transform="translate(495.019531 0)"/>
     <use xlink:href="#DejaVuSans-33" transform="translate(528.710938 0)"/>
     <use xlink:href="#DejaVuSans-7d" transform="translate(592.333984 0)"/>
    </g>
   </g>
   <g id="text_8">
    <!-- Q^3=-1   and   Q^6=1 -->
    <g transform="translate(159.504281 424.134512) scale(0.11 -0.11)">
     <defs>
      <path id="DejaVuSans-2d" d="M 313 2009 
L 1997 2009 
L 1997 1497 
L 313 1497 
L 313 2009 
z
" transform="scale(0.015625)"/>
      <path id="DejaVuSans-20" transform="scale(0.015625)"/>
      <path id="DejaVuSans-61" d="M 2194 1759 
Q 1497 1759 1228 1600 
Q 959 1441 959 1056 
Q 959 750 1161 570 
Q 1363 391 1709 391 
Q 2188 391 2477 730 
Q 2766 1069 2766 1631 
L 2766 1759 
L 2194 1759 
z
M 3341 1997 
L 3341 0 
L 2766 0 
L 2766 531 
Q 2569 213 2275 61 
Q 1981 -91 1556 -91 
Q 1019 -91 701 211 
Q 384 513 384 1019 
Q 384 1609 779 1909 
Q 1175 2209 1959 2209 
L 2766 2209 
L 2766 2266 
Q 2766 2663 2505 2880 
Q 2244 3097 1772 3097 
Q 1472 3097 1187 3025 
Q 903 2953 641 2809 
L 641 3341 
Q 956 3463 1253 3523 
Q 1550 3584 1831 3584 
Q 2591 3584 2966 3190 
Q 3341 2797 3341 1997 
z
" transform="scale(0.015625)"/>
      <path id="DejaVuSans-6e" d="M 3513 2113 
L 3513 0 
L 2938 0 
L 2938 2094 
Q 2938 2591 2744 2837 
Q 2550 3084 2163 3084 
Q 1697 3084 1428 2787 
Q 1159 2491 1159 1978 
L 1159 0 
L 581 0 
L 581 3500 
L 1159 3500 
L 1159 2956 
Q 1366 3272 1645 3428 
Q 1925 3584 2291 3584 
Q 2894 3584 3203 3211 
Q 3513 2838 3513 2113 
z
" transform="scale(0.015625)"/>
      <path id="DejaVuSans-64" d="M 2906 2969 
L 2906 4863 
L 3481 4863 
L 3481 0 
L 2906 0 
L 2906 525 
Q 2725 213 2448 61 
Q 2172 -91 1784 -91 
Q 1150 -91 751 415 
Q 353 922 353 1747 
Q 353 2572 751 3078 
Q 1150 3584 1784 3584 
Q 2172 3584 2448 3432 
Q 2725 3281 2906 2969 
z
M 947 1747 
Q 947 1113 1208 752 
Q 1469 391 1925 391 
Q 2381 391 2643 752 
Q 2906 1113 2906 1747 
Q 2906 2381 2643 2742 
Q 2381 3103 1925 3103 
Q 1469 3103 1208 2742 
Q 947 2381 947 1747 
z
" transform="scale(0.015625)"/>
      <path id="DejaVuSans-36" d="M 2113 2584 
Q 1688 2584 1439 2293 
Q 1191 2003 1191 1497 
Q 1191 994 1439 701 
Q 1688 409 2113 409 
Q 2538 409 2786 701 
Q 3034 994 3034 1497 
Q 3034 2003 2786 2293 
Q 2538 2584 2113 2584 
z
M 3366 4563 
L 3366 3988 
Q 3128 4100 2886 4159 
Q 2644 4219 2406 4219 
Q 1781 4219 1451 3797 
Q 1122 3375 1075 2522 
Q 1259 2794 1537 2939 
Q 1816 3084 2150 3084 
Q 2853 3084 3261 2657 
Q 3669 2231 3669 1497 
Q 3669 778 3244 343 
Q 2819 -91 2113 -91 
Q 1303 -91 875 529 
Q 447 1150 447 2328 
Q 447 3434 972 4092 
Q 1497 4750 2381 4750 
Q 2619 4750 2861 4703 
Q 3103 4656 3366 4563 
z
" transform="scale(0.015625)"/>
     </defs>
     <use xlink:href="#DejaVuSans-51"/>
     <use xlink:href="#DejaVuSans-5e" transform="translate(78.710938 0)"/>
     <use xlink:href="#DejaVuSans-33" transform="translate(162.5 0)"/>
     <use xlink:href="#DejaVuSans-3d" transform="translate(226.123047 0)"/>
     <use xlink:href="#DejaVuSans-2d" transform="translate(309.912109 0)"/>
     <use xlink:href="#DejaVuSans-31" transform="translate(345.996094 0)"/>
     <use xlink:href="#DejaVuSans-20" transform="translate(409.619141 0)"/>
     <use xlink:href="#DejaVuSans-20" transform="translate(441.40625 0)"/>
     <use xlink:href="#DejaVuSans-20" transform="translate(473.193359 0)"/>
     <use xlink:href="#DejaVuSans-61" transform="translate(504.980469 0)"/>
     <use xlink:href="#DejaVuSans-6e" transform="translate(566.259766 0)"/>
     <use xlink:href="#DejaVuSans-64" transform="translate(629.638672 0)"/>
     <use xlink:href="#DejaVuSans-20" transform="translate(693.115234 0)"/>
     <use xlink:href="#DejaVuSans-20" transform="translate(724.902344 0)"/>
     <use xlink:href="#DejaVuSans-20" transform="translate(756.689453 0)"/>
     <use xlink:href="#DejaVuSans-51" transform="translate(788.476562 0)"/>
     <use xlink:href="#DejaVuSans-5e" transform="translate(867.1875 0)"/>
     <use xlink:href="#DejaVuSans-36" transform="translate(950.976562 0)"/>
     <use xlink:href="#DejaVuSans-3d" transform="translate(1014.599609 0)"/>
     <use xlink:href="#DejaVuSans-31" transform="translate(1098.388672 0)"/>
    </g>
   </g>
  </g>
 </g>
 <defs>
  <clipPath id="pa69c30c43a">
   <rect x="7.2" y="7.2" width="432.432" height="432.432"/>
  </clipPath>
 </defs>
</svg>
