<?xml version="1.0" encoding="utf-8" standalone="no"?>
<!DOCTYPE svg PUBLIC "-//W3C//DTD SVG 1.1//EN"
  "http://www.w3.org/Graphics/SVG/1.1/DTD/svg11.dtd">
<svg xmlns:xlink="http://www.w3.org/1999/xlink" width="516.922812pt" height="517.43625pt" viewBox="0 0 516.922812 517.43625" xmlns="http://www.w3.org/2000/svg" version="1.1">
 <metadata>
  <rdf:RDF xmlns:dc="http://purl.org/dc/elements/1.1/" xmlns:cc="http://creativecommons.org/ns#" xmlns:rdf="http://www.w3.org/1999/02/22-rdf-syntax-ns#">
   <cc:Work>
    <dc:type rdf:resource="http://purl.org/dc/dcmitype/StillImage"/>
    <dc:date>2026-04-26T19:59:55.286502</dc:date>
    <dc:format>image/svg+xml</dc:format>
    <dc:creator>
     <cc:Agent>
      <dc:title>Matplotlib v3.10.9, https://matplotlib.org/</dc:title>
     </cc:Agent>
    </dc:creator>
   </cc:Work>
  </rdf:RDF>
 </metadata>
 <defs>
  <style type="text/css">*{stroke-linejoin: round; stroke-linecap: butt}</style>
 </defs>
 <g id="figure_1">
  <g id="patch_1">
   <path d="M 0 517.43625 
L 516.922812 517.43625 
L 516.922812 0 
L 0 0 
z
" style="fill: #ffffff"/>
  </g>
  <g id="axes_1">
   <g id="patch_2">
    <path d="M 38.482813 493.558125 
L 509.722812 493.558125 
L 509.722812 22.318125 
L 38.482813 22.318125 
z
" style="fill: #fcfcfd"/>
   </g>
   <g id="patch_3">
    <path d="M 215.439603 413.540519 
L 215.939563 400.654324 
L 218.483471 401.613395 
L 272.830858 257.458589 
L 275.374767 258.417661 
L 221.02738 402.572467 
L 223.571288 403.531538 
z
" clip-path="url(#p41f9362c4b)" style="fill: #2c7fb8; stroke: #2c7fb8; stroke-linejoin: miter"/>
   </g>
   <g id="patch_4">
    <path d="M 215.439603 102.335731 
L 223.571288 112.344712 
L 221.02738 113.303783 
L 275.374767 257.458589 
L 272.830858 258.417661 
L 218.483471 114.262855 
L 215.939563 115.221926 
z
" clip-path="url(#p41f9362c4b)" style="fill: #31a354; stroke: #31a354; stroke-linejoin: miter"/>
   </g>
   <g id="matplotlib.axis_1">
    <g id="xtick_1">
     <g id="line2d_1">
      <path d="M 92.856659 493.558125 
L 92.856659 22.318125 
" clip-path="url(#p41f9362c4b)" style="fill: none; stroke: #b0b0b0; stroke-opacity: 0.22; stroke-width: 0.7; stroke-linecap: square"/>
     </g>
     <g id="line2d_2">
      <defs>
       <path id="m9c04ab4bdf" d="M 0 0 
L 0 3.5 
" style="stroke: #000000; stroke-width: 0.8"/>
      </defs>
      <g>
       <use xlink:href="#m9c04ab4bdf" x="92.856659" y="493.558125" style="stroke: #000000; stroke-width: 0.8"/>
      </g>
     </g>
     <g id="text_1">
      <!-- −1.0 -->
      <g transform="translate(80.715252 508.156562) scale(0.1 -0.1)">
       <defs>
        <path id="DejaVuSans-2212" d="M 678 2272 
L 4684 2272 
L 4684 1741 
L 678 1741 
L 678 2272 
z
" transform="scale(0.015625)"/>
        <path id="DejaVuSans-31" d="M 794 531 
L 1825 531 
L 1825 4091 
L 703 3866 
L 703 4441 
L 1819 4666 
L 2450 4666 
L 2450 531 
L 3481 531 
L 3481 0 
L 794 0 
L 794 531 
z
" transform="scale(0.015625)"/>
        <path id="DejaVuSans-2e" d="M 684 794 
L 1344 794 
L 1344 0 
L 684 0 
L 684 794 
z
" transform="scale(0.015625)"/>
        <path id="DejaVuSans-30" d="M 2034 4250 
Q 1547 4250 1301 3770 
Q 1056 3291 1056 2328 
Q 1056 1369 1301 889 
Q 1547 409 2034 409 
Q 2525 409 2770 889 
Q 3016 1369 3016 2328 
Q 3016 3291 2770 3770 
Q 2525 4250 2034 4250 
z
M 2034 4750 
Q 2819 4750 3233 4129 
Q 3647 3509 3647 2328 
Q 3647 1150 3233 529 
Q 2819 -91 2034 -91 
Q 1250 -91 836 529 
Q 422 1150 422 2328 
Q 422 3509 836 4129 
Q 1250 4750 2034 4750 
z
" transform="scale(0.015625)"/>
       </defs>
       <use xlink:href="#DejaVuSans-2212"/>
       <use xlink:href="#DejaVuSans-31" transform="translate(83.789062 0)"/>
       <use xlink:href="#DejaVuSans-2e" transform="translate(147.412109 0)"/>
       <use xlink:href="#DejaVuSans-30" transform="translate(179.199219 0)"/>
      </g>
     </g>
    </g>
    <g id="xtick_2">
     <g id="line2d_3">
      <path d="M 183.479736 493.558125 
L 183.479736 22.318125 
" clip-path="url(#p41f9362c4b)" style="fill: none; stroke: #b0b0b0; stroke-opacity: 0.22; stroke-width: 0.7; stroke-linecap: square"/>
     </g>
     <g id="line2d_4">
      <g>
       <use xlink:href="#m9c04ab4bdf" x="183.479736" y="493.558125" style="stroke: #000000; stroke-width: 0.8"/>
      </g>
     </g>
     <g id="text_2">
      <!-- −0.5 -->
      <g transform="translate(171.338329 508.156562) scale(0.1 -0.1)">
       <defs>
        <path id="DejaVuSans-35" d="M 691 4666 
L 3169 4666 
L 3169 4134 
L 1269 4134 
L 1269 2991 
Q 1406 3038 1543 3061 
Q 1681 3084 1819 3084 
Q 2600 3084 3056 2656 
Q 3513 2228 3513 1497 
Q 3513 744 3044 326 
Q 2575 -91 1722 -91 
Q 1428 -91 1123 -41 
Q 819 9 494 109 
L 494 744 
Q 775 591 1075 516 
Q 1375 441 1709 441 
Q 2250 441 2565 725 
Q 2881 1009 2881 1497 
Q 2881 1984 2565 2268 
Q 2250 2553 1709 2553 
Q 1456 2553 1204 2497 
Q 953 2441 691 2322 
L 691 4666 
z
" transform="scale(0.015625)"/>
       </defs>
       <use xlink:href="#DejaVuSans-2212"/>
       <use xlink:href="#DejaVuSans-30" transform="translate(83.789062 0)"/>
       <use xlink:href="#DejaVuSans-2e" transform="translate(147.412109 0)"/>
       <use xlink:href="#DejaVuSans-35" transform="translate(179.199219 0)"/>
      </g>
     </g>
    </g>
    <g id="xtick_3">
     <g id="line2d_5">
      <path d="M 274.102812 493.558125 
L 274.102812 22.318125 
" clip-path="url(#p41f9362c4b)" style="fill: none; stroke: #b0b0b0; stroke-opacity: 0.22; stroke-width: 0.7; stroke-linecap: square"/>
     </g>
     <g id="line2d_6">
      <g>
       <use xlink:href="#m9c04ab4bdf" x="274.102812" y="493.558125" style="stroke: #000000; stroke-width: 0.8"/>
      </g>
     </g>
     <g id="text_3">
      <!-- 0.0 -->
      <g transform="translate(266.15125 508.156562) scale(0.1 -0.1)">
       <use xlink:href="#DejaVuSans-30"/>
       <use xlink:href="#DejaVuSans-2e" transform="translate(63.623047 0)"/>
       <use xlink:href="#DejaVuSans-30" transform="translate(95.410156 0)"/>
      </g>
     </g>
    </g>
    <g id="xtick_4">
     <g id="line2d_7">
      <path d="M 364.725889 493.558125 
L 364.725889 22.318125 
" clip-path="url(#p41f9362c4b)" style="fill: none; stroke: #b0b0b0; stroke-opacity: 0.22; stroke-width: 0.7; stroke-linecap: square"/>
     </g>
     <g id="line2d_8">
      <g>
       <use xlink:href="#m9c04ab4bdf" x="364.725889" y="493.558125" style="stroke: #000000; stroke-width: 0.8"/>
      </g>
     </g>
     <g id="text_4">
      <!-- 0.5 -->
      <g transform="translate(356.774327 508.156562) scale(0.1 -0.1)">
       <use xlink:href="#DejaVuSans-30"/>
       <use xlink:href="#DejaVuSans-2e" transform="translate(63.623047 0)"/>
       <use xlink:href="#DejaVuSans-35" transform="translate(95.410156 0)"/>
      </g>
     </g>
    </g>
    <g id="xtick_5">
     <g id="line2d_9">
      <path d="M 455.348966 493.558125 
L 455.348966 22.318125 
" clip-path="url(#p41f9362c4b)" style="fill: none; stroke: #b0b0b0; stroke-opacity: 0.22; stroke-width: 0.7; stroke-linecap: square"/>
     </g>
     <g id="line2d_10">
      <g>
       <use xlink:href="#m9c04ab4bdf" x="455.348966" y="493.558125" style="stroke: #000000; stroke-width: 0.8"/>
      </g>
     </g>
     <g id="text_5">
      <!-- 1.0 -->
      <g transform="translate(447.397404 508.156562) scale(0.1 -0.1)">
       <use xlink:href="#DejaVuSans-31"/>
       <use xlink:href="#DejaVuSans-2e" transform="translate(63.623047 0)"/>
       <use xlink:href="#DejaVuSans-30" transform="translate(95.410156 0)"/>
      </g>
     </g>
    </g>
   </g>
   <g id="matplotlib.axis_2">
    <g id="ytick_1">
     <g id="line2d_11">
      <path d="M 38.482813 439.184279 
L 509.722812 439.184279 
" clip-path="url(#p41f9362c4b)" style="fill: none; stroke: #b0b0b0; stroke-opacity: 0.22; stroke-width: 0.7; stroke-linecap: square"/>
     </g>
     <g id="line2d_12">
      <defs>
       <path id="m1cda1b3630" d="M 0 0 
L -3.5 0 
" style="stroke: #000000; stroke-width: 0.8"/>
      </defs>
      <g>
       <use xlink:href="#m1cda1b3630" x="38.482813" y="439.184279" style="stroke: #000000; stroke-width: 0.8"/>
      </g>
     </g>
     <g id="text_6">
      <!-- −1.0 -->
      <g transform="translate(7.2 442.983498) scale(0.1 -0.1)">
       <use xlink:href="#DejaVuSans-2212"/>
       <use xlink:href="#DejaVuSans-31" transform="translate(83.789062 0)"/>
       <use xlink:href="#DejaVuSans-2e" transform="translate(147.412109 0)"/>
       <use xlink:href="#DejaVuSans-30" transform="translate(179.199219 0)"/>
      </g>
     </g>
    </g>
    <g id="ytick_2">
     <g id="line2d_13">
      <path d="M 38.482813 348.561202 
L 509.722812 348.561202 
" clip-path="url(#p41f9362c4b)" style="fill: none; stroke: #b0b0b0; stroke-opacity: 0.22; stroke-width: 0.7; stroke-linecap: square"/>
     </g>
     <g id="line2d_14">
      <g>
       <use xlink:href="#m1cda1b3630" x="38.482813" y="348.561202" style="stroke: #000000; stroke-width: 0.8"/>
      </g>
     </g>
     <g id="text_7">
      <!-- −0.5 -->
      <g transform="translate(7.2 352.360421) scale(0.1 -0.1)">
       <use xlink:href="#DejaVuSans-2212"/>
       <use xlink:href="#DejaVuSans-30" transform="translate(83.789062 0)"/>
       <use xlink:href="#DejaVuSans-2e" transform="translate(147.412109 0)"/>
       <use xlink:href="#DejaVuSans-35" transform="translate(179.199219 0)"/>
      </g>
     </g>
    </g>
    <g id="ytick_3">
     <g id="line2d_15">
      <path d="M 38.482813 257.938125 
L 509.722812 257.938125 
" clip-path="url(#p41f9362c4b)" style="fill: none; stroke: #b0b0b0; stroke-opacity: 0.22; stroke-width: 0.7; stroke-linecap: square"/>
     </g>
     <g id="line2d_16">
      <g>
       <use xlink:href="#m1cda1b3630" x="38.482813" y="257.938125" style="stroke: #000000; stroke-width: 0.8"/>
      </g>
     </g>
     <g id="text_8">
      <!-- 0.0 -->
      <g transform="translate(15.579688 261.737344) scale(0.1 -0.1)">
       <use xlink:href="#DejaVuSans-30"/>
       <use xlink:href="#DejaVuSans-2e" transform="translate(63.623047 0)"/>
       <use xlink:href="#DejaVuSans-30" transform="translate(95.410156 0)"/>
      </g>
     </g>
    </g>
    <g id="ytick_4">
     <g id="line2d_17">
      <path d="M 38.482813 167.315048 
L 509.722812 167.315048 
" clip-path="url(#p41f9362c4b)" style="fill: none; stroke: #b0b0b0; stroke-opacity: 0.22; stroke-width: 0.7; stroke-linecap: square"/>
     </g>
     <g id="line2d_18">
      <g>
       <use xlink:href="#m1cda1b3630" x="38.482813" y="167.315048" style="stroke: #000000; stroke-width: 0.8"/>
      </g>
     </g>
     <g id="text_9">
      <!-- 0.5 -->
      <g transform="translate(15.579688 171.114267) scale(0.1 -0.1)">
       <use xlink:href="#DejaVuSans-30"/>
       <use xlink:href="#DejaVuSans-2e" transform="translate(63.623047 0)"/>
       <use xlink:href="#DejaVuSans-35" transform="translate(95.410156 0)"/>
      </g>
     </g>
    </g>
    <g id="ytick_5">
     <g id="line2d_19">
      <path d="M 38.482813 76.691971 
L 509.722812 76.691971 
" clip-path="url(#p41f9362c4b)" style="fill: none; stroke: #b0b0b0; stroke-opacity: 0.22; stroke-width: 0.7; stroke-linecap: square"/>
     </g>
     <g id="line2d_20">
      <g>
       <use xlink:href="#m1cda1b3630" x="38.482813" y="76.691971" style="stroke: #000000; stroke-width: 0.8"/>
      </g>
     </g>
     <g id="text_10">
      <!-- 1.0 -->
      <g transform="translate(15.579688 80.49119) scale(0.1 -0.1)">
       <use xlink:href="#DejaVuSans-31"/>
       <use xlink:href="#DejaVuSans-2e" transform="translate(63.623047 0)"/>
       <use xlink:href="#DejaVuSans-30" transform="translate(95.410156 0)"/>
      </g>
     </g>
    </g>
   </g>
   <g id="line2d_21">
    <path d="M 455.348966 257.938125 
L 455.219669 251.093241 
L 454.831963 244.258123 
L 454.1864 237.442523 
L 453.283902 230.656165 
L 452.125757 223.908732 
L 450.713616 217.209851 
L 449.049495 210.569079 
L 447.135768 203.995891 
L 444.975165 197.499665 
L 442.570769 191.08967 
L 439.926011 184.775052 
L 437.044663 178.564819 
L 433.930837 172.467833 
L 430.588976 166.492792 
L 427.023847 160.648221 
L 423.240537 154.942459 
L 419.244445 149.383646 
L 415.04127 143.979714 
L 410.637011 138.738373 
L 406.037951 133.667101 
L 401.250652 128.773133 
L 396.281944 124.063452 
L 391.138917 119.544778 
L 385.828907 115.223556 
L 380.359492 111.105954 
L 374.738474 107.197845 
L 368.973874 103.504806 
L 363.073916 100.032105 
L 357.047018 96.784698 
L 350.901779 93.767217 
L 344.646967 90.983968 
L 338.291505 88.438921 
L 331.844462 86.135709 
L 325.315036 84.077616 
L 318.712542 82.26758 
L 312.046401 80.708183 
L 305.326124 79.401649 
L 298.561299 78.349844 
L 291.761577 77.554267 
L 284.936661 77.016053 
L 278.096288 76.735971 
L 271.250217 76.714421 
L 264.408216 76.951432 
L 257.580047 77.446667 
L 250.775451 78.199419 
L 244.004138 79.208614 
L 237.275769 80.472813 
L 230.599942 81.990211 
L 223.986184 83.758643 
L 217.44393 85.775588 
L 210.982514 88.038166 
L 204.611156 90.543149 
L 198.338945 93.286965 
L 192.17483 96.265697 
L 186.127607 99.475096 
L 180.205903 102.910584 
L 174.418166 106.567257 
L 168.772656 110.4399 
L 163.277425 114.522987 
L 157.940316 118.810692 
L 152.768942 123.296898 
L 147.770681 127.975204 
L 142.952666 132.838935 
L 138.32177 137.881152 
L 133.8846 143.094661 
L 129.647487 148.472024 
L 125.616477 154.005568 
L 121.79732 159.687398 
L 118.195466 165.509409 
L 114.816054 171.463292 
L 111.663905 177.540553 
L 108.743516 183.732523 
L 106.059055 190.030365 
L 103.614351 196.425096 
L 101.412892 202.90759 
L 99.45782 209.4686 
L 97.751923 216.098763 
L 96.297636 222.788622 
L 95.097034 229.528629 
L 94.151829 236.309171 
L 93.463369 243.120571 
L 93.032639 249.953113 
L 92.860251 256.797047 
L 92.946451 263.642609 
L 93.291118 270.480033 
L 93.893759 277.299562 
L 94.753514 284.091467 
L 95.869156 290.846058 
L 97.239095 297.553697 
L 98.861374 304.204814 
L 100.73368 310.78992 
L 102.853342 317.29962 
L 105.217335 323.724625 
L 107.822285 330.055769 
L 110.664478 336.284019 
L 113.739857 342.400488 
L 117.044035 348.396451 
L 120.572297 354.263351 
L 124.31961 359.992819 
L 128.280627 365.576679 
L 132.449696 371.006966 
L 136.82087 376.275931 
L 141.387911 381.376058 
L 146.144304 386.300068 
L 151.083263 391.040937 
L 156.19774 395.591901 
L 161.480439 399.946467 
L 166.923823 404.098422 
L 172.520125 408.041842 
L 178.26136 411.7711 
L 184.139338 415.280877 
L 190.145671 418.566163 
L 196.271791 421.622273 
L 202.508957 424.444846 
L 208.84827 427.029854 
L 215.280685 429.37361 
L 221.797025 431.472769 
L 228.387992 433.324337 
L 235.044183 434.925672 
L 241.756101 436.274489 
L 248.514171 437.368863 
L 255.308748 438.207233 
L 262.130141 438.788404 
L 268.968615 439.111546 
L 275.814415 439.176197 
L 282.657773 438.982266 
L 289.488925 438.530029 
L 296.298124 437.820132 
L 303.075657 436.853587 
L 309.811852 435.631774 
L 316.497099 434.156435 
L 323.12186 432.429676 
L 329.676682 430.45396 
L 336.152215 428.232106 
L 342.539218 425.767284 
L 348.828579 423.063011 
L 355.011324 420.123146 
L 361.078633 416.951882 
L 367.021849 413.553744 
L 372.832492 409.933581 
L 378.502272 406.096557 
L 384.0231 402.048148 
L 389.387098 397.794129 
L 394.586613 393.34057 
L 399.614228 388.693824 
L 404.462769 383.860522 
L 409.125317 378.84756 
L 413.595222 373.662089 
L 417.866105 368.311509 
L 421.931874 362.803453 
L 425.786726 357.145779 
L 429.425162 351.346561 
L 432.841992 345.414072 
L 436.032339 339.356776 
L 438.991653 333.183315 
L 441.71571 326.902498 
L 444.200625 320.523285 
L 446.442853 314.054779 
L 448.439193 307.506208 
L 450.186797 300.886916 
L 451.683173 294.206346 
L 452.926185 287.474031 
L 453.91406 280.699574 
L 454.645388 273.892643 
L 455.119126 267.062949 
L 455.334598 260.220235 
L 455.348966 257.938125 
L 455.348966 257.938125 
" clip-path="url(#p41f9362c4b)" style="fill: none; stroke: #6baed6; stroke-width: 2; stroke-linecap: square"/>
   </g>
   <g id="patch_5">
    <path d="M 38.482813 493.558125 
L 38.482813 22.318125 
" style="fill: none; opacity: 0.35; stroke: #000000; stroke-width: 0.8; stroke-linejoin: miter; stroke-linecap: square"/>
   </g>
   <g id="patch_6">
    <path d="M 509.722812 493.558125 
L 509.722812 22.318125 
" style="fill: none; opacity: 0.35; stroke: #000000; stroke-width: 0.8; stroke-linejoin: miter; stroke-linecap: square"/>
   </g>
   <g id="patch_7">
    <path d="M 38.482812 493.558125 
L 509.722812 493.558125 
" style="fill: none; opacity: 0.35; stroke: #000000; stroke-width: 0.8; stroke-linejoin: miter; stroke-linecap: square"/>
   </g>
   <g id="patch_8">
    <path d="M 38.482812 22.318125 
L 509.722812 22.318125 
" style="fill: none; opacity: 0.35; stroke: #000000; stroke-width: 0.8; stroke-linejoin: miter; stroke-linecap: square"/>
   </g>
   <g id="text_11">
    <!-- p^{-(1/2+it)} -->
    <g style="fill: #2c7fb8" transform="translate(215.279758 413.964503) scale(0.11 -0.11)">
     <defs>
      <path id="DejaVuSans-70" d="M 1159 525 
L 1159 -1331 
L 581 -1331 
L 581 3500 
L 1159 3500 
L 1159 2969 
Q 1341 3281 1617 3432 
Q 1894 3584 2278 3584 
Q 2916 3584 3314 3078 
Q 3713 2572 3713 1747 
Q 3713 922 3314 415 
Q 2916 -91 2278 -91 
Q 1894 -91 1617 61 
Q 1341 213 1159 525 
z
M 3116 1747 
Q 3116 2381 2855 2742 
Q 2594 3103 2138 3103 
Q 1681 3103 1420 2742 
Q 1159 2381 1159 1747 
Q 1159 1113 1420 752 
Q 1681 391 2138 391 
Q 2594 391 2855 752 
Q 3116 1113 3116 1747 
z
" transform="scale(0.015625)"/>
      <path id="DejaVuSans-5e" d="M 2988 4666 
L 4684 2925 
L 4056 2925 
L 2681 4159 
L 1306 2925 
L 678 2925 
L 2375 4666 
L 2988 4666 
z
" transform="scale(0.015625)"/>
      <path id="DejaVuSans-7b" d="M 3272 -594 
L 3272 -1044 
L 3078 -1044 
Q 2300 -1044 2036 -812 
Q 1772 -581 1772 109 
L 1772 856 
Q 1772 1328 1603 1509 
Q 1434 1691 991 1691 
L 800 1691 
L 800 2138 
L 991 2138 
Q 1438 2138 1605 2317 
Q 1772 2497 1772 2963 
L 1772 3713 
Q 1772 4403 2036 4633 
Q 2300 4863 3078 4863 
L 3272 4863 
L 3272 4416 
L 3059 4416 
Q 2619 4416 2484 4278 
Q 2350 4141 2350 3700 
L 2350 2925 
Q 2350 2434 2208 2212 
Q 2066 1991 1722 1913 
Q 2069 1828 2209 1606 
Q 2350 1384 2350 897 
L 2350 122 
Q 2350 -319 2484 -456 
Q 2619 -594 3059 -594 
L 3272 -594 
z
" transform="scale(0.015625)"/>
      <path id="DejaVuSans-2d" d="M 313 2009 
L 1997 2009 
L 1997 1497 
L 313 1497 
L 313 2009 
z
" transform="scale(0.015625)"/>
      <path id="DejaVuSans-28" d="M 1984 4856 
Q 1566 4138 1362 3434 
Q 1159 2731 1159 2009 
Q 1159 1288 1364 580 
Q 1569 -128 1984 -844 
L 1484 -844 
Q 1016 -109 783 600 
Q 550 1309 550 2009 
Q 550 2706 781 3412 
Q 1013 4119 1484 4856 
L 1984 4856 
z
" transform="scale(0.015625)"/>
      <path id="DejaVuSans-2f" d="M 1625 4666 
L 2156 4666 
L 531 -594 
L 0 -594 
L 1625 4666 
z
" transform="scale(0.015625)"/>
      <path id="DejaVuSans-32" d="M 1228 531 
L 3431 531 
L 3431 0 
L 469 0 
L 469 531 
Q 828 903 1448 1529 
Q 2069 2156 2228 2338 
Q 2531 2678 2651 2914 
Q 2772 3150 2772 3378 
Q 2772 3750 2511 3984 
Q 2250 4219 1831 4219 
Q 1534 4219 1204 4116 
Q 875 4013 500 3803 
L 500 4441 
Q 881 4594 1212 4672 
Q 1544 4750 1819 4750 
Q 2544 4750 2975 4387 
Q 3406 4025 3406 3419 
Q 3406 3131 3298 2873 
Q 3191 2616 2906 2266 
Q 2828 2175 2409 1742 
Q 1991 1309 1228 531 
z
" transform="scale(0.015625)"/>
      <path id="DejaVuSans-2b" d="M 2944 4013 
L 2944 2272 
L 4684 2272 
L 4684 1741 
L 2944 1741 
L 2944 0 
L 2419 0 
L 2419 1741 
L 678 1741 
L 678 2272 
L 2419 2272 
L 2419 4013 
L 2944 4013 
z
" transform="scale(0.015625)"/>
      <path id="DejaVuSans-69" d="M 603 3500 
L 1178 3500 
L 1178 0 
L 603 0 
L 603 3500 
z
M 603 4863 
L 1178 4863 
L 1178 4134 
L 603 4134 
L 603 4863 
z
" transform="scale(0.015625)"/>
      <path id="DejaVuSans-74" d="M 1172 4494 
L 1172 3500 
L 2356 3500 
L 2356 3053 
L 1172 3053 
L 1172 1153 
Q 1172 725 1289 603 
Q 1406 481 1766 481 
L 2356 481 
L 2356 0 
L 1766 0 
Q 1100 0 847 248 
Q 594 497 594 1153 
L 594 3053 
L 172 3053 
L 172 3500 
L 594 3500 
L 594 4494 
L 1172 4494 
z
" transform="scale(0.015625)"/>
      <path id="DejaVuSans-29" d="M 513 4856 
L 1013 4856 
Q 1481 4119 1714 3412 
Q 1947 2706 1947 2009 
Q 1947 1309 1714 600 
Q 1481 -109 1013 -844 
L 513 -844 
Q 928 -128 1133 580 
Q 1338 1288 1338 2009 
Q 1338 2731 1133 3434 
Q 928 4138 513 4856 
z
" transform="scale(0.015625)"/>
      <path id="DejaVuSans-7d" d="M 800 -594 
L 1019 -594 
Q 1456 -594 1589 -459 
Q 1722 -325 1722 122 
L 1722 897 
Q 1722 1384 1862 1606 
Q 2003 1828 2350 1913 
Q 2003 1991 1862 2212 
Q 1722 2434 1722 2925 
L 1722 3700 
Q 1722 4144 1589 4280 
Q 1456 4416 1019 4416 
L 800 4416 
L 800 4863 
L 997 4863 
Q 1775 4863 2036 4633 
Q 2297 4403 2297 3713 
L 2297 2963 
Q 2297 2497 2465 2317 
Q 2634 2138 3078 2138 
L 3272 2138 
L 3272 1691 
L 3078 1691 
Q 2634 1691 2465 1509 
Q 2297 1328 2297 856 
L 2297 109 
Q 2297 -581 2036 -812 
Q 1775 -1044 997 -1044 
L 800 -1044 
L 800 -594 
z
" transform="scale(0.015625)"/>
     </defs>
     <use xlink:href="#DejaVuSans-70"/>
     <use xlink:href="#DejaVuSans-5e" transform="translate(63.476562 0)"/>
     <use xlink:href="#DejaVuSans-7b" transform="translate(147.265625 0)"/>
     <use xlink:href="#DejaVuSans-2d" transform="translate(210.888672 0)"/>
     <use xlink:href="#DejaVuSans-28" transform="translate(246.972656 0)"/>
     <use xlink:href="#DejaVuSans-31" transform="translate(285.986328 0)"/>
     <use xlink:href="#DejaVuSans-2f" transform="translate(349.609375 0)"/>
     <use xlink:href="#DejaVuSans-32" transform="translate(383.300781 0)"/>
     <use xlink:href="#DejaVuSans-2b" transform="translate(446.923828 0)"/>
     <use xlink:href="#DejaVuSans-69" transform="translate(530.712891 0)"/>
     <use xlink:href="#DejaVuSans-74" transform="translate(558.496094 0)"/>
     <use xlink:href="#DejaVuSans-29" transform="translate(597.705078 0)"/>
     <use xlink:href="#DejaVuSans-7d" transform="translate(636.71875 0)"/>
    </g>
   </g>
   <g id="text_12">
    <!-- p^{-(1/2-it)} -->
    <g style="fill: #31a354" transform="translate(215.279758 101.911747) scale(0.11 -0.11)">
     <use xlink:href="#DejaVuSans-70"/>
     <use xlink:href="#DejaVuSans-5e" transform="translate(63.476562 0)"/>
     <use xlink:href="#DejaVuSans-7b" transform="translate(147.265625 0)"/>
     <use xlink:href="#DejaVuSans-2d" transform="translate(210.888672 0)"/>
     <use xlink:href="#DejaVuSans-28" transform="translate(246.972656 0)"/>
     <use xlink:href="#DejaVuSans-31" transform="translate(285.986328 0)"/>
     <use xlink:href="#DejaVuSans-2f" transform="translate(349.609375 0)"/>
     <use xlink:href="#DejaVuSans-32" transform="translate(383.300781 0)"/>
     <use xlink:href="#DejaVuSans-2d" transform="translate(446.923828 0)"/>
     <use xlink:href="#DejaVuSans-69" transform="translate(483.007812 0)"/>
     <use xlink:href="#DejaVuSans-74" transform="translate(510.791016 0)"/>
     <use xlink:href="#DejaVuSans-29" transform="translate(550 0)"/>
     <use xlink:href="#DejaVuSans-7d" transform="translate(589.013672 0)"/>
    </g>
   </g>
   <g id="text_13">
    <!-- Opposite phase directions at equal amplitude on Re(s)=1/2 -->
    <g transform="translate(125.542656 479.058433) scale(0.1 -0.1)">
     <defs>
      <path id="DejaVuSans-4f" d="M 2522 4238 
Q 1834 4238 1429 3725 
Q 1025 3213 1025 2328 
Q 1025 1447 1429 934 
Q 1834 422 2522 422 
Q 3209 422 3611 934 
Q 4013 1447 4013 2328 
Q 4013 3213 3611 3725 
Q 3209 4238 2522 4238 
z
M 2522 4750 
Q 3503 4750 4090 4092 
Q 4678 3434 4678 2328 
Q 4678 1225 4090 567 
Q 3503 -91 2522 -91 
Q 1538 -91 948 565 
Q 359 1222 359 2328 
Q 359 3434 948 4092 
Q 1538 4750 2522 4750 
z
" transform="scale(0.015625)"/>
      <path id="DejaVuSans-6f" d="M 1959 3097 
Q 1497 3097 1228 2736 
Q 959 2375 959 1747 
Q 959 1119 1226 758 
Q 1494 397 1959 397 
Q 2419 397 2687 759 
Q 2956 1122 2956 1747 
Q 2956 2369 2687 2733 
Q 2419 3097 1959 3097 
z
M 1959 3584 
Q 2709 3584 3137 3096 
Q 3566 2609 3566 1747 
Q 3566 888 3137 398 
Q 2709 -91 1959 -91 
Q 1206 -91 779 398 
Q 353 888 353 1747 
Q 353 2609 779 3096 
Q 1206 3584 1959 3584 
z
" transform="scale(0.015625)"/>
      <path id="DejaVuSans-73" d="M 2834 3397 
L 2834 2853 
Q 2591 2978 2328 3040 
Q 2066 3103 1784 3103 
Q 1356 3103 1142 2972 
Q 928 2841 928 2578 
Q 928 2378 1081 2264 
Q 1234 2150 1697 2047 
L 1894 2003 
Q 2506 1872 2764 1633 
Q 3022 1394 3022 966 
Q 3022 478 2636 193 
Q 2250 -91 1575 -91 
Q 1294 -91 989 -36 
Q 684 19 347 128 
L 347 722 
Q 666 556 975 473 
Q 1284 391 1588 391 
Q 1994 391 2212 530 
Q 2431 669 2431 922 
Q 2431 1156 2273 1281 
Q 2116 1406 1581 1522 
L 1381 1569 
Q 847 1681 609 1914 
Q 372 2147 372 2553 
Q 372 3047 722 3315 
Q 1072 3584 1716 3584 
Q 2034 3584 2315 3537 
Q 2597 3491 2834 3397 
z
" transform="scale(0.015625)"/>
      <path id="DejaVuSans-65" d="M 3597 1894 
L 3597 1613 
L 953 1613 
Q 991 1019 1311 708 
Q 1631 397 2203 397 
Q 2534 397 2845 478 
Q 3156 559 3463 722 
L 3463 178 
Q 3153 47 2828 -22 
Q 2503 -91 2169 -91 
Q 1331 -91 842 396 
Q 353 884 353 1716 
Q 353 2575 817 3079 
Q 1281 3584 2069 3584 
Q 2775 3584 3186 3129 
Q 3597 2675 3597 1894 
z
M 3022 2063 
Q 3016 2534 2758 2815 
Q 2500 3097 2075 3097 
Q 1594 3097 1305 2825 
Q 1016 2553 972 2059 
L 3022 2063 
z
" transform="scale(0.015625)"/>
      <path id="DejaVuSans-20" transform="scale(0.015625)"/>
      <path id="DejaVuSans-68" d="M 3513 2113 
L 3513 0 
L 2938 0 
L 2938 2094 
Q 2938 2591 2744 2837 
Q 2550 3084 2163 3084 
Q 1697 3084 1428 2787 
Q 1159 2491 1159 1978 
L 1159 0 
L 581 0 
L 581 4863 
L 1159 4863 
L 1159 2956 
Q 1366 3272 1645 3428 
Q 1925 3584 2291 3584 
Q 2894 3584 3203 3211 
Q 3513 2838 3513 2113 
z
" transform="scale(0.015625)"/>
      <path id="DejaVuSans-61" d="M 2194 1759 
Q 1497 1759 1228 1600 
Q 959 1441 959 1056 
Q 959 750 1161 570 
Q 1363 391 1709 391 
Q 2188 391 2477 730 
Q 2766 1069 2766 1631 
L 2766 1759 
L 2194 1759 
z
M 3341 1997 
L 3341 0 
L 2766 0 
L 2766 531 
Q 2569 213 2275 61 
Q 1981 -91 1556 -91 
Q 1019 -91 701 211 
Q 384 513 384 1019 
Q 384 1609 779 1909 
Q 1175 2209 1959 2209 
L 2766 2209 
L 2766 2266 
Q 2766 2663 2505 2880 
Q 2244 3097 1772 3097 
Q 1472 3097 1187 3025 
Q 903 2953 641 2809 
L 641 3341 
Q 956 3463 1253 3523 
Q 1550 3584 1831 3584 
Q 2591 3584 2966 3190 
Q 3341 2797 3341 1997 
z
" transform="scale(0.015625)"/>
      <path id="DejaVuSans-64" d="M 2906 2969 
L 2906 4863 
L 3481 4863 
L 3481 0 
L 2906 0 
L 2906 525 
Q 2725 213 2448 61 
Q 2172 -91 1784 -91 
Q 1150 -91 751 415 
Q 353 922 353 1747 
Q 353 2572 751 3078 
Q 1150 3584 1784 3584 
Q 2172 3584 2448 3432 
Q 2725 3281 2906 2969 
z
M 947 1747 
Q 947 1113 1208 752 
Q 1469 391 1925 391 
Q 2381 391 2643 752 
Q 2906 1113 2906 1747 
Q 2906 2381 2643 2742 
Q 2381 3103 1925 3103 
Q 1469 3103 1208 2742 
Q 947 2381 947 1747 
z
" transform="scale(0.015625)"/>
      <path id="DejaVuSans-72" d="M 2631 2963 
Q 2534 3019 2420 3045 
Q 2306 3072 2169 3072 
Q 1681 3072 1420 2755 
Q 1159 2438 1159 1844 
L 1159 0 
L 581 0 
L 581 3500 
L 1159 3500 
L 1159 2956 
Q 1341 3275 1631 3429 
Q 1922 3584 2338 3584 
Q 2397 3584 2469 3576 
Q 2541 3569 2628 3553 
L 2631 2963 
z
" transform="scale(0.015625)"/>
      <path id="DejaVuSans-63" d="M 3122 3366 
L 3122 2828 
Q 2878 2963 2633 3030 
Q 2388 3097 2138 3097 
Q 1578 3097 1268 2742 
Q 959 2388 959 1747 
Q 959 1106 1268 751 
Q 1578 397 2138 397 
Q 2388 397 2633 464 
Q 2878 531 3122 666 
L 3122 134 
Q 2881 22 2623 -34 
Q 2366 -91 2075 -91 
Q 1284 -91 818 406 
Q 353 903 353 1747 
Q 353 2603 823 3093 
Q 1294 3584 2113 3584 
Q 2378 3584 2631 3529 
Q 2884 3475 3122 3366 
z
" transform="scale(0.015625)"/>
      <path id="DejaVuSans-6e" d="M 3513 2113 
L 3513 0 
L 2938 0 
L 2938 2094 
Q 2938 2591 2744 2837 
Q 2550 3084 2163 3084 
Q 1697 3084 1428 2787 
Q 1159 2491 1159 1978 
L 1159 0 
L 581 0 
L 581 3500 
L 1159 3500 
L 1159 2956 
Q 1366 3272 1645 3428 
Q 1925 3584 2291 3584 
Q 2894 3584 3203 3211 
Q 3513 2838 3513 2113 
z
" transform="scale(0.015625)"/>
      <path id="DejaVuSans-71" d="M 947 1747 
Q 947 1113 1208 752 
Q 1469 391 1925 391 
Q 2381 391 2643 752 
Q 2906 1113 2906 1747 
Q 2906 2381 2643 2742 
Q 2381 3103 1925 3103 
Q 1469 3103 1208 2742 
Q 947 2381 947 1747 
z
M 2906 525 
Q 2725 213 2448 61 
Q 2172 -91 1784 -91 
Q 1150 -91 751 415 
Q 353 922 353 1747 
Q 353 2572 751 3078 
Q 1150 3584 1784 3584 
Q 2172 3584 2448 3432 
Q 2725 3281 2906 2969 
L 2906 3500 
L 3481 3500 
L 3481 -1331 
L 2906 -1331 
L 2906 525 
z
" transform="scale(0.015625)"/>
      <path id="DejaVuSans-75" d="M 544 1381 
L 544 3500 
L 1119 3500 
L 1119 1403 
Q 1119 906 1312 657 
Q 1506 409 1894 409 
Q 2359 409 2629 706 
Q 2900 1003 2900 1516 
L 2900 3500 
L 3475 3500 
L 3475 0 
L 2900 0 
L 2900 538 
Q 2691 219 2414 64 
Q 2138 -91 1772 -91 
Q 1169 -91 856 284 
Q 544 659 544 1381 
z
M 1991 3584 
L 1991 3584 
z
" transform="scale(0.015625)"/>
      <path id="DejaVuSans-6c" d="M 603 4863 
L 1178 4863 
L 1178 0 
L 603 0 
L 603 4863 
z
" transform="scale(0.015625)"/>
      <path id="DejaVuSans-6d" d="M 3328 2828 
Q 3544 3216 3844 3400 
Q 4144 3584 4550 3584 
Q 5097 3584 5394 3201 
Q 5691 2819 5691 2113 
L 5691 0 
L 5113 0 
L 5113 2094 
Q 5113 2597 4934 2840 
Q 4756 3084 4391 3084 
Q 3944 3084 3684 2787 
Q 3425 2491 3425 1978 
L 3425 0 
L 2847 0 
L 2847 2094 
Q 2847 2600 2669 2842 
Q 2491 3084 2119 3084 
Q 1678 3084 1418 2786 
Q 1159 2488 1159 1978 
L 1159 0 
L 581 0 
L 581 3500 
L 1159 3500 
L 1159 2956 
Q 1356 3278 1631 3431 
Q 1906 3584 2284 3584 
Q 2666 3584 2933 3390 
Q 3200 3197 3328 2828 
z
" transform="scale(0.015625)"/>
      <path id="DejaVuSans-52" d="M 2841 2188 
Q 3044 2119 3236 1894 
Q 3428 1669 3622 1275 
L 4263 0 
L 3584 0 
L 2988 1197 
Q 2756 1666 2539 1819 
Q 2322 1972 1947 1972 
L 1259 1972 
L 1259 0 
L 628 0 
L 628 4666 
L 2053 4666 
Q 2853 4666 3247 4331 
Q 3641 3997 3641 3322 
Q 3641 2881 3436 2590 
Q 3231 2300 2841 2188 
z
M 1259 4147 
L 1259 2491 
L 2053 2491 
Q 2509 2491 2742 2702 
Q 2975 2913 2975 3322 
Q 2975 3731 2742 3939 
Q 2509 4147 2053 4147 
L 1259 4147 
z
" transform="scale(0.015625)"/>
      <path id="DejaVuSans-3d" d="M 678 2906 
L 4684 2906 
L 4684 2381 
L 678 2381 
L 678 2906 
z
M 678 1631 
L 4684 1631 
L 4684 1100 
L 678 1100 
L 678 1631 
z
" transform="scale(0.015625)"/>
     </defs>
     <use xlink:href="#DejaVuSans-4f"/>
     <use xlink:href="#DejaVuSans-70" transform="translate(78.710938 0)"/>
     <use xlink:href="#DejaVuSans-70" transform="translate(142.1875 0)"/>
     <use xlink:href="#DejaVuSans-6f" transform="translate(205.664062 0)"/>
     <use xlink:href="#DejaVuSans-73" transform="translate(266.845703 0)"/>
     <use xlink:href="#DejaVuSans-69" transform="translate(318.945312 0)"/>
     <use xlink:href="#DejaVuSans-74" transform="translate(346.728516 0)"/>
     <use xlink:href="#DejaVuSans-65" transform="translate(385.9375 0)"/>
     <use xlink:href="#DejaVuSans-20" transform="translate(447.460938 0)"/>
     <use xlink:href="#DejaVuSans-70" transform="translate(479.248047 0)"/>
     <use xlink:href="#DejaVuSans-68" transform="translate(542.724609 0)"/>
     <use xlink:href="#DejaVuSans-61" transform="translate(606.103516 0)"/>
     <use xlink:href="#DejaVuSans-73" transform="translate(667.382812 0)"/>
     <use xlink:href="#DejaVuSans-65" transform="translate(719.482422 0)"/>
     <use xlink:href="#DejaVuSans-20" transform="translate(781.005859 0)"/>
     <use xlink:href="#DejaVuSans-64" transform="translate(812.792969 0)"/>
     <use xlink:href="#DejaVuSans-69" transform="translate(876.269531 0)"/>
     <use xlink:href="#DejaVuSans-72" transform="translate(904.052734 0)"/>
     <use xlink:href="#DejaVuSans-65" transform="translate(942.916016 0)"/>
     <use xlink:href="#DejaVuSans-63" transform="translate(1004.439453 0)"/>
     <use xlink:href="#DejaVuSans-74" transform="translate(1059.419922 0)"/>
     <use xlink:href="#DejaVuSans-69" transform="translate(1098.628906 0)"/>
     <use xlink:href="#DejaVuSans-6f" transform="translate(1126.412109 0)"/>
     <use xlink:href="#DejaVuSans-6e" transform="translate(1187.59375 0)"/>
     <use xlink:href="#DejaVuSans-73" transform="translate(1250.972656 0)"/>
     <use xlink:href="#DejaVuSans-20" transform="translate(1303.072266 0)"/>
     <use xlink:href="#DejaVuSans-61" transform="translate(1334.859375 0)"/>
     <use xlink:href="#DejaVuSans-74" transform="translate(1396.138672 0)"/>
     <use xlink:href="#DejaVuSans-20" transform="translate(1435.347656 0)"/>
     <use xlink:href="#DejaVuSans-65" transform="translate(1467.134766 0)"/>
     <use xlink:href="#DejaVuSans-71" transform="translate(1528.658203 0)"/>
     <use xlink:href="#DejaVuSans-75" transform="translate(1592.134766 0)"/>
     <use xlink:href="#DejaVuSans-61" transform="translate(1655.513672 0)"/>
     <use xlink:href="#DejaVuSans-6c" transform="translate(1716.792969 0)"/>
     <use xlink:href="#DejaVuSans-20" transform="translate(1744.576172 0)"/>
     <use xlink:href="#DejaVuSans-61" transform="translate(1776.363281 0)"/>
     <use xlink:href="#DejaVuSans-6d" transform="translate(1837.642578 0)"/>
     <use xlink:href="#DejaVuSans-70" transform="translate(1935.054688 0)"/>
     <use xlink:href="#DejaVuSans-6c" transform="translate(1998.53125 0)"/>
     <use xlink:href="#DejaVuSans-69" transform="translate(2026.314453 0)"/>
     <use xlink:href="#DejaVuSans-74" transform="translate(2054.097656 0)"/>
     <use xlink:href="#DejaVuSans-75" transform="translate(2093.306641 0)"/>
     <use xlink:href="#DejaVuSans-64" transform="translate(2156.685547 0)"/>
     <use xlink:href="#DejaVuSans-65" transform="translate(2220.162109 0)"/>
     <use xlink:href="#DejaVuSans-20" transform="translate(2281.685547 0)"/>
     <use xlink:href="#DejaVuSans-6f" transform="translate(2313.472656 0)"/>
     <use xlink:href="#DejaVuSans-6e" transform="translate(2374.654297 0)"/>
     <use xlink:href="#DejaVuSans-20" transform="translate(2438.033203 0)"/>
     <use xlink:href="#DejaVuSans-52" transform="translate(2469.820312 0)"/>
     <use xlink:href="#DejaVuSans-65" transform="translate(2534.802734 0)"/>
     <use xlink:href="#DejaVuSans-28" transform="translate(2596.326172 0)"/>
     <use xlink:href="#DejaVuSans-73" transform="translate(2635.339844 0)"/>
     <use xlink:href="#DejaVuSans-29" transform="translate(2687.439453 0)"/>
     <use xlink:href="#DejaVuSans-3d" transform="translate(2726.453125 0)"/>
     <use xlink:href="#DejaVuSans-31" transform="translate(2810.242188 0)"/>
     <use xlink:href="#DejaVuSans-2f" transform="translate(2873.865234 0)"/>
     <use xlink:href="#DejaVuSans-32" transform="translate(2907.556641 0)"/>
    </g>
   </g>
   <g id="text_14">
    <!-- Square-root mirror prime routes -->
    <g transform="translate(178.274375 16.318125) scale(0.12 -0.12)">
     <defs>
      <path id="DejaVuSans-53" d="M 3425 4513 
L 3425 3897 
Q 3066 4069 2747 4153 
Q 2428 4238 2131 4238 
Q 1616 4238 1336 4038 
Q 1056 3838 1056 3469 
Q 1056 3159 1242 3001 
Q 1428 2844 1947 2747 
L 2328 2669 
Q 3034 2534 3370 2195 
Q 3706 1856 3706 1288 
Q 3706 609 3251 259 
Q 2797 -91 1919 -91 
Q 1588 -91 1214 -16 
Q 841 59 441 206 
L 441 856 
Q 825 641 1194 531 
Q 1563 422 1919 422 
Q 2459 422 2753 634 
Q 3047 847 3047 1241 
Q 3047 1584 2836 1778 
Q 2625 1972 2144 2069 
L 1759 2144 
Q 1053 2284 737 2584 
Q 422 2884 422 3419 
Q 422 4038 858 4394 
Q 1294 4750 2059 4750 
Q 2388 4750 2728 4690 
Q 3069 4631 3425 4513 
z
" transform="scale(0.015625)"/>
     </defs>
     <use xlink:href="#DejaVuSans-53"/>
     <use xlink:href="#DejaVuSans-71" transform="translate(63.476562 0)"/>
     <use xlink:href="#DejaVuSans-75" transform="translate(126.953125 0)"/>
     <use xlink:href="#DejaVuSans-61" transform="translate(190.332031 0)"/>
     <use xlink:href="#DejaVuSans-72" transform="translate(251.611328 0)"/>
     <use xlink:href="#DejaVuSans-65" transform="translate(290.474609 0)"/>
     <use xlink:href="#DejaVuSans-2d" transform="translate(351.998047 0)"/>
     <use xlink:href="#DejaVuSans-72" transform="translate(388.082031 0)"/>
     <use xlink:href="#DejaVuSans-6f" transform="translate(426.945312 0)"/>
     <use xlink:href="#DejaVuSans-6f" transform="translate(488.126953 0)"/>
     <use xlink:href="#DejaVuSans-74" transform="translate(549.308594 0)"/>
     <use xlink:href="#DejaVuSans-20" transform="translate(588.517578 0)"/>
     <use xlink:href="#DejaVuSans-6d" transform="translate(620.304688 0)"/>
     <use xlink:href="#DejaVuSans-69" transform="translate(717.716797 0)"/>
     <use xlink:href="#DejaVuSans-72" transform="translate(745.5 0)"/>
     <use xlink:href="#DejaVuSans-72" transform="translate(784.863281 0)"/>
     <use xlink:href="#DejaVuSans-6f" transform="translate(823.726562 0)"/>
     <use xlink:href="#DejaVuSans-72" transform="translate(884.908203 0)"/>
     <use xlink:href="#DejaVuSans-20" transform="translate(926.021484 0)"/>
     <use xlink:href="#DejaVuSans-70" transform="translate(957.808594 0)"/>
     <use xlink:href="#DejaVuSans-72" transform="translate(1021.285156 0)"/>
     <use xlink:href="#DejaVuSans-69" transform="translate(1062.398438 0)"/>
     <use xlink:href="#DejaVuSans-6d" transform="translate(1090.181641 0)"/>
     <use xlink:href="#DejaVuSans-65" transform="translate(1187.59375 0)"/>
     <use xlink:href="#DejaVuSans-20" transform="translate(1249.117188 0)"/>
     <use xlink:href="#DejaVuSans-72" transform="translate(1280.904297 0)"/>
     <use xlink:href="#DejaVuSans-6f" transform="translate(1319.767578 0)"/>
     <use xlink:href="#DejaVuSans-75" transform="translate(1380.949219 0)"/>
     <use xlink:href="#DejaVuSans-74" transform="translate(1444.328125 0)"/>
     <use xlink:href="#DejaVuSans-65" transform="translate(1483.537109 0)"/>
     <use xlink:href="#DejaVuSans-73" transform="translate(1545.060547 0)"/>
    </g>
   </g>
  </g>
 </g>
 <defs>
  <clipPath id="p41f9362c4b">
   <rect x="38.482813" y="22.318125" width="471.24" height="471.24"/>
  </clipPath>
 </defs>
</svg>
