<?xml version="1.0" encoding="utf-8" standalone="no"?>
<!DOCTYPE svg PUBLIC "-//W3C//DTD SVG 1.1//EN"
  "http://www.w3.org/Graphics/SVG/1.1/DTD/svg11.dtd">
<svg xmlns:xlink="http://www.w3.org/1999/xlink" width="617.04pt" height="269.424pt" viewBox="0 0 617.04 269.424" xmlns="http://www.w3.org/2000/svg" version="1.1">
 <metadata>
  <rdf:RDF xmlns:dc="http://purl.org/dc/elements/1.1/" xmlns:cc="http://creativecommons.org/ns#" xmlns:rdf="http://www.w3.org/1999/02/22-rdf-syntax-ns#">
   <cc:Work>
    <dc:type rdf:resource="http://purl.org/dc/dcmitype/StillImage"/>
    <dc:date>2026-04-26T20:33:15.133774</dc:date>
    <dc:format>image/svg+xml</dc:format>
    <dc:creator>
     <cc:Agent>
      <dc:title>Matplotlib v3.10.9, https://matplotlib.org/</dc:title>
     </cc:Agent>
    </dc:creator>
   </cc:Work>
  </rdf:RDF>
 </metadata>
 <defs>
  <style type="text/css">*{stroke-linejoin: round; stroke-linecap: butt}</style>
 </defs>
 <g id="figure_1">
  <g id="patch_1">
   <path d="M 0 269.424 
L 617.04 269.424 
L 617.04 0 
L 0 0 
z
" style="fill: #ffffff"/>
  </g>
  <g id="axes_1">
   <g id="patch_2">
    <path d="M 257.2956 169.14024 
L 359.7444 169.14024 
Q 377.8236 169.14024 377.8236 161.48952 
L 377.8236 107.93448 
Q 377.8236 100.28376 359.7444 100.28376 
L 257.2956 100.28376 
Q 239.2164 100.28376 239.2164 107.93448 
L 239.2164 161.48952 
Q 239.2164 169.14024 257.2956 169.14024 
z
" clip-path="url(#p04eda2d779)" style="fill: #ffffff; stroke: #000000; stroke-width: 1.2; stroke-linejoin: miter"/>
   </g>
   <g id="patch_3">
    <path d="M 52.398 189.54216 
L 203.058 189.54216 
Q 221.1372 189.54216 221.1372 181.89144 
L 221.1372 92.63304 
Q 221.1372 84.98232 203.058 84.98232 
L 52.398 84.98232 
Q 34.3188 84.98232 34.3188 92.63304 
L 34.3188 181.89144 
Q 34.3188 189.54216 52.398 189.54216 
z
" clip-path="url(#p04eda2d779)" style="fill: #ffffff; stroke: #000000; stroke-width: 1.2; stroke-linejoin: miter"/>
   </g>
   <g id="patch_4">
    <path d="M 413.982 189.54216 
L 564.642 189.54216 
Q 582.7212 189.54216 582.7212 181.89144 
L 582.7212 92.63304 
Q 582.7212 84.98232 564.642 84.98232 
L 413.982 84.98232 
Q 395.9028 84.98232 395.9028 92.63304 
L 395.9028 181.89144 
Q 395.9028 189.54216 413.982 189.54216 
z
" clip-path="url(#p04eda2d779)" style="fill: #ffffff; stroke: #000000; stroke-width: 1.2; stroke-linejoin: miter"/>
   </g>
   <g id="patch_5">
    <path d="M 246.256518 134.712 
Q 230.175724 134.712 215.77198 134.712 
" clip-path="url(#p04eda2d779)" style="fill: none; stroke: #000000; stroke-width: 1.5; stroke-linecap: round"/>
    <path d="M 221.37198 137.512 
L 215.77198 134.712 
L 221.37198 131.912 
z
" clip-path="url(#p04eda2d779)" style="fill: #1f77b4; stroke: #000000; stroke-width: 1.5; stroke-linecap: round"/>
   </g>
   <g id="patch_6">
    <path d="M 370.783482 134.712 
Q 386.864276 134.712 401.26802 134.712 
" clip-path="url(#p04eda2d779)" style="fill: none; stroke: #000000; stroke-width: 1.5; stroke-linecap: round"/>
    <path d="M 395.66802 131.912 
L 401.26802 134.712 
L 395.66802 137.512 
z
" clip-path="url(#p04eda2d779)" style="fill: #1f77b4; stroke: #000000; stroke-width: 1.5; stroke-linecap: round"/>
   </g>
   <g id="text_1">
    <!-- shared eigenvalue -->
    <g transform="translate(253.124062 131.304562) scale(0.12 -0.12)">
     <defs>
      <path id="DejaVuSans-73" d="M 2834 3397 
L 2834 2853 
Q 2591 2978 2328 3040 
Q 2066 3103 1784 3103 
Q 1356 3103 1142 2972 
Q 928 2841 928 2578 
Q 928 2378 1081 2264 
Q 1234 2150 1697 2047 
L 1894 2003 
Q 2506 1872 2764 1633 
Q 3022 1394 3022 966 
Q 3022 478 2636 193 
Q 2250 -91 1575 -91 
Q 1294 -91 989 -36 
Q 684 19 347 128 
L 347 722 
Q 666 556 975 473 
Q 1284 391 1588 391 
Q 1994 391 2212 530 
Q 2431 669 2431 922 
Q 2431 1156 2273 1281 
Q 2116 1406 1581 1522 
L 1381 1569 
Q 847 1681 609 1914 
Q 372 2147 372 2553 
Q 372 3047 722 3315 
Q 1072 3584 1716 3584 
Q 2034 3584 2315 3537 
Q 2597 3491 2834 3397 
z
" transform="scale(0.015625)"/>
      <path id="DejaVuSans-68" d="M 3513 2113 
L 3513 0 
L 2938 0 
L 2938 2094 
Q 2938 2591 2744 2837 
Q 2550 3084 2163 3084 
Q 1697 3084 1428 2787 
Q 1159 2491 1159 1978 
L 1159 0 
L 581 0 
L 581 4863 
L 1159 4863 
L 1159 2956 
Q 1366 3272 1645 3428 
Q 1925 3584 2291 3584 
Q 2894 3584 3203 3211 
Q 3513 2838 3513 2113 
z
" transform="scale(0.015625)"/>
      <path id="DejaVuSans-61" d="M 2194 1759 
Q 1497 1759 1228 1600 
Q 959 1441 959 1056 
Q 959 750 1161 570 
Q 1363 391 1709 391 
Q 2188 391 2477 730 
Q 2766 1069 2766 1631 
L 2766 1759 
L 2194 1759 
z
M 3341 1997 
L 3341 0 
L 2766 0 
L 2766 531 
Q 2569 213 2275 61 
Q 1981 -91 1556 -91 
Q 1019 -91 701 211 
Q 384 513 384 1019 
Q 384 1609 779 1909 
Q 1175 2209 1959 2209 
L 2766 2209 
L 2766 2266 
Q 2766 2663 2505 2880 
Q 2244 3097 1772 3097 
Q 1472 3097 1187 3025 
Q 903 2953 641 2809 
L 641 3341 
Q 956 3463 1253 3523 
Q 1550 3584 1831 3584 
Q 2591 3584 2966 3190 
Q 3341 2797 3341 1997 
z
" transform="scale(0.015625)"/>
      <path id="DejaVuSans-72" d="M 2631 2963 
Q 2534 3019 2420 3045 
Q 2306 3072 2169 3072 
Q 1681 3072 1420 2755 
Q 1159 2438 1159 1844 
L 1159 0 
L 581 0 
L 581 3500 
L 1159 3500 
L 1159 2956 
Q 1341 3275 1631 3429 
Q 1922 3584 2338 3584 
Q 2397 3584 2469 3576 
Q 2541 3569 2628 3553 
L 2631 2963 
z
" transform="scale(0.015625)"/>
      <path id="DejaVuSans-65" d="M 3597 1894 
L 3597 1613 
L 953 1613 
Q 991 1019 1311 708 
Q 1631 397 2203 397 
Q 2534 397 2845 478 
Q 3156 559 3463 722 
L 3463 178 
Q 3153 47 2828 -22 
Q 2503 -91 2169 -91 
Q 1331 -91 842 396 
Q 353 884 353 1716 
Q 353 2575 817 3079 
Q 1281 3584 2069 3584 
Q 2775 3584 3186 3129 
Q 3597 2675 3597 1894 
z
M 3022 2063 
Q 3016 2534 2758 2815 
Q 2500 3097 2075 3097 
Q 1594 3097 1305 2825 
Q 1016 2553 972 2059 
L 3022 2063 
z
" transform="scale(0.015625)"/>
      <path id="DejaVuSans-64" d="M 2906 2969 
L 2906 4863 
L 3481 4863 
L 3481 0 
L 2906 0 
L 2906 525 
Q 2725 213 2448 61 
Q 2172 -91 1784 -91 
Q 1150 -91 751 415 
Q 353 922 353 1747 
Q 353 2572 751 3078 
Q 1150 3584 1784 3584 
Q 2172 3584 2448 3432 
Q 2725 3281 2906 2969 
z
M 947 1747 
Q 947 1113 1208 752 
Q 1469 391 1925 391 
Q 2381 391 2643 752 
Q 2906 1113 2906 1747 
Q 2906 2381 2643 2742 
Q 2381 3103 1925 3103 
Q 1469 3103 1208 2742 
Q 947 2381 947 1747 
z
" transform="scale(0.015625)"/>
      <path id="DejaVuSans-20" transform="scale(0.015625)"/>
      <path id="DejaVuSans-69" d="M 603 3500 
L 1178 3500 
L 1178 0 
L 603 0 
L 603 3500 
z
M 603 4863 
L 1178 4863 
L 1178 4134 
L 603 4134 
L 603 4863 
z
" transform="scale(0.015625)"/>
      <path id="DejaVuSans-67" d="M 2906 1791 
Q 2906 2416 2648 2759 
Q 2391 3103 1925 3103 
Q 1463 3103 1205 2759 
Q 947 2416 947 1791 
Q 947 1169 1205 825 
Q 1463 481 1925 481 
Q 2391 481 2648 825 
Q 2906 1169 2906 1791 
z
M 3481 434 
Q 3481 -459 3084 -895 
Q 2688 -1331 1869 -1331 
Q 1566 -1331 1297 -1286 
Q 1028 -1241 775 -1147 
L 775 -588 
Q 1028 -725 1275 -790 
Q 1522 -856 1778 -856 
Q 2344 -856 2625 -561 
Q 2906 -266 2906 331 
L 2906 616 
Q 2728 306 2450 153 
Q 2172 0 1784 0 
Q 1141 0 747 490 
Q 353 981 353 1791 
Q 353 2603 747 3093 
Q 1141 3584 1784 3584 
Q 2172 3584 2450 3431 
Q 2728 3278 2906 2969 
L 2906 3500 
L 3481 3500 
L 3481 434 
z
" transform="scale(0.015625)"/>
      <path id="DejaVuSans-6e" d="M 3513 2113 
L 3513 0 
L 2938 0 
L 2938 2094 
Q 2938 2591 2744 2837 
Q 2550 3084 2163 3084 
Q 1697 3084 1428 2787 
Q 1159 2491 1159 1978 
L 1159 0 
L 581 0 
L 581 3500 
L 1159 3500 
L 1159 2956 
Q 1366 3272 1645 3428 
Q 1925 3584 2291 3584 
Q 2894 3584 3203 3211 
Q 3513 2838 3513 2113 
z
" transform="scale(0.015625)"/>
      <path id="DejaVuSans-76" d="M 191 3500 
L 800 3500 
L 1894 563 
L 2988 3500 
L 3597 3500 
L 2284 0 
L 1503 0 
L 191 3500 
z
" transform="scale(0.015625)"/>
      <path id="DejaVuSans-6c" d="M 603 4863 
L 1178 4863 
L 1178 0 
L 603 0 
L 603 4863 
z
" transform="scale(0.015625)"/>
      <path id="DejaVuSans-75" d="M 544 1381 
L 544 3500 
L 1119 3500 
L 1119 1403 
Q 1119 906 1312 657 
Q 1506 409 1894 409 
Q 2359 409 2629 706 
Q 2900 1003 2900 1516 
L 2900 3500 
L 3475 3500 
L 3475 0 
L 2900 0 
L 2900 538 
Q 2691 219 2414 64 
Q 2138 -91 1772 -91 
Q 1169 -91 856 284 
Q 544 659 544 1381 
z
M 1991 3584 
L 1991 3584 
z
" transform="scale(0.015625)"/>
     </defs>
     <use xlink:href="#DejaVuSans-73"/>
     <use xlink:href="#DejaVuSans-68" transform="translate(52.099609 0)"/>
     <use xlink:href="#DejaVuSans-61" transform="translate(115.478516 0)"/>
     <use xlink:href="#DejaVuSans-72" transform="translate(176.757812 0)"/>
     <use xlink:href="#DejaVuSans-65" transform="translate(215.621094 0)"/>
     <use xlink:href="#DejaVuSans-64" transform="translate(277.144531 0)"/>
     <use xlink:href="#DejaVuSans-20" transform="translate(340.621094 0)"/>
     <use xlink:href="#DejaVuSans-65" transform="translate(372.408203 0)"/>
     <use xlink:href="#DejaVuSans-69" transform="translate(433.931641 0)"/>
     <use xlink:href="#DejaVuSans-67" transform="translate(461.714844 0)"/>
     <use xlink:href="#DejaVuSans-65" transform="translate(525.191406 0)"/>
     <use xlink:href="#DejaVuSans-6e" transform="translate(586.714844 0)"/>
     <use xlink:href="#DejaVuSans-76" transform="translate(650.09375 0)"/>
     <use xlink:href="#DejaVuSans-61" transform="translate(709.273438 0)"/>
     <use xlink:href="#DejaVuSans-6c" transform="translate(770.552734 0)"/>
     <use xlink:href="#DejaVuSans-75" transform="translate(798.335938 0)"/>
     <use xlink:href="#DejaVuSans-65" transform="translate(861.714844 0)"/>
    </g>
    <!-- $t_n$ -->
    <g transform="translate(303.3 144.741937) scale(0.12 -0.12)">
     <defs>
      <path id="DejaVuSans-Oblique-74" d="M 2706 3500 
L 2619 3053 
L 1472 3053 
L 1100 1153 
Q 1081 1047 1072 975 
Q 1063 903 1063 863 
Q 1063 663 1183 572 
Q 1303 481 1569 481 
L 2150 481 
L 2053 0 
L 1503 0 
Q 991 0 739 200 
Q 488 400 488 806 
Q 488 878 497 964 
Q 506 1050 525 1153 
L 897 3053 
L 409 3053 
L 500 3500 
L 978 3500 
L 1172 4494 
L 1747 4494 
L 1556 3500 
L 2706 3500 
z
" transform="scale(0.015625)"/>
      <path id="DejaVuSans-Oblique-6e" d="M 3566 2113 
L 3156 0 
L 2578 0 
L 2988 2091 
Q 3016 2238 3031 2350 
Q 3047 2463 3047 2528 
Q 3047 2791 2881 2937 
Q 2716 3084 2419 3084 
Q 1956 3084 1622 2776 
Q 1288 2469 1184 1941 
L 800 0 
L 225 0 
L 903 3500 
L 1478 3500 
L 1363 2950 
Q 1603 3253 1940 3418 
Q 2278 3584 2650 3584 
Q 3113 3584 3367 3334 
Q 3622 3084 3622 2631 
Q 3622 2519 3608 2391 
Q 3594 2263 3566 2113 
z
" transform="scale(0.015625)"/>
     </defs>
     <use xlink:href="#DejaVuSans-Oblique-74" transform="translate(0 0.78125)"/>
     <use xlink:href="#DejaVuSans-Oblique-6e" transform="translate(39.208984 -15.625) scale(0.7)"/>
    </g>
   </g>
   <g id="text_2">
    <!-- complex spectral face -->
    <g transform="translate(67.126594 134.138756) scale(0.11 -0.11)">
     <defs>
      <path id="DejaVuSans-63" d="M 3122 3366 
L 3122 2828 
Q 2878 2963 2633 3030 
Q 2388 3097 2138 3097 
Q 1578 3097 1268 2742 
Q 959 2388 959 1747 
Q 959 1106 1268 751 
Q 1578 397 2138 397 
Q 2388 397 2633 464 
Q 2878 531 3122 666 
L 3122 134 
Q 2881 22 2623 -34 
Q 2366 -91 2075 -91 
Q 1284 -91 818 406 
Q 353 903 353 1747 
Q 353 2603 823 3093 
Q 1294 3584 2113 3584 
Q 2378 3584 2631 3529 
Q 2884 3475 3122 3366 
z
" transform="scale(0.015625)"/>
      <path id="DejaVuSans-6f" d="M 1959 3097 
Q 1497 3097 1228 2736 
Q 959 2375 959 1747 
Q 959 1119 1226 758 
Q 1494 397 1959 397 
Q 2419 397 2687 759 
Q 2956 1122 2956 1747 
Q 2956 2369 2687 2733 
Q 2419 3097 1959 3097 
z
M 1959 3584 
Q 2709 3584 3137 3096 
Q 3566 2609 3566 1747 
Q 3566 888 3137 398 
Q 2709 -91 1959 -91 
Q 1206 -91 779 398 
Q 353 888 353 1747 
Q 353 2609 779 3096 
Q 1206 3584 1959 3584 
z
" transform="scale(0.015625)"/>
      <path id="DejaVuSans-6d" d="M 3328 2828 
Q 3544 3216 3844 3400 
Q 4144 3584 4550 3584 
Q 5097 3584 5394 3201 
Q 5691 2819 5691 2113 
L 5691 0 
L 5113 0 
L 5113 2094 
Q 5113 2597 4934 2840 
Q 4756 3084 4391 3084 
Q 3944 3084 3684 2787 
Q 3425 2491 3425 1978 
L 3425 0 
L 2847 0 
L 2847 2094 
Q 2847 2600 2669 2842 
Q 2491 3084 2119 3084 
Q 1678 3084 1418 2786 
Q 1159 2488 1159 1978 
L 1159 0 
L 581 0 
L 581 3500 
L 1159 3500 
L 1159 2956 
Q 1356 3278 1631 3431 
Q 1906 3584 2284 3584 
Q 2666 3584 2933 3390 
Q 3200 3197 3328 2828 
z
" transform="scale(0.015625)"/>
      <path id="DejaVuSans-70" d="M 1159 525 
L 1159 -1331 
L 581 -1331 
L 581 3500 
L 1159 3500 
L 1159 2969 
Q 1341 3281 1617 3432 
Q 1894 3584 2278 3584 
Q 2916 3584 3314 3078 
Q 3713 2572 3713 1747 
Q 3713 922 3314 415 
Q 2916 -91 2278 -91 
Q 1894 -91 1617 61 
Q 1341 213 1159 525 
z
M 3116 1747 
Q 3116 2381 2855 2742 
Q 2594 3103 2138 3103 
Q 1681 3103 1420 2742 
Q 1159 2381 1159 1747 
Q 1159 1113 1420 752 
Q 1681 391 2138 391 
Q 2594 391 2855 752 
Q 3116 1113 3116 1747 
z
" transform="scale(0.015625)"/>
      <path id="DejaVuSans-78" d="M 3513 3500 
L 2247 1797 
L 3578 0 
L 2900 0 
L 1881 1375 
L 863 0 
L 184 0 
L 1544 1831 
L 300 3500 
L 978 3500 
L 1906 2253 
L 2834 3500 
L 3513 3500 
z
" transform="scale(0.015625)"/>
      <path id="DejaVuSans-74" d="M 1172 4494 
L 1172 3500 
L 2356 3500 
L 2356 3053 
L 1172 3053 
L 1172 1153 
Q 1172 725 1289 603 
Q 1406 481 1766 481 
L 2356 481 
L 2356 0 
L 1766 0 
Q 1100 0 847 248 
Q 594 497 594 1153 
L 594 3053 
L 172 3053 
L 172 3500 
L 594 3500 
L 594 4494 
L 1172 4494 
z
" transform="scale(0.015625)"/>
      <path id="DejaVuSans-66" d="M 2375 4863 
L 2375 4384 
L 1825 4384 
Q 1516 4384 1395 4259 
Q 1275 4134 1275 3809 
L 1275 3500 
L 2222 3500 
L 2222 3053 
L 1275 3053 
L 1275 0 
L 697 0 
L 697 3053 
L 147 3053 
L 147 3500 
L 697 3500 
L 697 3744 
Q 697 4328 969 4595 
Q 1241 4863 1831 4863 
L 2375 4863 
z
" transform="scale(0.015625)"/>
     </defs>
     <use xlink:href="#DejaVuSans-63"/>
     <use xlink:href="#DejaVuSans-6f" transform="translate(54.980469 0)"/>
     <use xlink:href="#DejaVuSans-6d" transform="translate(116.162109 0)"/>
     <use xlink:href="#DejaVuSans-70" transform="translate(213.574219 0)"/>
     <use xlink:href="#DejaVuSans-6c" transform="translate(277.050781 0)"/>
     <use xlink:href="#DejaVuSans-65" transform="translate(304.833984 0)"/>
     <use xlink:href="#DejaVuSans-78" transform="translate(364.607422 0)"/>
     <use xlink:href="#DejaVuSans-20" transform="translate(423.787109 0)"/>
     <use xlink:href="#DejaVuSans-73" transform="translate(455.574219 0)"/>
     <use xlink:href="#DejaVuSans-70" transform="translate(507.673828 0)"/>
     <use xlink:href="#DejaVuSans-65" transform="translate(571.150391 0)"/>
     <use xlink:href="#DejaVuSans-63" transform="translate(632.673828 0)"/>
     <use xlink:href="#DejaVuSans-74" transform="translate(687.654297 0)"/>
     <use xlink:href="#DejaVuSans-72" transform="translate(726.863281 0)"/>
     <use xlink:href="#DejaVuSans-61" transform="translate(767.976562 0)"/>
     <use xlink:href="#DejaVuSans-6c" transform="translate(829.255859 0)"/>
     <use xlink:href="#DejaVuSans-20" transform="translate(857.039062 0)"/>
     <use xlink:href="#DejaVuSans-66" transform="translate(888.826172 0)"/>
     <use xlink:href="#DejaVuSans-61" transform="translate(924.03125 0)"/>
     <use xlink:href="#DejaVuSans-63" transform="translate(985.310547 0)"/>
     <use xlink:href="#DejaVuSans-65" transform="translate(1040.291016 0)"/>
    </g>
    <!-- $\Xi(t_n)=0$ -->
    <g transform="translate(104.958 146.456349) scale(0.11 -0.11)">
     <defs>
      <path id="DejaVuSans-39e" d="M 956 2753 
L 3178 2753 
L 3178 2222 
L 956 2222 
L 956 2753 
z
M 628 4666 
L 3506 4666 
L 3506 4134 
L 628 4134 
L 628 4666 
z
M 628 531 
L 3506 531 
L 3506 0 
L 628 0 
L 628 531 
z
" transform="scale(0.015625)"/>
      <path id="DejaVuSans-28" d="M 1984 4856 
Q 1566 4138 1362 3434 
Q 1159 2731 1159 2009 
Q 1159 1288 1364 580 
Q 1569 -128 1984 -844 
L 1484 -844 
Q 1016 -109 783 600 
Q 550 1309 550 2009 
Q 550 2706 781 3412 
Q 1013 4119 1484 4856 
L 1984 4856 
z
" transform="scale(0.015625)"/>
      <path id="DejaVuSans-29" d="M 513 4856 
L 1013 4856 
Q 1481 4119 1714 3412 
Q 1947 2706 1947 2009 
Q 1947 1309 1714 600 
Q 1481 -109 1013 -844 
L 513 -844 
Q 928 -128 1133 580 
Q 1338 1288 1338 2009 
Q 1338 2731 1133 3434 
Q 928 4138 513 4856 
z
" transform="scale(0.015625)"/>
      <path id="DejaVuSans-3d" d="M 678 2906 
L 4684 2906 
L 4684 2381 
L 678 2381 
L 678 2906 
z
M 678 1631 
L 4684 1631 
L 4684 1100 
L 678 1100 
L 678 1631 
z
" transform="scale(0.015625)"/>
      <path id="DejaVuSans-30" d="M 2034 4250 
Q 1547 4250 1301 3770 
Q 1056 3291 1056 2328 
Q 1056 1369 1301 889 
Q 1547 409 2034 409 
Q 2525 409 2770 889 
Q 3016 1369 3016 2328 
Q 3016 3291 2770 3770 
Q 2525 4250 2034 4250 
z
M 2034 4750 
Q 2819 4750 3233 4129 
Q 3647 3509 3647 2328 
Q 3647 1150 3233 529 
Q 2819 -91 2034 -91 
Q 1250 -91 836 529 
Q 422 1150 422 2328 
Q 422 3509 836 4129 
Q 1250 4750 2034 4750 
z
" transform="scale(0.015625)"/>
     </defs>
     <use xlink:href="#DejaVuSans-39e" transform="translate(0 0.125)"/>
     <use xlink:href="#DejaVuSans-28" transform="translate(63.183594 0.125)"/>
     <use xlink:href="#DejaVuSans-Oblique-74" transform="translate(102.197266 0.125)"/>
     <use xlink:href="#DejaVuSans-Oblique-6e" transform="translate(141.40625 -16.28125) scale(0.7)"/>
     <use xlink:href="#DejaVuSans-29" transform="translate(188.505859 0.125)"/>
     <use xlink:href="#DejaVuSans-3d" transform="translate(247.001953 0.125)"/>
     <use xlink:href="#DejaVuSans-30" transform="translate(350.273438 0.125)"/>
    </g>
   </g>
   <g id="text_3">
    <!-- mass-shell face -->
    <g transform="translate(446.615672 130.353552) scale(0.11 -0.11)">
     <defs>
      <path id="DejaVuSans-2d" d="M 313 2009 
L 1997 2009 
L 1997 1497 
L 313 1497 
L 313 2009 
z
" transform="scale(0.015625)"/>
     </defs>
     <use xlink:href="#DejaVuSans-6d"/>
     <use xlink:href="#DejaVuSans-61" transform="translate(97.412109 0)"/>
     <use xlink:href="#DejaVuSans-73" transform="translate(158.691406 0)"/>
     <use xlink:href="#DejaVuSans-73" transform="translate(210.791016 0)"/>
     <use xlink:href="#DejaVuSans-2d" transform="translate(262.890625 0)"/>
     <use xlink:href="#DejaVuSans-73" transform="translate(298.974609 0)"/>
     <use xlink:href="#DejaVuSans-68" transform="translate(351.074219 0)"/>
     <use xlink:href="#DejaVuSans-65" transform="translate(414.453125 0)"/>
     <use xlink:href="#DejaVuSans-6c" transform="translate(475.976562 0)"/>
     <use xlink:href="#DejaVuSans-6c" transform="translate(503.759766 0)"/>
     <use xlink:href="#DejaVuSans-20" transform="translate(531.542969 0)"/>
     <use xlink:href="#DejaVuSans-66" transform="translate(563.330078 0)"/>
     <use xlink:href="#DejaVuSans-61" transform="translate(598.535156 0)"/>
     <use xlink:href="#DejaVuSans-63" transform="translate(659.814453 0)"/>
     <use xlink:href="#DejaVuSans-65" transform="translate(714.794922 0)"/>
    </g>
    <!-- $P\bar P=\left(\frac{\hbar t_n}{L_*}\right)^2$ -->
    <g transform="translate(460.932 147.029209) scale(0.11 -0.11)">
     <defs>
      <path id="DejaVuSans-Oblique-50" d="M 1081 4666 
L 2541 4666 
Q 3178 4666 3512 4369 
Q 3847 4072 3847 3500 
Q 3847 2731 3353 2303 
Q 2859 1875 1966 1875 
L 1172 1875 
L 806 0 
L 172 0 
L 1081 4666 
z
M 1613 4147 
L 1275 2394 
L 2069 2394 
Q 2606 2394 2893 2669 
Q 3181 2944 3181 3456 
Q 3181 3784 2986 3965 
Q 2791 4147 2438 4147 
L 1613 4147 
z
" transform="scale(0.015625)"/>
      <path id="DejaVuSans-304" d="M -2518 4769 
L -650 4769 
L -650 4306 
L -2518 4306 
L -2518 4769 
z
" transform="scale(0.015625)"/>
      <path id="STIXSizeTwoSym-Regular-28" d="M 3219 -1555 
L 3219 -1786 
Q 2144 -774 1517 730 
Q 890 2234 890 4115 
Q 890 6003 1533 7593 
Q 2176 9184 3219 10022 
L 3219 9811 
Q 2490 9062 1994 7606 
Q 1498 6150 1498 4115 
Q 1498 563 3219 -1555 
z
" transform="scale(0.015625)"/>
      <path id="DejaVuSans-Oblique-127" d="M 3634 2113 
L 3225 0 
L 2650 0 
L 3056 2094 
Q 3094 2291 3094 2450 
Q 3094 2688 3006 2838 
Q 2863 3084 2475 3084 
Q 2009 3084 1681 2788 
Q 1356 2491 1256 1978 
L 872 0 
L 294 0 
L 1066 3969 
L 675 3969 
L 775 4481 
L 1166 4481 
L 1238 4863 
L 1816 4863 
L 1744 4481 
L 2844 4481 
L 2744 3969 
L 1644 3969 
L 1447 2956 
Q 1713 3272 2025 3428 
Q 2331 3584 2700 3584 
Q 3300 3584 3538 3213 
Q 3688 2975 3688 2606 
Q 3688 2381 3634 2113 
z
" transform="scale(0.015625)"/>
      <path id="DejaVuSans-Oblique-4c" d="M 1075 4666 
L 1709 4666 
L 909 525 
L 3181 525 
L 3078 0 
L 172 0 
L 1075 4666 
z
" transform="scale(0.015625)"/>
      <path id="DejaVuSans-2a" d="M 3009 3897 
L 1888 3291 
L 3009 2681 
L 2828 2375 
L 1778 3009 
L 1778 1831 
L 1422 1831 
L 1422 3009 
L 372 2375 
L 191 2681 
L 1313 3291 
L 191 3897 
L 372 4206 
L 1422 3572 
L 1422 4750 
L 1778 4750 
L 1778 3572 
L 2828 4206 
L 3009 3897 
z
" transform="scale(0.015625)"/>
      <path id="STIXSizeTwoSym-Regular-29" d="M 730 9792 
L 730 10022 
Q 1805 9011 2432 7507 
Q 3059 6003 3059 4115 
Q 3059 2234 2416 643 
Q 1773 -947 730 -1786 
L 730 -1574 
Q 1459 -826 1955 633 
Q 2451 2093 2451 4115 
Q 2451 7674 730 9792 
z
" transform="scale(0.015625)"/>
      <path id="DejaVuSans-32" d="M 1228 531 
L 3431 531 
L 3431 0 
L 469 0 
L 469 531 
Q 828 903 1448 1529 
Q 2069 2156 2228 2338 
Q 2531 2678 2651 2914 
Q 2772 3150 2772 3378 
Q 2772 3750 2511 3984 
Q 2250 4219 1831 4219 
Q 1534 4219 1204 4116 
Q 875 4013 500 3803 
L 500 4441 
Q 881 4594 1212 4672 
Q 1544 4750 1819 4750 
Q 2544 4750 2975 4387 
Q 3406 4025 3406 3419 
Q 3406 3131 3298 2873 
Q 3191 2616 2906 2266 
Q 2828 2175 2409 1742 
Q 1991 1309 1228 531 
z
" transform="scale(0.015625)"/>
     </defs>
     <use xlink:href="#DejaVuSans-Oblique-50" transform="translate(0 0.3)"/>
     <use xlink:href="#DejaVuSans-304" transform="translate(121.001953 18.425)"/>
     <use xlink:href="#DejaVuSans-Oblique-50" transform="translate(60.302734 0.3)"/>
     <use xlink:href="#DejaVuSans-3d" transform="translate(140.087891 0.3)"/>
     <use xlink:href="#STIXSizeTwoSym-Regular-28" transform="translate(243.359375 -25.671875) scale(0.858765)"/>
     <use xlink:href="#DejaVuSans-Oblique-127" transform="translate(293.939743 55.58125) scale(0.7)"/>
     <use xlink:href="#DejaVuSans-Oblique-74" transform="translate(342.577438 55.58125) scale(0.7)"/>
     <use xlink:href="#DejaVuSans-Oblique-6e" transform="translate(370.023727 44.096875) scale(0.49)"/>
     <use xlink:href="#DejaVuSans-Oblique-4c" transform="translate(305.939743 -38.1875) scale(0.7)"/>
     <use xlink:href="#DejaVuSans-2a" transform="translate(354.485153 -49.671875) scale(0.49)"/>
     <use xlink:href="#STIXSizeTwoSym-Regular-29" transform="translate(415.493454 -25.671875) scale(0.858765)"/>
     <use xlink:href="#DejaVuSans-32" transform="translate(468.662476 38.58125) scale(0.7)"/>
     <path d="M 293.939743 19.096875 
L 293.939743 25.346875 
L 402.993454 25.346875 
L 402.993454 19.096875 
L 293.939743 19.096875 
z
"/>
    </g>
   </g>
   <g id="text_4">
    <!-- One ordinate, two interpretive faces after selecting sector and scale. -->
    <g transform="translate(127.577109 221.42016) scale(0.105 -0.105)">
     <defs>
      <path id="DejaVuSans-4f" d="M 2522 4238 
Q 1834 4238 1429 3725 
Q 1025 3213 1025 2328 
Q 1025 1447 1429 934 
Q 1834 422 2522 422 
Q 3209 422 3611 934 
Q 4013 1447 4013 2328 
Q 4013 3213 3611 3725 
Q 3209 4238 2522 4238 
z
M 2522 4750 
Q 3503 4750 4090 4092 
Q 4678 3434 4678 2328 
Q 4678 1225 4090 567 
Q 3503 -91 2522 -91 
Q 1538 -91 948 565 
Q 359 1222 359 2328 
Q 359 3434 948 4092 
Q 1538 4750 2522 4750 
z
" transform="scale(0.015625)"/>
      <path id="DejaVuSans-2c" d="M 750 794 
L 1409 794 
L 1409 256 
L 897 -744 
L 494 -744 
L 750 256 
L 750 794 
z
" transform="scale(0.015625)"/>
      <path id="DejaVuSans-77" d="M 269 3500 
L 844 3500 
L 1563 769 
L 2278 3500 
L 2956 3500 
L 3675 769 
L 4391 3500 
L 4966 3500 
L 4050 0 
L 3372 0 
L 2619 2869 
L 1863 0 
L 1184 0 
L 269 3500 
z
" transform="scale(0.015625)"/>
      <path id="DejaVuSans-2e" d="M 684 794 
L 1344 794 
L 1344 0 
L 684 0 
L 684 794 
z
" transform="scale(0.015625)"/>
     </defs>
     <use xlink:href="#DejaVuSans-4f"/>
     <use xlink:href="#DejaVuSans-6e" transform="translate(78.710938 0)"/>
     <use xlink:href="#DejaVuSans-65" transform="translate(142.089844 0)"/>
     <use xlink:href="#DejaVuSans-20" transform="translate(203.613281 0)"/>
     <use xlink:href="#DejaVuSans-6f" transform="translate(235.400391 0)"/>
     <use xlink:href="#DejaVuSans-72" transform="translate(296.582031 0)"/>
     <use xlink:href="#DejaVuSans-64" transform="translate(335.945312 0)"/>
     <use xlink:href="#DejaVuSans-69" transform="translate(399.421875 0)"/>
     <use xlink:href="#DejaVuSans-6e" transform="translate(427.205078 0)"/>
     <use xlink:href="#DejaVuSans-61" transform="translate(490.583984 0)"/>
     <use xlink:href="#DejaVuSans-74" transform="translate(551.863281 0)"/>
     <use xlink:href="#DejaVuSans-65" transform="translate(591.072266 0)"/>
     <use xlink:href="#DejaVuSans-2c" transform="translate(652.595703 0)"/>
     <use xlink:href="#DejaVuSans-20" transform="translate(684.382812 0)"/>
     <use xlink:href="#DejaVuSans-74" transform="translate(716.169922 0)"/>
     <use xlink:href="#DejaVuSans-77" transform="translate(755.378906 0)"/>
     <use xlink:href="#DejaVuSans-6f" transform="translate(837.166016 0)"/>
     <use xlink:href="#DejaVuSans-20" transform="translate(898.347656 0)"/>
     <use xlink:href="#DejaVuSans-69" transform="translate(930.134766 0)"/>
     <use xlink:href="#DejaVuSans-6e" transform="translate(957.917969 0)"/>
     <use xlink:href="#DejaVuSans-74" transform="translate(1021.296875 0)"/>
     <use xlink:href="#DejaVuSans-65" transform="translate(1060.505859 0)"/>
     <use xlink:href="#DejaVuSans-72" transform="translate(1122.029297 0)"/>
     <use xlink:href="#DejaVuSans-70" transform="translate(1163.142578 0)"/>
     <use xlink:href="#DejaVuSans-72" transform="translate(1226.619141 0)"/>
     <use xlink:href="#DejaVuSans-65" transform="translate(1265.482422 0)"/>
     <use xlink:href="#DejaVuSans-74" transform="translate(1327.005859 0)"/>
     <use xlink:href="#DejaVuSans-69" transform="translate(1366.214844 0)"/>
     <use xlink:href="#DejaVuSans-76" transform="translate(1393.998047 0)"/>
     <use xlink:href="#DejaVuSans-65" transform="translate(1453.177734 0)"/>
     <use xlink:href="#DejaVuSans-20" transform="translate(1514.701172 0)"/>
     <use xlink:href="#DejaVuSans-66" transform="translate(1546.488281 0)"/>
     <use xlink:href="#DejaVuSans-61" transform="translate(1581.693359 0)"/>
     <use xlink:href="#DejaVuSans-63" transform="translate(1642.972656 0)"/>
     <use xlink:href="#DejaVuSans-65" transform="translate(1697.953125 0)"/>
     <use xlink:href="#DejaVuSans-73" transform="translate(1759.476562 0)"/>
     <use xlink:href="#DejaVuSans-20" transform="translate(1811.576172 0)"/>
     <use xlink:href="#DejaVuSans-61" transform="translate(1843.363281 0)"/>
     <use xlink:href="#DejaVuSans-66" transform="translate(1904.642578 0)"/>
     <use xlink:href="#DejaVuSans-74" transform="translate(1938.097656 0)"/>
     <use xlink:href="#DejaVuSans-65" transform="translate(1977.306641 0)"/>
     <use xlink:href="#DejaVuSans-72" transform="translate(2038.830078 0)"/>
     <use xlink:href="#DejaVuSans-20" transform="translate(2079.943359 0)"/>
     <use xlink:href="#DejaVuSans-73" transform="translate(2111.730469 0)"/>
     <use xlink:href="#DejaVuSans-65" transform="translate(2163.830078 0)"/>
     <use xlink:href="#DejaVuSans-6c" transform="translate(2225.353516 0)"/>
     <use xlink:href="#DejaVuSans-65" transform="translate(2253.136719 0)"/>
     <use xlink:href="#DejaVuSans-63" transform="translate(2314.660156 0)"/>
     <use xlink:href="#DejaVuSans-74" transform="translate(2369.640625 0)"/>
     <use xlink:href="#DejaVuSans-69" transform="translate(2408.849609 0)"/>
     <use xlink:href="#DejaVuSans-6e" transform="translate(2436.632812 0)"/>
     <use xlink:href="#DejaVuSans-67" transform="translate(2500.011719 0)"/>
     <use xlink:href="#DejaVuSans-20" transform="translate(2563.488281 0)"/>
     <use xlink:href="#DejaVuSans-73" transform="translate(2595.275391 0)"/>
     <use xlink:href="#DejaVuSans-65" transform="translate(2647.375 0)"/>
     <use xlink:href="#DejaVuSans-63" transform="translate(2708.898438 0)"/>
     <use xlink:href="#DejaVuSans-74" transform="translate(2763.878906 0)"/>
     <use xlink:href="#DejaVuSans-6f" transform="translate(2803.087891 0)"/>
     <use xlink:href="#DejaVuSans-72" transform="translate(2864.269531 0)"/>
     <use xlink:href="#DejaVuSans-20" transform="translate(2905.382812 0)"/>
     <use xlink:href="#DejaVuSans-61" transform="translate(2937.169922 0)"/>
     <use xlink:href="#DejaVuSans-6e" transform="translate(2998.449219 0)"/>
     <use xlink:href="#DejaVuSans-64" transform="translate(3061.828125 0)"/>
     <use xlink:href="#DejaVuSans-20" transform="translate(3125.304688 0)"/>
     <use xlink:href="#DejaVuSans-73" transform="translate(3157.091797 0)"/>
     <use xlink:href="#DejaVuSans-63" transform="translate(3209.191406 0)"/>
     <use xlink:href="#DejaVuSans-61" transform="translate(3264.171875 0)"/>
     <use xlink:href="#DejaVuSans-6c" transform="translate(3325.451172 0)"/>
     <use xlink:href="#DejaVuSans-65" transform="translate(3353.234375 0)"/>
     <use xlink:href="#DejaVuSans-2e" transform="translate(3414.757812 0)"/>
    </g>
   </g>
  </g>
 </g>
 <defs>
  <clipPath id="p04eda2d779">
   <rect x="7.2" y="7.2" width="602.64" height="255.024"/>
  </clipPath>
 </defs>
</svg>
